<svg width="95" height="94" viewBox="0 0 95 94" fill="none" xmlns="http://www.w3.org/2000/svg">
<circle cx="47.5399" cy="46.6102" r="46.6102" fill="#192333"/>
<g clip-path="url(#clip0_3316_23960)">
<path d="M30.7883 65.1814L26.9648 23.3051H68.0218L64.2894 65.1814L47.5389 69.9152" fill="#264DE4"/>
<path d="M47.5391 26.6733V66.2738L61.1034 62.5413L64.2896 26.6733" fill="#2965F1"/>
<path d="M34.6123 31.8624H47.5393V36.9604H35.0675M35.5227 42.2405H47.5393V47.4295H35.9778M36.2509 49.9785H41.3489L41.7131 54.0751L47.5393 55.6227V60.9938L36.8882 58.0806" fill="#EBEBEB"/>
<path d="M47.5391 42.2405V47.4295H53.8205L53.1833 54.0751L47.5391 55.6227V60.9938L58.0081 58.0806L60.3751 31.8624H47.5391V36.9604H54.8219L54.3212 42.2405H47.5391Z" fill="white"/>
</g>
<defs>
<clipPath id="clip0_3316_23960">
<rect width="46.6102" height="46.6102" fill="white" transform="translate(24.2344 23.3051)"/>
</clipPath>
</defs>
</svg>
