<svg width="95" height="94" viewBox="0 0 95 94" fill="none" xmlns="http://www.w3.org/2000/svg">
<circle cx="47.4041" cy="47.3898" r="46.6102" fill="#192333"/>
<path d="M27.8653 49.4483C26.7285 48.3114 26.7285 46.4683 27.8653 45.3315L45.3462 27.8505C46.4831 26.7137 48.3262 26.7137 49.4631 27.8505L66.9439 45.3315C68.0808 46.4683 68.0808 48.3114 66.9439 49.4483L49.4631 66.9291C48.3262 68.066 46.4831 68.066 45.3462 66.9291L27.8653 49.4483Z" fill="#EE513B"/>
<path d="M41.7956 31.4572L40.0254 33.2274L44.5974 37.7994C44.4124 38.1962 44.3092 38.6387 44.3092 39.1054C44.3092 40.4303 45.1416 41.5608 46.3119 42.0022V53.1866C45.1416 53.6281 44.3092 54.7586 44.3092 56.0835C44.3092 57.7929 45.6949 59.1787 47.4044 59.1787C49.1138 59.1787 50.4996 57.7929 50.4996 56.0835C50.4996 54.8824 49.8154 53.8409 48.8155 53.3279V42.0175L53.1859 46.388C53.01 46.7767 52.9121 47.2083 52.9121 47.6628C52.9121 49.3722 54.2979 50.758 56.0073 50.758C57.7167 50.758 59.1025 49.3722 59.1025 47.6628C59.1025 45.9533 57.7167 44.5675 56.0073 44.5675C55.675 44.5675 55.3552 44.6198 55.0551 44.7167L50.3613 40.0229C50.4512 39.7331 50.4996 39.4248 50.4996 39.1054C50.4996 37.396 49.1138 36.0102 47.4044 36.0102C47.0849 36.0102 46.7769 36.0586 46.4869 36.1484L41.7956 31.4572Z" fill="white"/>
</svg>
