<svg width="94" height="94" viewBox="0 0 94 94" fill="none" xmlns="http://www.w3.org/2000/svg">
<circle cx="47.2537" cy="46.6102" r="46.6102" fill="#192333"/>
<g clip-path="url(#clip0_3316_23953)">
<path d="M30.4131 65.1814L26.6807 23.3051H67.7377L64.0052 65.1814L47.1636 69.9152" fill="#E34F26"/>
<path d="M47.2549 66.2738L60.8192 62.5413L64.0054 26.6733H47.2549" fill="#EF652A"/>
<path d="M47.2542 42.2405H40.4265L39.9713 36.9604H47.2542V31.8624H34.3271L35.6927 47.4295H47.2542V42.2405ZM47.1632 55.6227L41.4279 54.0751L41.0638 49.9785H35.9658L36.603 58.0806L47.1632 60.9938V55.6227Z" fill="#EBEBEB"/>
<path d="M47.1631 42.2405V47.4295H53.5356L52.8983 54.0751L47.1631 55.6227V60.9938L57.7232 58.0806L59.1798 42.2405H47.1631ZM47.1631 31.8624V36.9604H59.6349L60.0901 31.8624H47.1631Z" fill="white"/>
</g>
<defs>
<clipPath id="clip0_3316_23953">
<rect width="46.6102" height="46.6102" fill="white" transform="translate(23.9492 23.3051)"/>
</clipPath>
</defs>
</svg>
