<svg width="94" height="94" viewBox="0 0 94 94" fill="none" xmlns="http://www.w3.org/2000/svg">
<circle cx="46.6824" cy="46.6102" r="46.6102" fill="#192333"/>
<g clip-path="url(#clip0_3316_23943)">
<path d="M45.1557 23.3176C45.0555 23.3267 44.7365 23.3586 44.4495 23.3814C37.8293 23.9782 31.6283 27.5497 27.7008 33.0391C25.5138 36.0914 24.1151 39.5536 23.5865 43.2208C23.3997 44.5009 23.377 44.879 23.377 46.6147C23.377 48.3504 23.3997 48.7285 23.5865 50.0086C24.8532 58.7598 31.0815 66.1125 39.5288 68.8367C41.0414 69.3241 42.6361 69.6567 44.4495 69.8571C45.1557 69.9346 48.2084 69.9346 48.9146 69.8571C52.0447 69.5109 54.6964 68.7365 57.3117 67.4017C57.7127 67.1967 57.7901 67.142 57.7354 67.0965C57.699 67.0691 55.9904 64.7777 53.9401 62.0079L50.2131 56.974L45.543 50.0633C42.9733 46.2639 40.8592 43.157 40.841 43.157C40.8227 43.1525 40.8045 46.2229 40.7954 49.9721C40.7817 56.5367 40.7772 56.8009 40.6952 56.9558C40.5767 57.179 40.4856 57.2701 40.2942 57.3704C40.1484 57.4433 40.0208 57.4569 39.3328 57.4569H38.5446L38.335 57.3248C38.1983 57.2383 38.0981 57.1244 38.0298 56.9923L37.9341 56.7873L37.9432 47.6534L37.9569 38.5149L38.0981 38.3373C38.171 38.2416 38.3259 38.1186 38.4353 38.0594C38.6221 37.9683 38.695 37.9591 39.4832 37.9591C40.4127 37.9591 40.5676 37.9956 40.8091 38.2598C40.8774 38.3327 43.4061 42.1411 46.4314 46.7286C49.4568 51.316 53.5938 57.5799 55.6259 60.6549L59.3164 66.2446L59.5033 66.1216C61.1572 65.0465 62.9067 63.5158 64.2918 61.9214C67.2397 58.5366 69.1397 54.4093 69.7775 50.0086C69.9643 48.7285 69.9871 48.3504 69.9871 46.6147C69.9871 44.879 69.9643 44.5009 69.7775 43.2208C68.5109 34.4696 62.2825 27.1169 53.8353 24.3927C52.3454 23.9098 50.7599 23.5773 48.9829 23.3768C48.5455 23.3313 45.5339 23.2812 45.1557 23.3176ZM54.6964 37.4125C54.9151 37.5218 55.0928 37.7314 55.1566 37.95C55.1931 38.0685 55.2022 40.6014 55.1931 46.3095L55.1794 54.5004L53.7351 52.2864L52.2862 50.0724V44.1183C52.2862 40.2688 52.3044 38.1049 52.3318 38.0001C52.4047 37.745 52.5641 37.5446 52.7828 37.4261C52.9696 37.3305 53.038 37.3214 53.7533 37.3214C54.4276 37.3214 54.5461 37.3305 54.6964 37.4125Z" fill="white"/>
</g>
<defs>
<clipPath id="clip0_3316_23943">
<rect width="46.6102" height="46.6102" fill="white" transform="translate(23.377 23.3051)"/>
</clipPath>
</defs>
</svg>
