<svg width="94" height="94" viewBox="0 0 94 94" fill="none" xmlns="http://www.w3.org/2000/svg">
<circle cx="47.1102" cy="46.6102" r="46.6102" fill="#192333"/>
<path d="M51.012 46.575C51.012 44.4857 49.2651 42.7917 47.11 42.7917C44.9552 42.7917 43.208 44.4857 43.208 46.575C43.208 48.6646 44.9552 50.3585 47.11 50.3585C49.2651 50.3585 51.012 48.6646 51.012 46.575Z" fill="#53C1DE"/>
<path fill-rule="evenodd" clip-rule="evenodd" d="M59.782 39.5512C60.606 36.3046 61.6417 30.2842 57.9904 28.2431C54.3561 26.2109 49.6268 30.105 47.1295 32.4424C44.6395 30.1283 39.7773 26.2508 36.1291 28.2984C32.4963 30.3375 33.6165 36.2581 34.4588 39.525C31.07 40.4582 25.2607 42.4683 25.2607 46.5751C25.2607 50.6702 31.0639 52.8571 34.4327 53.7895C33.5873 57.0745 32.5231 62.9105 36.1606 64.945C39.8225 66.9922 44.6695 63.207 47.19 60.8441C49.7033 63.1952 54.3871 67.0052 58.0222 64.965C61.6685 62.9184 60.7188 56.9786 59.8765 53.6927C63.1421 52.7584 68.9578 50.6191 68.9578 46.5751C68.9578 42.5078 63.1174 40.4814 59.782 39.5512ZM59.368 51.9514C58.815 50.2539 58.0685 48.4488 57.1554 46.5841C58.027 44.7634 58.7445 42.9816 59.2821 41.295C61.7272 41.9824 67.0912 43.5533 67.0912 46.5751C67.0912 49.6253 61.9438 51.211 59.368 51.9514ZM57.0867 63.3986C54.3746 64.9207 50.3459 61.2772 48.4898 59.5458C49.7212 58.24 50.9517 56.722 52.1526 55.0363C54.2652 54.8546 56.2609 54.5575 58.0708 54.1519C58.6636 56.4761 59.8108 61.8696 57.0867 63.3986ZM37.0933 63.3769C34.3809 61.8604 35.6207 56.6526 36.2426 54.2328C38.0324 54.6168 40.0137 54.893 42.1313 55.0594C43.3401 56.7089 44.6063 58.225 45.8822 59.5528C44.3058 61.0314 39.8184 64.9003 37.0933 63.3769ZM27.1273 46.5751C27.1273 43.5135 32.4592 41.954 34.9601 41.2684C35.507 42.9928 36.2243 44.7959 37.0899 46.6192C36.213 48.4696 35.4855 50.3013 34.9336 52.0461C32.549 51.3842 27.1273 49.6385 27.1273 46.5751ZM37.0643 29.8648C39.7878 28.3363 44.0136 32.0588 45.8215 33.7343C44.5521 35.056 43.2976 36.5607 42.0991 38.2007C40.044 38.3854 38.0767 38.6819 36.2682 39.0793C35.5896 36.4444 34.3438 31.3917 37.0643 29.8648ZM53.488 40.1679C54.8822 40.3385 56.2181 40.5654 57.4723 40.8431C57.0958 42.0133 56.6265 43.2369 56.0737 44.4913C55.2724 43.0173 54.4123 41.5728 53.488 40.1679ZM47.1301 35.0277C47.9911 35.932 48.8534 36.9419 49.7017 38.0376C47.981 37.9586 46.2576 37.9583 44.537 38.0364C45.386 36.9509 46.2557 35.9425 47.1301 35.0277ZM38.1608 44.49C37.6172 43.24 37.1521 42.0109 36.7723 40.824C38.0191 40.5535 39.3487 40.3324 40.7339 40.1646C39.8069 41.5664 38.9483 43.0103 38.1608 44.49ZM40.7736 53.1148C39.3427 52.9599 37.993 52.7501 36.7466 52.487C37.1324 51.2792 37.6077 50.0237 38.163 48.7467C38.9612 50.2418 39.833 51.6997 40.7736 53.1148ZM47.1818 58.2503C46.2971 57.3247 45.4145 56.3009 44.5527 55.1997C46.2831 55.2655 48.0168 55.2657 49.7471 55.1908C48.8962 56.3121 48.0369 57.3374 47.1818 58.2503ZM56.0915 48.6817C56.6756 49.9725 57.1679 51.2212 57.559 52.4086C56.2919 52.689 54.924 52.9148 53.4828 53.0824C54.4139 51.6509 55.2877 50.184 56.0915 48.6817ZM51.1109 53.3018C48.464 53.4852 45.8007 53.4831 43.1529 53.3168C41.6484 51.186 40.3091 48.9451 39.153 46.6186C40.3036 44.297 41.6331 42.0604 43.1305 39.933C45.7801 39.7388 48.4461 39.7382 51.0957 39.9342C52.5803 42.0615 53.9078 44.2922 55.085 46.5929C53.9218 48.9133 52.5852 51.1544 51.1109 53.3018ZM57.0581 29.811C59.7823 31.3345 58.5697 36.7452 57.9745 39.0981C56.1617 38.6924 54.193 38.3906 52.1319 38.203C50.9311 36.5454 49.6871 35.038 48.4382 33.7334C50.2693 32.0218 54.3602 28.3024 57.0581 29.811Z" fill="#53C1DE"/>
</svg>
