<svg width="94" height="94" viewBox="0 0 94 94" fill="none" xmlns="http://www.w3.org/2000/svg">
<circle cx="46.8328" cy="47.3898" r="46.6102" fill="#192333"/>
<path d="M36.6364 44.0397C37.9959 38.6019 41.3945 35.8829 46.8324 35.8829C54.9892 35.8829 56.0088 42.0005 60.0871 43.0201C62.8061 43.6998 65.1851 42.6802 67.2243 39.9613C65.8649 45.3992 62.4662 48.1181 57.0284 48.1181C48.8716 48.1181 47.852 42.0005 43.7736 40.9809C41.0547 40.3012 38.6756 41.3208 36.6364 44.0397ZM26.4404 56.2749C27.7999 50.837 31.1986 48.1181 36.6364 48.1181C44.7932 48.1181 45.8128 54.2357 49.8912 55.2553C52.6101 55.935 54.9892 54.9154 57.0284 52.1965C55.6689 57.6343 52.2702 60.3533 46.8324 60.3533C38.6756 60.3533 37.656 54.2357 33.5776 53.2161C30.8587 52.5364 28.4796 53.556 26.4404 56.2749Z" fill="#44A8B3"/>
</svg>
