<svg width="94" height="94" viewBox="0 0 94 94" fill="none" xmlns="http://www.w3.org/2000/svg">
<circle cx="46.9686" cy="46.6102" r="46.6102" fill="#192333"/>
<g clip-path="url(#clip0_3316_23948)">
<path d="M63.2817 23.3051H30.6546C26.7933 23.3051 23.6631 26.4353 23.6631 30.2966V62.9237C23.6631 66.785 26.7933 69.9152 30.6546 69.9152H63.2817C67.143 69.9152 70.2733 66.785 70.2733 62.9237V30.2966C70.2733 26.4353 67.143 23.3051 63.2817 23.3051Z" fill="#3178C6"/>
<path d="M44.8744 49.1591H50.7006V45.4267H34.4053V49.1591H40.2315V65.8186H44.8744V49.1591ZM52.5213 64.9083C53.2587 65.2906 54.16 65.5728 55.1614 65.764C56.1628 65.9552 57.2552 66.0462 58.3476 66.0462C59.44 66.0462 60.4414 65.9461 61.4428 65.7367C62.4442 65.5273 63.2635 65.1814 63.9918 64.7353C64.7292 64.2528 65.3573 63.6429 65.7215 62.8236C66.0856 62.0043 66.3678 61.0939 66.3678 59.9104C66.3678 59.082 66.2404 58.3628 65.9946 57.7256C65.7488 57.0883 65.3938 56.5421 64.9022 56.0869C64.4379 55.6045 63.9008 55.1766 63.2635 54.8124C62.6263 54.4483 61.898 54.066 61.0787 53.72C60.4778 53.4742 59.9862 53.2375 59.44 53.0008C58.9666 52.7642 58.557 52.5275 58.2566 52.2908C57.9197 52.045 57.6648 51.7901 57.4828 51.5261C57.3007 51.253 57.2097 50.9525 57.2097 50.6157C57.2097 50.3062 57.2907 50.024 57.4555 49.7691C57.6202 49.5142 57.8469 49.3048 58.1382 49.1227C58.4295 48.9407 58.7937 48.8041 59.2307 48.704C59.6585 48.6038 60.1319 48.5583 60.6872 48.5583C61.0696 48.5583 61.4701 48.5865 61.8707 48.6439C62.2894 48.7012 62.7173 48.7895 63.1452 48.9079C63.573 49.0262 63.9918 49.1719 64.4197 49.354C64.8202 49.536 65.1935 49.7454 65.5121 49.9821V45.7034C64.8202 45.4394 64.0555 45.2392 63.2362 45.1117C62.4169 44.9843 61.5065 44.9205 60.4141 44.9205C59.3217 44.9205 58.3203 45.0389 57.3189 45.2665C56.3175 45.4941 55.4982 45.8582 54.7699 46.3589C54.0325 46.8505 53.4954 47.4513 53.0402 48.2706C52.6124 49.0353 52.403 49.9093 52.403 51.0017C52.403 52.3672 52.7944 53.5507 53.5865 54.4611C54.3694 55.4624 55.5892 56.1907 57.1368 56.919C57.765 57.1739 58.3203 57.4288 58.8665 57.6746C59.4127 57.9204 59.8679 58.1753 60.232 58.4393C60.6235 58.7033 60.933 58.9946 61.1424 59.3041C61.37 59.6137 61.4883 59.9778 61.4883 60.3966C61.4883 60.6879 61.4173 60.961 61.2789 61.2159C61.1406 61.4708 60.9239 61.6893 60.6326 61.8713C60.3413 62.0534 59.9862 62.1991 59.5402 62.3083C59.1123 62.4084 58.6298 62.4631 57.9926 62.4631C56.9912 62.4631 55.9898 62.2901 55.0794 61.9442C54.078 61.5982 53.1677 61.0793 52.5213 60.5386V64.9083Z" fill="white"/>
</g>
<defs>
<clipPath id="clip0_3316_23948">
<rect width="46.6102" height="46.6102" fill="white" transform="translate(23.6631 23.3051)"/>
</clipPath>
</defs>
</svg>
