<svg width="1440" height="106" viewBox="0 0 1440 106" fill="none" xmlns="http://www.w3.org/2000/svg">
<rect width="1440" height="106" fill="#0252CD"/>
<path d="M512.236 41.664V64H507.756V54.496H498.188V64H493.708V41.664H498.188V50.848H507.756V41.664H512.236ZM520.966 41.664V64H516.486V41.664H520.966ZM540.784 48.384C540.272 47.4453 539.568 46.7307 538.672 46.24C537.776 45.7493 536.73 45.504 535.536 45.504C534.213 45.504 533.04 45.8027 532.016 46.4C530.992 46.9973 530.192 47.8507 529.616 48.96C529.04 50.0693 528.752 51.3493 528.752 52.8C528.752 54.2933 529.04 55.5947 529.616 56.704C530.213 57.8133 531.034 58.6667 532.08 59.264C533.125 59.8613 534.341 60.16 535.728 60.16C537.434 60.16 538.832 59.712 539.92 58.816C541.008 57.8987 541.722 56.6293 542.064 55.008H534.384V51.584H546.48V55.488C546.181 57.0453 545.541 58.4853 544.56 59.808C543.578 61.1307 542.309 62.1973 540.752 63.008C539.216 63.7973 537.488 64.192 535.568 64.192C533.413 64.192 531.461 63.712 529.712 62.752C527.984 61.7707 526.618 60.416 525.616 58.688C524.634 56.96 524.144 54.9973 524.144 52.8C524.144 50.6027 524.634 48.64 525.616 46.912C526.618 45.1627 527.984 43.808 529.712 42.848C531.461 41.8667 533.402 41.376 535.536 41.376C538.053 41.376 540.24 41.9947 542.096 43.232C543.952 44.448 545.232 46.1653 545.936 48.384H540.784ZM568.162 41.664V64H563.682V54.496H554.114V64H549.634V41.664H554.114V50.848H563.682V41.664H568.162ZM586.044 50.688V54.464H572.476V50.688H586.044ZM604.7 41.664V45.28H595.388V51.008H602.524V54.56H595.388V64H590.908V41.664H604.7ZM612.197 41.664V64H607.717V41.664H612.197ZM624.271 41.664C626.618 41.664 628.676 42.1227 630.447 43.04C632.239 43.9573 633.615 45.2693 634.575 46.976C635.556 48.6613 636.047 50.624 636.047 52.864C636.047 55.104 635.556 57.0667 634.575 58.752C633.615 60.416 632.239 61.7067 630.447 62.624C628.676 63.5413 626.618 64 624.271 64H616.463V41.664H624.271ZM624.111 60.192C626.458 60.192 628.271 59.552 629.551 58.272C630.831 56.992 631.471 55.1893 631.471 52.864C631.471 50.5387 630.831 48.7253 629.551 47.424C628.271 46.1013 626.458 45.44 624.111 45.44H620.943V60.192H624.111ZM643.721 45.28V50.88H651.241V54.432H643.721V60.352H652.201V64H639.241V41.632H652.201V45.28H643.721ZM660.592 60.448H667.952V64H656.112V41.664H660.592V60.448ZM675.119 41.664V64H670.639V41.664H675.119ZM694.586 41.664V45.28H688.634V64H684.154V45.28H678.202V41.664H694.586ZM715.454 41.664L707.902 56.224V64H703.422V56.224L695.838 41.664H700.894L705.694 51.872L710.462 41.664H715.454ZM739.135 41.664V45.28H729.823V51.008H736.959V54.56H729.823V64H725.343V41.664H739.135ZM746.632 41.664V64H742.152V41.664H746.632ZM766.45 48.384C765.938 47.4453 765.234 46.7307 764.338 46.24C763.442 45.7493 762.397 45.504 761.202 45.504C759.879 45.504 758.706 45.8027 757.682 46.4C756.658 46.9973 755.858 47.8507 755.282 48.96C754.706 50.0693 754.418 51.3493 754.418 52.8C754.418 54.2933 754.706 55.5947 755.282 56.704C755.879 57.8133 756.701 58.6667 757.746 59.264C758.791 59.8613 760.007 60.16 761.394 60.16C763.101 60.16 764.498 59.712 765.586 58.816C766.674 57.8987 767.389 56.6293 767.73 55.008H760.05V51.584H772.146V55.488C771.847 57.0453 771.207 58.4853 770.226 59.808C769.245 61.1307 767.975 62.1973 766.418 63.008C764.882 63.7973 763.154 64.192 761.234 64.192C759.079 64.192 757.127 63.712 755.378 62.752C753.65 61.7707 752.285 60.416 751.282 58.688C750.301 56.96 749.81 54.9973 749.81 52.8C749.81 50.6027 750.301 48.64 751.282 46.912C752.285 45.1627 753.65 43.808 755.378 42.848C757.127 41.8667 759.069 41.376 761.202 41.376C763.719 41.376 765.906 41.9947 767.762 43.232C769.618 44.448 770.898 46.1653 771.602 48.384H766.45ZM799.653 41.664V64H795.173V49.472L789.188 64H785.796L779.78 49.472V64H775.3V41.664H780.388L787.492 58.272L794.597 41.664H799.653ZM817.618 59.744H808.722L807.25 64H802.546L810.578 41.632H815.794L823.826 64H819.09L817.618 59.744ZM816.402 56.16L813.17 46.816L809.938 56.16H816.402ZM841.941 41.664C844.288 41.664 846.346 42.1227 848.117 43.04C849.909 43.9573 851.285 45.2693 852.245 46.976C853.226 48.6613 853.717 50.624 853.717 52.864C853.717 55.104 853.226 57.0667 852.245 58.752C851.285 60.416 849.909 61.7067 848.117 62.624C846.346 63.5413 844.288 64 841.941 64H834.133V41.664H841.941ZM841.781 60.192C844.128 60.192 845.941 59.552 847.221 58.272C848.501 56.992 849.141 55.1893 849.141 52.864C849.141 50.5387 848.501 48.7253 847.221 47.424C845.941 46.1013 844.128 45.44 841.781 45.44H838.613V60.192H841.781ZM861.391 45.28V50.88H868.911V54.432H861.391V60.352H869.871V64H856.911V41.632H869.871V45.28H861.391ZM881.494 64.224C879.936 64.224 878.528 63.9573 877.27 63.424C876.032 62.8907 875.051 62.1227 874.326 61.12C873.6 60.1173 873.227 58.9333 873.206 57.568H878.006C878.07 58.4853 878.39 59.2107 878.966 59.744C879.563 60.2773 880.374 60.544 881.398 60.544C882.443 60.544 883.264 60.2987 883.862 59.808C884.459 59.296 884.758 58.6347 884.758 57.824C884.758 57.1627 884.555 56.6187 884.15 56.192C883.744 55.7653 883.232 55.4347 882.614 55.2C882.016 54.944 881.184 54.6667 880.118 54.368C878.667 53.9413 877.483 53.5253 876.566 53.12C875.67 52.6933 874.891 52.064 874.23 51.232C873.59 50.3787 873.27 49.248 873.27 47.84C873.27 46.5173 873.6 45.3653 874.262 44.384C874.923 43.4027 875.851 42.656 877.046 42.144C878.24 41.6107 879.606 41.344 881.142 41.344C883.446 41.344 885.312 41.9093 886.742 43.04C888.192 44.1493 888.992 45.7067 889.142 47.712H884.214C884.171 46.944 883.84 46.3147 883.222 45.824C882.624 45.312 881.824 45.056 880.822 45.056C879.947 45.056 879.243 45.28 878.71 45.728C878.198 46.176 877.942 46.8267 877.942 47.68C877.942 48.2773 878.134 48.7787 878.518 49.184C878.923 49.568 879.414 49.888 879.99 50.144C880.587 50.3787 881.419 50.656 882.486 50.976C883.936 51.4027 885.12 51.8293 886.038 52.256C886.955 52.6827 887.744 53.3227 888.406 54.176C889.067 55.0293 889.398 56.1493 889.398 57.536C889.398 58.7307 889.088 59.84 888.47 60.864C887.851 61.888 886.944 62.7093 885.75 63.328C884.555 63.9253 883.136 64.224 881.494 64.224ZM897.602 41.664V64H893.122V41.664H897.602ZM917.42 48.384C916.908 47.4453 916.204 46.7307 915.308 46.24C914.412 45.7493 913.367 45.504 912.172 45.504C910.849 45.504 909.676 45.8027 908.652 46.4C907.628 46.9973 906.828 47.8507 906.252 48.96C905.676 50.0693 905.388 51.3493 905.388 52.8C905.388 54.2933 905.676 55.5947 906.252 56.704C906.849 57.8133 907.671 58.6667 908.716 59.264C909.761 59.8613 910.977 60.16 912.364 60.16C914.071 60.16 915.468 59.712 916.556 58.816C917.644 57.8987 918.359 56.6293 918.7 55.008H911.02V51.584H923.116V55.488C922.817 57.0453 922.177 58.4853 921.196 59.808C920.215 61.1307 918.945 62.1973 917.388 63.008C915.852 63.7973 914.124 64.192 912.204 64.192C910.049 64.192 908.097 63.712 906.348 62.752C904.62 61.7707 903.255 60.416 902.252 58.688C901.271 56.96 900.78 54.9973 900.78 52.8C900.78 50.6027 901.271 48.64 902.252 46.912C903.255 45.1627 904.62 43.808 906.348 42.848C908.097 41.8667 910.039 41.376 912.172 41.376C914.689 41.376 916.876 41.9947 918.732 43.232C920.588 44.448 921.868 46.1653 922.572 48.384H917.42ZM945.375 64H940.895L930.751 48.672V64H926.271V41.632H930.751L940.895 56.992V41.632H945.375V64Z" fill="white"/>
</svg>
