<svg width="103" height="100" viewBox="0 0 103 100" fill="none" xmlns="http://www.w3.org/2000/svg">
<circle cx="50.165" cy="50" r="50" fill="#192333"/>
<g clip-path="url(#clip0_3316_24067)">
<path d="M32.1656 36.4015C32.1656 34.5825 33.6402 33.108 35.4591 33.108H75.3385V31.897C75.3385 30.078 73.864 28.6035 72.045 28.6035H30.9546C29.1357 28.6035 27.6611 30.078 27.6611 31.897V58.6623C27.6611 60.4812 29.1357 61.9558 30.9546 61.9558H32.1656V36.4015Z" fill="#333C4A"/>
<path d="M75.3386 56.7818H27.6613C27.0393 56.7818 26.5352 56.2772 26.5352 55.6557C26.5352 55.0337 27.0393 54.5295 27.6613 54.5295H75.3386C75.9607 54.5295 76.4648 55.0337 76.4648 55.6557C76.4648 56.2772 75.9607 56.7818 75.3386 56.7818Z" fill="#1AE5BE"/>
<path d="M72.0452 27.4775H30.9548C28.5178 27.4775 26.5 29.4601 26.5 31.8971V58.6624C26.5 61.0994 28.5178 63.0631 30.9548 63.0631H44.0676V71.3965C44.0676 72.0185 44.5717 72.5226 45.1937 72.5226C45.8157 72.5226 46.3198 72.0185 46.3198 71.3965V63.0631H56.6802V71.3965C56.6802 72.0185 57.1843 72.5226 57.8063 72.5226C58.4283 72.5226 58.9324 72.0185 58.9324 71.3965V63.0631H72.0452C74.4822 63.0631 76.5 61.0994 76.5 58.6624V31.8971C76.5 29.4601 74.4822 27.4775 72.0452 27.4775ZM74.1351 58.6435C74.1351 59.8405 73.1647 60.8109 71.9678 60.8109H30.9196C29.7227 60.8109 28.7523 59.8405 28.7523 58.6435V31.8971C28.7523 30.7002 29.7227 29.7298 30.9196 29.7298H71.9678C73.1647 29.7298 74.1351 30.7002 74.1351 31.8971V58.6435Z" fill="#648AFF"/>
<path d="M62.2153 72.5225H41.3771C40.7555 72.5225 40.251 72.0184 40.251 71.3964C40.251 70.7744 40.7555 70.2703 41.3771 70.2703H62.2153C62.8373 70.2703 63.3414 70.7744 63.3414 71.3964C63.3414 72.0184 62.8373 72.5225 62.2153 72.5225Z" fill="#1AE5BE"/>
</g>
<defs>
<clipPath id="clip0_3316_24067">
<rect width="50" height="50" fill="white" transform="translate(26.5 25)"/>
</clipPath>
</defs>
</svg>
