<svg width="103" height="100" viewBox="0 0 103 100" fill="none" xmlns="http://www.w3.org/2000/svg">
<circle cx="50.335" cy="50" r="50" fill="#192333"/>
<g clip-path="url(#clip0_3316_24045)">
<path d="M56.9445 61.7768L71.5685 48.9636L69.5642 46.6746L54.6666 59.7267L53.4707 65.3761L56.2153 65.2168L56.9445 61.7768Z" fill="#333C4A"/>
<path d="M41.9329 27.2328L51.0218 27.2439V31.7997L48.0716 31.777H37.7757C35.2593 31.7761 33.219 33.8164 33.2199 36.3328V72.6311C30.7035 72.632 28.6632 70.5917 28.6641 68.0753V31.777C28.6632 29.2606 30.7035 27.2203 33.2199 27.2212L41.9329 27.2328Z" fill="#333C4A"/>
<path d="M63.6988 38.4282V38.4513H55.9308C53.4144 38.4518 51.3746 36.4119 51.375 33.8955V26.1506H51.3981L63.6988 38.4282Z" fill="#333C4A"/>
<path d="M52.2064 25.3533C52.016 25.1655 51.7664 25.0489 51.5003 25.0227L51.2499 25H33.2202C30.0756 25.0013 27.5267 27.5502 27.5254 30.6948V69.3052C27.5267 72.4498 30.0756 74.9987 33.2202 75H59.1429C62.2875 74.9987 64.8363 72.4498 64.8376 69.3052V67.2667H62.5597V69.3052C62.554 71.1899 61.0275 72.7168 59.1429 72.7221H33.2202C31.3355 72.7168 29.8086 71.1899 29.8033 69.3052V30.6948C29.8086 28.8102 31.3355 27.2832 33.2202 27.2779H50.2359V33.9065C50.2373 37.0511 52.7861 39.6004 55.9307 39.6013H62.5597V45.6377H64.8376V38.4396C64.8354 38.1375 64.7171 37.8484 64.5071 37.6308L52.2064 25.3533ZM52.5138 33.9065V28.884L60.9652 37.3234H55.9307C54.0461 37.318 52.5196 35.7916 52.5138 33.9065Z" fill="#648AFF"/>
<path d="M70.4291 45.9225C70.2315 45.6934 69.9499 45.5532 69.6478 45.5341C69.3457 45.5145 69.0485 45.6177 68.8234 45.8202L53.9143 58.8723C53.7256 59.0342 53.597 59.2549 53.5499 59.4987L52.354 65.1365C52.2859 65.4844 52.378 65.8439 52.6045 66.1162C52.822 66.368 53.1375 66.5131 53.4702 66.5148H53.5383L59.3812 66.1847C59.6348 66.1705 59.876 66.0699 60.0646 65.9L74.9738 52.8474C75.2024 52.6476 75.3421 52.3647 75.3608 52.0617C75.384 51.7605 75.2807 51.4633 75.0761 51.2413L70.4291 45.9225ZM58.8576 63.9295L54.8824 64.1573L55.6912 60.3302L69.4498 48.28L72.6046 51.8793L58.8576 63.9295Z" fill="#1AE5BE"/>
</g>
<defs>
<clipPath id="clip0_3316_24045">
<rect width="50" height="50" fill="white" transform="translate(26.5 25)"/>
</clipPath>
</defs>
</svg>
