<svg width="103" height="100" viewBox="0 0 103 100" fill="none" xmlns="http://www.w3.org/2000/svg">
<circle cx="50" cy="50" r="50" fill="#192333"/>
<g clip-path="url(#clip0_3316_24029)">
<path d="M71.6118 74.875H31.7471C31.0566 74.875 30.4971 74.3154 30.4971 73.625C30.4971 72.9346 31.0566 72.375 31.7471 72.375H71.6118C72.3023 72.375 72.8618 72.9346 72.8618 73.625C72.8618 74.3154 72.3023 74.875 71.6118 74.875Z" fill="#1AE5BE"/>
<path d="M36.73 54.5718C36.8555 54.147 37.0855 53.7603 37.3989 53.4468L59.6289 31.2168C61.7031 29.1426 65.0664 29.1426 67.1407 31.2168L67.9995 32.0757C67.895 30.8272 67.3506 29.6567 66.4639 28.772L65.3731 27.6812C63.2989 25.6069 59.9356 25.6069 57.8613 27.6812L35.6304 49.9107C35.3174 50.2241 35.0874 50.6109 34.9614 51.0357L31.624 62.336L34.6855 61.4917L36.73 54.5718Z" fill="#333C4A"/>
<path d="M66.2575 26.7969C63.695 24.2344 59.5407 24.2344 56.9782 26.7969L34.7477 49.0269C34.6544 49.1211 34.5661 49.2197 34.483 49.3228C34.4425 49.3545 34.4035 49.3882 34.3668 49.4243C34.2101 49.5811 34.0983 49.7769 34.0426 49.9917C33.9279 50.2124 33.8346 50.4439 33.7638 50.6821L30.4264 61.9824C30.2975 62.4175 30.4152 62.8882 30.733 63.2124C31.0514 63.5362 31.5197 63.6621 31.9577 63.5415L43.4132 60.3828C43.6413 60.3199 43.8629 60.2359 44.0758 60.1328C44.3976 60.0738 44.6828 59.8897 44.8688 59.6201C44.9611 59.5435 45.0514 59.4639 45.1364 59.3789L67.3488 37.167C69.9074 34.603 69.9074 30.4517 67.3488 27.8877L66.2575 26.7969ZM54.9377 32.3726L61.7726 39.2075L59.0255 41.9546L52.1906 35.1196L54.9377 32.3726ZM35.7975 52.6226L41.4938 58.3184L33.4611 60.5337L35.7975 52.6226ZM43.8454 57.1348L37.0104 50.2998L50.423 36.8877L57.258 43.7227L43.8454 57.1348ZM65.5812 35.3999L63.5412 37.4399L56.7062 30.605L58.7462 28.5649C60.3322 26.9785 62.904 26.9785 64.4904 28.5649L65.5812 29.6558C67.1652 31.2427 67.1652 33.8125 65.5812 35.3999Z" fill="#648AFF"/>
</g>
<defs>
<clipPath id="clip0_3316_24029">
<rect width="50" height="50" fill="white" transform="translate(26.5 25)"/>
</clipPath>
</defs>
</svg>
