<svg width="104" height="100" viewBox="0 0 104 100" fill="none" xmlns="http://www.w3.org/2000/svg">
<circle cx="50.3545" cy="50" r="50" fill="#192333"/>
<path d="M32.3857 69.9219L28.2842 25H72.3271L68.3232 69.9219L50.3545 75" fill="#778295"/>
<path d="M50.3545 28.6133V71.0938L64.9053 67.0898L68.3232 28.6133" fill="#778295"/>
<path d="M36.4873 34.1797H50.3545V39.6484H36.9756M37.4639 45.3125H50.3545V50.8789H37.9521M38.2451 53.6133H43.7139L44.1045 58.0078L50.3545 59.668V65.4297L38.9287 62.3047" fill="white"/>
<path d="M50.3545 45.3125V50.8789H57.0928L56.4092 58.0078L50.3545 59.668V65.4297L61.585 62.3047L64.124 34.1797H50.3545V39.6484H58.167L57.6299 45.3125H50.3545Z" fill="white"/>
</svg>
