<svg width="324" height="239" viewBox="0 0 324 239" fill="none" xmlns="http://www.w3.org/2000/svg">
<rect y="95" width="156" height="15" fill="#FFBE62"/>
<path d="M13.774 164.126C13.774 165.17 13.414 166.04 12.694 166.736C11.986 167.42 10.9 167.762 9.436 167.762H7.024V173H5.386V160.454H9.436C10.852 160.454 11.926 160.796 12.658 161.48C13.402 162.164 13.774 163.046 13.774 164.126ZM9.436 166.412C10.348 166.412 11.02 166.214 11.452 165.818C11.884 165.422 12.1 164.858 12.1 164.126C12.1 162.578 11.212 161.804 9.436 161.804H7.024V166.412H9.436ZM17.4478 164.738C17.7358 164.174 18.1438 163.736 18.6718 163.424C19.2118 163.112 19.8658 162.956 20.6338 162.956V164.648H20.2018C18.3658 164.648 17.4478 165.644 17.4478 167.636V173H15.8098V163.136H17.4478V164.738ZM26.8267 173.162C25.9027 173.162 25.0627 172.952 24.3067 172.532C23.5627 172.112 22.9747 171.518 22.5427 170.75C22.1227 169.97 21.9127 169.07 21.9127 168.05C21.9127 167.042 22.1287 166.154 22.5607 165.386C23.0047 164.606 23.6047 164.012 24.3607 163.604C25.1167 163.184 25.9627 162.974 26.8987 162.974C27.8347 162.974 28.6807 163.184 29.4367 163.604C30.1927 164.012 30.7867 164.6 31.2187 165.368C31.6627 166.136 31.8847 167.03 31.8847 168.05C31.8847 169.07 31.6567 169.97 31.2007 170.75C30.7567 171.518 30.1507 172.112 29.3827 172.532C28.6147 172.952 27.7627 173.162 26.8267 173.162ZM26.8267 171.722C27.4147 171.722 27.9667 171.584 28.4827 171.308C28.9987 171.032 29.4127 170.618 29.7247 170.066C30.0487 169.514 30.2107 168.842 30.2107 168.05C30.2107 167.258 30.0547 166.586 29.7427 166.034C29.4307 165.482 29.0227 165.074 28.5187 164.81C28.0147 164.534 27.4687 164.396 26.8807 164.396C26.2807 164.396 25.7287 164.534 25.2247 164.81C24.7327 165.074 24.3367 165.482 24.0367 166.034C23.7367 166.586 23.5867 167.258 23.5867 168.05C23.5867 168.854 23.7307 169.532 24.0187 170.084C24.3187 170.636 24.7147 171.05 25.2067 171.326C25.6987 171.59 26.2387 171.722 26.8267 171.722ZM38.1063 162.974C38.9583 162.974 39.7023 163.16 40.3383 163.532C40.9863 163.904 41.4663 164.372 41.7783 164.936V163.136H43.4343V173.216C43.4343 174.116 43.2423 174.914 42.8583 175.61C42.4743 176.318 41.9223 176.87 41.2023 177.266C40.4943 177.662 39.6663 177.86 38.7183 177.86C37.4223 177.86 36.3423 177.554 35.4783 176.942C34.6143 176.33 34.1043 175.496 33.9483 174.44H35.5683C35.7483 175.04 36.1203 175.52 36.6843 175.88C37.2483 176.252 37.9263 176.438 38.7183 176.438C39.6183 176.438 40.3503 176.156 40.9143 175.592C41.4903 175.028 41.7783 174.236 41.7783 173.216V171.146C41.4543 171.722 40.9743 172.202 40.3383 172.586C39.7023 172.97 38.9583 173.162 38.1063 173.162C37.2303 173.162 36.4323 172.946 35.7123 172.514C35.0043 172.082 34.4463 171.476 34.0383 170.696C33.6303 169.916 33.4263 169.028 33.4263 168.032C33.4263 167.024 33.6303 166.142 34.0383 165.386C34.4463 164.618 35.0043 164.024 35.7123 163.604C36.4323 163.184 37.2303 162.974 38.1063 162.974ZM41.7783 168.05C41.7783 167.306 41.6283 166.658 41.3283 166.106C41.0283 165.554 40.6203 165.134 40.1043 164.846C39.6003 164.546 39.0423 164.396 38.4303 164.396C37.8183 164.396 37.2603 164.54 36.7563 164.828C36.2523 165.116 35.8503 165.536 35.5503 166.088C35.2503 166.64 35.1003 167.288 35.1003 168.032C35.1003 168.788 35.2503 169.448 35.5503 170.012C35.8503 170.564 36.2523 170.99 36.7563 171.29C37.2603 171.578 37.8183 171.722 38.4303 171.722C39.0423 171.722 39.6003 171.578 40.1043 171.29C40.6203 170.99 41.0283 170.564 41.3283 170.012C41.6283 169.448 41.7783 168.794 41.7783 168.05ZM47.8404 164.738C48.1284 164.174 48.5364 163.736 49.0644 163.424C49.6044 163.112 50.2584 162.956 51.0264 162.956V164.648H50.5944C48.7584 164.648 47.8404 165.644 47.8404 167.636V173H46.2024V163.136H47.8404V164.738ZM61.9173 167.69C61.9173 168.002 61.8993 168.332 61.8633 168.68H53.9793C54.0393 169.652 54.3693 170.414 54.9693 170.966C55.5813 171.506 56.3193 171.776 57.1833 171.776C57.8913 171.776 58.4793 171.614 58.9473 171.29C59.4273 170.954 59.7633 170.51 59.9553 169.958H61.7193C61.4553 170.906 60.9273 171.68 60.1353 172.28C59.3433 172.868 58.3593 173.162 57.1833 173.162C56.2473 173.162 55.4073 172.952 54.6633 172.532C53.9313 172.112 53.3553 171.518 52.9353 170.75C52.5153 169.97 52.3053 169.07 52.3053 168.05C52.3053 167.03 52.5093 166.136 52.9173 165.368C53.3253 164.6 53.8953 164.012 54.6273 163.604C55.3713 163.184 56.2233 162.974 57.1833 162.974C58.1193 162.974 58.9473 163.178 59.6673 163.586C60.3873 163.994 60.9393 164.558 61.3233 165.278C61.7193 165.986 61.9173 166.79 61.9173 167.69ZM60.2253 167.348C60.2253 166.724 60.0873 166.19 59.8113 165.746C59.5353 165.29 59.1573 164.948 58.6773 164.72C58.2093 164.48 57.6873 164.36 57.1113 164.36C56.2833 164.36 55.5753 164.624 54.9873 165.152C54.4113 165.68 54.0813 166.412 53.9973 167.348H60.2253ZM67.5714 173.162C66.8154 173.162 66.1374 173.036 65.5374 172.784C64.9374 172.52 64.4634 172.16 64.1154 171.704C63.7674 171.236 63.5754 170.702 63.5394 170.102H65.2314C65.2794 170.594 65.5074 170.996 65.9154 171.308C66.3354 171.62 66.8814 171.776 67.5534 171.776C68.1774 171.776 68.6694 171.638 69.0294 171.362C69.3894 171.086 69.5694 170.738 69.5694 170.318C69.5694 169.886 69.3774 169.568 68.9934 169.364C68.6094 169.148 68.0154 168.938 67.2114 168.734C66.4794 168.542 65.8794 168.35 65.4114 168.158C64.9554 167.954 64.5594 167.66 64.2234 167.276C63.8994 166.88 63.7374 166.364 63.7374 165.728C63.7374 165.224 63.8874 164.762 64.1874 164.342C64.4874 163.922 64.9134 163.592 65.4654 163.352C66.0174 163.1 66.6474 162.974 67.3554 162.974C68.4474 162.974 69.3294 163.25 70.0014 163.802C70.6734 164.354 71.0334 165.11 71.0814 166.07H69.4434C69.4074 165.554 69.1974 165.14 68.8134 164.828C68.4414 164.516 67.9374 164.36 67.3014 164.36C66.7134 164.36 66.2454 164.486 65.8974 164.738C65.5494 164.99 65.3754 165.32 65.3754 165.728C65.3754 166.052 65.4774 166.322 65.6814 166.538C65.8974 166.742 66.1614 166.91 66.4734 167.042C66.7974 167.162 67.2414 167.3 67.8054 167.456C68.5134 167.648 69.0894 167.84 69.5334 168.032C69.9774 168.212 70.3554 168.488 70.6674 168.86C70.9914 169.232 71.1594 169.718 71.1714 170.318C71.1714 170.858 71.0214 171.344 70.7214 171.776C70.4214 172.208 69.9954 172.55 69.4434 172.802C68.9034 173.042 68.2794 173.162 67.5714 173.162ZM76.9757 173.162C76.2197 173.162 75.5417 173.036 74.9417 172.784C74.3417 172.52 73.8677 172.16 73.5197 171.704C73.1717 171.236 72.9797 170.702 72.9437 170.102H74.6357C74.6837 170.594 74.9117 170.996 75.3197 171.308C75.7397 171.62 76.2857 171.776 76.9577 171.776C77.5817 171.776 78.0737 171.638 78.4337 171.362C78.7937 171.086 78.9737 170.738 78.9737 170.318C78.9737 169.886 78.7817 169.568 78.3977 169.364C78.0137 169.148 77.4197 168.938 76.6157 168.734C75.8837 168.542 75.2837 168.35 74.8157 168.158C74.3597 167.954 73.9637 167.66 73.6277 167.276C73.3037 166.88 73.1417 166.364 73.1417 165.728C73.1417 165.224 73.2917 164.762 73.5917 164.342C73.8917 163.922 74.3177 163.592 74.8697 163.352C75.4217 163.1 76.0517 162.974 76.7597 162.974C77.8517 162.974 78.7337 163.25 79.4057 163.802C80.0777 164.354 80.4377 165.11 80.4857 166.07H78.8477C78.8117 165.554 78.6017 165.14 78.2177 164.828C77.8457 164.516 77.3417 164.36 76.7057 164.36C76.1177 164.36 75.6497 164.486 75.3017 164.738C74.9537 164.99 74.7797 165.32 74.7797 165.728C74.7797 166.052 74.8817 166.322 75.0857 166.538C75.3017 166.742 75.5657 166.91 75.8777 167.042C76.2017 167.162 76.6457 167.3 77.2097 167.456C77.9177 167.648 78.4937 167.84 78.9377 168.032C79.3817 168.212 79.7597 168.488 80.0717 168.86C80.3957 169.232 80.5637 169.718 80.5757 170.318C80.5757 170.858 80.4257 171.344 80.1257 171.776C79.8257 172.208 79.3997 172.55 78.8477 172.802C78.3077 173.042 77.6837 173.162 76.9757 173.162ZM87.0748 168.032C87.0748 167.024 87.2788 166.142 87.6868 165.386C88.0948 164.618 88.6528 164.024 89.3608 163.604C90.0808 163.184 90.8788 162.974 91.7548 162.974C92.6188 162.974 93.3688 163.16 94.0048 163.532C94.6408 163.904 95.1148 164.372 95.4268 164.936V163.136H97.0828V173H95.4268V171.164C95.1028 171.74 94.6168 172.22 93.9688 172.604C93.3328 172.976 92.5888 173.162 91.7368 173.162C90.8608 173.162 90.0688 172.946 89.3608 172.514C88.6528 172.082 88.0948 171.476 87.6868 170.696C87.2788 169.916 87.0748 169.028 87.0748 168.032ZM95.4268 168.05C95.4268 167.306 95.2768 166.658 94.9768 166.106C94.6768 165.554 94.2688 165.134 93.7528 164.846C93.2488 164.546 92.6908 164.396 92.0788 164.396C91.4668 164.396 90.9088 164.54 90.4048 164.828C89.9008 165.116 89.4988 165.536 89.1988 166.088C88.8988 166.64 88.7488 167.288 88.7488 168.032C88.7488 168.788 88.8988 169.448 89.1988 170.012C89.4988 170.564 89.9008 170.99 90.4048 171.29C90.9088 171.578 91.4668 171.722 92.0788 171.722C92.6908 171.722 93.2488 171.578 93.7528 171.29C94.2688 170.99 94.6768 170.564 94.9768 170.012C95.2768 169.448 95.4268 168.794 95.4268 168.05ZM104.657 162.956C105.857 162.956 106.829 163.322 107.573 164.054C108.317 164.774 108.689 165.818 108.689 167.186V173H107.069V167.42C107.069 166.436 106.823 165.686 106.331 165.17C105.839 164.642 105.167 164.378 104.315 164.378C103.451 164.378 102.761 164.648 102.245 165.188C101.741 165.728 101.489 166.514 101.489 167.546V173H99.8508V163.136H101.489V164.54C101.813 164.036 102.251 163.646 102.803 163.37C103.367 163.094 103.985 162.956 104.657 162.956ZM110.753 168.032C110.753 167.024 110.957 166.142 111.365 165.386C111.773 164.618 112.331 164.024 113.039 163.604C113.759 163.184 114.563 162.974 115.451 162.974C116.219 162.974 116.933 163.154 117.593 163.514C118.253 163.862 118.757 164.324 119.105 164.9V159.68H120.761V173H119.105V171.146C118.781 171.734 118.301 172.22 117.665 172.604C117.029 172.976 116.285 173.162 115.433 173.162C114.557 173.162 113.759 172.946 113.039 172.514C112.331 172.082 111.773 171.476 111.365 170.696C110.957 169.916 110.753 169.028 110.753 168.032ZM119.105 168.05C119.105 167.306 118.955 166.658 118.655 166.106C118.355 165.554 117.947 165.134 117.431 164.846C116.927 164.546 116.369 164.396 115.757 164.396C115.145 164.396 114.587 164.54 114.083 164.828C113.579 165.116 113.177 165.536 112.877 166.088C112.577 166.64 112.427 167.288 112.427 168.032C112.427 168.788 112.577 169.448 112.877 170.012C113.177 170.564 113.579 170.99 114.083 171.29C114.587 171.578 115.145 171.722 115.757 171.722C116.369 171.722 116.927 171.578 117.431 171.29C117.947 170.99 118.355 170.564 118.655 170.012C118.955 169.448 119.105 168.794 119.105 168.05ZM140.189 162.956C140.957 162.956 141.641 163.118 142.241 163.442C142.841 163.754 143.315 164.228 143.663 164.864C144.011 165.5 144.185 166.274 144.185 167.186V173H142.565V167.42C142.565 166.436 142.319 165.686 141.827 165.17C141.347 164.642 140.693 164.378 139.865 164.378C139.013 164.378 138.335 164.654 137.831 165.206C137.327 165.746 137.075 166.532 137.075 167.564V173H135.455V167.42C135.455 166.436 135.209 165.686 134.717 165.17C134.237 164.642 133.583 164.378 132.755 164.378C131.903 164.378 131.225 164.654 130.721 165.206C130.217 165.746 129.965 166.532 129.965 167.564V173H128.327V163.136H129.965V164.558C130.289 164.042 130.721 163.646 131.261 163.37C131.813 163.094 132.419 162.956 133.079 162.956C133.907 162.956 134.639 163.142 135.275 163.514C135.911 163.886 136.385 164.432 136.697 165.152C136.973 164.456 137.429 163.916 138.065 163.532C138.701 163.148 139.409 162.956 140.189 162.956ZM147.718 161.534C147.406 161.534 147.142 161.426 146.926 161.21C146.71 160.994 146.602 160.73 146.602 160.418C146.602 160.106 146.71 159.842 146.926 159.626C147.142 159.41 147.406 159.302 147.718 159.302C148.018 159.302 148.27 159.41 148.474 159.626C148.69 159.842 148.798 160.106 148.798 160.418C148.798 160.73 148.69 160.994 148.474 161.21C148.27 161.426 148.018 161.534 147.718 161.534ZM148.51 163.136V173H146.872V163.136H148.51ZM152.94 159.68V173H151.302V159.68H152.94ZM164.732 167.69C164.732 168.002 164.714 168.332 164.678 168.68H156.794C156.854 169.652 157.184 170.414 157.784 170.966C158.396 171.506 159.134 171.776 159.998 171.776C160.706 171.776 161.294 171.614 161.762 171.29C162.242 170.954 162.578 170.51 162.77 169.958H164.534C164.27 170.906 163.742 171.68 162.95 172.28C162.158 172.868 161.174 173.162 159.998 173.162C159.062 173.162 158.222 172.952 157.478 172.532C156.746 172.112 156.17 171.518 155.75 170.75C155.33 169.97 155.12 169.07 155.12 168.05C155.12 167.03 155.324 166.136 155.732 165.368C156.14 164.6 156.71 164.012 157.442 163.604C158.186 163.184 159.038 162.974 159.998 162.974C160.934 162.974 161.762 163.178 162.482 163.586C163.202 163.994 163.754 164.558 164.138 165.278C164.534 165.986 164.732 166.79 164.732 167.69ZM163.04 167.348C163.04 166.724 162.902 166.19 162.626 165.746C162.35 165.29 161.972 164.948 161.492 164.72C161.024 164.48 160.502 164.36 159.926 164.36C159.098 164.36 158.39 164.624 157.802 165.152C157.226 165.68 156.896 166.412 156.812 167.348H163.04ZM170.386 173.162C169.63 173.162 168.952 173.036 168.352 172.784C167.752 172.52 167.278 172.16 166.93 171.704C166.582 171.236 166.39 170.702 166.354 170.102H168.046C168.094 170.594 168.322 170.996 168.73 171.308C169.15 171.62 169.696 171.776 170.368 171.776C170.992 171.776 171.484 171.638 171.844 171.362C172.204 171.086 172.384 170.738 172.384 170.318C172.384 169.886 172.192 169.568 171.808 169.364C171.424 169.148 170.83 168.938 170.026 168.734C169.294 168.542 168.694 168.35 168.226 168.158C167.77 167.954 167.374 167.66 167.038 167.276C166.714 166.88 166.552 166.364 166.552 165.728C166.552 165.224 166.702 164.762 167.002 164.342C167.302 163.922 167.728 163.592 168.28 163.352C168.832 163.1 169.462 162.974 170.17 162.974C171.262 162.974 172.144 163.25 172.816 163.802C173.488 164.354 173.848 165.11 173.896 166.07H172.258C172.222 165.554 172.012 165.14 171.628 164.828C171.256 164.516 170.752 164.36 170.116 164.36C169.528 164.36 169.06 164.486 168.712 164.738C168.364 164.99 168.19 165.32 168.19 165.728C168.19 166.052 168.292 166.322 168.496 166.538C168.712 166.742 168.976 166.91 169.288 167.042C169.612 167.162 170.056 167.3 170.62 167.456C171.328 167.648 171.904 167.84 172.348 168.032C172.792 168.212 173.17 168.488 173.482 168.86C173.806 169.232 173.974 169.718 173.986 170.318C173.986 170.858 173.836 171.344 173.536 171.776C173.236 172.208 172.81 172.55 172.258 172.802C171.718 173.042 171.094 173.162 170.386 173.162ZM178.296 164.486V170.3C178.296 170.78 178.398 171.122 178.602 171.326C178.806 171.518 179.16 171.614 179.664 171.614H180.87V173H179.394C178.482 173 177.798 172.79 177.342 172.37C176.886 171.95 176.658 171.26 176.658 170.3V164.486H175.38V163.136H176.658V160.652H178.296V163.136H180.87V164.486H178.296ZM187.157 173.162C186.233 173.162 185.393 172.952 184.637 172.532C183.893 172.112 183.305 171.518 182.873 170.75C182.453 169.97 182.243 169.07 182.243 168.05C182.243 167.042 182.459 166.154 182.891 165.386C183.335 164.606 183.935 164.012 184.691 163.604C185.447 163.184 186.293 162.974 187.229 162.974C188.165 162.974 189.011 163.184 189.767 163.604C190.523 164.012 191.117 164.6 191.549 165.368C191.993 166.136 192.215 167.03 192.215 168.05C192.215 169.07 191.987 169.97 191.531 170.75C191.087 171.518 190.481 172.112 189.713 172.532C188.945 172.952 188.093 173.162 187.157 173.162ZM187.157 171.722C187.745 171.722 188.297 171.584 188.813 171.308C189.329 171.032 189.743 170.618 190.055 170.066C190.379 169.514 190.541 168.842 190.541 168.05C190.541 167.258 190.385 166.586 190.073 166.034C189.761 165.482 189.353 165.074 188.849 164.81C188.345 164.534 187.799 164.396 187.211 164.396C186.611 164.396 186.059 164.534 185.555 164.81C185.063 165.074 184.667 165.482 184.367 166.034C184.067 166.586 183.917 167.258 183.917 168.05C183.917 168.854 184.061 169.532 184.349 170.084C184.649 170.636 185.045 171.05 185.537 171.326C186.029 171.59 186.569 171.722 187.157 171.722ZM199.174 162.956C200.374 162.956 201.346 163.322 202.09 164.054C202.834 164.774 203.206 165.818 203.206 167.186V173H201.586V167.42C201.586 166.436 201.34 165.686 200.848 165.17C200.356 164.642 199.684 164.378 198.832 164.378C197.968 164.378 197.278 164.648 196.762 165.188C196.258 165.728 196.006 166.514 196.006 167.546V173H194.368V163.136H196.006V164.54C196.33 164.036 196.768 163.646 197.32 163.37C197.884 163.094 198.502 162.956 199.174 162.956ZM214.882 167.69C214.882 168.002 214.864 168.332 214.828 168.68H206.944C207.004 169.652 207.334 170.414 207.934 170.966C208.546 171.506 209.284 171.776 210.148 171.776C210.856 171.776 211.444 171.614 211.912 171.29C212.392 170.954 212.728 170.51 212.92 169.958H214.684C214.42 170.906 213.892 171.68 213.1 172.28C212.308 172.868 211.324 173.162 210.148 173.162C209.212 173.162 208.372 172.952 207.628 172.532C206.896 172.112 206.32 171.518 205.9 170.75C205.48 169.97 205.27 169.07 205.27 168.05C205.27 167.03 205.474 166.136 205.882 165.368C206.29 164.6 206.86 164.012 207.592 163.604C208.336 163.184 209.188 162.974 210.148 162.974C211.084 162.974 211.912 163.178 212.632 163.586C213.352 163.994 213.904 164.558 214.288 165.278C214.684 165.986 214.882 166.79 214.882 167.69ZM213.19 167.348C213.19 166.724 213.052 166.19 212.776 165.746C212.5 165.29 212.122 164.948 211.642 164.72C211.174 164.48 210.652 164.36 210.076 164.36C209.248 164.36 208.54 164.624 207.952 165.152C207.376 165.68 207.046 166.412 206.962 167.348H213.19ZM220.536 173.162C219.78 173.162 219.102 173.036 218.502 172.784C217.902 172.52 217.428 172.16 217.08 171.704C216.732 171.236 216.54 170.702 216.504 170.102H218.196C218.244 170.594 218.472 170.996 218.88 171.308C219.3 171.62 219.846 171.776 220.518 171.776C221.142 171.776 221.634 171.638 221.994 171.362C222.354 171.086 222.534 170.738 222.534 170.318C222.534 169.886 222.342 169.568 221.958 169.364C221.574 169.148 220.98 168.938 220.176 168.734C219.444 168.542 218.844 168.35 218.376 168.158C217.92 167.954 217.524 167.66 217.188 167.276C216.864 166.88 216.702 166.364 216.702 165.728C216.702 165.224 216.852 164.762 217.152 164.342C217.452 163.922 217.878 163.592 218.43 163.352C218.982 163.1 219.612 162.974 220.32 162.974C221.412 162.974 222.294 163.25 222.966 163.802C223.638 164.354 223.998 165.11 224.046 166.07H222.408C222.372 165.554 222.162 165.14 221.778 164.828C221.406 164.516 220.902 164.36 220.266 164.36C219.678 164.36 219.21 164.486 218.862 164.738C218.514 164.99 218.34 165.32 218.34 165.728C218.34 166.052 218.442 166.322 218.646 166.538C218.862 166.742 219.126 166.91 219.438 167.042C219.762 167.162 220.206 167.3 220.77 167.456C221.478 167.648 222.054 167.84 222.498 168.032C222.942 168.212 223.32 168.488 223.632 168.86C223.956 169.232 224.124 169.718 224.136 170.318C224.136 170.858 223.986 171.344 223.686 171.776C223.386 172.208 222.96 172.55 222.408 172.802C221.868 173.042 221.244 173.162 220.536 173.162ZM226.971 173.108C226.659 173.108 226.395 173 226.179 172.784C225.963 172.568 225.855 172.304 225.855 171.992C225.855 171.68 225.963 171.416 226.179 171.2C226.395 170.984 226.659 170.876 226.971 170.876C227.271 170.876 227.523 170.984 227.727 171.2C227.943 171.416 228.051 171.68 228.051 171.992C228.051 172.304 227.943 172.568 227.727 172.784C227.523 173 227.271 173.108 226.971 173.108ZM226.971 165.404C226.659 165.404 226.395 165.296 226.179 165.08C225.963 164.864 225.855 164.6 225.855 164.288C225.855 163.976 225.963 163.712 226.179 163.496C226.395 163.28 226.659 163.172 226.971 163.172C227.271 163.172 227.523 163.28 227.727 163.496C227.943 163.712 228.051 163.976 228.051 164.288C228.051 164.6 227.943 164.864 227.727 165.08C227.523 165.296 227.271 165.404 226.971 165.404ZM242.495 170.21H237.023L236.015 173H234.287L238.823 160.526H240.713L245.231 173H243.503L242.495 170.21ZM242.027 168.878L239.759 162.542L237.491 168.878H242.027ZM255.499 173.162C254.743 173.162 254.065 173.036 253.465 172.784C252.865 172.52 252.391 172.16 252.043 171.704C251.695 171.236 251.503 170.702 251.467 170.102H253.159C253.207 170.594 253.435 170.996 253.843 171.308C254.263 171.62 254.809 171.776 255.481 171.776C256.105 171.776 256.597 171.638 256.957 171.362C257.317 171.086 257.497 170.738 257.497 170.318C257.497 169.886 257.305 169.568 256.921 169.364C256.537 169.148 255.943 168.938 255.139 168.734C254.407 168.542 253.807 168.35 253.339 168.158C252.883 167.954 252.487 167.66 252.151 167.276C251.827 166.88 251.665 166.364 251.665 165.728C251.665 165.224 251.815 164.762 252.115 164.342C252.415 163.922 252.841 163.592 253.393 163.352C253.945 163.1 254.575 162.974 255.283 162.974C256.375 162.974 257.257 163.25 257.929 163.802C258.601 164.354 258.961 165.11 259.009 166.07H257.371C257.335 165.554 257.125 165.14 256.741 164.828C256.369 164.516 255.865 164.36 255.229 164.36C254.641 164.36 254.173 164.486 253.825 164.738C253.477 164.99 253.303 165.32 253.303 165.728C253.303 166.052 253.405 166.322 253.609 166.538C253.825 166.742 254.089 166.91 254.401 167.042C254.725 167.162 255.169 167.3 255.733 167.456C256.441 167.648 257.017 167.84 257.461 168.032C257.905 168.212 258.283 168.488 258.595 168.86C258.919 169.232 259.087 169.718 259.099 170.318C259.099 170.858 258.949 171.344 258.649 171.776C258.349 172.208 257.923 172.55 257.371 172.802C256.831 173.042 256.207 173.162 255.499 173.162ZM262.257 161.534C261.945 161.534 261.681 161.426 261.465 161.21C261.249 160.994 261.141 160.73 261.141 160.418C261.141 160.106 261.249 159.842 261.465 159.626C261.681 159.41 261.945 159.302 262.257 159.302C262.557 159.302 262.809 159.41 263.013 159.626C263.229 159.842 263.337 160.106 263.337 160.418C263.337 160.73 263.229 160.994 263.013 161.21C262.809 161.426 262.557 161.534 262.257 161.534ZM263.049 163.136V173H261.411V163.136H263.049ZM277.703 162.956C278.471 162.956 279.155 163.118 279.755 163.442C280.355 163.754 280.829 164.228 281.177 164.864C281.525 165.5 281.699 166.274 281.699 167.186V173H280.079V167.42C280.079 166.436 279.833 165.686 279.341 165.17C278.861 164.642 278.207 164.378 277.379 164.378C276.527 164.378 275.849 164.654 275.345 165.206C274.841 165.746 274.589 166.532 274.589 167.564V173H272.969V167.42C272.969 166.436 272.723 165.686 272.231 165.17C271.751 164.642 271.097 164.378 270.269 164.378C269.417 164.378 268.739 164.654 268.235 165.206C267.731 165.746 267.479 166.532 267.479 167.564V173H265.841V163.136H267.479V164.558C267.803 164.042 268.235 163.646 268.775 163.37C269.327 163.094 269.933 162.956 270.593 162.956C271.421 162.956 272.153 163.142 272.789 163.514C273.425 163.886 273.899 164.432 274.211 165.152C274.487 164.456 274.943 163.916 275.579 163.532C276.215 163.148 276.923 162.956 277.703 162.956ZM286.024 164.954C286.348 164.39 286.828 163.922 287.464 163.55C288.112 163.166 288.862 162.974 289.714 162.974C290.59 162.974 291.382 163.184 292.09 163.604C292.81 164.024 293.374 164.618 293.782 165.386C294.19 166.142 294.394 167.024 294.394 168.032C294.394 169.028 294.19 169.916 293.782 170.696C293.374 171.476 292.81 172.082 292.09 172.514C291.382 172.946 290.59 173.162 289.714 173.162C288.874 173.162 288.13 172.976 287.482 172.604C286.846 172.22 286.36 171.746 286.024 171.182V177.68H284.386V163.136H286.024V164.954ZM292.72 168.032C292.72 167.288 292.57 166.64 292.27 166.088C291.97 165.536 291.562 165.116 291.046 164.828C290.542 164.54 289.984 164.396 289.372 164.396C288.772 164.396 288.214 164.546 287.698 164.846C287.194 165.134 286.786 165.56 286.474 166.124C286.174 166.676 286.024 167.318 286.024 168.05C286.024 168.794 286.174 169.448 286.474 170.012C286.786 170.564 287.194 170.99 287.698 171.29C288.214 171.578 288.772 171.722 289.372 171.722C289.984 171.722 290.542 171.578 291.046 171.29C291.562 170.99 291.97 170.564 292.27 170.012C292.57 169.448 292.72 168.788 292.72 168.032ZM298.188 159.68V173H296.55V159.68H298.188ZM309.98 167.69C309.98 168.002 309.962 168.332 309.926 168.68H302.042C302.102 169.652 302.432 170.414 303.032 170.966C303.644 171.506 304.382 171.776 305.246 171.776C305.954 171.776 306.542 171.614 307.01 171.29C307.49 170.954 307.826 170.51 308.018 169.958H309.782C309.518 170.906 308.99 171.68 308.198 172.28C307.406 172.868 306.422 173.162 305.246 173.162C304.31 173.162 303.47 172.952 302.726 172.532C301.994 172.112 301.418 171.518 300.998 170.75C300.578 169.97 300.368 169.07 300.368 168.05C300.368 167.03 300.572 166.136 300.98 165.368C301.388 164.6 301.958 164.012 302.69 163.604C303.434 163.184 304.286 162.974 305.246 162.974C306.182 162.974 307.01 163.178 307.73 163.586C308.45 163.994 309.002 164.558 309.386 165.278C309.782 165.986 309.98 166.79 309.98 167.69ZM308.288 167.348C308.288 166.724 308.15 166.19 307.874 165.746C307.598 165.29 307.22 164.948 306.74 164.72C306.272 164.48 305.75 164.36 305.174 164.36C304.346 164.36 303.638 164.624 303.05 165.152C302.474 165.68 302.144 166.412 302.06 167.348H308.288ZM18.526 192.136L15.448 202H13.756L11.38 194.17L9.004 202H7.312L4.216 192.136H5.89L8.158 200.416L10.606 192.136H12.28L14.674 200.434L16.906 192.136H18.526ZM19.5396 197.032C19.5396 196.024 19.7436 195.142 20.1516 194.386C20.5596 193.618 21.1176 193.024 21.8256 192.604C22.5456 192.184 23.3436 191.974 24.2196 191.974C25.0836 191.974 25.8336 192.16 26.4696 192.532C27.1056 192.904 27.5796 193.372 27.8916 193.936V192.136H29.5476V202H27.8916V200.164C27.5676 200.74 27.0816 201.22 26.4336 201.604C25.7976 201.976 25.0536 202.162 24.2016 202.162C23.3256 202.162 22.5336 201.946 21.8256 201.514C21.1176 201.082 20.5596 200.476 20.1516 199.696C19.7436 198.916 19.5396 198.028 19.5396 197.032ZM27.8916 197.05C27.8916 196.306 27.7416 195.658 27.4416 195.106C27.1416 194.554 26.7336 194.134 26.2176 193.846C25.7136 193.546 25.1556 193.396 24.5436 193.396C23.9316 193.396 23.3736 193.54 22.8696 193.828C22.3656 194.116 21.9636 194.536 21.6636 195.088C21.3636 195.64 21.2136 196.288 21.2136 197.032C21.2136 197.788 21.3636 198.448 21.6636 199.012C21.9636 199.564 22.3656 199.99 22.8696 200.29C23.3736 200.578 23.9316 200.722 24.5436 200.722C25.1556 200.722 25.7136 200.578 26.2176 200.29C26.7336 199.99 27.1416 199.564 27.4416 199.012C27.7416 198.448 27.8916 197.794 27.8916 197.05ZM33.9537 188.68V202H32.3157V188.68H33.9537ZM42.2534 202L38.3834 197.644V202H36.7454V188.68H38.3834V196.51L42.1814 192.136H44.4674L39.8234 197.05L44.4854 202H42.2534ZM48.007 193.486V199.3C48.007 199.78 48.109 200.122 48.313 200.326C48.517 200.518 48.871 200.614 49.375 200.614H50.581V202H49.105C48.193 202 47.509 201.79 47.053 201.37C46.597 200.95 46.369 200.26 46.369 199.3V193.486H45.091V192.136H46.369V189.652H48.007V192.136H50.581V193.486H48.007ZM57.4617 191.956C58.2057 191.956 58.8777 192.118 59.4777 192.442C60.0777 192.754 60.5457 193.228 60.8817 193.864C61.2297 194.5 61.4037 195.274 61.4037 196.186V202H59.7837V196.42C59.7837 195.436 59.5377 194.686 59.0457 194.17C58.5537 193.642 57.8817 193.378 57.0297 193.378C56.1657 193.378 55.4757 193.648 54.9597 194.188C54.4557 194.728 54.2037 195.514 54.2037 196.546V202H52.5657V188.68H54.2037V193.54C54.5277 193.036 54.9717 192.646 55.5357 192.37C56.1117 192.094 56.7537 191.956 57.4617 191.956ZM65.7174 193.738C66.0054 193.174 66.4134 192.736 66.9414 192.424C67.4814 192.112 68.1354 191.956 68.9034 191.956V193.648H68.4714C66.6354 193.648 65.7174 194.644 65.7174 196.636V202H64.0794V192.136H65.7174V193.738ZM75.0962 202.162C74.1722 202.162 73.3322 201.952 72.5762 201.532C71.8322 201.112 71.2442 200.518 70.8122 199.75C70.3922 198.97 70.1822 198.07 70.1822 197.05C70.1822 196.042 70.3982 195.154 70.8302 194.386C71.2742 193.606 71.8742 193.012 72.6302 192.604C73.3862 192.184 74.2322 191.974 75.1682 191.974C76.1042 191.974 76.9502 192.184 77.7062 192.604C78.4622 193.012 79.0562 193.6 79.4882 194.368C79.9322 195.136 80.1542 196.03 80.1542 197.05C80.1542 198.07 79.9262 198.97 79.4702 199.75C79.0262 200.518 78.4202 201.112 77.6522 201.532C76.8842 201.952 76.0322 202.162 75.0962 202.162ZM75.0962 200.722C75.6842 200.722 76.2362 200.584 76.7522 200.308C77.2682 200.032 77.6822 199.618 77.9942 199.066C78.3182 198.514 78.4802 197.842 78.4802 197.05C78.4802 196.258 78.3242 195.586 78.0122 195.034C77.7002 194.482 77.2922 194.074 76.7882 193.81C76.2842 193.534 75.7382 193.396 75.1502 193.396C74.5502 193.396 73.9982 193.534 73.4942 193.81C73.0022 194.074 72.6062 194.482 72.3062 195.034C72.0062 195.586 71.8562 196.258 71.8562 197.05C71.8562 197.854 72.0002 198.532 72.2882 199.084C72.5882 199.636 72.9842 200.05 73.4762 200.326C73.9682 200.59 74.5082 200.722 75.0962 200.722ZM91.0559 192.136V202H89.4179V200.542C89.1059 201.046 88.6679 201.442 88.1039 201.73C87.5519 202.006 86.9399 202.144 86.2679 202.144C85.4999 202.144 84.8099 201.988 84.1979 201.676C83.5859 201.352 83.0999 200.872 82.7399 200.236C82.3919 199.6 82.2179 198.826 82.2179 197.914V192.136H83.8379V197.698C83.8379 198.67 84.0839 199.42 84.5759 199.948C85.0679 200.464 85.7399 200.722 86.5919 200.722C87.4679 200.722 88.1579 200.452 88.6619 199.912C89.1659 199.372 89.4179 198.586 89.4179 197.554V192.136H91.0559ZM97.8895 191.974C98.7415 191.974 99.4855 192.16 100.122 192.532C100.77 192.904 101.25 193.372 101.562 193.936V192.136H103.218V202.216C103.218 203.116 103.026 203.914 102.642 204.61C102.258 205.318 101.706 205.87 100.986 206.266C100.278 206.662 99.4495 206.86 98.5015 206.86C97.2055 206.86 96.1255 206.554 95.2615 205.942C94.3975 205.33 93.8875 204.496 93.7315 203.44H95.3515C95.5315 204.04 95.9035 204.52 96.4675 204.88C97.0315 205.252 97.7095 205.438 98.5015 205.438C99.4015 205.438 100.134 205.156 100.698 204.592C101.274 204.028 101.562 203.236 101.562 202.216V200.146C101.238 200.722 100.758 201.202 100.122 201.586C99.4855 201.97 98.7415 202.162 97.8895 202.162C97.0135 202.162 96.2155 201.946 95.4955 201.514C94.7875 201.082 94.2295 200.476 93.8215 199.696C93.4135 198.916 93.2095 198.028 93.2095 197.032C93.2095 196.024 93.4135 195.142 93.8215 194.386C94.2295 193.618 94.7875 193.024 95.4955 192.604C96.2155 192.184 97.0135 191.974 97.8895 191.974ZM101.562 197.05C101.562 196.306 101.412 195.658 101.112 195.106C100.812 194.554 100.404 194.134 99.8875 193.846C99.3835 193.546 98.8255 193.396 98.2135 193.396C97.6015 193.396 97.0435 193.54 96.5395 193.828C96.0355 194.116 95.6335 194.536 95.3335 195.088C95.0335 195.64 94.8835 196.288 94.8835 197.032C94.8835 197.788 95.0335 198.448 95.3335 199.012C95.6335 199.564 96.0355 199.99 96.5395 200.29C97.0435 200.578 97.6015 200.722 98.2135 200.722C98.8255 200.722 99.3835 200.578 99.8875 200.29C100.404 199.99 100.812 199.564 101.112 199.012C101.412 198.448 101.562 197.794 101.562 197.05ZM110.882 191.956C111.626 191.956 112.298 192.118 112.898 192.442C113.498 192.754 113.966 193.228 114.302 193.864C114.65 194.5 114.824 195.274 114.824 196.186V202H113.204V196.42C113.204 195.436 112.958 194.686 112.466 194.17C111.974 193.642 111.302 193.378 110.45 193.378C109.586 193.378 108.896 193.648 108.38 194.188C107.876 194.728 107.624 195.514 107.624 196.546V202H105.986V188.68H107.624V193.54C107.948 193.036 108.392 192.646 108.956 192.37C109.532 192.094 110.174 191.956 110.882 191.956ZM126.6 202.162C125.676 202.162 124.836 201.952 124.08 201.532C123.336 201.112 122.748 200.518 122.316 199.75C121.896 198.97 121.686 198.07 121.686 197.05C121.686 196.042 121.902 195.154 122.334 194.386C122.778 193.606 123.378 193.012 124.134 192.604C124.89 192.184 125.736 191.974 126.672 191.974C127.608 191.974 128.454 192.184 129.21 192.604C129.966 193.012 130.56 193.6 130.992 194.368C131.436 195.136 131.658 196.03 131.658 197.05C131.658 198.07 131.43 198.97 130.974 199.75C130.53 200.518 129.924 201.112 129.156 201.532C128.388 201.952 127.536 202.162 126.6 202.162ZM126.6 200.722C127.188 200.722 127.74 200.584 128.256 200.308C128.772 200.032 129.186 199.618 129.498 199.066C129.822 198.514 129.984 197.842 129.984 197.05C129.984 196.258 129.828 195.586 129.516 195.034C129.204 194.482 128.796 194.074 128.292 193.81C127.788 193.534 127.242 193.396 126.654 193.396C126.054 193.396 125.502 193.534 124.998 193.81C124.506 194.074 124.11 194.482 123.81 195.034C123.51 195.586 123.36 196.258 123.36 197.05C123.36 197.854 123.504 198.532 123.792 199.084C124.092 199.636 124.488 200.05 124.98 200.326C125.472 200.59 126.012 200.722 126.6 200.722ZM137.826 193.486H135.756V202H134.118V193.486H132.84V192.136H134.118V191.434C134.118 190.33 134.4 189.526 134.964 189.022C135.54 188.506 136.458 188.248 137.718 188.248V189.616C136.998 189.616 136.488 189.76 136.188 190.048C135.9 190.324 135.756 190.786 135.756 191.434V192.136H137.826V193.486ZM146.172 193.738C146.46 193.174 146.868 192.736 147.396 192.424C147.936 192.112 148.59 191.956 149.358 191.956V193.648H148.926C147.09 193.648 146.172 194.644 146.172 196.636V202H144.534V192.136H146.172V193.738ZM155.551 202.162C154.627 202.162 153.787 201.952 153.031 201.532C152.287 201.112 151.699 200.518 151.267 199.75C150.847 198.97 150.637 198.07 150.637 197.05C150.637 196.042 150.853 195.154 151.285 194.386C151.729 193.606 152.329 193.012 153.085 192.604C153.841 192.184 154.687 191.974 155.623 191.974C156.559 191.974 157.405 192.184 158.161 192.604C158.917 193.012 159.511 193.6 159.943 194.368C160.387 195.136 160.609 196.03 160.609 197.05C160.609 198.07 160.381 198.97 159.925 199.75C159.481 200.518 158.875 201.112 158.107 201.532C157.339 201.952 156.487 202.162 155.551 202.162ZM155.551 200.722C156.139 200.722 156.691 200.584 157.207 200.308C157.723 200.032 158.137 199.618 158.449 199.066C158.773 198.514 158.935 197.842 158.935 197.05C158.935 196.258 158.779 195.586 158.467 195.034C158.155 194.482 157.747 194.074 157.243 193.81C156.739 193.534 156.193 193.396 155.605 193.396C155.005 193.396 154.453 193.534 153.949 193.81C153.457 194.074 153.061 194.482 152.761 195.034C152.461 195.586 152.311 196.258 152.311 197.05C152.311 197.854 152.455 198.532 152.743 199.084C153.043 199.636 153.439 200.05 153.931 200.326C154.423 200.59 154.963 200.722 155.551 200.722ZM164.401 188.68V202H162.763V188.68H164.401ZM176.193 196.69C176.193 197.002 176.175 197.332 176.139 197.68H168.255C168.315 198.652 168.645 199.414 169.245 199.966C169.857 200.506 170.595 200.776 171.459 200.776C172.167 200.776 172.755 200.614 173.223 200.29C173.703 199.954 174.039 199.51 174.231 198.958H175.995C175.731 199.906 175.203 200.68 174.411 201.28C173.619 201.868 172.635 202.162 171.459 202.162C170.523 202.162 169.683 201.952 168.939 201.532C168.207 201.112 167.631 200.518 167.211 199.75C166.791 198.97 166.581 198.07 166.581 197.05C166.581 196.03 166.785 195.136 167.193 194.368C167.601 193.6 168.171 193.012 168.903 192.604C169.647 192.184 170.499 191.974 171.459 191.974C172.395 191.974 173.223 192.178 173.943 192.586C174.663 192.994 175.215 193.558 175.599 194.278C175.995 194.986 176.193 195.79 176.193 196.69ZM174.501 196.348C174.501 195.724 174.363 195.19 174.087 194.746C173.811 194.29 173.433 193.948 172.953 193.72C172.485 193.48 171.963 193.36 171.387 193.36C170.559 193.36 169.851 193.624 169.263 194.152C168.687 194.68 168.357 195.412 168.273 196.348H174.501ZM181.847 202.162C181.091 202.162 180.413 202.036 179.813 201.784C179.213 201.52 178.739 201.16 178.391 200.704C178.043 200.236 177.851 199.702 177.815 199.102H179.507C179.555 199.594 179.783 199.996 180.191 200.308C180.611 200.62 181.157 200.776 181.829 200.776C182.453 200.776 182.945 200.638 183.305 200.362C183.665 200.086 183.845 199.738 183.845 199.318C183.845 198.886 183.653 198.568 183.269 198.364C182.885 198.148 182.291 197.938 181.487 197.734C180.755 197.542 180.155 197.35 179.687 197.158C179.231 196.954 178.835 196.66 178.499 196.276C178.175 195.88 178.013 195.364 178.013 194.728C178.013 194.224 178.163 193.762 178.463 193.342C178.763 192.922 179.189 192.592 179.741 192.352C180.293 192.1 180.923 191.974 181.631 191.974C182.723 191.974 183.605 192.25 184.277 192.802C184.949 193.354 185.309 194.11 185.357 195.07H183.719C183.683 194.554 183.473 194.14 183.089 193.828C182.717 193.516 182.213 193.36 181.577 193.36C180.989 193.36 180.521 193.486 180.173 193.738C179.825 193.99 179.651 194.32 179.651 194.728C179.651 195.052 179.753 195.322 179.957 195.538C180.173 195.742 180.437 195.91 180.749 196.042C181.073 196.162 181.517 196.3 182.081 196.456C182.789 196.648 183.365 196.84 183.809 197.032C184.253 197.212 184.631 197.488 184.943 197.86C185.267 198.232 185.435 198.718 185.447 199.318C185.447 199.858 185.297 200.344 184.997 200.776C184.697 201.208 184.271 201.55 183.719 201.802C183.179 202.042 182.555 202.162 181.847 202.162ZM189.451 199.732L187.435 204.574H186.337L187.651 199.732H189.451ZM197.764 193.954C198.088 193.39 198.568 192.922 199.204 192.55C199.852 192.166 200.602 191.974 201.454 191.974C202.33 191.974 203.122 192.184 203.83 192.604C204.55 193.024 205.114 193.618 205.522 194.386C205.93 195.142 206.134 196.024 206.134 197.032C206.134 198.028 205.93 198.916 205.522 199.696C205.114 200.476 204.55 201.082 203.83 201.514C203.122 201.946 202.33 202.162 201.454 202.162C200.614 202.162 199.87 201.976 199.222 201.604C198.586 201.22 198.1 200.746 197.764 200.182V206.68H196.126V192.136H197.764V193.954ZM204.46 197.032C204.46 196.288 204.31 195.64 204.01 195.088C203.71 194.536 203.302 194.116 202.786 193.828C202.282 193.54 201.724 193.396 201.112 193.396C200.512 193.396 199.954 193.546 199.438 193.846C198.934 194.134 198.526 194.56 198.214 195.124C197.914 195.676 197.764 196.318 197.764 197.05C197.764 197.794 197.914 198.448 198.214 199.012C198.526 199.564 198.934 199.99 199.438 200.29C199.954 200.578 200.512 200.722 201.112 200.722C201.724 200.722 202.282 200.578 202.786 200.29C203.302 199.99 203.71 199.564 204.01 199.012C204.31 198.448 204.46 197.788 204.46 197.032ZM209.928 193.738C210.216 193.174 210.624 192.736 211.152 192.424C211.692 192.112 212.346 191.956 213.114 191.956V193.648H212.682C210.846 193.648 209.928 194.644 209.928 196.636V202H208.29V192.136H209.928V193.738ZM219.307 202.162C218.383 202.162 217.543 201.952 216.787 201.532C216.043 201.112 215.455 200.518 215.023 199.75C214.603 198.97 214.393 198.07 214.393 197.05C214.393 196.042 214.609 195.154 215.041 194.386C215.485 193.606 216.085 193.012 216.841 192.604C217.597 192.184 218.443 191.974 219.379 191.974C220.315 191.974 221.161 192.184 221.917 192.604C222.673 193.012 223.267 193.6 223.699 194.368C224.143 195.136 224.365 196.03 224.365 197.05C224.365 198.07 224.137 198.97 223.681 199.75C223.237 200.518 222.631 201.112 221.863 201.532C221.095 201.952 220.243 202.162 219.307 202.162ZM219.307 200.722C219.895 200.722 220.447 200.584 220.963 200.308C221.479 200.032 221.893 199.618 222.205 199.066C222.529 198.514 222.691 197.842 222.691 197.05C222.691 196.258 222.535 195.586 222.223 195.034C221.911 194.482 221.503 194.074 220.999 193.81C220.495 193.534 219.949 193.396 219.361 193.396C218.761 193.396 218.209 193.534 217.705 193.81C217.213 194.074 216.817 194.482 216.517 195.034C216.217 195.586 216.067 196.258 216.067 197.05C216.067 197.854 216.211 198.532 216.499 199.084C216.799 199.636 217.195 200.05 217.687 200.326C218.179 200.59 218.719 200.722 219.307 200.722ZM227.401 190.534C227.089 190.534 226.825 190.426 226.609 190.21C226.405 189.994 226.303 189.73 226.303 189.418C226.303 189.106 226.405 188.842 226.609 188.626C226.825 188.41 227.089 188.302 227.401 188.302C227.713 188.302 227.971 188.41 228.175 188.626C228.391 188.842 228.499 189.106 228.499 189.418C228.499 189.73 228.391 189.994 228.175 190.21C227.971 190.426 227.713 190.534 227.401 190.534ZM228.211 204.142C228.211 205.018 227.989 205.66 227.545 206.068C227.101 206.476 226.453 206.68 225.601 206.68H224.647V205.294H225.331C225.787 205.294 226.105 205.204 226.285 205.024C226.477 204.844 226.573 204.538 226.573 204.106V192.136H228.211V204.142ZM239.984 196.69C239.984 197.002 239.966 197.332 239.93 197.68H232.046C232.106 198.652 232.436 199.414 233.036 199.966C233.648 200.506 234.386 200.776 235.25 200.776C235.958 200.776 236.546 200.614 237.014 200.29C237.494 199.954 237.83 199.51 238.022 198.958H239.786C239.522 199.906 238.994 200.68 238.202 201.28C237.41 201.868 236.426 202.162 235.25 202.162C234.314 202.162 233.474 201.952 232.73 201.532C231.998 201.112 231.422 200.518 231.002 199.75C230.582 198.97 230.372 198.07 230.372 197.05C230.372 196.03 230.576 195.136 230.984 194.368C231.392 193.6 231.962 193.012 232.694 192.604C233.438 192.184 234.29 191.974 235.25 191.974C236.186 191.974 237.014 192.178 237.734 192.586C238.454 192.994 239.006 193.558 239.39 194.278C239.786 194.986 239.984 195.79 239.984 196.69ZM238.292 196.348C238.292 195.724 238.154 195.19 237.878 194.746C237.602 194.29 237.224 193.948 236.744 193.72C236.276 193.48 235.754 193.36 235.178 193.36C234.35 193.36 233.642 193.624 233.054 194.152C232.478 194.68 232.148 195.412 232.064 196.348H238.292ZM241.534 197.05C241.534 196.03 241.738 195.142 242.146 194.386C242.554 193.618 243.118 193.024 243.838 192.604C244.57 192.184 245.404 191.974 246.34 191.974C247.552 191.974 248.548 192.268 249.328 192.856C250.12 193.444 250.642 194.26 250.894 195.304H249.13C248.962 194.704 248.632 194.23 248.14 193.882C247.66 193.534 247.06 193.36 246.34 193.36C245.404 193.36 244.648 193.684 244.072 194.332C243.496 194.968 243.208 195.874 243.208 197.05C243.208 198.238 243.496 199.156 244.072 199.804C244.648 200.452 245.404 200.776 246.34 200.776C247.06 200.776 247.66 200.608 248.14 200.272C248.62 199.936 248.95 199.456 249.13 198.832H250.894C250.63 199.84 250.102 200.65 249.31 201.262C248.518 201.862 247.528 202.162 246.34 202.162C245.404 202.162 244.57 201.952 243.838 201.532C243.118 201.112 242.554 200.518 242.146 199.75C241.738 198.982 241.534 198.082 241.534 197.05ZM255.077 193.486V199.3C255.077 199.78 255.179 200.122 255.383 200.326C255.587 200.518 255.941 200.614 256.445 200.614H257.651V202H256.175C255.263 202 254.579 201.79 254.123 201.37C253.667 200.95 253.439 200.26 253.439 199.3V193.486H252.161V192.136H253.439V189.652H255.077V192.136H257.651V193.486H255.077ZM263.128 202.162C262.372 202.162 261.694 202.036 261.094 201.784C260.494 201.52 260.02 201.16 259.672 200.704C259.324 200.236 259.132 199.702 259.096 199.102H260.788C260.836 199.594 261.064 199.996 261.472 200.308C261.892 200.62 262.438 200.776 263.11 200.776C263.734 200.776 264.226 200.638 264.586 200.362C264.946 200.086 265.126 199.738 265.126 199.318C265.126 198.886 264.934 198.568 264.55 198.364C264.166 198.148 263.572 197.938 262.768 197.734C262.036 197.542 261.436 197.35 260.968 197.158C260.512 196.954 260.116 196.66 259.78 196.276C259.456 195.88 259.294 195.364 259.294 194.728C259.294 194.224 259.444 193.762 259.744 193.342C260.044 192.922 260.47 192.592 261.022 192.352C261.574 192.1 262.204 191.974 262.912 191.974C264.004 191.974 264.886 192.25 265.558 192.802C266.23 193.354 266.59 194.11 266.638 195.07H265C264.964 194.554 264.754 194.14 264.37 193.828C263.998 193.516 263.494 193.36 262.858 193.36C262.27 193.36 261.802 193.486 261.454 193.738C261.106 193.99 260.932 194.32 260.932 194.728C260.932 195.052 261.034 195.322 261.238 195.538C261.454 195.742 261.718 195.91 262.03 196.042C262.354 196.162 262.798 196.3 263.362 196.456C264.07 196.648 264.646 196.84 265.09 197.032C265.534 197.212 265.912 197.488 266.224 197.86C266.548 198.232 266.716 198.718 266.728 199.318C266.728 199.858 266.578 200.344 266.278 200.776C265.978 201.208 265.552 201.55 265 201.802C264.46 202.042 263.836 202.162 263.128 202.162ZM270.732 199.732L268.716 204.574H267.618L268.932 199.732H270.732ZM276.795 197.032C276.795 196.024 276.999 195.142 277.407 194.386C277.815 193.618 278.373 193.024 279.081 192.604C279.801 192.184 280.599 191.974 281.475 191.974C282.339 191.974 283.089 192.16 283.725 192.532C284.361 192.904 284.835 193.372 285.147 193.936V192.136H286.803V202H285.147V200.164C284.823 200.74 284.337 201.22 283.689 201.604C283.053 201.976 282.309 202.162 281.457 202.162C280.581 202.162 279.789 201.946 279.081 201.514C278.373 201.082 277.815 200.476 277.407 199.696C276.999 198.916 276.795 198.028 276.795 197.032ZM285.147 197.05C285.147 196.306 284.997 195.658 284.697 195.106C284.397 194.554 283.989 194.134 283.473 193.846C282.969 193.546 282.411 193.396 281.799 193.396C281.187 193.396 280.629 193.54 280.125 193.828C279.621 194.116 279.219 194.536 278.919 195.088C278.619 195.64 278.469 196.288 278.469 197.032C278.469 197.788 278.619 198.448 278.919 199.012C279.219 199.564 279.621 199.99 280.125 200.29C280.629 200.578 281.187 200.722 281.799 200.722C282.411 200.722 282.969 200.578 283.473 200.29C283.989 199.99 284.397 199.564 284.697 199.012C284.997 198.448 285.147 197.794 285.147 197.05ZM294.378 191.956C295.578 191.956 296.55 192.322 297.294 193.054C298.038 193.774 298.41 194.818 298.41 196.186V202H296.79V196.42C296.79 195.436 296.544 194.686 296.052 194.17C295.56 193.642 294.888 193.378 294.036 193.378C293.172 193.378 292.482 193.648 291.966 194.188C291.462 194.728 291.21 195.514 291.21 196.546V202H289.572V192.136H291.21V193.54C291.534 193.036 291.972 192.646 292.524 192.37C293.088 192.094 293.706 191.956 294.378 191.956ZM300.473 197.032C300.473 196.024 300.677 195.142 301.085 194.386C301.493 193.618 302.051 193.024 302.759 192.604C303.479 192.184 304.283 191.974 305.171 191.974C305.939 191.974 306.653 192.154 307.313 192.514C307.973 192.862 308.477 193.324 308.825 193.9V188.68H310.481V202H308.825V200.146C308.501 200.734 308.021 201.22 307.385 201.604C306.749 201.976 306.005 202.162 305.153 202.162C304.277 202.162 303.479 201.946 302.759 201.514C302.051 201.082 301.493 200.476 301.085 199.696C300.677 198.916 300.473 198.028 300.473 197.032ZM308.825 197.05C308.825 196.306 308.675 195.658 308.375 195.106C308.075 194.554 307.667 194.134 307.151 193.846C306.647 193.546 306.089 193.396 305.477 193.396C304.865 193.396 304.307 193.54 303.803 193.828C303.299 194.116 302.897 194.536 302.597 195.088C302.297 195.64 302.147 196.288 302.147 197.032C302.147 197.788 302.297 198.448 302.597 199.012C302.897 199.564 303.299 199.99 303.803 200.29C304.307 200.578 304.865 200.722 305.477 200.722C306.089 200.722 306.647 200.578 307.151 200.29C307.667 199.99 308.075 199.564 308.375 199.012C308.675 198.448 308.825 197.794 308.825 197.05ZM4.774 226.032C4.774 225.024 4.978 224.142 5.386 223.386C5.794 222.618 6.352 222.024 7.06 221.604C7.78 221.184 8.578 220.974 9.454 220.974C10.318 220.974 11.068 221.16 11.704 221.532C12.34 221.904 12.814 222.372 13.126 222.936V221.136H14.782V231H13.126V229.164C12.802 229.74 12.316 230.22 11.668 230.604C11.032 230.976 10.288 231.162 9.436 231.162C8.56 231.162 7.768 230.946 7.06 230.514C6.352 230.082 5.794 229.476 5.386 228.696C4.978 227.916 4.774 227.028 4.774 226.032ZM13.126 226.05C13.126 225.306 12.976 224.658 12.676 224.106C12.376 223.554 11.968 223.134 11.452 222.846C10.948 222.546 10.39 222.396 9.778 222.396C9.166 222.396 8.608 222.54 8.104 222.828C7.6 223.116 7.198 223.536 6.898 224.088C6.598 224.64 6.448 225.288 6.448 226.032C6.448 226.788 6.598 227.448 6.898 228.012C7.198 228.564 7.6 228.99 8.104 229.29C8.608 229.578 9.166 229.722 9.778 229.722C10.39 229.722 10.948 229.578 11.452 229.29C11.968 228.99 12.376 228.564 12.676 228.012C12.976 227.448 13.126 226.794 13.126 226.05ZM16.9381 226.05C16.9381 225.03 17.1421 224.142 17.5501 223.386C17.9581 222.618 18.5221 222.024 19.2421 221.604C19.9741 221.184 20.8081 220.974 21.7441 220.974C22.9561 220.974 23.9521 221.268 24.7321 221.856C25.5241 222.444 26.0461 223.26 26.2981 224.304H24.5341C24.3661 223.704 24.0361 223.23 23.5441 222.882C23.0641 222.534 22.4641 222.36 21.7441 222.36C20.8081 222.36 20.0521 222.684 19.4761 223.332C18.9001 223.968 18.6121 224.874 18.6121 226.05C18.6121 227.238 18.9001 228.156 19.4761 228.804C20.0521 229.452 20.8081 229.776 21.7441 229.776C22.4641 229.776 23.0641 229.608 23.5441 229.272C24.0241 228.936 24.3541 228.456 24.5341 227.832H26.2981C26.0341 228.84 25.5061 229.65 24.7141 230.262C23.9221 230.862 22.9321 231.162 21.7441 231.162C20.8081 231.162 19.9741 230.952 19.2421 230.532C18.5221 230.112 17.9581 229.518 17.5501 228.75C17.1421 227.982 16.9381 227.082 16.9381 226.05ZM33.3797 220.956C34.1237 220.956 34.7957 221.118 35.3957 221.442C35.9957 221.754 36.4637 222.228 36.7997 222.864C37.1477 223.5 37.3217 224.274 37.3217 225.186V231H35.7017V225.42C35.7017 224.436 35.4557 223.686 34.9637 223.17C34.4717 222.642 33.7997 222.378 32.9477 222.378C32.0837 222.378 31.3937 222.648 30.8777 223.188C30.3737 223.728 30.1217 224.514 30.1217 225.546V231H28.4837V217.68H30.1217V222.54C30.4457 222.036 30.8897 221.646 31.4537 221.37C32.0297 221.094 32.6717 220.956 33.3797 220.956ZM40.8433 219.534C40.5313 219.534 40.2673 219.426 40.0513 219.21C39.8353 218.994 39.7273 218.73 39.7273 218.418C39.7273 218.106 39.8353 217.842 40.0513 217.626C40.2673 217.41 40.5313 217.302 40.8433 217.302C41.1433 217.302 41.3953 217.41 41.5993 217.626C41.8153 217.842 41.9233 218.106 41.9233 218.418C41.9233 218.73 41.8153 218.994 41.5993 219.21C41.3953 219.426 41.1433 219.534 40.8433 219.534ZM41.6353 221.136V231H39.9973V221.136H41.6353ZM53.427 225.69C53.427 226.002 53.409 226.332 53.373 226.68H45.489C45.549 227.652 45.879 228.414 46.479 228.966C47.091 229.506 47.829 229.776 48.693 229.776C49.401 229.776 49.989 229.614 50.457 229.29C50.937 228.954 51.273 228.51 51.465 227.958H53.229C52.965 228.906 52.437 229.68 51.645 230.28C50.853 230.868 49.869 231.162 48.693 231.162C47.757 231.162 46.917 230.952 46.173 230.532C45.441 230.112 44.865 229.518 44.445 228.75C44.025 227.97 43.815 227.07 43.815 226.05C43.815 225.03 44.019 224.136 44.427 223.368C44.835 222.6 45.405 222.012 46.137 221.604C46.881 221.184 47.733 220.974 48.693 220.974C49.629 220.974 50.457 221.178 51.177 221.586C51.897 221.994 52.449 222.558 52.833 223.278C53.229 223.986 53.427 224.79 53.427 225.69ZM51.735 225.348C51.735 224.724 51.597 224.19 51.321 223.746C51.045 223.29 50.667 222.948 50.187 222.72C49.719 222.48 49.197 222.36 48.621 222.36C47.793 222.36 47.085 222.624 46.497 223.152C45.921 223.68 45.591 224.412 45.507 225.348H51.735ZM59.2611 229.488L62.3211 221.136H64.0671L60.1971 231H58.2891L54.4191 221.136H56.1831L59.2611 229.488ZM74.679 225.69C74.679 226.002 74.661 226.332 74.625 226.68H66.741C66.801 227.652 67.131 228.414 67.731 228.966C68.343 229.506 69.081 229.776 69.945 229.776C70.653 229.776 71.241 229.614 71.709 229.29C72.189 228.954 72.525 228.51 72.717 227.958H74.481C74.217 228.906 73.689 229.68 72.897 230.28C72.105 230.868 71.121 231.162 69.945 231.162C69.009 231.162 68.169 230.952 67.425 230.532C66.693 230.112 66.117 229.518 65.697 228.75C65.277 227.97 65.067 227.07 65.067 226.05C65.067 225.03 65.271 224.136 65.679 223.368C66.087 222.6 66.657 222.012 67.389 221.604C68.133 221.184 68.985 220.974 69.945 220.974C70.881 220.974 71.709 221.178 72.429 221.586C73.149 221.994 73.701 222.558 74.085 223.278C74.481 223.986 74.679 224.79 74.679 225.69ZM72.987 225.348C72.987 224.724 72.849 224.19 72.573 223.746C72.297 223.29 71.919 222.948 71.439 222.72C70.971 222.48 70.449 222.36 69.873 222.36C69.045 222.36 68.337 222.624 67.749 223.152C67.173 223.68 66.843 224.412 66.759 225.348H72.987ZM88.7031 220.956C89.4711 220.956 90.1551 221.118 90.7551 221.442C91.3551 221.754 91.8291 222.228 92.1771 222.864C92.5251 223.5 92.6991 224.274 92.6991 225.186V231H91.0791V225.42C91.0791 224.436 90.8331 223.686 90.3411 223.17C89.8611 222.642 89.2071 222.378 88.3791 222.378C87.5271 222.378 86.8491 222.654 86.3451 223.206C85.8411 223.746 85.5891 224.532 85.5891 225.564V231H83.9691V225.42C83.9691 224.436 83.7231 223.686 83.2311 223.17C82.7511 222.642 82.0971 222.378 81.2691 222.378C80.4171 222.378 79.7391 222.654 79.2351 223.206C78.7311 223.746 78.4791 224.532 78.4791 225.564V231H76.8411V221.136H78.4791V222.558C78.8031 222.042 79.2351 221.646 79.7751 221.37C80.3271 221.094 80.9331 220.956 81.5931 220.956C82.4211 220.956 83.1531 221.142 83.7891 221.514C84.4251 221.886 84.8991 222.432 85.2111 223.152C85.4871 222.456 85.9431 221.916 86.5791 221.532C87.2151 221.148 87.9231 220.956 88.7031 220.956ZM104.386 225.69C104.386 226.002 104.368 226.332 104.332 226.68H96.448C96.508 227.652 96.838 228.414 97.438 228.966C98.05 229.506 98.788 229.776 99.652 229.776C100.36 229.776 100.948 229.614 101.416 229.29C101.896 228.954 102.232 228.51 102.424 227.958H104.188C103.924 228.906 103.396 229.68 102.604 230.28C101.812 230.868 100.828 231.162 99.652 231.162C98.716 231.162 97.876 230.952 97.132 230.532C96.4 230.112 95.824 229.518 95.404 228.75C94.984 227.97 94.774 227.07 94.774 226.05C94.774 225.03 94.978 224.136 95.386 223.368C95.794 222.6 96.364 222.012 97.096 221.604C97.84 221.184 98.692 220.974 99.652 220.974C100.588 220.974 101.416 221.178 102.136 221.586C102.856 221.994 103.408 222.558 103.792 223.278C104.188 223.986 104.386 224.79 104.386 225.69ZM102.694 225.348C102.694 224.724 102.556 224.19 102.28 223.746C102.004 223.29 101.626 222.948 101.146 222.72C100.678 222.48 100.156 222.36 99.58 222.36C98.752 222.36 98.044 222.624 97.456 223.152C96.88 223.68 96.55 224.412 96.466 225.348H102.694ZM111.354 220.956C112.554 220.956 113.526 221.322 114.27 222.054C115.014 222.774 115.386 223.818 115.386 225.186V231H113.766V225.42C113.766 224.436 113.52 223.686 113.028 223.17C112.536 222.642 111.864 222.378 111.012 222.378C110.148 222.378 109.458 222.648 108.942 223.188C108.438 223.728 108.186 224.514 108.186 225.546V231H106.548V221.136H108.186V222.54C108.51 222.036 108.948 221.646 109.5 221.37C110.064 221.094 110.682 220.956 111.354 220.956ZM120.06 222.486V228.3C120.06 228.78 120.162 229.122 120.366 229.326C120.57 229.518 120.924 229.614 121.428 229.614H122.634V231H121.158C120.246 231 119.562 230.79 119.106 230.37C118.65 229.95 118.422 229.26 118.422 228.3V222.486H117.144V221.136H118.422V218.652H120.06V221.136H122.634V222.486H120.06ZM128.11 231.162C127.354 231.162 126.676 231.036 126.076 230.784C125.476 230.52 125.002 230.16 124.654 229.704C124.306 229.236 124.114 228.702 124.078 228.102H125.77C125.818 228.594 126.046 228.996 126.454 229.308C126.874 229.62 127.42 229.776 128.092 229.776C128.716 229.776 129.208 229.638 129.568 229.362C129.928 229.086 130.108 228.738 130.108 228.318C130.108 227.886 129.916 227.568 129.532 227.364C129.148 227.148 128.554 226.938 127.75 226.734C127.018 226.542 126.418 226.35 125.95 226.158C125.494 225.954 125.098 225.66 124.762 225.276C124.438 224.88 124.276 224.364 124.276 223.728C124.276 223.224 124.426 222.762 124.726 222.342C125.026 221.922 125.452 221.592 126.004 221.352C126.556 221.1 127.186 220.974 127.894 220.974C128.986 220.974 129.868 221.25 130.54 221.802C131.212 222.354 131.572 223.11 131.62 224.07H129.982C129.946 223.554 129.736 223.14 129.352 222.828C128.98 222.516 128.476 222.36 127.84 222.36C127.252 222.36 126.784 222.486 126.436 222.738C126.088 222.99 125.914 223.32 125.914 223.728C125.914 224.052 126.016 224.322 126.22 224.538C126.436 224.742 126.7 224.91 127.012 225.042C127.336 225.162 127.78 225.3 128.344 225.456C129.052 225.648 129.628 225.84 130.072 226.032C130.516 226.212 130.894 226.488 131.206 226.86C131.53 227.232 131.698 227.718 131.71 228.318C131.71 228.858 131.56 229.344 131.26 229.776C130.96 230.208 130.534 230.55 129.982 230.802C129.442 231.042 128.818 231.162 128.11 231.162ZM139.668 219.534C139.356 219.534 139.092 219.426 138.876 219.21C138.66 218.994 138.552 218.73 138.552 218.418C138.552 218.106 138.66 217.842 138.876 217.626C139.092 217.41 139.356 217.302 139.668 217.302C139.968 217.302 140.22 217.41 140.424 217.626C140.64 217.842 140.748 218.106 140.748 218.418C140.748 218.73 140.64 218.994 140.424 219.21C140.22 219.426 139.968 219.534 139.668 219.534ZM140.46 221.136V231H138.822V221.136H140.46ZM148.057 220.956C149.257 220.956 150.229 221.322 150.973 222.054C151.717 222.774 152.089 223.818 152.089 225.186V231H150.469V225.42C150.469 224.436 150.223 223.686 149.731 223.17C149.239 222.642 148.567 222.378 147.715 222.378C146.851 222.378 146.161 222.648 145.645 223.188C145.141 223.728 144.889 224.514 144.889 225.546V231H143.251V221.136H144.889V222.54C145.213 222.036 145.651 221.646 146.203 221.37C146.767 221.094 147.385 220.956 148.057 220.956ZM171.426 220.956C172.194 220.956 172.878 221.118 173.478 221.442C174.078 221.754 174.552 222.228 174.9 222.864C175.248 223.5 175.422 224.274 175.422 225.186V231H173.802V225.42C173.802 224.436 173.556 223.686 173.064 223.17C172.584 222.642 171.93 222.378 171.102 222.378C170.25 222.378 169.572 222.654 169.068 223.206C168.564 223.746 168.312 224.532 168.312 225.564V231H166.692V225.42C166.692 224.436 166.446 223.686 165.954 223.17C165.474 222.642 164.82 222.378 163.992 222.378C163.14 222.378 162.462 222.654 161.958 223.206C161.454 223.746 161.202 224.532 161.202 225.564V231H159.564V221.136H161.202V222.558C161.526 222.042 161.958 221.646 162.498 221.37C163.05 221.094 163.656 220.956 164.316 220.956C165.144 220.956 165.876 221.142 166.512 221.514C167.148 221.886 167.622 222.432 167.934 223.152C168.21 222.456 168.666 221.916 169.302 221.532C169.938 221.148 170.646 220.956 171.426 220.956ZM186.605 221.136L180.665 235.644H178.973L180.917 230.892L176.939 221.136H178.757L181.853 229.128L184.913 221.136H186.605ZM192.438 226.05C192.438 225.03 192.642 224.142 193.05 223.386C193.458 222.618 194.022 222.024 194.742 221.604C195.474 221.184 196.308 220.974 197.244 220.974C198.456 220.974 199.452 221.268 200.232 221.856C201.024 222.444 201.546 223.26 201.798 224.304H200.034C199.866 223.704 199.536 223.23 199.044 222.882C198.564 222.534 197.964 222.36 197.244 222.36C196.308 222.36 195.552 222.684 194.976 223.332C194.4 223.968 194.112 224.874 194.112 226.05C194.112 227.238 194.4 228.156 194.976 228.804C195.552 229.452 196.308 229.776 197.244 229.776C197.964 229.776 198.564 229.608 199.044 229.272C199.524 228.936 199.854 228.456 200.034 227.832H201.798C201.534 228.84 201.006 229.65 200.214 230.262C199.422 230.862 198.432 231.162 197.244 231.162C196.308 231.162 195.474 230.952 194.742 230.532C194.022 230.112 193.458 229.518 193.05 228.75C192.642 227.982 192.438 227.082 192.438 226.05ZM203.372 226.032C203.372 225.024 203.576 224.142 203.984 223.386C204.392 222.618 204.95 222.024 205.658 221.604C206.378 221.184 207.176 220.974 208.052 220.974C208.916 220.974 209.666 221.16 210.302 221.532C210.938 221.904 211.412 222.372 211.724 222.936V221.136H213.38V231H211.724V229.164C211.4 229.74 210.914 230.22 210.266 230.604C209.63 230.976 208.886 231.162 208.034 231.162C207.158 231.162 206.366 230.946 205.658 230.514C204.95 230.082 204.392 229.476 203.984 228.696C203.576 227.916 203.372 227.028 203.372 226.032ZM211.724 226.05C211.724 225.306 211.574 224.658 211.274 224.106C210.974 223.554 210.566 223.134 210.05 222.846C209.546 222.546 208.988 222.396 208.376 222.396C207.764 222.396 207.206 222.54 206.702 222.828C206.198 223.116 205.796 223.536 205.496 224.088C205.196 224.64 205.046 225.288 205.046 226.032C205.046 226.788 205.196 227.448 205.496 228.012C205.796 228.564 206.198 228.99 206.702 229.29C207.206 229.578 207.764 229.722 208.376 229.722C208.988 229.722 209.546 229.578 210.05 229.29C210.566 228.99 210.974 228.564 211.274 228.012C211.574 227.448 211.724 226.794 211.724 226.05ZM217.786 222.738C218.074 222.174 218.482 221.736 219.01 221.424C219.55 221.112 220.204 220.956 220.972 220.956V222.648H220.54C218.704 222.648 217.786 223.644 217.786 225.636V231H216.148V221.136H217.786V222.738ZM231.863 225.69C231.863 226.002 231.845 226.332 231.809 226.68H223.925C223.985 227.652 224.315 228.414 224.915 228.966C225.527 229.506 226.265 229.776 227.129 229.776C227.837 229.776 228.425 229.614 228.893 229.29C229.373 228.954 229.709 228.51 229.901 227.958H231.665C231.401 228.906 230.873 229.68 230.081 230.28C229.289 230.868 228.305 231.162 227.129 231.162C226.193 231.162 225.353 230.952 224.609 230.532C223.877 230.112 223.301 229.518 222.881 228.75C222.461 227.97 222.251 227.07 222.251 226.05C222.251 225.03 222.455 224.136 222.863 223.368C223.271 222.6 223.841 222.012 224.573 221.604C225.317 221.184 226.169 220.974 227.129 220.974C228.065 220.974 228.893 221.178 229.613 221.586C230.333 221.994 230.885 222.558 231.269 223.278C231.665 223.986 231.863 224.79 231.863 225.69ZM230.171 225.348C230.171 224.724 230.033 224.19 229.757 223.746C229.481 223.29 229.103 222.948 228.623 222.72C228.155 222.48 227.633 222.36 227.057 222.36C226.229 222.36 225.521 222.624 224.933 223.152C224.357 223.68 224.027 224.412 223.943 225.348H230.171ZM243.025 225.69C243.025 226.002 243.007 226.332 242.971 226.68H235.087C235.147 227.652 235.477 228.414 236.077 228.966C236.689 229.506 237.427 229.776 238.291 229.776C238.999 229.776 239.587 229.614 240.055 229.29C240.535 228.954 240.871 228.51 241.063 227.958H242.827C242.563 228.906 242.035 229.68 241.243 230.28C240.451 230.868 239.467 231.162 238.291 231.162C237.355 231.162 236.515 230.952 235.771 230.532C235.039 230.112 234.463 229.518 234.043 228.75C233.623 227.97 233.413 227.07 233.413 226.05C233.413 225.03 233.617 224.136 234.025 223.368C234.433 222.6 235.003 222.012 235.735 221.604C236.479 221.184 237.331 220.974 238.291 220.974C239.227 220.974 240.055 221.178 240.775 221.586C241.495 221.994 242.047 222.558 242.431 223.278C242.827 223.986 243.025 224.79 243.025 225.69ZM241.333 225.348C241.333 224.724 241.195 224.19 240.919 223.746C240.643 223.29 240.265 222.948 239.785 222.72C239.317 222.48 238.795 222.36 238.219 222.36C237.391 222.36 236.683 222.624 236.095 223.152C235.519 223.68 235.189 224.412 235.105 225.348H241.333ZM246.825 222.738C247.113 222.174 247.521 221.736 248.049 221.424C248.589 221.112 249.243 220.956 250.011 220.956V222.648H249.579C247.743 222.648 246.825 223.644 246.825 225.636V231H245.187V221.136H246.825V222.738ZM252.424 231.108C252.112 231.108 251.848 231 251.632 230.784C251.416 230.568 251.308 230.304 251.308 229.992C251.308 229.68 251.416 229.416 251.632 229.2C251.848 228.984 252.112 228.876 252.424 228.876C252.724 228.876 252.976 228.984 253.18 229.2C253.396 229.416 253.504 229.68 253.504 229.992C253.504 230.304 253.396 230.568 253.18 230.784C252.976 231 252.724 231.108 252.424 231.108Z" fill="#F3F8FF"/>
<path d="M52.344 14.304L43.56 48H33.624L28.248 25.824L22.68 48H12.744L4.2 14.304H12.984L17.832 38.832L23.832 14.304H32.856L38.616 38.832L43.512 14.304H52.344ZM68.1724 48.384C65.5484 48.384 63.1804 47.824 61.0684 46.704C58.9884 45.584 57.3404 43.984 56.1244 41.904C54.9404 39.824 54.3484 37.392 54.3484 34.608C54.3484 31.856 54.9564 29.44 56.1724 27.36C57.3884 25.248 59.0524 23.632 61.1644 22.512C63.2764 21.392 65.6444 20.832 68.2684 20.832C70.8924 20.832 73.2604 21.392 75.3724 22.512C77.4844 23.632 79.1484 25.248 80.3644 27.36C81.5804 29.44 82.1884 31.856 82.1884 34.608C82.1884 37.36 81.5644 39.792 80.3164 41.904C79.1004 43.984 77.4204 45.584 75.2764 46.704C73.1644 47.824 70.7964 48.384 68.1724 48.384ZM68.1724 41.28C69.7404 41.28 71.0684 40.704 72.1564 39.552C73.2764 38.4 73.8364 36.752 73.8364 34.608C73.8364 32.464 73.2924 30.816 72.2044 29.664C71.1484 28.512 69.8364 27.936 68.2684 27.936C66.6684 27.936 65.3404 28.512 64.2844 29.664C63.2284 30.784 62.7004 32.432 62.7004 34.608C62.7004 36.752 63.2124 38.4 64.2364 39.552C65.2924 40.704 66.6044 41.28 68.1724 41.28ZM94.2709 25.68C95.2309 24.208 96.4309 23.056 97.8709 22.224C99.3109 21.36 100.911 20.928 102.671 20.928V29.616H100.415C98.3669 29.616 96.8309 30.064 95.8069 30.96C94.7829 31.824 94.2709 33.36 94.2709 35.568V48H86.0629V21.216H94.2709V25.68ZM122.482 48L114.322 36.768V48H106.114V12.48H114.322V32.112L122.434 21.216H132.562L121.426 34.656L132.658 48H122.482ZM14.184 75.88V82.696H25.176V89.032H14.184V96.424H26.616V103H5.976V69.304H26.616V75.88H14.184ZM47.3048 103L42.1688 95.56L37.8488 103H28.9688L37.8008 89.32L28.7288 76.216H37.9448L43.0808 83.608L47.4008 76.216H56.2808L47.3048 89.704L56.5208 103H47.3048ZM67.4115 80.008C68.2115 78.76 69.3155 77.752 70.7235 76.984C72.1315 76.216 73.7795 75.832 75.6675 75.832C77.8755 75.832 79.8755 76.392 81.6675 77.512C83.4595 78.632 84.8675 80.232 85.8915 82.312C86.9475 84.392 87.4755 86.808 87.4755 89.56C87.4755 92.312 86.9475 94.744 85.8915 96.856C84.8675 98.936 83.4595 100.552 81.6675 101.704C79.8755 102.824 77.8755 103.384 75.6675 103.384C73.8115 103.384 72.1635 103 70.7235 102.232C69.3155 101.464 68.2115 100.472 67.4115 99.256V115.768H59.2035V76.216H67.4115V80.008ZM79.1235 89.56C79.1235 87.512 78.5475 85.912 77.3955 84.76C76.2755 83.576 74.8835 82.984 73.2195 82.984C71.5875 82.984 70.1955 83.576 69.0435 84.76C67.9235 85.944 67.3635 87.56 67.3635 89.608C67.3635 91.656 67.9235 93.272 69.0435 94.456C70.1955 95.64 71.5875 96.232 73.2195 96.232C74.8515 96.232 76.2435 95.64 77.3955 94.456C78.5475 93.24 79.1235 91.608 79.1235 89.56ZM116.55 89.176C116.55 89.944 116.502 90.744 116.406 91.576H97.8296C97.9576 93.24 98.4856 94.52 99.4136 95.416C100.374 96.28 101.542 96.712 102.918 96.712C104.966 96.712 106.39 95.848 107.19 94.12H115.926C115.478 95.88 114.662 97.464 113.478 98.872C112.326 100.28 110.87 101.384 109.11 102.184C107.35 102.984 105.382 103.384 103.206 103.384C100.582 103.384 98.2456 102.824 96.1976 101.704C94.1496 100.584 92.5496 98.984 91.3976 96.904C90.2456 94.824 89.6696 92.392 89.6696 89.608C89.6696 86.824 90.2296 84.392 91.3496 82.312C92.5016 80.232 94.1016 78.632 96.1496 77.512C98.1976 76.392 100.55 75.832 103.206 75.832C105.798 75.832 108.102 76.376 110.118 77.464C112.134 78.552 113.702 80.104 114.822 82.12C115.974 84.136 116.55 86.488 116.55 89.176ZM108.15 87.016C108.15 85.608 107.67 84.488 106.71 83.656C105.75 82.824 104.55 82.408 103.11 82.408C101.734 82.408 100.566 82.808 99.6056 83.608C98.6776 84.408 98.1016 85.544 97.8776 87.016H108.15ZM128.608 80.68C129.568 79.208 130.768 78.056 132.208 77.224C133.648 76.36 135.248 75.928 137.008 75.928V84.616H134.752C132.704 84.616 131.168 85.064 130.144 85.96C129.12 86.824 128.608 88.36 128.608 90.568V103H120.4V76.216H128.608V80.68ZM144.579 73.432C143.139 73.432 141.955 73.016 141.027 72.184C140.131 71.32 139.683 70.264 139.683 69.016C139.683 67.736 140.131 66.68 141.027 65.848C141.955 64.984 143.139 64.552 144.579 64.552C145.987 64.552 147.139 64.984 148.035 65.848C148.963 66.68 149.427 67.736 149.427 69.016C149.427 70.264 148.963 71.32 148.035 72.184C147.139 73.016 145.987 73.432 144.579 73.432ZM148.659 76.216V103H140.451V76.216H148.659ZM179.375 89.176C179.375 89.944 179.327 90.744 179.231 91.576H160.655C160.783 93.24 161.311 94.52 162.239 95.416C163.199 96.28 164.367 96.712 165.743 96.712C167.791 96.712 169.215 95.848 170.015 94.12H178.751C178.303 95.88 177.487 97.464 176.303 98.872C175.151 100.28 173.695 101.384 171.935 102.184C170.175 102.984 168.207 103.384 166.031 103.384C163.407 103.384 161.071 102.824 159.023 101.704C156.975 100.584 155.375 98.984 154.223 96.904C153.071 94.824 152.495 92.392 152.495 89.608C152.495 86.824 153.055 84.392 154.175 82.312C155.327 80.232 156.927 78.632 158.975 77.512C161.023 76.392 163.375 75.832 166.031 75.832C168.623 75.832 170.927 76.376 172.943 77.464C174.959 78.552 176.527 80.104 177.647 82.12C178.799 84.136 179.375 86.488 179.375 89.176ZM170.975 87.016C170.975 85.608 170.495 84.488 169.535 83.656C168.575 82.824 167.375 82.408 165.935 82.408C164.559 82.408 163.391 82.808 162.431 83.608C161.503 84.408 160.927 85.544 160.703 87.016H170.975ZM199.545 75.928C202.681 75.928 205.177 76.952 207.033 79C208.921 81.016 209.865 83.8 209.865 87.352V103H201.705V88.456C201.705 86.664 201.241 85.272 200.313 84.28C199.385 83.288 198.137 82.792 196.569 82.792C195.001 82.792 193.753 83.288 192.825 84.28C191.897 85.272 191.433 86.664 191.433 88.456V103H183.225V76.216H191.433V79.768C192.265 78.584 193.385 77.656 194.793 76.984C196.201 76.28 197.785 75.928 199.545 75.928ZM213.457 89.608C213.457 86.824 214.017 84.392 215.137 82.312C216.289 80.232 217.873 78.632 219.889 77.512C221.937 76.392 224.273 75.832 226.897 75.832C230.257 75.832 233.057 76.712 235.297 78.472C237.569 80.232 239.057 82.712 239.761 85.912H231.025C230.289 83.864 228.865 82.84 226.753 82.84C225.249 82.84 224.049 83.432 223.153 84.616C222.257 85.768 221.809 87.432 221.809 89.608C221.809 91.784 222.257 93.464 223.153 94.648C224.049 95.8 225.249 96.376 226.753 96.376C228.865 96.376 230.289 95.352 231.025 93.304H239.761C239.057 96.44 237.569 98.904 235.297 100.696C233.025 102.488 230.225 103.384 226.897 103.384C224.273 103.384 221.937 102.824 219.889 101.704C217.873 100.584 216.289 98.984 215.137 96.904C214.017 94.824 213.457 92.392 213.457 89.608ZM268.92 89.176C268.92 89.944 268.872 90.744 268.776 91.576H250.2C250.328 93.24 250.856 94.52 251.784 95.416C252.744 96.28 253.912 96.712 255.288 96.712C257.336 96.712 258.76 95.848 259.56 94.12H268.296C267.848 95.88 267.032 97.464 265.848 98.872C264.696 100.28 263.24 101.384 261.48 102.184C259.72 102.984 257.752 103.384 255.576 103.384C252.952 103.384 250.616 102.824 248.568 101.704C246.52 100.584 244.92 98.984 243.768 96.904C242.616 94.824 242.04 92.392 242.04 89.608C242.04 86.824 242.6 84.392 243.72 82.312C244.872 80.232 246.472 78.632 248.52 77.512C250.568 76.392 252.92 75.832 255.576 75.832C258.168 75.832 260.472 76.376 262.488 77.464C264.504 78.552 266.072 80.104 267.192 82.12C268.344 84.136 268.92 86.488 268.92 89.176ZM260.52 87.016C260.52 85.608 260.04 84.488 259.08 83.656C258.12 82.824 256.92 82.408 255.48 82.408C254.104 82.408 252.936 82.808 251.976 83.608C251.048 84.408 250.472 85.544 250.248 87.016H260.52Z" fill="white"/>
</svg>
