<svg width="103" height="100" viewBox="0 0 103 100" fill="none" xmlns="http://www.w3.org/2000/svg">
<circle cx="50.0339" cy="50" r="50" fill="#F3F8FF"/>
<path d="M74 63.2998C72.254 63.7303 71.174 63.3187 70.205 61.908L63.314 52.6642L62.318 51.3844L54.2705 61.9385C53.351 63.2082 52.3865 63.7608 50.6705 63.3114L60.9755 49.8995L51.3815 37.7849C53.0315 37.4737 54.1715 37.6322 55.184 39.0647L62.3315 48.4234L69.5315 39.1156C70.454 37.846 71.4455 37.3632 73.1015 37.8315L69.3815 42.6133L64.3415 48.976C63.7415 49.7032 63.824 50.2006 64.376 50.903L74 63.2998ZM26.012 49.6756L26.855 45.6558C29.15 37.7006 38.555 34.3949 45.041 39.3105C48.8315 42.2017 49.7735 46.2913 49.586 50.8725H28.22C27.899 59.1186 34.0205 64.0953 41.825 61.5561C44.5625 60.6645 46.175 58.5863 46.982 55.9859C47.3915 54.6829 48.0695 54.4792 49.3325 54.8516C48.6875 58.1035 47.2325 60.8202 44.1575 62.5203C39.563 65.0654 33.005 64.2422 29.555 60.7053C27.5 58.6532 26.651 56.0528 26.27 53.2721C26.21 52.8126 26.09 52.3748 26 51.9342C26.008 51.1818 26.012 50.4294 26.012 49.677V49.6756ZM28.259 49.1229H47.567C47.441 43.1601 43.6115 38.9251 38.378 38.8888C32.633 38.8451 28.508 42.9798 28.259 49.1229Z" fill="black"/>
</svg>
