<svg width="104" height="100" viewBox="0 0 104 100" fill="none" xmlns="http://www.w3.org/2000/svg">
<circle cx="50.5583" cy="50" r="50" fill="#F3F8FF"/>
<g clip-path="url(#clip0_3718_314)">
<path fill-rule="evenodd" clip-rule="evenodd" d="M51.5568 25.521C37.7521 25.521 26.5583 36.7575 26.5583 50.6216C26.5583 61.7092 33.7208 71.1167 43.6568 74.436C44.9068 74.6666 45.363 73.8916 45.363 73.2265C45.363 72.6304 45.3411 71.0523 45.3286 68.9581C38.3739 70.4751 36.9068 65.5933 36.9068 65.5933C35.7709 62.6944 34.1318 61.9226 34.1318 61.9226C31.8615 60.3648 34.3036 60.3962 34.3036 60.3962C36.8115 60.5734 38.1318 62.983 38.1318 62.983C40.363 66.8184 43.9834 65.7109 45.4084 65.0678C45.6349 63.4457 46.2818 62.3398 46.9958 61.7124C41.4443 61.0786 35.6083 58.9263 35.6083 49.3087C35.6083 46.5682 36.5818 44.3281 38.1818 42.5727C37.924 41.9374 37.0662 39.3867 38.4256 35.9309C38.4256 35.9309 40.5255 35.2563 45.3005 38.5035C47.2958 37.9466 49.4334 37.6689 51.5599 37.658C53.6834 37.6689 55.8224 37.9466 57.8193 38.5035C62.5912 35.2563 64.6865 35.9309 64.6865 35.9309C66.0506 39.3867 65.1927 41.9374 64.9349 42.5727C66.538 44.3281 67.5052 46.5682 67.5052 49.3087C67.5052 58.9499 61.6599 61.0723 56.0912 61.6935C56.988 62.4684 57.7881 63.9995 57.7881 66.3416C57.7881 69.697 57.7568 72.403 57.7568 73.2265C57.7568 73.8979 58.2068 74.6791 59.4756 74.4329C69.4021 71.1072 76.5583 61.706 76.5583 50.6216C76.5583 36.7575 65.3646 25.521 51.5568 25.521Z" fill="#3E75C3"/>
</g>
<defs>
<clipPath id="clip0_3718_314">
<rect width="50" height="50" fill="white" transform="translate(26.5583 25)"/>
</clipPath>
</defs>
</svg>
