<svg width="104" height="100" viewBox="0 0 104 100" fill="none" xmlns="http://www.w3.org/2000/svg">
<circle cx="50.3544" cy="50" r="50" fill="#F3F8FF"/>
<path d="M34.0312 69.9219L29.9296 25H73.9726L69.9687 69.9219L51.9999 75" fill="#264DE4"/>
<path d="M51.9999 28.6133V71.0938L66.5507 67.0898L69.9687 28.6133" fill="#2965F1"/>
<path d="M38.1328 34.1797H51.9999V39.6484H38.621M39.1093 45.3125H51.9999V50.8789H39.5976M39.8906 53.6133H45.3593L45.7499 58.0078L51.9999 59.668V65.4297L40.5742 62.3047" fill="#EBEBEB"/>
<path d="M51.9999 45.3125V50.8789H58.7382L58.0546 58.0078L51.9999 59.668V65.4297L63.2304 62.3047L65.7695 34.1797H51.9999V39.6484H59.8124L59.2753 45.3125H51.9999Z" fill="white"/>
</svg>
