<svg width="104" height="100" viewBox="0 0 104 100" fill="none" xmlns="http://www.w3.org/2000/svg">
<circle cx="50.5" cy="50" r="50" fill="#F3F8FF"/>
<g clip-path="url(#clip0_3718_242)">
<path d="M69 25H34C29.8579 25 26.5 28.3579 26.5 32.5V67.5C26.5 71.6421 29.8579 75 34 75H69C73.1421 75 76.5 71.6421 76.5 67.5V32.5C76.5 28.3579 73.1421 25 69 25Z" fill="#F0DB4F"/>
<path d="M58.1406 61.1328C59.1172 62.793 60.4844 63.9648 62.7305 63.9648C64.6836 63.9648 65.9531 62.9883 65.9531 61.6211C65.9531 60.0586 64.6836 59.4727 62.5352 58.4961L61.3633 58.0078C57.9453 56.543 55.6992 54.7852 55.6992 50.9766C55.6992 47.4609 58.3359 44.7266 62.5352 44.7266C65.5625 44.7266 67.7109 45.8008 69.1758 48.5352L65.5625 50.8789C64.7812 49.4141 63.9023 48.8281 62.5352 48.8281C61.168 48.8281 60.2891 49.707 60.2891 50.8789C60.2891 52.2461 61.168 52.832 63.2188 53.7109L64.3906 54.1992C68.3945 55.957 70.6406 57.6172 70.6406 61.6211C70.6406 65.8203 67.3203 68.1641 62.8281 68.1641C58.4336 68.1641 55.6016 66.1133 54.2344 63.3789L58.1406 61.1328ZM41.5391 61.5234C42.3203 62.793 42.9062 63.9648 44.5664 63.9648C46.1289 63.9648 47.1055 63.3789 47.1055 61.0352V44.8242H51.793V60.8398C51.793 65.7227 48.9609 67.8711 44.7617 67.8711C40.9531 67.8711 38.8047 65.918 37.7305 63.5742L41.5391 61.5234Z" fill="#323330"/>
</g>
<defs>
<clipPath id="clip0_3718_242">
<rect width="50" height="50" fill="white" transform="translate(26.5 25)"/>
</clipPath>
</defs>
</svg>
