<svg width="45" height="45" viewBox="0 0 45 45" fill="none" xmlns="http://www.w3.org/2000/svg">
  <rect x="45" y="45" width="45" height="45" rx="22.5" transform="rotate(180 45 45)" fill="url(#paint0_angular_3309_968)" />
  <path d="M24.9524 23.6038V21.1514C24.9524 20.8153 24.8869 20.4991 24.7559 20.2029C24.6305 19.901 24.4568 19.6389 24.2346 19.4167C24.0125 19.1946 23.7504 19.0208 23.4485 18.8955C23.1523 18.7645 22.8361 18.699 22.5 18.699C22.1639 18.699 21.8449 18.7645 21.543 18.8955C21.2467 19.0208 20.9875 19.1946 20.7654 19.4167C20.5432 19.6389 20.3666 19.901 20.2356 20.2029C20.1103 20.4991 20.0476 20.8153 20.0476 21.1514V23.6038H24.9524ZM27.4048 28.5L24.9524 28.5V26.0476H20.0476V28.5H17.6038V21.1514C17.6038 20.4735 17.7319 19.8383 17.9883 19.2458C18.2446 18.6477 18.5921 18.1265 19.0308 17.6821C19.4751 17.2378 19.9935 16.8875 20.5859 16.6311C21.1841 16.3748 21.8221 16.2466 22.5 16.2466C23.1779 16.2466 23.8131 16.3748 24.4055 16.6311C25.0037 16.8875 25.5249 17.2378 25.9692 17.6821C26.4136 18.1265 26.7639 18.6477 27.0203 19.2458C27.2766 19.8383 27.4048 20.4735 27.4048 21.1514V28.5Z" fill="A" />
  <text x="50%" y="50%" text-anchor="middle" dominant-baseline="middle" font-size="20" fill="white">M</text>
  <defs>
    <radialGradient id="paint0_angular_3309_968" cx="0" cy="0" r="1" gradientUnits="userSpaceOnUse" gradientTransform="translate(67.5 79) rotate(90) scale(11)">
      <stop stop-color="#0252CD" />
      <stop offset="1" stop-color="#0252CD" stop-opacity="0.33" />
    </radialGradient>
  </defs>
</svg>
