<svg width="26" height="23" viewBox="0 0 26 23" fill="none" xmlns="http://www.w3.org/2000/svg">
<path d="M19.1747 0.25C20.851 0.25 22.4635 0.9125 23.6497 2.10125C24.8372 3.2875 25.501 4.8875 25.501 6.5625V16.4375C25.501 19.925 22.6635 22.75 19.1747 22.75H6.82598C3.33723 22.75 0.500977 19.925 0.500977 16.4375V6.5625C0.500977 3.075 3.32473 0.25 6.82598 0.25H19.1747ZM20.5885 6.75C20.326 6.73625 20.076 6.825 19.8872 7L14.251 11.5C13.526 12.1012 12.4872 12.1012 11.751 11.5L6.12598 7C5.73723 6.7125 5.19973 6.75 4.87598 7.0875C4.53848 7.425 4.50098 7.9625 4.78723 8.3375L4.95098 8.5L10.6385 12.9375C11.3385 13.4875 12.1872 13.7875 13.076 13.7875C13.9622 13.7875 14.826 13.4875 15.5247 12.9375L21.1635 8.425L21.2635 8.325C21.5622 7.9625 21.5622 7.4375 21.2497 7.075C21.076 6.88875 20.8372 6.775 20.5885 6.75Z" fill="#778295"/>
</svg>
