<svg width="104" height="100" viewBox="0 0 104 100" fill="none" xmlns="http://www.w3.org/2000/svg">
<circle cx="50.8301" cy="50" r="50" fill="#192333"/>
<g clip-path="url(#clip0_3313_11488)">
<path d="M26.8301 51.7281V30.0781L45.5801 40.9031V48.1198L33.0801 40.9031V55.3365L26.8301 51.7281Z" fill="#778295"/>
<path d="M45.5801 40.9031L64.3301 30.0781V51.7281L51.8301 58.9448L45.5801 55.3365L58.0801 48.1198V40.9031L45.5801 48.1198V40.9031Z" fill="#778295"/>
<path d="M45.5801 55.3364V62.5531L58.0801 69.7698V62.5531L45.5801 55.3364Z" fill="#778295"/>
<path d="M58.0801 69.7698L76.8301 58.9448V44.5115L70.5801 48.1198V55.3365L58.0801 62.5531V69.7698ZM70.5801 40.9031V33.6865L76.8301 30.0781V37.2948L70.5801 40.9031Z" fill="#778295"/>
</g>
<defs>
<clipPath id="clip0_3313_11488">
<rect width="50" height="50" fill="white" transform="translate(26.8301 25)"/>
</clipPath>
</defs>
</svg>
