<svg width="103" height="100" viewBox="0 0 103 100" fill="none" xmlns="http://www.w3.org/2000/svg">
<circle cx="50.2961" cy="50" r="50" fill="#F3F8FF"/>
<path d="M51.2961 74.9072C50.6084 74.9072 49.9665 74.7238 49.3705 74.4029L43.2725 70.7808C42.3555 70.2764 42.814 70.093 43.0891 70.0013C44.327 69.5887 44.5563 69.497 45.8401 68.7634C45.9776 68.6717 46.161 68.7175 46.2985 68.8092L50.9752 71.6061C51.1586 71.6978 51.3878 71.6978 51.5254 71.6061L69.8194 61.0148C70.0028 60.9231 70.0945 60.7397 70.0945 60.5105V39.3738C70.0945 39.1446 70.0028 38.9612 69.8194 38.8695L51.5254 28.3241C51.342 28.2324 51.1127 28.2324 50.9752 28.3241L32.6812 38.8695C32.4978 38.9612 32.4061 39.1904 32.4061 39.3738V60.5105C32.4061 60.6939 32.4978 60.9231 32.6812 61.0148L37.6788 63.9033C40.384 65.2788 42.0804 63.6741 42.0804 62.0694V41.2078C42.0804 40.9327 42.3096 40.6576 42.6306 40.6576H44.9689C45.244 40.6576 45.5191 40.8869 45.5191 41.2078V62.0694C45.5191 65.6915 43.5476 67.8005 40.1089 67.8005C39.0543 67.8005 38.229 67.8005 35.8907 66.6543L31.0765 63.9033C29.8844 63.2156 29.1508 61.9318 29.1508 60.5563V39.4197C29.1508 38.0442 29.8844 36.7604 31.0765 36.0727L49.3705 25.4814C50.5167 24.8395 52.0756 24.8395 53.2218 25.4814L71.5158 36.0727C72.7079 36.7604 73.4415 38.0442 73.4415 39.4197V60.5563C73.4415 61.9318 72.7079 63.2156 71.5158 63.9033L53.2218 74.4946C52.6258 74.7697 51.938 74.9072 51.2961 74.9072ZM56.9356 60.3729C48.912 60.3729 47.2614 56.705 47.2614 53.5872C47.2614 53.3121 47.4906 53.037 47.8116 53.037H50.1958C50.4709 53.037 50.7001 53.2204 50.7001 53.4955C51.0669 55.9255 52.1214 57.1176 56.9815 57.1176C60.8329 57.1176 62.4834 56.2465 62.4834 54.1832C62.4834 52.9911 62.0249 52.12 56.0187 51.524C51.021 51.0196 47.9033 49.9192 47.9033 45.9303C47.9033 42.2165 51.021 40.0157 56.2479 40.0157C62.1166 40.0157 65.0052 42.0331 65.372 46.4347C65.372 46.5722 65.3261 46.7098 65.2344 46.8473C65.1427 46.939 65.0052 47.0307 64.8676 47.0307H62.4834C62.2542 47.0307 62.0249 46.8473 61.9791 46.6181C61.4289 44.0963 60.0076 43.271 56.2479 43.271C52.0297 43.271 51.5254 44.7382 51.5254 45.8386C51.5254 47.1683 52.1214 47.5809 57.8068 48.3145C63.4463 49.0481 66.1055 50.1026 66.1055 54.0457C66.0597 58.0804 62.7585 60.3729 56.9356 60.3729Z" fill="#539E43"/>
</svg>
