<svg width="115" height="114" viewBox="0 0 115 114" fill="none" xmlns="http://www.w3.org/2000/svg">
<g filter="url(#filter0_d_3309_2100)">
<rect x="16.0952" y="16" width="62" height="62" rx="10" fill="#0252CD"/>
</g>
<g clip-path="url(#clip0_3309_2100)">
<path d="M57.7491 37H37.4414C36.9517 37 36.4822 37.1916 36.1359 37.5325C35.7897 37.8735 35.5952 38.336 35.5952 38.8182V55.1818C35.5952 55.664 35.7897 56.1265 36.1359 56.4675C36.4822 56.8084 36.9517 57 37.4414 57H57.7491C58.2387 57 58.7083 56.8084 59.0545 56.4675C59.4007 56.1265 59.5952 55.664 59.5952 55.1818V38.8182C59.5952 38.336 59.4007 37.8735 59.0545 37.5325C58.7083 37.1916 58.2387 37 57.7491 37ZM43.5337 49C43.7295 49.1447 43.859 49.36 43.8936 49.5987C43.9283 49.8374 43.8652 50.0798 43.7183 50.2727C43.5714 50.4656 43.3527 50.5931 43.1104 50.6272C42.868 50.6613 42.6218 50.5992 42.426 50.4545L38.7337 47.7273C38.619 47.6426 38.526 47.5328 38.4619 47.4066C38.3978 47.2803 38.3644 47.1411 38.3644 47C38.3644 46.8589 38.3978 46.7197 38.4619 46.5934C38.526 46.4672 38.619 46.3574 38.7337 46.2727L42.426 43.5455C42.6218 43.4008 42.868 43.3387 43.1104 43.3728C43.3527 43.4069 43.5714 43.5344 43.7183 43.7273C43.8652 43.9202 43.9283 44.1626 43.8936 44.4013C43.859 44.64 43.7295 44.8553 43.5337 45L40.8256 47L43.5337 49ZM50.3287 40.8864L46.6364 53.6136C46.6049 53.7305 46.5501 53.8399 46.4752 53.9356C46.4002 54.0314 46.3067 54.1114 46.1999 54.1711C46.0932 54.2307 45.9755 54.2689 45.8536 54.2832C45.7318 54.2975 45.6082 54.2878 45.4903 54.2546C45.3723 54.2213 45.2622 54.1652 45.1665 54.0896C45.0708 54.014 44.9913 53.9203 44.9328 53.814C44.8743 53.7078 44.8378 53.5912 44.8256 53.4709C44.8135 53.3506 44.8257 53.2292 44.8618 53.1136L48.5541 40.3864C48.625 40.1588 48.7838 39.9677 48.9963 39.8542C49.2087 39.7407 49.458 39.7137 49.6904 39.7792C49.9228 39.8447 50.1198 39.9974 50.2392 40.2044C50.3585 40.4114 50.3907 40.6563 50.3287 40.8864ZM56.4568 47.7273L52.7644 50.4545C52.5686 50.5992 52.3224 50.6613 52.0801 50.6272C51.8377 50.5931 51.619 50.4656 51.4721 50.2727C51.3252 50.0798 51.2622 49.8374 51.2968 49.5987C51.3314 49.36 51.4609 49.1447 51.6568 49L54.3648 47L51.6568 45C51.5598 44.9284 51.4781 44.8386 51.4163 44.7359C51.3546 44.6332 51.3139 44.5195 51.2968 44.4013C51.2797 44.2831 51.2863 44.1628 51.3164 44.0471C51.3465 43.9315 51.3994 43.8228 51.4721 43.7273C51.5449 43.6318 51.636 43.5513 51.7403 43.4905C51.8446 43.4297 51.9601 43.3897 52.0801 43.3728C52.2001 43.3559 52.3223 43.3624 52.4397 43.3921C52.5571 43.4217 52.6675 43.4738 52.7644 43.5455L56.4568 46.2727C56.5714 46.3574 56.6644 46.4672 56.7285 46.5934C56.7926 46.7197 56.826 46.8589 56.826 47C56.826 47.1411 56.7926 47.2803 56.7285 47.4066C56.6644 47.5328 56.5714 47.6426 56.4568 47.7273Z" fill="white"/>
</g>
<defs>
<filter id="filter0_d_3309_2100" x="0.0952148" y="0" width="114" height="114" filterUnits="userSpaceOnUse" color-interpolation-filters="sRGB">
<feFlood flood-opacity="0" result="BackgroundImageFix"/>
<feColorMatrix in="SourceAlpha" type="matrix" values="0 0 0 0 0 0 0 0 0 0 0 0 0 0 0 0 0 0 127 0" result="hardAlpha"/>
<feOffset dx="10" dy="10"/>
<feGaussianBlur stdDeviation="13"/>
<feComposite in2="hardAlpha" operator="out"/>
<feColorMatrix type="matrix" values="0 0 0 0 0.00784314 0 0 0 0 0.321569 0 0 0 0 0.803922 0 0 0 0.28 0"/>
<feBlend mode="normal" in2="BackgroundImageFix" result="effect1_dropShadow_3309_2100"/>
<feBlend mode="normal" in="SourceGraphic" in2="effect1_dropShadow_3309_2100" result="shape"/>
</filter>
<clipPath id="clip0_3309_2100">
<rect width="24" height="24" fill="white" transform="translate(35.5952 35)"/>
</clipPath>
</defs>
</svg>
