<svg width="690" height="55" viewBox="0 0 690 55" fill="none" xmlns="http://www.w3.org/2000/svg">
<rect x="186" y="38" width="172" height="15" fill="#FFBE62"/>
<path d="M88.7837 8.304L79.9997 42H70.0637L64.6877 19.824L59.1197 42H49.1837L40.6397 8.304H49.4237L54.2717 32.832L60.2717 8.304H69.2957L75.0557 32.832L79.9517 8.304H88.7837ZM108.884 14.928C111.956 14.928 114.42 15.952 116.276 18C118.132 20.016 119.06 22.8 119.06 26.352V42H110.9V27.456C110.9 25.664 110.436 24.272 109.508 23.28C108.58 22.288 107.332 21.792 105.764 21.792C104.196 21.792 102.948 22.288 102.02 23.28C101.092 24.272 100.628 25.664 100.628 27.456V42H92.4201V6.48H100.628V18.816C101.46 17.632 102.596 16.688 104.036 15.984C105.476 15.28 107.092 14.928 108.884 14.928ZM122.652 28.56C122.652 25.808 123.164 23.392 124.188 21.312C125.244 19.232 126.668 17.632 128.46 16.512C130.252 15.392 132.252 14.832 134.46 14.832C136.348 14.832 137.996 15.216 139.404 15.984C140.844 16.752 141.948 17.76 142.716 19.008V15.216H150.924V42H142.716V38.208C141.916 39.456 140.796 40.464 139.356 41.232C137.948 42 136.3 42.384 134.412 42.384C132.236 42.384 130.252 41.824 128.46 40.704C126.668 39.552 125.244 37.936 124.188 35.856C123.164 33.744 122.652 31.312 122.652 28.56ZM142.716 28.608C142.716 26.56 142.14 24.944 140.988 23.76C139.868 22.576 138.492 21.984 136.86 21.984C135.228 21.984 133.836 22.576 132.684 23.76C131.564 24.912 131.004 26.512 131.004 28.56C131.004 30.608 131.564 32.24 132.684 33.456C133.836 34.64 135.228 35.232 136.86 35.232C138.492 35.232 139.868 34.64 140.988 33.456C142.14 32.272 142.716 30.656 142.716 28.608ZM171.31 35.04V42H167.134C164.158 42 161.838 41.28 160.174 39.84C158.51 38.368 157.678 35.984 157.678 32.688V22.032H154.414V15.216H157.678V8.688H165.886V15.216H171.262V22.032H165.886V32.784C165.886 33.584 166.078 34.16 166.462 34.512C166.846 34.864 167.486 35.04 168.382 35.04H171.31ZM195.99 42.384C193.654 42.384 191.574 41.984 189.75 41.184C187.926 40.384 186.486 39.296 185.43 37.92C184.374 36.512 183.782 34.944 183.654 33.216H191.766C191.862 34.144 192.294 34.896 193.062 35.472C193.83 36.048 194.774 36.336 195.894 36.336C196.918 36.336 197.702 36.144 198.246 35.76C198.822 35.344 199.11 34.816 199.11 34.176C199.11 33.408 198.71 32.848 197.91 32.496C197.11 32.112 195.814 31.696 194.022 31.248C192.102 30.8 190.502 30.336 189.222 29.856C187.942 29.344 186.838 28.56 185.91 27.504C184.982 26.416 184.518 24.96 184.518 23.136C184.518 21.6 184.934 20.208 185.766 18.96C186.63 17.68 187.878 16.672 189.51 15.936C191.174 15.2 193.142 14.832 195.414 14.832C198.774 14.832 201.414 15.664 203.334 17.328C205.286 18.992 206.406 21.2 206.694 23.952H199.11C198.982 23.024 198.566 22.288 197.862 21.744C197.19 21.2 196.294 20.928 195.174 20.928C194.214 20.928 193.478 21.12 192.966 21.504C192.454 21.856 192.198 22.352 192.198 22.992C192.198 23.76 192.598 24.336 193.398 24.72C194.23 25.104 195.51 25.488 197.238 25.872C199.222 26.384 200.838 26.896 202.086 27.408C203.334 27.888 204.422 28.688 205.35 29.808C206.31 30.896 206.806 32.368 206.838 34.224C206.838 35.792 206.39 37.2 205.494 38.448C204.63 39.664 203.366 40.624 201.702 41.328C200.07 42.032 198.166 42.384 195.99 42.384ZM236.627 28.176C236.627 28.944 236.579 29.744 236.483 30.576H217.907C218.035 32.24 218.563 33.52 219.491 34.416C220.451 35.28 221.619 35.712 222.995 35.712C225.043 35.712 226.467 34.848 227.267 33.12H236.003C235.555 34.88 234.739 36.464 233.555 37.872C232.403 39.28 230.947 40.384 229.187 41.184C227.427 41.984 225.459 42.384 223.283 42.384C220.659 42.384 218.323 41.824 216.275 40.704C214.227 39.584 212.627 37.984 211.475 35.904C210.323 33.824 209.747 31.392 209.747 28.608C209.747 25.824 210.307 23.392 211.427 21.312C212.579 19.232 214.179 17.632 216.227 16.512C218.275 15.392 220.627 14.832 223.283 14.832C225.875 14.832 228.179 15.376 230.195 16.464C232.211 17.552 233.779 19.104 234.899 21.12C236.051 23.136 236.627 25.488 236.627 28.176ZM228.227 26.016C228.227 24.608 227.747 23.488 226.787 22.656C225.827 21.824 224.627 21.408 223.187 21.408C221.811 21.408 220.643 21.808 219.683 22.608C218.755 23.408 218.179 24.544 217.955 26.016H228.227ZM248.686 19.68C249.646 18.208 250.846 17.056 252.286 16.224C253.726 15.36 255.326 14.928 257.086 14.928V23.616H254.83C252.782 23.616 251.246 24.064 250.222 24.96C249.198 25.824 248.686 27.36 248.686 29.568V42H240.478V15.216H248.686V19.68ZM272.577 34.32L278.385 15.216H287.121L277.617 42H267.489L257.985 15.216H266.769L272.577 34.32ZM294.224 12.432C292.784 12.432 291.6 12.016 290.672 11.184C289.776 10.32 289.328 9.264 289.328 8.016C289.328 6.736 289.776 5.68 290.672 4.848C291.6 3.984 292.784 3.552 294.224 3.552C295.632 3.552 296.784 3.984 297.68 4.848C298.608 5.68 299.072 6.736 299.072 8.016C299.072 9.264 298.608 10.32 297.68 11.184C296.784 12.016 295.632 12.432 294.224 12.432ZM298.304 15.216V42H290.096V15.216H298.304ZM302.14 28.608C302.14 25.824 302.7 23.392 303.82 21.312C304.972 19.232 306.556 17.632 308.572 16.512C310.62 15.392 312.956 14.832 315.58 14.832C318.94 14.832 321.74 15.712 323.98 17.472C326.252 19.232 327.74 21.712 328.444 24.912H319.708C318.972 22.864 317.548 21.84 315.436 21.84C313.932 21.84 312.732 22.432 311.836 23.616C310.94 24.768 310.492 26.432 310.492 28.608C310.492 30.784 310.94 32.464 311.836 33.648C312.732 34.8 313.932 35.376 315.436 35.376C317.548 35.376 318.972 34.352 319.708 32.304H328.444C327.74 35.44 326.252 37.904 323.98 39.696C321.708 41.488 318.908 42.384 315.58 42.384C312.956 42.384 310.62 41.824 308.572 40.704C306.556 39.584 304.972 37.984 303.82 35.904C302.7 33.824 302.14 31.392 302.14 28.608ZM357.602 28.176C357.602 28.944 357.554 29.744 357.458 30.576H338.882C339.01 32.24 339.538 33.52 340.466 34.416C341.426 35.28 342.594 35.712 343.97 35.712C346.018 35.712 347.442 34.848 348.242 33.12H356.978C356.53 34.88 355.714 36.464 354.53 37.872C353.378 39.28 351.922 40.384 350.162 41.184C348.402 41.984 346.434 42.384 344.258 42.384C341.634 42.384 339.298 41.824 337.25 40.704C335.202 39.584 333.602 37.984 332.45 35.904C331.298 33.824 330.722 31.392 330.722 28.608C330.722 25.824 331.282 23.392 332.402 21.312C333.554 19.232 335.154 17.632 337.202 16.512C339.25 15.392 341.602 14.832 344.258 14.832C346.85 14.832 349.154 15.376 351.17 16.464C353.186 17.552 354.754 19.104 355.874 21.12C357.026 23.136 357.602 25.488 357.602 28.176ZM349.202 26.016C349.202 24.608 348.722 23.488 347.762 22.656C346.802 21.824 345.602 21.408 344.162 21.408C342.786 21.408 341.618 21.808 340.658 22.608C339.73 23.408 339.154 24.544 338.93 26.016H349.202ZM369.512 28.56C369.512 25.808 370.024 23.392 371.048 21.312C372.104 19.232 373.528 17.632 375.32 16.512C377.112 15.392 379.112 14.832 381.32 14.832C383.08 14.832 384.68 15.2 386.12 15.936C387.592 16.672 388.744 17.664 389.576 18.912V6.48H397.784V42H389.576V38.16C388.808 39.44 387.704 40.464 386.264 41.232C384.856 42 383.208 42.384 381.32 42.384C379.112 42.384 377.112 41.824 375.32 40.704C373.528 39.552 372.104 37.936 371.048 35.856C370.024 33.744 369.512 31.312 369.512 28.56ZM389.576 28.608C389.576 26.56 389 24.944 387.848 23.76C386.728 22.576 385.352 21.984 383.72 21.984C382.088 21.984 380.696 22.576 379.544 23.76C378.424 24.912 377.864 26.512 377.864 28.56C377.864 30.608 378.424 32.24 379.544 33.456C380.696 34.64 382.088 35.232 383.72 35.232C385.352 35.232 386.728 34.64 387.848 33.456C389 32.272 389.576 30.656 389.576 28.608ZM415.435 42.384C412.811 42.384 410.443 41.824 408.331 40.704C406.251 39.584 404.603 37.984 403.387 35.904C402.203 33.824 401.611 31.392 401.611 28.608C401.611 25.856 402.219 23.44 403.435 21.36C404.651 19.248 406.315 17.632 408.427 16.512C410.539 15.392 412.907 14.832 415.531 14.832C418.155 14.832 420.523 15.392 422.635 16.512C424.747 17.632 426.411 19.248 427.627 21.36C428.843 23.44 429.451 25.856 429.451 28.608C429.451 31.36 428.827 33.792 427.579 35.904C426.363 37.984 424.683 39.584 422.539 40.704C420.427 41.824 418.059 42.384 415.435 42.384ZM415.435 35.28C417.003 35.28 418.331 34.704 419.419 33.552C420.539 32.4 421.099 30.752 421.099 28.608C421.099 26.464 420.555 24.816 419.467 23.664C418.411 22.512 417.099 21.936 415.531 21.936C413.931 21.936 412.603 22.512 411.547 23.664C410.491 24.784 409.963 26.432 409.963 28.608C409.963 30.752 410.475 32.4 411.499 33.552C412.555 34.704 413.867 35.28 415.435 35.28ZM451.225 8.304V42H443.017V8.304H451.225ZM474.593 19.008C475.393 17.76 476.497 16.752 477.905 15.984C479.313 15.216 480.961 14.832 482.849 14.832C485.057 14.832 487.057 15.392 488.849 16.512C490.641 17.632 492.049 19.232 493.073 21.312C494.129 23.392 494.657 25.808 494.657 28.56C494.657 31.312 494.129 33.744 493.073 35.856C492.049 37.936 490.641 39.552 488.849 40.704C487.057 41.824 485.057 42.384 482.849 42.384C480.993 42.384 479.345 42 477.905 41.232C476.497 40.464 475.393 39.472 474.593 38.256V54.768H466.385V15.216H474.593V19.008ZM486.305 28.56C486.305 26.512 485.729 24.912 484.577 23.76C483.457 22.576 482.065 21.984 480.401 21.984C478.769 21.984 477.377 22.576 476.225 23.76C475.105 24.944 474.545 26.56 474.545 28.608C474.545 30.656 475.105 32.272 476.225 33.456C477.377 34.64 478.769 35.232 480.401 35.232C482.033 35.232 483.425 34.64 484.577 33.456C485.729 32.24 486.305 30.608 486.305 28.56ZM506.691 19.68C507.651 18.208 508.851 17.056 510.291 16.224C511.731 15.36 513.331 14.928 515.091 14.928V23.616H512.835C510.787 23.616 509.251 24.064 508.227 24.96C507.203 25.824 506.691 27.36 506.691 29.568V42H498.483V15.216H506.691V19.68ZM530.726 42.384C528.102 42.384 525.734 41.824 523.622 40.704C521.542 39.584 519.894 37.984 518.678 35.904C517.494 33.824 516.902 31.392 516.902 28.608C516.902 25.856 517.51 23.44 518.726 21.36C519.942 19.248 521.606 17.632 523.718 16.512C525.83 15.392 528.198 14.832 530.822 14.832C533.446 14.832 535.814 15.392 537.926 16.512C540.038 17.632 541.702 19.248 542.918 21.36C544.134 23.44 544.742 25.856 544.742 28.608C544.742 31.36 544.118 33.792 542.87 35.904C541.654 37.984 539.974 39.584 537.83 40.704C535.718 41.824 533.35 42.384 530.726 42.384ZM530.726 35.28C532.294 35.28 533.622 34.704 534.71 33.552C535.83 32.4 536.39 30.752 536.39 28.608C536.39 26.464 535.846 24.816 534.758 23.664C533.702 22.512 532.39 21.936 530.822 21.936C529.222 21.936 527.894 22.512 526.838 23.664C525.782 24.784 525.254 26.432 525.254 28.608C525.254 30.752 525.766 32.4 526.79 33.552C527.846 34.704 529.158 35.28 530.726 35.28ZM560.665 34.32L566.473 15.216H575.209L565.705 42H555.577L546.073 15.216H554.857L560.665 34.32ZM582.312 12.432C580.872 12.432 579.688 12.016 578.76 11.184C577.864 10.32 577.416 9.264 577.416 8.016C577.416 6.736 577.864 5.68 578.76 4.848C579.688 3.984 580.872 3.552 582.312 3.552C583.72 3.552 584.872 3.984 585.768 4.848C586.696 5.68 587.16 6.736 587.16 8.016C587.16 9.264 586.696 10.32 585.768 11.184C584.872 12.016 583.72 12.432 582.312 12.432ZM586.392 15.216V42H578.184V15.216H586.392ZM590.228 28.56C590.228 25.808 590.74 23.392 591.764 21.312C592.82 19.232 594.244 17.632 596.036 16.512C597.828 15.392 599.828 14.832 602.036 14.832C603.796 14.832 605.396 15.2 606.836 15.936C608.308 16.672 609.46 17.664 610.292 18.912V6.48H618.5V42H610.292V38.16C609.524 39.44 608.42 40.464 606.98 41.232C605.572 42 603.924 42.384 602.036 42.384C599.828 42.384 597.828 41.824 596.036 40.704C594.244 39.552 592.82 37.936 591.764 35.856C590.74 33.744 590.228 31.312 590.228 28.56ZM610.292 28.608C610.292 26.56 609.716 24.944 608.564 23.76C607.444 22.576 606.068 21.984 604.436 21.984C602.804 21.984 601.412 22.576 600.26 23.76C599.14 24.912 598.58 26.512 598.58 28.56C598.58 30.608 599.14 32.24 600.26 33.456C601.412 34.64 602.804 35.232 604.436 35.232C606.068 35.232 607.444 34.64 608.564 33.456C609.716 32.272 610.292 30.656 610.292 28.608ZM649.206 28.176C649.206 28.944 649.158 29.744 649.062 30.576H630.486C630.614 32.24 631.142 33.52 632.07 34.416C633.03 35.28 634.198 35.712 635.574 35.712C637.622 35.712 639.046 34.848 639.846 33.12H648.582C648.134 34.88 647.318 36.464 646.134 37.872C644.982 39.28 643.526 40.384 641.766 41.184C640.006 41.984 638.038 42.384 635.862 42.384C633.238 42.384 630.902 41.824 628.854 40.704C626.806 39.584 625.206 37.984 624.054 35.904C622.902 33.824 622.326 31.392 622.326 28.608C622.326 25.824 622.886 23.392 624.006 21.312C625.158 19.232 626.758 17.632 628.806 16.512C630.854 15.392 633.206 14.832 635.862 14.832C638.454 14.832 640.758 15.376 642.774 16.464C644.79 17.552 646.358 19.104 647.478 21.12C648.63 23.136 649.206 25.488 649.206 28.176ZM640.806 26.016C640.806 24.608 640.326 23.488 639.366 22.656C638.406 21.824 637.206 21.408 635.766 21.408C634.39 21.408 633.222 21.808 632.262 22.608C631.334 23.408 630.758 24.544 630.534 26.016H640.806Z" fill="white"/>
</svg>
