<svg width="104" height="100" viewBox="0 0 104 100" fill="none" xmlns="http://www.w3.org/2000/svg">
<circle cx="50.3447" cy="50" r="50" fill="#F3F8FF"/>
<path d="M39.2501 46C40.8834 39.3333 44.9667 36 51.5001 36C61.3001 36 62.5251 43.5 67.4251 44.75C70.6917 45.5833 73.5501 44.3333 76.0001 41C74.3667 47.6667 70.2834 51 63.7501 51C53.9501 51 52.7251 43.5 47.8251 42.25C44.5584 41.4167 41.7001 42.6667 39.2501 46ZM27.0001 61C28.6334 54.3333 32.7167 51 39.2501 51C49.0501 51 50.2751 58.5 55.1751 59.75C58.4417 60.5833 61.3001 59.3333 63.7501 56C62.1167 62.6667 58.0334 66 51.5001 66C41.7001 66 40.4751 58.5 35.5751 57.25C32.3084 56.4167 29.4501 57.6667 27.0001 61Z" fill="#44A8B3"/>
</svg>
