<svg width="488" height="162" viewBox="0 0 488 162" fill="none" xmlns="http://www.w3.org/2000/svg">
<path d="M31.16 5.304V39H22.952V25.128H10.184V39H1.976V5.304H10.184V18.504H22.952V5.304H31.16ZM34.9734 25.56C34.9734 22.808 35.4854 20.392 36.5094 18.312C37.5654 16.232 38.9894 14.632 40.7814 13.512C42.5734 12.392 44.5734 11.832 46.7814 11.832C48.6694 11.832 50.3174 12.216 51.7254 12.984C53.1654 13.752 54.2694 14.76 55.0374 16.008V12.216H63.2454V39H55.0374V35.208C54.2374 36.456 53.1174 37.464 51.6774 38.232C50.2694 39 48.6214 39.384 46.7334 39.384C44.5574 39.384 42.5734 38.824 40.7814 37.704C38.9894 36.552 37.5654 34.936 36.5094 32.856C35.4854 30.744 34.9734 28.312 34.9734 25.56ZM55.0374 25.608C55.0374 23.56 54.4614 21.944 53.3094 20.76C52.1894 19.576 50.8134 18.984 49.1814 18.984C47.5494 18.984 46.1574 19.576 45.0054 20.76C43.8854 21.912 43.3254 23.512 43.3254 25.56C43.3254 27.608 43.8854 29.24 45.0054 30.456C46.1574 31.64 47.5494 32.232 49.1814 32.232C50.8134 32.232 52.1894 31.64 53.3094 30.456C54.4614 29.272 55.0374 27.656 55.0374 25.608ZM80.7515 31.32L86.5595 12.216H95.2955L85.7915 39H75.6635L66.1595 12.216H74.9435L80.7515 31.32ZM123.518 25.176C123.518 25.944 123.47 26.744 123.374 27.576H104.798C104.926 29.24 105.454 30.52 106.382 31.416C107.342 32.28 108.51 32.712 109.886 32.712C111.934 32.712 113.358 31.848 114.158 30.12H122.894C122.446 31.88 121.63 33.464 120.446 34.872C119.294 36.28 117.838 37.384 116.078 38.184C114.318 38.984 112.35 39.384 110.174 39.384C107.55 39.384 105.214 38.824 103.166 37.704C101.118 36.584 99.5184 34.984 98.3664 32.904C97.2144 30.824 96.6384 28.392 96.6384 25.608C96.6384 22.824 97.1984 20.392 98.3184 18.312C99.4704 16.232 101.07 14.632 103.118 13.512C105.166 12.392 107.518 11.832 110.174 11.832C112.766 11.832 115.07 12.376 117.086 13.464C119.102 14.552 120.67 16.104 121.79 18.12C122.942 20.136 123.518 22.488 123.518 25.176ZM115.118 23.016C115.118 21.608 114.638 20.488 113.678 19.656C112.718 18.824 111.518 18.408 110.078 18.408C108.702 18.408 107.534 18.808 106.574 19.608C105.646 20.408 105.07 21.544 104.846 23.016H115.118ZM135.428 25.56C135.428 22.808 135.94 20.392 136.964 18.312C138.02 16.232 139.444 14.632 141.236 13.512C143.028 12.392 145.028 11.832 147.236 11.832C149.124 11.832 150.772 12.216 152.18 12.984C153.62 13.752 154.724 14.76 155.492 16.008V12.216H163.7V39H155.492V35.208C154.692 36.456 153.572 37.464 152.132 38.232C150.724 39 149.076 39.384 147.188 39.384C145.012 39.384 143.028 38.824 141.236 37.704C139.444 36.552 138.02 34.936 136.964 32.856C135.94 30.744 135.428 28.312 135.428 25.56ZM155.492 25.608C155.492 23.56 154.916 21.944 153.764 20.76C152.644 19.576 151.268 18.984 149.636 18.984C148.004 18.984 146.612 19.576 145.46 20.76C144.34 21.912 143.78 23.512 143.78 25.56C143.78 27.608 144.34 29.24 145.46 30.456C146.612 31.64 148.004 32.232 149.636 32.232C151.268 32.232 152.644 31.64 153.764 30.456C154.916 29.272 155.492 27.656 155.492 25.608ZM187.058 16.008C187.858 14.76 188.962 13.752 190.37 12.984C191.778 12.216 193.426 11.832 195.314 11.832C197.522 11.832 199.522 12.392 201.314 13.512C203.106 14.632 204.514 16.232 205.538 18.312C206.594 20.392 207.122 22.808 207.122 25.56C207.122 28.312 206.594 30.744 205.538 32.856C204.514 34.936 203.106 36.552 201.314 37.704C199.522 38.824 197.522 39.384 195.314 39.384C193.458 39.384 191.81 39 190.37 38.232C188.962 37.464 187.858 36.472 187.058 35.256V51.768H178.85V12.216H187.058V16.008ZM198.77 25.56C198.77 23.512 198.194 21.912 197.042 20.76C195.922 19.576 194.53 18.984 192.866 18.984C191.234 18.984 189.842 19.576 188.69 20.76C187.57 21.944 187.01 23.56 187.01 25.608C187.01 27.656 187.57 29.272 188.69 30.456C189.842 31.64 191.234 32.232 192.866 32.232C194.498 32.232 195.89 31.64 197.042 30.456C198.194 29.24 198.77 27.608 198.77 25.56ZM219.157 16.68C220.117 15.208 221.317 14.056 222.757 13.224C224.197 12.36 225.797 11.928 227.557 11.928V20.616H225.301C223.253 20.616 221.717 21.064 220.693 21.96C219.669 22.824 219.157 24.36 219.157 26.568V39H210.949V12.216H219.157V16.68ZM243.192 39.384C240.568 39.384 238.2 38.824 236.088 37.704C234.008 36.584 232.36 34.984 231.144 32.904C229.96 30.824 229.368 28.392 229.368 25.608C229.368 22.856 229.976 20.44 231.192 18.36C232.408 16.248 234.072 14.632 236.184 13.512C238.296 12.392 240.664 11.832 243.288 11.832C245.912 11.832 248.28 12.392 250.392 13.512C252.504 14.632 254.168 16.248 255.384 18.36C256.6 20.44 257.208 22.856 257.208 25.608C257.208 28.36 256.584 30.792 255.336 32.904C254.12 34.984 252.44 36.584 250.296 37.704C248.184 38.824 245.816 39.384 243.192 39.384ZM243.192 32.28C244.76 32.28 246.088 31.704 247.176 30.552C248.296 29.4 248.856 27.752 248.856 25.608C248.856 23.464 248.312 21.816 247.224 20.664C246.168 19.512 244.856 18.936 243.288 18.936C241.688 18.936 240.36 19.512 239.304 20.664C238.248 21.784 237.72 23.432 237.72 25.608C237.72 27.752 238.232 29.4 239.256 30.552C240.312 31.704 241.624 32.28 243.192 32.28ZM265.162 9.432C263.722 9.432 262.538 9.016 261.61 8.184C260.714 7.32 260.266 6.264 260.266 5.016C260.266 3.736 260.714 2.68 261.61 1.848C262.538 0.983997 263.722 0.551997 265.162 0.551997C266.57 0.551997 267.722 0.983997 268.618 1.848C269.546 2.68 270.01 3.736 270.01 5.016C270.01 6.264 269.546 7.32 268.618 8.184C267.722 9.016 266.57 9.432 265.162 9.432ZM269.29 42.456C269.29 45.752 268.458 48.12 266.794 49.56C265.13 51.032 262.81 51.768 259.834 51.768H256.618V44.808H258.586C259.482 44.808 260.122 44.632 260.506 44.28C260.89 43.928 261.082 43.352 261.082 42.552V12.216H269.29V42.456ZM299.96 25.176C299.96 25.944 299.912 26.744 299.816 27.576H281.24C281.368 29.24 281.896 30.52 282.824 31.416C283.784 32.28 284.952 32.712 286.328 32.712C288.376 32.712 289.8 31.848 290.6 30.12H299.336C298.888 31.88 298.072 33.464 296.888 34.872C295.736 36.28 294.28 37.384 292.52 38.184C290.76 38.984 288.792 39.384 286.616 39.384C283.992 39.384 281.656 38.824 279.608 37.704C277.56 36.584 275.96 34.984 274.808 32.904C273.656 30.824 273.08 28.392 273.08 25.608C273.08 22.824 273.64 20.392 274.76 18.312C275.912 16.232 277.512 14.632 279.56 13.512C281.608 12.392 283.96 11.832 286.616 11.832C289.208 11.832 291.512 12.376 293.528 13.464C295.544 14.552 297.112 16.104 298.232 18.12C299.384 20.136 299.96 22.488 299.96 25.176ZM291.56 23.016C291.56 21.608 291.08 20.488 290.12 19.656C289.16 18.824 287.96 18.408 286.52 18.408C285.144 18.408 283.976 18.808 283.016 19.608C282.088 20.408 281.512 21.544 281.288 23.016H291.56ZM302.178 25.608C302.178 22.824 302.738 20.392 303.858 18.312C305.01 16.232 306.594 14.632 308.61 13.512C310.658 12.392 312.994 11.832 315.618 11.832C318.978 11.832 321.778 12.712 324.018 14.472C326.29 16.232 327.778 18.712 328.482 21.912H319.746C319.01 19.864 317.586 18.84 315.474 18.84C313.97 18.84 312.77 19.432 311.874 20.616C310.978 21.768 310.53 23.432 310.53 25.608C310.53 27.784 310.978 29.464 311.874 30.648C312.77 31.8 313.97 32.376 315.474 32.376C317.586 32.376 319.01 31.352 319.746 29.304H328.482C327.778 32.44 326.29 34.904 324.018 36.696C321.746 38.488 318.946 39.384 315.618 39.384C312.994 39.384 310.658 38.824 308.61 37.704C306.594 36.584 305.01 34.984 303.858 32.904C302.738 30.824 302.178 28.392 302.178 25.608ZM347.32 32.04V39H343.144C340.168 39 337.848 38.28 336.184 36.84C334.52 35.368 333.688 32.984 333.688 29.688V19.032H330.424V12.216H333.688V5.688H341.896V12.216H347.272V19.032H341.896V29.784C341.896 30.584 342.088 31.16 342.472 31.512C342.856 31.864 343.496 32.04 344.392 32.04H347.32ZM365.232 9.432C363.792 9.432 362.608 9.016 361.68 8.184C360.784 7.32 360.336 6.264 360.336 5.016C360.336 3.736 360.784 2.68 361.68 1.848C362.608 0.983997 363.792 0.551997 365.232 0.551997C366.64 0.551997 367.792 0.983997 368.688 1.848C369.616 2.68 370.08 3.736 370.08 5.016C370.08 6.264 369.616 7.32 368.688 8.184C367.792 9.016 366.64 9.432 365.232 9.432ZM369.312 12.216V39H361.104V12.216H369.312ZM391.1 11.928C394.236 11.928 396.732 12.952 398.588 15C400.476 17.016 401.42 19.8 401.42 23.352V39H393.26V24.456C393.26 22.664 392.796 21.272 391.868 20.28C390.94 19.288 389.692 18.792 388.124 18.792C386.556 18.792 385.308 19.288 384.38 20.28C383.452 21.272 382.988 22.664 382.988 24.456V39H374.78V12.216H382.988V15.768C383.82 14.584 384.94 13.656 386.348 12.984C387.756 12.28 389.34 11.928 391.1 11.928ZM36.152 66.928C39.48 66.928 42.12 67.936 44.072 69.952C46.056 71.968 47.048 74.768 47.048 78.352V94H38.888V79.456C38.888 77.728 38.424 76.4 37.496 75.472C36.6 74.512 35.352 74.032 33.752 74.032C32.152 74.032 30.888 74.512 29.96 75.472C29.064 76.4 28.616 77.728 28.616 79.456V94H20.456V79.456C20.456 77.728 19.992 76.4 19.064 75.472C18.168 74.512 16.92 74.032 15.32 74.032C13.72 74.032 12.456 74.512 11.528 75.472C10.632 76.4 10.184 77.728 10.184 79.456V94H1.976V67.216H10.184V70.576C11.016 69.456 12.104 68.576 13.448 67.936C14.792 67.264 16.312 66.928 18.008 66.928C20.024 66.928 21.816 67.36 23.384 68.224C24.984 69.088 26.232 70.32 27.128 71.92C28.056 70.448 29.32 69.248 30.92 68.32C32.52 67.392 34.264 66.928 36.152 66.928ZM56.4365 64.432C54.9965 64.432 53.8125 64.016 52.8845 63.184C51.9885 62.32 51.5405 61.264 51.5405 60.016C51.5405 58.736 51.9885 57.68 52.8845 56.848C53.8125 55.984 54.9965 55.552 56.4365 55.552C57.8445 55.552 58.9965 55.984 59.8925 56.848C60.8205 57.68 61.2845 58.736 61.2845 60.016C61.2845 61.264 60.8205 62.32 59.8925 63.184C58.9965 64.016 57.8445 64.432 56.4365 64.432ZM60.5165 67.216V94H52.3085V67.216H60.5165ZM82.3048 66.928C85.4408 66.928 87.9368 67.952 89.7928 70C91.6808 72.016 92.6248 74.8 92.6248 78.352V94H84.4648V79.456C84.4648 77.664 84.0008 76.272 83.0728 75.28C82.1448 74.288 80.8968 73.792 79.3288 73.792C77.7608 73.792 76.5128 74.288 75.5848 75.28C74.6568 76.272 74.1928 77.664 74.1928 79.456V94H65.9848V67.216H74.1928V70.768C75.0248 69.584 76.1448 68.656 77.5528 67.984C78.9608 67.28 80.5448 66.928 82.3048 66.928ZM96.2165 80.56C96.2165 77.808 96.7285 75.392 97.7525 73.312C98.8085 71.232 100.232 69.632 102.024 68.512C103.816 67.392 105.816 66.832 108.024 66.832C109.784 66.832 111.384 67.2 112.824 67.936C114.296 68.672 115.448 69.664 116.28 70.912V58.48H124.488V94H116.28V90.16C115.512 91.44 114.408 92.464 112.968 93.232C111.56 94 109.912 94.384 108.024 94.384C105.816 94.384 103.816 93.824 102.024 92.704C100.232 91.552 98.8085 89.936 97.7525 87.856C96.7285 85.744 96.2165 83.312 96.2165 80.56ZM116.28 80.608C116.28 78.56 115.704 76.944 114.552 75.76C113.432 74.576 112.056 73.984 110.424 73.984C108.792 73.984 107.4 74.576 106.248 75.76C105.128 76.912 104.568 78.512 104.568 80.56C104.568 82.608 105.128 84.24 106.248 85.456C107.4 86.64 108.792 87.232 110.424 87.232C112.056 87.232 113.432 86.64 114.552 85.456C115.704 84.272 116.28 82.656 116.28 80.608ZM154.567 87.04V94H150.391C147.415 94 145.095 93.28 143.431 91.84C141.767 90.368 140.935 87.984 140.935 84.688V74.032H137.671V67.216H140.935V60.688H149.143V67.216H154.519V74.032H149.143V84.784C149.143 85.584 149.335 86.16 149.719 86.512C150.103 86.864 150.743 87.04 151.639 87.04H154.567ZM175.122 66.928C178.194 66.928 180.658 67.952 182.514 70C184.37 72.016 185.298 74.8 185.298 78.352V94H177.138V79.456C177.138 77.664 176.674 76.272 175.746 75.28C174.818 74.288 173.57 73.792 172.002 73.792C170.434 73.792 169.186 74.288 168.258 75.28C167.33 76.272 166.866 77.664 166.866 79.456V94H158.658V58.48H166.866V70.816C167.698 69.632 168.834 68.688 170.274 67.984C171.714 67.28 173.33 66.928 175.122 66.928ZM188.89 80.56C188.89 77.808 189.402 75.392 190.426 73.312C191.482 71.232 192.906 69.632 194.698 68.512C196.49 67.392 198.49 66.832 200.698 66.832C202.586 66.832 204.234 67.216 205.642 67.984C207.082 68.752 208.186 69.76 208.954 71.008V67.216H217.162V94H208.954V90.208C208.154 91.456 207.034 92.464 205.594 93.232C204.186 94 202.538 94.384 200.65 94.384C198.474 94.384 196.49 93.824 194.698 92.704C192.906 91.552 191.482 89.936 190.426 87.856C189.402 85.744 188.89 83.312 188.89 80.56ZM208.954 80.608C208.954 78.56 208.378 76.944 207.226 75.76C206.106 74.576 204.73 73.984 203.098 73.984C201.466 73.984 200.074 74.576 198.922 75.76C197.802 76.912 197.242 78.512 197.242 80.56C197.242 82.608 197.802 84.24 198.922 85.456C200.074 86.64 201.466 87.232 203.098 87.232C204.73 87.232 206.106 86.64 207.226 85.456C208.378 84.272 208.954 82.656 208.954 80.608ZM237.548 87.04V94H233.372C230.396 94 228.076 93.28 226.412 91.84C224.748 90.368 223.916 87.984 223.916 84.688V74.032H220.652V67.216H223.916V60.688H232.124V67.216H237.5V74.032H232.124V84.784C232.124 85.584 232.316 86.16 232.7 86.512C233.084 86.864 233.724 87.04 234.62 87.04H237.548ZM259.54 71.68C260.5 70.208 261.7 69.056 263.14 68.224C264.58 67.36 266.18 66.928 267.94 66.928V75.616H265.684C263.636 75.616 262.1 76.064 261.076 76.96C260.052 77.824 259.54 79.36 259.54 81.568V94H251.332V67.216H259.54V71.68ZM296.632 80.176C296.632 80.944 296.584 81.744 296.488 82.576H277.912C278.04 84.24 278.568 85.52 279.496 86.416C280.456 87.28 281.624 87.712 283 87.712C285.048 87.712 286.472 86.848 287.272 85.12H296.008C295.56 86.88 294.744 88.464 293.56 89.872C292.408 91.28 290.952 92.384 289.192 93.184C287.432 93.984 285.464 94.384 283.288 94.384C280.664 94.384 278.328 93.824 276.28 92.704C274.232 91.584 272.632 89.984 271.48 87.904C270.328 85.824 269.752 83.392 269.752 80.608C269.752 77.824 270.312 75.392 271.432 73.312C272.584 71.232 274.184 69.632 276.232 68.512C278.28 67.392 280.632 66.832 283.288 66.832C285.88 66.832 288.184 67.376 290.2 68.464C292.216 69.552 293.784 71.104 294.904 73.12C296.056 75.136 296.632 77.488 296.632 80.176ZM288.232 78.016C288.232 76.608 287.752 75.488 286.792 74.656C285.832 73.824 284.632 73.408 283.192 73.408C281.816 73.408 280.648 73.808 279.688 74.608C278.76 75.408 278.184 76.544 277.96 78.016H288.232ZM298.85 80.656C298.85 78 299.394 75.632 300.482 73.552C301.602 71.472 303.09 69.856 304.946 68.704C306.834 67.52 308.882 66.928 311.09 66.928C312.786 66.928 314.306 67.232 315.65 67.84C316.994 68.416 318.082 69.232 318.914 70.288V67.216H327.122V106.768H318.914V90.64C317.986 91.76 316.85 92.656 315.506 93.328C314.194 94 312.69 94.336 310.994 94.336C308.818 94.336 306.802 93.76 304.946 92.608C303.09 91.456 301.602 89.84 300.482 87.76C299.394 85.68 298.85 83.312 298.85 80.656ZM318.914 80.608C318.914 79.168 318.626 77.968 318.05 77.008C317.506 76.016 316.786 75.28 315.89 74.8C314.994 74.288 314.05 74.032 313.058 74.032C312.098 74.032 311.17 74.288 310.274 74.8C309.378 75.28 308.642 76.016 308.066 77.008C307.49 78 307.202 79.216 307.202 80.656C307.202 82.096 307.49 83.312 308.066 84.304C308.642 85.264 309.378 86 310.274 86.512C311.17 86.992 312.098 87.232 313.058 87.232C314.018 87.232 314.946 86.992 315.842 86.512C316.77 86 317.506 85.248 318.05 84.256C318.626 83.264 318.914 82.048 318.914 80.608ZM359.028 67.216V94H350.82V90.352C349.988 91.536 348.852 92.496 347.412 93.232C346.004 93.936 344.436 94.288 342.708 94.288C340.66 94.288 338.852 93.84 337.284 92.944C335.716 92.016 334.5 90.688 333.636 88.96C332.772 87.232 332.34 85.2 332.34 82.864V67.216H340.5V81.76C340.5 83.552 340.964 84.944 341.892 85.936C342.82 86.928 344.068 87.424 345.636 87.424C347.236 87.424 348.5 86.928 349.428 85.936C350.356 84.944 350.82 83.552 350.82 81.76V67.216H359.028ZM368.571 64.432C367.131 64.432 365.947 64.016 365.019 63.184C364.123 62.32 363.675 61.264 363.675 60.016C363.675 58.736 364.123 57.68 365.019 56.848C365.947 55.984 367.131 55.552 368.571 55.552C369.979 55.552 371.131 55.984 372.027 56.848C372.955 57.68 373.419 58.736 373.419 60.016C373.419 61.264 372.955 62.32 372.027 63.184C371.131 64.016 369.979 64.432 368.571 64.432ZM372.651 67.216V94H364.443V67.216H372.651ZM386.328 71.68C387.288 70.208 388.488 69.056 389.928 68.224C391.368 67.36 392.968 66.928 394.728 66.928V75.616H392.472C390.424 75.616 388.888 76.064 387.864 76.96C386.84 77.824 386.328 79.36 386.328 81.568V94H378.12V67.216H386.328V71.68ZM423.419 80.176C423.419 80.944 423.371 81.744 423.275 82.576H404.699C404.827 84.24 405.355 85.52 406.283 86.416C407.243 87.28 408.411 87.712 409.787 87.712C411.835 87.712 413.259 86.848 414.059 85.12H422.795C422.347 86.88 421.531 88.464 420.347 89.872C419.195 91.28 417.739 92.384 415.979 93.184C414.219 93.984 412.251 94.384 410.075 94.384C407.451 94.384 405.115 93.824 403.067 92.704C401.019 91.584 399.419 89.984 398.267 87.904C397.115 85.824 396.539 83.392 396.539 80.608C396.539 77.824 397.099 75.392 398.219 73.312C399.371 71.232 400.971 69.632 403.019 68.512C405.067 67.392 407.419 66.832 410.075 66.832C412.667 66.832 414.971 67.376 416.987 68.464C419.003 69.552 420.571 71.104 421.691 73.12C422.843 75.136 423.419 77.488 423.419 80.176ZM415.019 78.016C415.019 76.608 414.539 75.488 413.579 74.656C412.619 73.824 411.419 73.408 409.979 73.408C408.603 73.408 407.435 73.808 406.475 74.608C405.547 75.408 404.971 76.544 404.747 78.016H415.019ZM438.165 94.384C435.829 94.384 433.749 93.984 431.925 93.184C430.101 92.384 428.661 91.296 427.605 89.92C426.549 88.512 425.957 86.944 425.829 85.216H433.941C434.037 86.144 434.469 86.896 435.237 87.472C436.005 88.048 436.949 88.336 438.069 88.336C439.093 88.336 439.877 88.144 440.421 87.76C440.997 87.344 441.285 86.816 441.285 86.176C441.285 85.408 440.885 84.848 440.085 84.496C439.285 84.112 437.989 83.696 436.197 83.248C434.277 82.8 432.677 82.336 431.397 81.856C430.117 81.344 429.013 80.56 428.085 79.504C427.157 78.416 426.693 76.96 426.693 75.136C426.693 73.6 427.109 72.208 427.941 70.96C428.805 69.68 430.053 68.672 431.685 67.936C433.349 67.2 435.317 66.832 437.589 66.832C440.949 66.832 443.589 67.664 445.509 69.328C447.461 70.992 448.581 73.2 448.869 75.952H441.285C441.157 75.024 440.741 74.288 440.037 73.744C439.365 73.2 438.469 72.928 437.349 72.928C436.389 72.928 435.653 73.12 435.141 73.504C434.629 73.856 434.373 74.352 434.373 74.992C434.373 75.76 434.773 76.336 435.573 76.72C436.405 77.104 437.685 77.488 439.413 77.872C441.397 78.384 443.013 78.896 444.261 79.408C445.509 79.888 446.597 80.688 447.525 81.808C448.485 82.896 448.981 84.368 449.013 86.224C449.013 87.792 448.565 89.2 447.669 90.448C446.805 91.664 445.541 92.624 443.877 93.328C442.245 94.032 440.341 94.384 438.165 94.384ZM16.904 142.04V149H12.728C9.752 149 7.432 148.28 5.768 146.84C4.104 145.368 3.272 142.984 3.272 139.688V129.032H0.00800008V122.216H3.272V115.688H11.48V122.216H16.856V129.032H11.48V139.784C11.48 140.584 11.672 141.16 12.056 141.512C12.44 141.864 13.08 142.04 13.976 142.04H16.904ZM46.244 135.176C46.244 135.944 46.196 136.744 46.1 137.576H27.524C27.652 139.24 28.18 140.52 29.108 141.416C30.068 142.28 31.236 142.712 32.612 142.712C34.66 142.712 36.084 141.848 36.884 140.12H45.62C45.172 141.88 44.356 143.464 43.172 144.872C42.02 146.28 40.564 147.384 38.804 148.184C37.044 148.984 35.076 149.384 32.9 149.384C30.276 149.384 27.94 148.824 25.892 147.704C23.844 146.584 22.244 144.984 21.092 142.904C19.94 140.824 19.364 138.392 19.364 135.608C19.364 132.824 19.924 130.392 21.044 128.312C22.196 126.232 23.796 124.632 25.844 123.512C27.892 122.392 30.244 121.832 32.9 121.832C35.492 121.832 37.796 122.376 39.812 123.464C41.828 124.552 43.396 126.104 44.516 128.12C45.668 130.136 46.244 132.488 46.244 135.176ZM37.844 133.016C37.844 131.608 37.364 130.488 36.404 129.656C35.444 128.824 34.244 128.408 32.804 128.408C31.428 128.408 30.26 128.808 29.3 129.608C28.372 130.408 27.796 131.544 27.572 133.016H37.844ZM48.4621 135.608C48.4621 132.824 49.0221 130.392 50.1421 128.312C51.2941 126.232 52.8781 124.632 54.8941 123.512C56.9421 122.392 59.2781 121.832 61.9021 121.832C65.2621 121.832 68.0621 122.712 70.3021 124.472C72.5741 126.232 74.0621 128.712 74.7661 131.912H66.0301C65.2941 129.864 63.8701 128.84 61.7581 128.84C60.2541 128.84 59.0541 129.432 58.1581 130.616C57.2621 131.768 56.8141 133.432 56.8141 135.608C56.8141 137.784 57.2621 139.464 58.1581 140.648C59.0541 141.8 60.2541 142.376 61.7581 142.376C63.8701 142.376 65.2941 141.352 66.0301 139.304H74.7661C74.0621 142.44 72.5741 144.904 70.3021 146.696C68.0301 148.488 65.2301 149.384 61.9021 149.384C59.2781 149.384 56.9421 148.824 54.8941 147.704C52.8781 146.584 51.2941 144.984 50.1421 142.904C49.0221 140.824 48.4621 138.392 48.4621 135.608ZM95.1406 121.928C98.2126 121.928 100.677 122.952 102.533 125C104.389 127.016 105.317 129.8 105.317 133.352V149H97.1566V134.456C97.1566 132.664 96.6926 131.272 95.7646 130.28C94.8366 129.288 93.5886 128.792 92.0206 128.792C90.4526 128.792 89.2046 129.288 88.2766 130.28C87.3486 131.272 86.8846 132.664 86.8846 134.456V149H78.6766V113.48H86.8846V125.816C87.7166 124.632 88.8526 123.688 90.2926 122.984C91.7326 122.28 93.3486 121.928 95.1406 121.928ZM126.86 121.928C129.996 121.928 132.492 122.952 134.348 125C136.236 127.016 137.18 129.8 137.18 133.352V149H129.02V134.456C129.02 132.664 128.556 131.272 127.628 130.28C126.7 129.288 125.452 128.792 123.884 128.792C122.316 128.792 121.068 129.288 120.14 130.28C119.212 131.272 118.748 132.664 118.748 134.456V149H110.54V122.216H118.748V125.768C119.58 124.584 120.7 123.656 122.108 122.984C123.516 122.28 125.1 121.928 126.86 121.928ZM146.532 119.432C145.092 119.432 143.908 119.016 142.98 118.184C142.084 117.32 141.636 116.264 141.636 115.016C141.636 113.736 142.084 112.68 142.98 111.848C143.908 110.984 145.092 110.552 146.532 110.552C147.94 110.552 149.092 110.984 149.988 111.848C150.916 112.68 151.38 113.736 151.38 115.016C151.38 116.264 150.916 117.32 149.988 118.184C149.092 119.016 147.94 119.432 146.532 119.432ZM150.612 122.216V149H142.404V122.216H150.612ZM154.448 135.608C154.448 132.824 155.008 130.392 156.128 128.312C157.28 126.232 158.864 124.632 160.88 123.512C162.928 122.392 165.264 121.832 167.888 121.832C171.248 121.832 174.048 122.712 176.288 124.472C178.56 126.232 180.048 128.712 180.752 131.912H172.016C171.28 129.864 169.856 128.84 167.744 128.84C166.24 128.84 165.04 129.432 164.144 130.616C163.248 131.768 162.8 133.432 162.8 135.608C162.8 137.784 163.248 139.464 164.144 140.648C165.04 141.8 166.24 142.376 167.744 142.376C169.856 142.376 171.28 141.352 172.016 139.304H180.752C180.048 142.44 178.56 144.904 176.288 146.696C174.016 148.488 171.216 149.384 167.888 149.384C165.264 149.384 162.928 148.824 160.88 147.704C158.864 146.584 157.28 144.984 156.128 142.904C155.008 140.824 154.448 138.392 154.448 135.608ZM183.031 135.56C183.031 132.808 183.543 130.392 184.567 128.312C185.623 126.232 187.047 124.632 188.839 123.512C190.631 122.392 192.631 121.832 194.839 121.832C196.727 121.832 198.375 122.216 199.783 122.984C201.223 123.752 202.327 124.76 203.095 126.008V122.216H211.303V149H203.095V145.208C202.295 146.456 201.175 147.464 199.735 148.232C198.327 149 196.679 149.384 194.791 149.384C192.615 149.384 190.631 148.824 188.839 147.704C187.047 146.552 185.623 144.936 184.567 142.856C183.543 140.744 183.031 138.312 183.031 135.56ZM203.095 135.608C203.095 133.56 202.519 131.944 201.367 130.76C200.247 129.576 198.871 128.984 197.239 128.984C195.607 128.984 194.215 129.576 193.063 130.76C191.943 131.912 191.383 133.512 191.383 135.56C191.383 137.608 191.943 139.24 193.063 140.456C194.215 141.64 195.607 142.232 197.239 142.232C198.871 142.232 200.247 141.64 201.367 140.456C202.519 139.272 203.095 137.656 203.095 135.608ZM224.969 113.48V149H216.761V113.48H224.969ZM265.377 135.176C265.377 135.944 265.329 136.744 265.233 137.576H246.657C246.785 139.24 247.313 140.52 248.241 141.416C249.201 142.28 250.369 142.712 251.745 142.712C253.793 142.712 255.217 141.848 256.017 140.12H264.753C264.305 141.88 263.489 143.464 262.305 144.872C261.153 146.28 259.697 147.384 257.937 148.184C256.177 148.984 254.209 149.384 252.033 149.384C249.409 149.384 247.073 148.824 245.025 147.704C242.977 146.584 241.377 144.984 240.225 142.904C239.073 140.824 238.497 138.392 238.497 135.608C238.497 132.824 239.057 130.392 240.177 128.312C241.329 126.232 242.929 124.632 244.977 123.512C247.025 122.392 249.377 121.832 252.033 121.832C254.625 121.832 256.929 122.376 258.945 123.464C260.961 124.552 262.529 126.104 263.649 128.12C264.801 130.136 265.377 132.488 265.377 135.176ZM256.977 133.016C256.977 131.608 256.497 130.488 255.537 129.656C254.577 128.824 253.377 128.408 251.937 128.408C250.561 128.408 249.393 128.808 248.433 129.608C247.505 130.408 246.929 131.544 246.705 133.016H256.977ZM285.067 149L279.931 141.56L275.611 149H266.731L275.563 135.32L266.491 122.216H275.707L280.843 129.608L285.163 122.216H294.043L285.067 135.704L294.283 149H285.067ZM305.174 126.008C305.974 124.76 307.078 123.752 308.486 122.984C309.894 122.216 311.542 121.832 313.43 121.832C315.638 121.832 317.638 122.392 319.43 123.512C321.222 124.632 322.63 126.232 323.654 128.312C324.71 130.392 325.238 132.808 325.238 135.56C325.238 138.312 324.71 140.744 323.654 142.856C322.63 144.936 321.222 146.552 319.43 147.704C317.638 148.824 315.638 149.384 313.43 149.384C311.574 149.384 309.926 149 308.486 148.232C307.078 147.464 305.974 146.472 305.174 145.256V161.768H296.966V122.216H305.174V126.008ZM316.886 135.56C316.886 133.512 316.31 131.912 315.158 130.76C314.038 129.576 312.646 128.984 310.982 128.984C309.35 128.984 307.958 129.576 306.806 130.76C305.686 131.944 305.126 133.56 305.126 135.608C305.126 137.656 305.686 139.272 306.806 140.456C307.958 141.64 309.35 142.232 310.982 142.232C312.614 142.232 314.006 141.64 315.158 140.456C316.31 139.24 316.886 137.608 316.886 135.56ZM354.312 135.176C354.312 135.944 354.264 136.744 354.168 137.576H335.592C335.72 139.24 336.248 140.52 337.176 141.416C338.136 142.28 339.304 142.712 340.68 142.712C342.728 142.712 344.152 141.848 344.952 140.12H353.688C353.24 141.88 352.424 143.464 351.24 144.872C350.088 146.28 348.632 147.384 346.872 148.184C345.112 148.984 343.144 149.384 340.968 149.384C338.344 149.384 336.008 148.824 333.96 147.704C331.912 146.584 330.312 144.984 329.16 142.904C328.008 140.824 327.432 138.392 327.432 135.608C327.432 132.824 327.992 130.392 329.112 128.312C330.264 126.232 331.864 124.632 333.912 123.512C335.96 122.392 338.312 121.832 340.968 121.832C343.56 121.832 345.864 122.376 347.88 123.464C349.896 124.552 351.464 126.104 352.584 128.12C353.736 130.136 354.312 132.488 354.312 135.176ZM345.912 133.016C345.912 131.608 345.432 130.488 344.472 129.656C343.512 128.824 342.312 128.408 340.872 128.408C339.496 128.408 338.328 128.808 337.368 129.608C336.44 130.408 335.864 131.544 335.64 133.016H345.912ZM366.37 126.68C367.33 125.208 368.53 124.056 369.97 123.224C371.41 122.36 373.01 121.928 374.77 121.928V130.616H372.514C370.466 130.616 368.93 131.064 367.906 131.96C366.882 132.824 366.37 134.36 366.37 136.568V149H358.162V122.216H366.37V126.68ZM393.141 142.04V149H388.965C385.989 149 383.669 148.28 382.005 146.84C380.341 145.368 379.509 142.984 379.509 139.688V129.032H376.245V122.216H379.509V115.688H387.717V122.216H393.093V129.032H387.717V139.784C387.717 140.584 387.909 141.16 388.293 141.512C388.677 141.864 389.317 142.04 390.213 142.04H393.141ZM401.362 119.432C399.922 119.432 398.738 119.016 397.81 118.184C396.914 117.32 396.466 116.264 396.466 115.016C396.466 113.736 396.914 112.68 397.81 111.848C398.738 110.984 399.922 110.552 401.362 110.552C402.77 110.552 403.922 110.984 404.818 111.848C405.746 112.68 406.21 113.736 406.21 115.016C406.21 116.264 405.746 117.32 404.818 118.184C403.922 119.016 402.77 119.432 401.362 119.432ZM405.442 122.216V149H397.234V122.216H405.442ZM421.806 149.384C419.47 149.384 417.39 148.984 415.566 148.184C413.742 147.384 412.302 146.296 411.246 144.92C410.19 143.512 409.598 141.944 409.47 140.216H417.582C417.678 141.144 418.11 141.896 418.878 142.472C419.646 143.048 420.59 143.336 421.71 143.336C422.734 143.336 423.518 143.144 424.062 142.76C424.638 142.344 424.926 141.816 424.926 141.176C424.926 140.408 424.526 139.848 423.726 139.496C422.926 139.112 421.63 138.696 419.838 138.248C417.918 137.8 416.318 137.336 415.038 136.856C413.758 136.344 412.654 135.56 411.726 134.504C410.798 133.416 410.334 131.96 410.334 130.136C410.334 128.6 410.75 127.208 411.582 125.96C412.446 124.68 413.694 123.672 415.326 122.936C416.99 122.2 418.958 121.832 421.23 121.832C424.59 121.832 427.23 122.664 429.15 124.328C431.102 125.992 432.222 128.2 432.51 130.952H424.926C424.798 130.024 424.382 129.288 423.678 128.744C423.006 128.2 422.11 127.928 420.99 127.928C420.03 127.928 419.294 128.12 418.782 128.504C418.27 128.856 418.014 129.352 418.014 129.992C418.014 130.76 418.414 131.336 419.214 131.72C420.046 132.104 421.326 132.488 423.054 132.872C425.038 133.384 426.654 133.896 427.902 134.408C429.15 134.888 430.238 135.688 431.166 136.808C432.126 137.896 432.622 139.368 432.654 141.224C432.654 142.792 432.206 144.2 431.31 145.448C430.446 146.664 429.182 147.624 427.518 148.328C425.886 149.032 423.982 149.384 421.806 149.384ZM462.443 135.176C462.443 135.944 462.395 136.744 462.299 137.576H443.723C443.851 139.24 444.379 140.52 445.307 141.416C446.267 142.28 447.435 142.712 448.811 142.712C450.859 142.712 452.283 141.848 453.083 140.12H461.819C461.371 141.88 460.555 143.464 459.371 144.872C458.219 146.28 456.763 147.384 455.003 148.184C453.243 148.984 451.275 149.384 449.099 149.384C446.475 149.384 444.139 148.824 442.091 147.704C440.043 146.584 438.443 144.984 437.291 142.904C436.139 140.824 435.563 138.392 435.563 135.608C435.563 132.824 436.123 130.392 437.243 128.312C438.395 126.232 439.995 124.632 442.043 123.512C444.091 122.392 446.443 121.832 449.099 121.832C451.691 121.832 453.995 122.376 456.011 123.464C458.027 124.552 459.595 126.104 460.715 128.12C461.867 130.136 462.443 132.488 462.443 135.176ZM454.043 133.016C454.043 131.608 453.563 130.488 452.603 129.656C451.643 128.824 450.443 128.408 449.003 128.408C447.627 128.408 446.459 128.808 445.499 129.608C444.571 130.408 443.995 131.544 443.771 133.016H454.043ZM476.134 113.432C479.558 113.432 482.294 114.328 484.342 116.12C486.422 117.912 487.462 120.44 487.462 123.704C487.462 126.712 486.47 129.064 484.486 130.76C482.534 132.424 479.942 133.272 476.71 133.304L476.47 136.904H469.27L469.03 127.976H471.91C474.374 127.976 476.246 127.672 477.526 127.064C478.838 126.456 479.494 125.352 479.494 123.752C479.494 122.632 479.19 121.752 478.582 121.112C477.974 120.472 477.126 120.152 476.038 120.152C474.886 120.152 473.99 120.488 473.35 121.16C472.71 121.8 472.39 122.68 472.39 123.8H464.662C464.598 121.848 464.998 120.088 465.862 118.52C466.758 116.952 468.07 115.72 469.798 114.824C471.558 113.896 473.67 113.432 476.134 113.432ZM472.966 149.384C471.526 149.384 470.342 148.968 469.414 148.136C468.518 147.272 468.07 146.216 468.07 144.968C468.07 143.688 468.518 142.616 469.414 141.752C470.342 140.888 471.526 140.456 472.966 140.456C474.374 140.456 475.526 140.888 476.422 141.752C477.35 142.616 477.814 143.688 477.814 144.968C477.814 146.216 477.35 147.272 476.422 148.136C475.526 148.968 474.374 149.384 472.966 149.384Z" fill="#151E2C"/>
</svg>
