<svg width="690" height="55" viewBox="0 0 690 55" fill="none" xmlns="http://www.w3.org/2000/svg">
<rect x="194" y="38" width="199" height="15" fill="#FFBE62"/>
<path d="M96.8996 8.304L88.1156 42H78.1796L72.8036 19.824L67.2356 42H57.2996L48.7556 8.304H57.5396L62.3876 32.832L68.3876 8.304H77.4116L83.1716 32.832L88.0676 8.304H96.8996ZM117 14.928C120.072 14.928 122.536 15.952 124.392 18C126.248 20.016 127.176 22.8 127.176 26.352V42H119.016V27.456C119.016 25.664 118.552 24.272 117.624 23.28C116.696 22.288 115.448 21.792 113.88 21.792C112.312 21.792 111.064 22.288 110.136 23.28C109.208 24.272 108.744 25.664 108.744 27.456V42H100.536V6.48H108.744V18.816C109.576 17.632 110.712 16.688 112.152 15.984C113.592 15.28 115.208 14.928 117 14.928ZM130.768 28.56C130.768 25.808 131.28 23.392 132.304 21.312C133.36 19.232 134.784 17.632 136.576 16.512C138.368 15.392 140.368 14.832 142.576 14.832C144.464 14.832 146.112 15.216 147.52 15.984C148.96 16.752 150.064 17.76 150.832 19.008V15.216H159.04V42H150.832V38.208C150.032 39.456 148.912 40.464 147.472 41.232C146.064 42 144.416 42.384 142.528 42.384C140.352 42.384 138.368 41.824 136.576 40.704C134.784 39.552 133.36 37.936 132.304 35.856C131.28 33.744 130.768 31.312 130.768 28.56ZM150.832 28.608C150.832 26.56 150.256 24.944 149.104 23.76C147.984 22.576 146.608 21.984 144.976 21.984C143.344 21.984 141.952 22.576 140.8 23.76C139.68 24.912 139.12 26.512 139.12 28.56C139.12 30.608 139.68 32.24 140.8 33.456C141.952 34.64 143.344 35.232 144.976 35.232C146.608 35.232 147.984 34.64 149.104 33.456C150.256 32.272 150.832 30.656 150.832 28.608ZM179.426 35.04V42H175.25C172.274 42 169.954 41.28 168.29 39.84C166.626 38.368 165.794 35.984 165.794 32.688V22.032H162.53V15.216H165.794V8.688H174.002V15.216H179.378V22.032H174.002V32.784C174.002 33.584 174.194 34.16 174.578 34.512C174.962 34.864 175.602 35.04 176.498 35.04H179.426ZM208.138 35.04V42H203.962C200.986 42 198.666 41.28 197.002 39.84C195.338 38.368 194.506 35.984 194.506 32.688V22.032H191.242V15.216H194.506V8.688H202.714V15.216H208.09V22.032H202.714V32.784C202.714 33.584 202.906 34.16 203.29 34.512C203.674 34.864 204.314 35.04 205.21 35.04H208.138ZM228.694 14.928C231.766 14.928 234.23 15.952 236.086 18C237.942 20.016 238.87 22.8 238.87 26.352V42H230.71V27.456C230.71 25.664 230.246 24.272 229.318 23.28C228.39 22.288 227.142 21.792 225.574 21.792C224.006 21.792 222.758 22.288 221.83 23.28C220.902 24.272 220.438 25.664 220.438 27.456V42H212.23V6.48H220.438V18.816C221.27 17.632 222.406 16.688 223.846 15.984C225.286 15.28 226.902 14.928 228.694 14.928ZM269.342 28.176C269.342 28.944 269.294 29.744 269.198 30.576H250.622C250.75 32.24 251.278 33.52 252.206 34.416C253.166 35.28 254.334 35.712 255.71 35.712C257.758 35.712 259.182 34.848 259.982 33.12H268.718C268.27 34.88 267.454 36.464 266.27 37.872C265.118 39.28 263.662 40.384 261.902 41.184C260.142 41.984 258.174 42.384 255.998 42.384C253.374 42.384 251.038 41.824 248.99 40.704C246.942 39.584 245.342 37.984 244.19 35.904C243.038 33.824 242.462 31.392 242.462 28.608C242.462 25.824 243.022 23.392 244.142 21.312C245.294 19.232 246.894 17.632 248.942 16.512C250.99 15.392 253.342 14.832 255.998 14.832C258.59 14.832 260.894 15.376 262.91 16.464C264.926 17.552 266.494 19.104 267.614 21.12C268.766 23.136 269.342 25.488 269.342 28.176ZM260.942 26.016C260.942 24.608 260.462 23.488 259.502 22.656C258.542 21.824 257.342 21.408 255.902 21.408C254.526 21.408 253.358 21.808 252.398 22.608C251.47 23.408 250.894 24.544 250.67 26.016H260.942ZM300.552 15.216L283.752 54.72H274.92L281.064 41.088L270.168 15.216H279.336L285.528 31.968L291.672 15.216H300.552ZM323.628 42.384C321.292 42.384 319.212 41.984 317.388 41.184C315.564 40.384 314.124 39.296 313.068 37.92C312.012 36.512 311.42 34.944 311.292 33.216H319.404C319.5 34.144 319.932 34.896 320.7 35.472C321.468 36.048 322.412 36.336 323.532 36.336C324.556 36.336 325.34 36.144 325.884 35.76C326.46 35.344 326.748 34.816 326.748 34.176C326.748 33.408 326.348 32.848 325.548 32.496C324.748 32.112 323.452 31.696 321.66 31.248C319.74 30.8 318.14 30.336 316.86 29.856C315.58 29.344 314.476 28.56 313.548 27.504C312.62 26.416 312.156 24.96 312.156 23.136C312.156 21.6 312.572 20.208 313.404 18.96C314.268 17.68 315.516 16.672 317.148 15.936C318.812 15.2 320.78 14.832 323.052 14.832C326.412 14.832 329.052 15.664 330.972 17.328C332.924 18.992 334.044 21.2 334.332 23.952H326.748C326.62 23.024 326.204 22.288 325.5 21.744C324.828 21.2 323.932 20.928 322.812 20.928C321.852 20.928 321.116 21.12 320.604 21.504C320.092 21.856 319.836 22.352 319.836 22.992C319.836 23.76 320.236 24.336 321.036 24.72C321.868 25.104 323.148 25.488 324.876 25.872C326.86 26.384 328.476 26.896 329.724 27.408C330.972 27.888 332.06 28.688 332.988 29.808C333.948 30.896 334.444 32.368 334.476 34.224C334.476 35.792 334.028 37.2 333.132 38.448C332.268 39.664 331.004 40.624 329.34 41.328C327.708 42.032 325.804 42.384 323.628 42.384ZM337.385 28.56C337.385 25.808 337.897 23.392 338.921 21.312C339.977 19.232 341.401 17.632 343.193 16.512C344.985 15.392 346.985 14.832 349.193 14.832C351.081 14.832 352.729 15.216 354.137 15.984C355.577 16.752 356.681 17.76 357.449 19.008V15.216H365.657V42H357.449V38.208C356.649 39.456 355.529 40.464 354.089 41.232C352.681 42 351.033 42.384 349.145 42.384C346.969 42.384 344.985 41.824 343.193 40.704C341.401 39.552 339.977 37.936 338.921 35.856C337.897 33.744 337.385 31.312 337.385 28.56ZM357.449 28.608C357.449 26.56 356.873 24.944 355.721 23.76C354.601 22.576 353.225 21.984 351.593 21.984C349.961 21.984 348.569 22.576 347.417 23.76C346.297 24.912 345.737 26.512 345.737 28.56C345.737 30.608 346.297 32.24 347.417 33.456C348.569 34.64 349.961 35.232 351.593 35.232C353.225 35.232 354.601 34.64 355.721 33.456C356.873 32.272 357.449 30.656 357.449 28.608ZM398.475 15.216L381.675 54.72H372.843L378.987 41.088L368.091 15.216H377.259L383.451 31.968L389.595 15.216H398.475ZM409.023 28.56C409.023 25.808 409.535 23.392 410.559 21.312C411.615 19.232 413.039 17.632 414.831 16.512C416.623 15.392 418.623 14.832 420.831 14.832C422.719 14.832 424.367 15.216 425.775 15.984C427.215 16.752 428.319 17.76 429.087 19.008V15.216H437.295V42H429.087V38.208C428.287 39.456 427.167 40.464 425.727 41.232C424.319 42 422.671 42.384 420.783 42.384C418.607 42.384 416.623 41.824 414.831 40.704C413.039 39.552 411.615 37.936 410.559 35.856C409.535 33.744 409.023 31.312 409.023 28.56ZM429.087 28.608C429.087 26.56 428.511 24.944 427.359 23.76C426.239 22.576 424.863 21.984 423.231 21.984C421.599 21.984 420.207 22.576 419.055 23.76C417.935 24.912 417.375 26.512 417.375 28.56C417.375 30.608 417.935 32.24 419.055 33.456C420.207 34.64 421.599 35.232 423.231 35.232C424.863 35.232 426.239 34.64 427.359 33.456C428.511 32.272 429.087 30.656 429.087 28.608ZM450.961 19.008C451.729 17.76 452.833 16.752 454.273 15.984C455.713 15.216 457.361 14.832 459.217 14.832C461.425 14.832 463.425 15.392 465.217 16.512C467.009 17.632 468.417 19.232 469.441 21.312C470.497 23.392 471.025 25.808 471.025 28.56C471.025 31.312 470.497 33.744 469.441 35.856C468.417 37.936 467.009 39.552 465.217 40.704C463.425 41.824 461.425 42.384 459.217 42.384C457.329 42.384 455.681 42.016 454.273 41.28C452.865 40.512 451.761 39.504 450.961 38.256V42H442.753V6.48H450.961V19.008ZM462.673 28.56C462.673 26.512 462.097 24.912 460.945 23.76C459.825 22.576 458.433 21.984 456.769 21.984C455.137 21.984 453.745 22.576 452.593 23.76C451.473 24.944 450.913 26.56 450.913 28.608C450.913 30.656 451.473 32.272 452.593 33.456C453.745 34.64 455.137 35.232 456.769 35.232C458.401 35.232 459.793 34.64 460.945 33.456C462.097 32.24 462.673 30.608 462.673 28.56ZM487.044 42.384C484.42 42.384 482.052 41.824 479.94 40.704C477.86 39.584 476.212 37.984 474.996 35.904C473.812 33.824 473.22 31.392 473.22 28.608C473.22 25.856 473.828 23.44 475.044 21.36C476.26 19.248 477.924 17.632 480.036 16.512C482.148 15.392 484.516 14.832 487.14 14.832C489.764 14.832 492.132 15.392 494.244 16.512C496.356 17.632 498.02 19.248 499.236 21.36C500.452 23.44 501.06 25.856 501.06 28.608C501.06 31.36 500.436 33.792 499.188 35.904C497.972 37.984 496.292 39.584 494.148 40.704C492.036 41.824 489.668 42.384 487.044 42.384ZM487.044 35.28C488.612 35.28 489.94 34.704 491.028 33.552C492.148 32.4 492.708 30.752 492.708 28.608C492.708 26.464 492.164 24.816 491.076 23.664C490.02 22.512 488.708 21.936 487.14 21.936C485.54 21.936 484.212 22.512 483.156 23.664C482.1 24.784 481.572 26.432 481.572 28.608C481.572 30.752 482.084 32.4 483.108 33.552C484.164 34.704 485.476 35.28 487.044 35.28ZM531.382 15.216V42H523.174V38.352C522.342 39.536 521.206 40.496 519.766 41.232C518.358 41.936 516.79 42.288 515.062 42.288C513.014 42.288 511.206 41.84 509.638 40.944C508.07 40.016 506.854 38.688 505.99 36.96C505.126 35.232 504.694 33.2 504.694 30.864V15.216H512.854V29.76C512.854 31.552 513.318 32.944 514.246 33.936C515.174 34.928 516.422 35.424 517.99 35.424C519.59 35.424 520.854 34.928 521.782 33.936C522.71 32.944 523.174 31.552 523.174 29.76V15.216H531.382ZM551.726 35.04V42H547.55C544.574 42 542.254 41.28 540.59 39.84C538.926 38.368 538.094 35.984 538.094 32.688V22.032H534.83V15.216H538.094V8.688H546.302V15.216H551.678V22.032H546.302V32.784C546.302 33.584 546.494 34.16 546.878 34.512C547.262 34.864 547.902 35.04 548.798 35.04H551.726ZM599.686 14.928C603.014 14.928 605.654 15.936 607.606 17.952C609.59 19.968 610.582 22.768 610.582 26.352V42H602.422V27.456C602.422 25.728 601.958 24.4 601.03 23.472C600.134 22.512 598.886 22.032 597.286 22.032C595.686 22.032 594.422 22.512 593.494 23.472C592.598 24.4 592.15 25.728 592.15 27.456V42H583.99V27.456C583.99 25.728 583.526 24.4 582.598 23.472C581.702 22.512 580.454 22.032 578.854 22.032C577.254 22.032 575.99 22.512 575.062 23.472C574.166 24.4 573.718 25.728 573.718 27.456V42H565.51V15.216H573.718V18.576C574.55 17.456 575.638 16.576 576.982 15.936C578.326 15.264 579.846 14.928 581.542 14.928C583.558 14.928 585.35 15.36 586.918 16.224C588.518 17.088 589.766 18.32 590.662 19.92C591.59 18.448 592.854 17.248 594.454 16.32C596.054 15.392 597.798 14.928 599.686 14.928ZM641.09 28.176C641.09 28.944 641.042 29.744 640.946 30.576H622.37C622.498 32.24 623.026 33.52 623.954 34.416C624.914 35.28 626.082 35.712 627.458 35.712C629.506 35.712 630.93 34.848 631.73 33.12H640.466C640.018 34.88 639.202 36.464 638.018 37.872C636.866 39.28 635.41 40.384 633.65 41.184C631.89 41.984 629.922 42.384 627.746 42.384C625.122 42.384 622.786 41.824 620.738 40.704C618.69 39.584 617.09 37.984 615.938 35.904C614.786 33.824 614.21 31.392 614.21 28.608C614.21 25.824 614.77 23.392 615.89 21.312C617.042 19.232 618.642 17.632 620.69 16.512C622.738 15.392 625.09 14.832 627.746 14.832C630.338 14.832 632.642 15.376 634.658 16.464C636.674 17.552 638.242 19.104 639.362 21.12C640.514 23.136 641.09 25.488 641.09 28.176ZM632.69 26.016C632.69 24.608 632.21 23.488 631.25 22.656C630.29 21.824 629.09 21.408 627.65 21.408C626.274 21.408 625.106 21.808 624.146 22.608C623.218 23.408 622.642 24.544 622.418 26.016H632.69Z" fill="#151E2C"/>
</svg>
