<svg width="999" height="83" viewBox="0 0 999 83" fill="none" xmlns="http://www.w3.org/2000/svg">
<rect x="1" y="53" width="258" height="27" fill="#FFBE62"/>
<path d="M54.848 19.072V64H43.904V37.056L33.856 64H25.024L14.912 36.992V64H3.968V19.072H16.896L29.504 50.176L41.984 19.072H54.848ZM78.334 64.512C74.8353 64.512 71.678 63.7653 68.862 62.272C66.0887 60.7787 63.8913 58.6453 62.27 55.872C60.6913 53.0987 59.902 49.856 59.902 46.144C59.902 42.4747 60.7127 39.2533 62.334 36.48C63.9553 33.664 66.174 31.5093 68.99 30.016C71.806 28.5227 74.9633 27.776 78.462 27.776C81.9607 27.776 85.118 28.5227 87.934 30.016C90.75 31.5093 92.9687 33.664 94.59 36.48C96.2113 39.2533 97.022 42.4747 97.022 46.144C97.022 49.8133 96.19 53.056 94.526 55.872C92.9047 58.6453 90.6647 60.7787 87.806 62.272C84.99 63.7653 81.8327 64.512 78.334 64.512ZM78.334 55.04C80.4247 55.04 82.1953 54.272 83.646 52.736C85.1393 51.2 85.886 49.0027 85.886 46.144C85.886 43.2853 85.1607 41.088 83.71 39.552C82.302 38.016 80.5527 37.248 78.462 37.248C76.3287 37.248 74.558 38.016 73.15 39.552C71.742 41.0453 71.038 43.2427 71.038 46.144C71.038 49.0027 71.7207 51.2 73.086 52.736C74.494 54.272 76.2433 55.04 78.334 55.04ZM113.132 34.24C114.412 32.2773 116.012 30.7413 117.932 29.632C119.852 28.48 121.985 27.904 124.332 27.904V39.488H121.324C118.593 39.488 116.545 40.0853 115.18 41.28C113.815 42.432 113.132 44.48 113.132 47.424V64H102.188V28.288H113.132V34.24ZM139.867 34.24C141.147 32.2773 142.747 30.7413 144.667 29.632C146.587 28.48 148.72 27.904 151.067 27.904V39.488H148.059C145.328 39.488 143.28 40.0853 141.915 41.28C140.55 42.432 139.867 44.48 139.867 47.424V64H128.923V28.288H139.867V34.24ZM189.322 45.568C189.322 46.592 189.258 47.6587 189.13 48.768H164.362C164.533 50.9867 165.237 52.6933 166.474 53.888C167.754 55.04 169.311 55.616 171.146 55.616C173.877 55.616 175.775 54.464 176.842 52.16H188.49C187.893 54.5067 186.805 56.6187 185.226 58.496C183.69 60.3733 181.749 61.8453 179.402 62.912C177.055 63.9787 174.431 64.512 171.53 64.512C168.031 64.512 164.917 63.7653 162.186 62.272C159.455 60.7787 157.322 58.6453 155.786 55.872C154.25 53.0987 153.482 49.856 153.482 46.144C153.482 42.432 154.229 39.1893 155.722 36.416C157.258 33.6427 159.391 31.5093 162.122 30.016C164.853 28.5227 167.989 27.776 171.53 27.776C174.986 27.776 178.058 28.5013 180.746 29.952C183.434 31.4027 185.525 33.472 187.018 36.16C188.554 38.848 189.322 41.984 189.322 45.568ZM178.122 42.688C178.122 40.8107 177.482 39.3173 176.202 38.208C174.922 37.0987 173.322 36.544 171.402 36.544C169.567 36.544 168.01 37.0773 166.73 38.144C165.493 39.2107 164.725 40.7253 164.426 42.688H178.122ZM216.216 27.904C220.397 27.904 223.725 29.2693 226.2 32C228.717 34.688 229.976 38.4 229.976 43.136V64H219.096V44.608C219.096 42.2187 218.477 40.3627 217.24 39.04C216.002 37.7173 214.338 37.056 212.248 37.056C210.157 37.056 208.493 37.7173 207.256 39.04C206.018 40.3627 205.4 42.2187 205.4 44.608V64H194.456V28.288H205.4V33.024C206.509 31.4453 208.002 30.208 209.88 29.312C211.757 28.3733 213.869 27.904 216.216 27.904ZM256.845 54.72V64H251.277C247.309 64 244.215 63.04 241.997 61.12C239.778 59.1573 238.669 55.9787 238.669 51.584V37.376H234.317V28.288H238.669V19.584H249.613V28.288H256.781V37.376H249.613V51.712C249.613 52.7787 249.869 53.5467 250.381 54.016C250.893 54.4853 251.746 54.72 252.941 54.72H256.845ZM302.743 36.992V46.08H274.583V36.992H302.743ZM352.599 56.064H335.831L333.143 64H321.687L337.943 19.072H350.615L366.871 64H355.287L352.599 56.064ZM349.783 47.616L344.215 31.168L338.711 47.616H349.783ZM382.245 41.472C382.245 37.0347 383.205 33.088 385.125 29.632C387.045 26.1333 389.711 23.424 393.125 21.504C396.581 19.5413 400.485 18.56 404.837 18.56C410.17 18.56 414.735 19.968 418.533 22.784C422.33 25.6 424.869 29.44 426.149 34.304H414.117C413.221 32.4267 411.941 30.9973 410.277 30.016C408.655 29.0347 406.799 28.544 404.709 28.544C401.338 28.544 398.607 29.7173 396.517 32.064C394.426 34.4107 393.381 37.5467 393.381 41.472C393.381 45.3973 394.426 48.5333 396.517 50.88C398.607 53.2267 401.338 54.4 404.709 54.4C406.799 54.4 408.655 53.9093 410.277 52.928C411.941 51.9467 413.221 50.5173 414.117 48.64H426.149C424.869 53.504 422.33 57.344 418.533 60.16C414.735 62.9333 410.17 64.32 404.837 64.32C400.485 64.32 396.581 63.36 393.125 61.44C389.711 59.4773 387.045 56.768 385.125 53.312C383.205 49.856 382.245 45.9093 382.245 41.472ZM430.034 46.08C430.034 42.4107 430.717 39.1893 432.082 36.416C433.49 33.6427 435.389 31.5093 437.778 30.016C440.168 28.5227 442.834 27.776 445.778 27.776C448.296 27.776 450.493 28.288 452.37 29.312C454.29 30.336 455.762 31.68 456.786 33.344V28.288H467.73V64H456.786V58.944C455.72 60.608 454.226 61.952 452.306 62.976C450.429 64 448.232 64.512 445.714 64.512C442.813 64.512 440.168 63.7653 437.778 62.272C435.389 60.736 433.49 58.5813 432.082 55.808C430.717 52.992 430.034 49.7493 430.034 46.08ZM456.786 46.144C456.786 43.4133 456.018 41.2587 454.482 39.68C452.989 38.1013 451.154 37.312 448.978 37.312C446.802 37.312 444.946 38.1013 443.41 39.68C441.917 41.216 441.17 43.3493 441.17 46.08C441.17 48.8107 441.917 50.9867 443.41 52.608C444.946 54.1867 446.802 54.976 448.978 54.976C451.154 54.976 452.989 54.1867 454.482 52.608C456.018 51.0293 456.786 48.8747 456.786 46.144ZM485.952 34.24C487.232 32.2773 488.832 30.7413 490.752 29.632C492.672 28.48 494.805 27.904 497.152 27.904V39.488H494.144C491.413 39.488 489.365 40.0853 488 41.28C486.635 42.432 485.952 44.48 485.952 47.424V64H475.008V28.288H485.952V34.24ZM537.578 64L528.234 47.04H525.61V64H514.666V19.072H533.034C536.575 19.072 539.583 19.6907 542.058 20.928C544.575 22.1653 546.452 23.872 547.69 26.048C548.927 28.1813 549.546 30.5707 549.546 33.216C549.546 36.2027 548.692 38.8693 546.986 41.216C545.322 43.5627 542.847 45.2267 539.562 46.208L549.93 64H537.578ZM525.61 39.296H532.394C534.399 39.296 535.892 38.8053 536.874 37.824C537.898 36.8427 538.41 35.456 538.41 33.664C538.41 31.9573 537.898 30.6133 536.874 29.632C535.892 28.6507 534.399 28.16 532.394 28.16H525.61V39.296ZM589.439 45.568C589.439 46.592 589.375 47.6587 589.247 48.768H564.479C564.65 50.9867 565.354 52.6933 566.591 53.888C567.871 55.04 569.429 55.616 571.263 55.616C573.994 55.616 575.893 54.464 576.959 52.16H588.607C588.01 54.5067 586.922 56.6187 585.343 58.496C583.807 60.3733 581.866 61.8453 579.519 62.912C577.173 63.9787 574.549 64.512 571.647 64.512C568.149 64.512 565.034 63.7653 562.303 62.272C559.573 60.7787 557.439 58.6453 555.903 55.872C554.367 53.0987 553.599 49.856 553.599 46.144C553.599 42.432 554.346 39.1893 555.839 36.416C557.375 33.6427 559.509 31.5093 562.239 30.016C564.97 28.5227 568.106 27.776 571.647 27.776C575.103 27.776 578.175 28.5013 580.863 29.952C583.551 31.4027 585.642 33.472 587.135 36.16C588.671 38.848 589.439 41.984 589.439 45.568ZM578.239 42.688C578.239 40.8107 577.599 39.3173 576.319 38.208C575.039 37.0987 573.439 36.544 571.519 36.544C569.685 36.544 568.127 37.0773 566.847 38.144C565.61 39.2107 564.842 40.7253 564.543 42.688H578.239ZM616.333 27.904C620.514 27.904 623.842 29.2693 626.317 32C628.834 34.688 630.093 38.4 630.093 43.136V64H619.213V44.608C619.213 42.2187 618.594 40.3627 617.357 39.04C616.12 37.7173 614.456 37.056 612.365 37.056C610.274 37.056 608.61 37.7173 607.373 39.04C606.136 40.3627 605.517 42.2187 605.517 44.608V64H594.573V28.288H605.517V33.024C606.626 31.4453 608.12 30.208 609.997 29.312C611.874 28.3733 613.986 27.904 616.333 27.904ZM656.962 54.72V64H651.394C647.426 64 644.333 63.04 642.114 61.12C639.895 59.1573 638.786 55.9787 638.786 51.584V37.376H634.434V28.288H638.786V19.584H649.73V28.288H656.898V37.376H649.73V51.712C649.73 52.7787 649.986 53.5467 650.498 54.016C651.01 54.4853 651.863 54.72 653.058 54.72H656.962ZM660.242 46.08C660.242 42.4107 660.925 39.1893 662.29 36.416C663.698 33.6427 665.597 31.5093 667.986 30.016C670.375 28.5227 673.042 27.776 675.986 27.776C678.503 27.776 680.701 28.288 682.578 29.312C684.498 30.336 685.97 31.68 686.994 33.344V28.288H697.938V64H686.994V58.944C685.927 60.608 684.434 61.952 682.514 62.976C680.637 64 678.439 64.512 675.922 64.512C673.021 64.512 670.375 63.7653 667.986 62.272C665.597 60.736 663.698 58.5813 662.29 55.808C660.925 52.992 660.242 49.7493 660.242 46.08ZM686.994 46.144C686.994 43.4133 686.226 41.2587 684.69 39.68C683.197 38.1013 681.362 37.312 679.186 37.312C677.01 37.312 675.154 38.1013 673.618 39.68C672.125 41.216 671.378 43.3493 671.378 46.08C671.378 48.8107 672.125 50.9867 673.618 52.608C675.154 54.1867 677.01 54.976 679.186 54.976C681.362 54.976 683.197 54.1867 684.69 52.608C686.226 51.0293 686.994 48.8747 686.994 46.144ZM716.159 16.64V64H705.215V16.64H716.159ZM798.197 19.072L786.485 64H773.237L766.069 34.432L758.645 64H745.397L734.005 19.072H745.717L752.181 51.776L760.181 19.072H772.213L779.893 51.776L786.421 19.072H798.197ZM836.71 45.568C836.71 46.592 836.646 47.6587 836.518 48.768H811.75C811.92 50.9867 812.624 52.6933 813.862 53.888C815.142 55.04 816.699 55.616 818.534 55.616C821.264 55.616 823.163 54.464 824.23 52.16H835.878C835.28 54.5067 834.192 56.6187 832.614 58.496C831.078 60.3733 829.136 61.8453 826.79 62.912C824.443 63.9787 821.819 64.512 818.918 64.512C815.419 64.512 812.304 63.7653 809.574 62.272C806.843 60.7787 804.71 58.6453 803.174 55.872C801.638 53.0987 800.87 49.856 800.87 46.144C800.87 42.432 801.616 39.1893 803.11 36.416C804.646 33.6427 806.779 31.5093 809.51 30.016C812.24 28.5227 815.376 27.776 818.918 27.776C822.374 27.776 825.446 28.5013 828.134 29.952C830.822 31.4027 832.912 33.472 834.406 36.16C835.942 38.848 836.71 41.984 836.71 45.568ZM825.51 42.688C825.51 40.8107 824.87 39.3173 823.59 38.208C822.31 37.0987 820.71 36.544 818.79 36.544C816.955 36.544 815.398 37.0773 814.118 38.144C812.88 39.2107 812.112 40.7253 811.814 42.688H825.51ZM852.787 33.344C853.811 31.68 855.283 30.336 857.203 29.312C859.123 28.288 861.32 27.776 863.795 27.776C866.739 27.776 869.406 28.5227 871.795 30.016C874.184 31.5093 876.062 33.6427 877.427 36.416C878.835 39.1893 879.539 42.4107 879.539 46.08C879.539 49.7493 878.835 52.992 877.427 55.808C876.062 58.5813 874.184 60.736 871.795 62.272C869.406 63.7653 866.739 64.512 863.795 64.512C861.278 64.512 859.08 64.0213 857.203 63.04C855.326 62.016 853.854 60.672 852.787 59.008V64H841.843V16.64H852.787V33.344ZM868.403 46.08C868.403 43.3493 867.635 41.216 866.099 39.68C864.606 38.1013 862.75 37.312 860.531 37.312C858.355 37.312 856.499 38.1013 854.963 39.68C853.47 41.2587 852.723 43.4133 852.723 46.144C852.723 48.8747 853.47 51.0293 854.963 52.608C856.499 54.1867 858.355 54.976 860.531 54.976C862.707 54.976 864.563 54.1867 866.099 52.608C867.635 50.9867 868.403 48.8107 868.403 46.08ZM899.168 64.512C896.054 64.512 893.28 63.9787 890.848 62.912C888.416 61.8453 886.496 60.3947 885.088 58.56C883.68 56.6827 882.891 54.592 882.72 52.288H893.536C893.664 53.5253 894.24 54.528 895.264 55.296C896.288 56.064 897.547 56.448 899.04 56.448C900.406 56.448 901.451 56.192 902.176 55.68C902.944 55.1253 903.328 54.4213 903.328 53.568C903.328 52.544 902.795 51.7973 901.728 51.328C900.662 50.816 898.934 50.2613 896.544 49.664C893.984 49.0667 891.851 48.448 890.144 47.808C888.438 47.1253 886.966 46.08 885.728 44.672C884.491 43.2213 883.872 41.28 883.872 38.848C883.872 36.8 884.427 34.944 885.536 33.28C886.688 31.5733 888.352 30.2293 890.528 29.248C892.747 28.2667 895.371 27.776 898.4 27.776C902.88 27.776 906.4 28.8853 908.96 31.104C911.563 33.3227 913.056 36.2667 913.44 39.936H903.328C903.158 38.6987 902.603 37.7173 901.664 36.992C900.768 36.2667 899.574 35.904 898.08 35.904C896.8 35.904 895.819 36.16 895.136 36.672C894.454 37.1413 894.112 37.8027 894.112 38.656C894.112 39.68 894.646 40.448 895.712 40.96C896.822 41.472 898.528 41.984 900.832 42.496C903.478 43.1787 905.632 43.8613 907.296 44.544C908.96 45.184 910.411 46.2507 911.648 47.744C912.928 49.1947 913.59 51.1573 913.632 53.632C913.632 55.7227 913.035 57.6 911.84 59.264C910.688 60.8853 909.003 62.1653 906.784 63.104C904.608 64.0427 902.07 64.512 899.168 64.512ZM925.192 24.576C923.272 24.576 921.693 24.0213 920.456 22.912C919.261 21.76 918.664 20.352 918.664 18.688C918.664 16.9813 919.261 15.5733 920.456 14.464C921.693 13.312 923.272 12.736 925.192 12.736C927.069 12.736 928.605 13.312 929.8 14.464C931.037 15.5733 931.656 16.9813 931.656 18.688C931.656 20.352 931.037 21.76 929.8 22.912C928.605 24.0213 927.069 24.576 925.192 24.576ZM930.632 28.288V64H919.688V28.288H930.632ZM957.827 54.72V64H952.259C948.291 64 945.198 63.04 942.979 61.12C940.76 59.1573 939.651 55.9787 939.651 51.584V37.376H935.299V28.288H939.651V19.584H950.595V28.288H957.763V37.376H950.595V51.712C950.595 52.7787 950.851 53.5467 951.363 54.016C951.875 54.4853 952.728 54.72 953.923 54.72H957.827ZM996.947 45.568C996.947 46.592 996.883 47.6587 996.755 48.768H971.987C972.158 50.9867 972.862 52.6933 974.099 53.888C975.379 55.04 976.936 55.616 978.771 55.616C981.502 55.616 983.4 54.464 984.467 52.16H996.115C995.518 54.5067 994.43 56.6187 992.851 58.496C991.315 60.3733 989.374 61.8453 987.027 62.912C984.68 63.9787 982.056 64.512 979.155 64.512C975.656 64.512 972.542 63.7653 969.811 62.272C967.08 60.7787 964.947 58.6453 963.411 55.872C961.875 53.0987 961.107 49.856 961.107 46.144C961.107 42.432 961.854 39.1893 963.347 36.416C964.883 33.6427 967.016 31.5093 969.747 30.016C972.478 28.5227 975.614 27.776 979.155 27.776C982.611 27.776 985.683 28.5013 988.371 29.952C991.059 31.4027 993.15 33.472 994.643 36.16C996.179 38.848 996.947 41.984 996.947 45.568ZM985.747 42.688C985.747 40.8107 985.107 39.3173 983.827 38.208C982.547 37.0987 980.947 36.544 979.027 36.544C977.192 36.544 975.635 37.0773 974.355 38.144C973.118 39.2107 972.35 40.7253 972.051 42.688H985.747Z" fill="white"/>
</svg>
