<svg width="659" height="84" viewBox="0 0 659 84" fill="none" xmlns="http://www.w3.org/2000/svg">
<rect x="243" y="56.9655" width="416" height="27.0345" fill="#FFBE62"/>
<path d="M26.88 62L17.536 45.04H14.912V62H3.968V17.072H22.336C25.8773 17.072 28.8853 17.6907 31.36 18.928C33.8773 20.1653 35.7547 21.872 36.992 24.048C38.2293 26.1813 38.848 28.5707 38.848 31.216C38.848 34.2027 37.9947 36.8693 36.288 39.216C34.624 41.5627 32.1493 43.2267 28.864 44.208L39.232 62H26.88ZM14.912 37.296H21.696C23.7013 37.296 25.1947 36.8053 26.176 35.824C27.2 34.8427 27.712 33.456 27.712 31.664C27.712 29.9573 27.2 28.6133 26.176 27.632C25.1947 26.6507 23.7013 26.16 21.696 26.16H14.912V37.296ZM78.742 43.568C78.742 44.592 78.678 45.6587 78.55 46.768H53.782C53.9527 48.9867 54.6567 50.6933 55.894 51.888C57.174 53.04 58.7313 53.616 60.566 53.616C63.2967 53.616 65.1953 52.464 66.262 50.16H77.91C77.3127 52.5067 76.2247 54.6187 74.646 56.496C73.11 58.3733 71.1687 59.8453 68.822 60.912C66.4753 61.9787 63.8513 62.512 60.95 62.512C57.4513 62.512 54.3367 61.7653 51.606 60.272C48.8753 58.7787 46.742 56.6453 45.206 53.872C43.67 51.0987 42.902 47.856 42.902 44.144C42.902 40.432 43.6487 37.1893 45.142 34.416C46.678 31.6427 48.8113 29.5093 51.542 28.016C54.2727 26.5227 57.4087 25.776 60.95 25.776C64.406 25.776 67.478 26.5013 70.166 27.952C72.854 29.4027 74.9447 31.472 76.438 34.16C77.974 36.848 78.742 39.984 78.742 43.568ZM67.542 40.688C67.542 38.8107 66.902 37.3173 65.622 36.208C64.342 35.0987 62.742 34.544 60.822 34.544C58.9873 34.544 57.43 35.0773 56.15 36.144C54.9127 37.2107 54.1447 38.7253 53.846 40.688H67.542ZM81.6995 44.144C81.6995 40.432 82.4462 37.1893 83.9395 34.416C85.4755 31.6427 87.5875 29.5093 90.2755 28.016C93.0062 26.5227 96.1208 25.776 99.6195 25.776C104.1 25.776 107.833 26.9493 110.82 29.296C113.849 31.6427 115.833 34.9493 116.772 39.216H105.124C104.142 36.4853 102.244 35.12 99.4275 35.12C97.4222 35.12 95.8222 35.9093 94.6275 37.488C93.4328 39.024 92.8355 41.2427 92.8355 44.144C92.8355 47.0453 93.4328 49.2853 94.6275 50.864C95.8222 52.4 97.4222 53.168 99.4275 53.168C102.244 53.168 104.142 51.8027 105.124 49.072H116.772C115.833 53.2533 113.849 56.5387 110.82 58.928C107.79 61.3173 104.057 62.512 99.6195 62.512C96.1208 62.512 93.0062 61.7653 90.2755 60.272C87.5875 58.7787 85.4755 56.6453 83.9395 53.872C82.4462 51.0987 81.6995 47.856 81.6995 44.144ZM155.65 43.568C155.65 44.592 155.586 45.6587 155.458 46.768H130.69C130.86 48.9867 131.564 50.6933 132.802 51.888C134.082 53.04 135.639 53.616 137.474 53.616C140.204 53.616 142.103 52.464 143.17 50.16H154.818C154.22 52.5067 153.132 54.6187 151.554 56.496C150.018 58.3733 148.076 59.8453 145.73 60.912C143.383 61.9787 140.759 62.512 137.858 62.512C134.359 62.512 131.244 61.7653 128.514 60.272C125.783 58.7787 123.65 56.6453 122.114 53.872C120.578 51.0987 119.81 47.856 119.81 44.144C119.81 40.432 120.556 37.1893 122.05 34.416C123.586 31.6427 125.719 29.5093 128.45 28.016C131.18 26.5227 134.316 25.776 137.858 25.776C141.314 25.776 144.386 26.5013 147.074 27.952C149.762 29.4027 151.852 31.472 153.346 34.16C154.882 36.848 155.65 39.984 155.65 43.568ZM144.45 40.688C144.45 38.8107 143.81 37.3173 142.53 36.208C141.25 35.0987 139.65 34.544 137.73 34.544C135.895 34.544 134.338 35.0773 133.058 36.144C131.82 37.2107 131.052 38.7253 130.754 40.688H144.45ZM182.543 25.904C186.724 25.904 190.052 27.2693 192.527 30C195.044 32.688 196.303 36.4 196.303 41.136V62H185.423V42.608C185.423 40.2187 184.804 38.3627 183.567 37.04C182.33 35.7173 180.666 35.056 178.575 35.056C176.484 35.056 174.82 35.7173 173.583 37.04C172.346 38.3627 171.727 40.2187 171.727 42.608V62H160.783V26.288H171.727V31.024C172.836 29.4453 174.33 28.208 176.207 27.312C178.084 26.3733 180.196 25.904 182.543 25.904ZM223.172 52.72V62H217.604C213.636 62 210.543 61.04 208.324 59.12C206.105 57.1573 204.996 53.9787 204.996 49.584V35.376H200.644V26.288H204.996V17.584H215.94V26.288H223.108V35.376H215.94V49.712C215.94 50.7787 216.196 51.5467 216.708 52.016C217.22 52.4853 218.073 52.72 219.268 52.72H223.172ZM239.695 39.472C239.695 35.0347 240.655 31.088 242.575 27.632C244.495 24.1333 247.161 21.424 250.575 19.504C254.031 17.5413 257.935 16.56 262.287 16.56C267.62 16.56 272.185 17.968 275.983 20.784C279.78 23.6 282.319 27.44 283.599 32.304H271.567C270.671 30.4267 269.391 28.9973 267.727 28.016C266.105 27.0347 264.249 26.544 262.159 26.544C258.788 26.544 256.057 27.7173 253.967 30.064C251.876 32.4107 250.831 35.5467 250.831 39.472C250.831 43.3973 251.876 46.5333 253.967 48.88C256.057 51.2267 258.788 52.4 262.159 52.4C264.249 52.4 266.105 51.9093 267.727 50.928C269.391 49.9467 270.671 48.5173 271.567 46.64H283.599C282.319 51.504 279.78 55.344 275.983 58.16C272.185 60.9333 267.62 62.32 262.287 62.32C257.935 62.32 254.031 61.36 250.575 59.44C247.161 57.4773 244.495 54.768 242.575 51.312C240.655 47.856 239.695 43.9093 239.695 39.472ZM287.485 44.08C287.485 40.4107 288.167 37.1893 289.533 34.416C290.941 31.6427 292.839 29.5093 295.229 28.016C297.618 26.5227 300.285 25.776 303.229 25.776C305.746 25.776 307.943 26.288 309.821 27.312C311.741 28.336 313.213 29.68 314.237 31.344V26.288H325.181V62H314.237V56.944C313.17 58.608 311.677 59.952 309.757 60.976C307.879 62 305.682 62.512 303.165 62.512C300.263 62.512 297.618 61.7653 295.229 60.272C292.839 58.736 290.941 56.5813 289.533 53.808C288.167 50.992 287.485 47.7493 287.485 44.08ZM314.237 44.144C314.237 41.4133 313.469 39.2587 311.933 37.68C310.439 36.1013 308.605 35.312 306.429 35.312C304.253 35.312 302.397 36.1013 300.861 37.68C299.367 39.216 298.621 41.3493 298.621 44.08C298.621 46.8107 299.367 48.9867 300.861 50.608C302.397 52.1867 304.253 52.976 306.429 52.976C308.605 52.976 310.439 52.1867 311.933 50.608C313.469 49.0293 314.237 46.8747 314.237 44.144ZM346.986 62.512C343.871 62.512 341.098 61.9787 338.666 60.912C336.234 59.8453 334.314 58.3947 332.906 56.56C331.498 54.6827 330.709 52.592 330.538 50.288H341.354C341.482 51.5253 342.058 52.528 343.082 53.296C344.106 54.064 345.365 54.448 346.858 54.448C348.223 54.448 349.269 54.192 349.994 53.68C350.762 53.1253 351.146 52.4213 351.146 51.568C351.146 50.544 350.613 49.7973 349.546 49.328C348.479 48.816 346.751 48.2613 344.362 47.664C341.802 47.0667 339.669 46.448 337.962 45.808C336.255 45.1253 334.783 44.08 333.546 42.672C332.309 41.2213 331.69 39.28 331.69 36.848C331.69 34.8 332.245 32.944 333.354 31.28C334.506 29.5733 336.17 28.2293 338.346 27.248C340.565 26.2667 343.189 25.776 346.218 25.776C350.698 25.776 354.218 26.8853 356.778 29.104C359.381 31.3227 360.874 34.2667 361.258 37.936H351.146C350.975 36.6987 350.421 35.7173 349.482 34.992C348.586 34.2667 347.391 33.904 345.898 33.904C344.618 33.904 343.637 34.16 342.954 34.672C342.271 35.1413 341.93 35.8027 341.93 36.656C341.93 37.68 342.463 38.448 343.53 38.96C344.639 39.472 346.346 39.984 348.65 40.496C351.295 41.1787 353.45 41.8613 355.114 42.544C356.778 43.184 358.229 44.2507 359.466 45.744C360.746 47.1947 361.407 49.1573 361.45 51.632C361.45 53.7227 360.853 55.6 359.658 57.264C358.506 58.8853 356.821 60.1653 354.602 61.104C352.426 62.0427 349.887 62.512 346.986 62.512ZM401.17 43.568C401.17 44.592 401.106 45.6587 400.978 46.768H376.21C376.38 48.9867 377.084 50.6933 378.322 51.888C379.602 53.04 381.159 53.616 382.994 53.616C385.724 53.616 387.623 52.464 388.69 50.16H400.338C399.74 52.5067 398.652 54.6187 397.074 56.496C395.538 58.3733 393.596 59.8453 391.25 60.912C388.903 61.9787 386.279 62.512 383.378 62.512C379.879 62.512 376.764 61.7653 374.034 60.272C371.303 58.7787 369.17 56.6453 367.634 53.872C366.098 51.0987 365.33 47.856 365.33 44.144C365.33 40.432 366.076 37.1893 367.57 34.416C369.106 31.6427 371.239 29.5093 373.97 28.016C376.7 26.5227 379.836 25.776 383.378 25.776C386.834 25.776 389.906 26.5013 392.594 27.952C395.282 29.4027 397.372 31.472 398.866 34.16C400.402 36.848 401.17 39.984 401.17 43.568ZM389.97 40.688C389.97 38.8107 389.33 37.3173 388.05 36.208C386.77 35.0987 385.17 34.544 383.25 34.544C381.415 34.544 379.858 35.0773 378.578 36.144C377.34 37.2107 376.572 38.7253 376.274 40.688H389.97ZM435.482 62.448C432.196 62.448 429.252 61.9147 426.65 60.848C424.047 59.7813 421.956 58.2027 420.378 56.112C418.842 54.0213 418.031 51.504 417.946 48.56H429.594C429.764 50.224 430.34 51.504 431.322 52.4C432.303 53.2533 433.583 53.68 435.162 53.68C436.783 53.68 438.063 53.3173 439.002 52.592C439.94 51.824 440.41 50.7787 440.41 49.456C440.41 48.3467 440.026 47.4293 439.258 46.704C438.532 45.9787 437.615 45.3813 436.506 44.912C435.439 44.4427 433.903 43.9093 431.898 43.312C428.996 42.416 426.628 41.52 424.794 40.624C422.959 39.728 421.38 38.4053 420.058 36.656C418.735 34.9067 418.074 32.624 418.074 29.808C418.074 25.6267 419.588 22.3627 422.618 20.016C425.647 17.6267 429.594 16.432 434.458 16.432C439.407 16.432 443.396 17.6267 446.426 20.016C449.455 22.3627 451.076 25.648 451.29 29.872H439.45C439.364 28.4213 438.831 27.2907 437.85 26.48C436.868 25.6267 435.61 25.2 434.074 25.2C432.751 25.2 431.684 25.5627 430.874 26.288C430.063 26.9707 429.658 27.9733 429.658 29.296C429.658 30.7467 430.34 31.8773 431.706 32.688C433.071 33.4987 435.204 34.3733 438.106 35.312C441.007 36.2933 443.354 37.232 445.146 38.128C446.98 39.024 448.559 40.3253 449.882 42.032C451.204 43.7387 451.866 45.936 451.866 48.624C451.866 51.184 451.204 53.5093 449.882 55.6C448.602 57.6907 446.724 59.3547 444.25 60.592C441.775 61.8293 438.852 62.448 435.482 62.448ZM477.864 52.72V62H472.296C468.328 62 465.235 61.04 463.016 59.12C460.798 57.1573 459.688 53.9787 459.688 49.584V35.376H455.336V26.288H459.688V17.584H470.632V26.288H477.8V35.376H470.632V49.712C470.632 50.7787 470.888 51.5467 471.4 52.016C471.912 52.4853 472.766 52.72 473.96 52.72H477.864ZM518.585 26.288V62H507.641V57.136C506.531 58.7147 505.017 59.9947 503.097 60.976C501.219 61.9147 499.129 62.384 496.825 62.384C494.094 62.384 491.683 61.7867 489.593 60.592C487.502 59.3547 485.881 57.584 484.729 55.28C483.577 52.976 483.001 50.2667 483.001 47.152V26.288H493.881V45.68C493.881 48.0693 494.499 49.9253 495.737 51.248C496.974 52.5707 498.638 53.232 500.729 53.232C502.862 53.232 504.547 52.5707 505.785 51.248C507.022 49.9253 507.641 48.0693 507.641 45.68V26.288H518.585ZM523.63 44.08C523.63 40.4107 524.312 37.1893 525.678 34.416C527.086 31.6427 528.984 29.5093 531.374 28.016C533.763 26.5227 536.43 25.776 539.374 25.776C541.72 25.776 543.854 26.2667 545.774 27.248C547.736 28.2293 549.272 29.552 550.382 31.216V14.64H561.326V62H550.382V56.88C549.358 58.5867 547.886 59.952 545.966 60.976C544.088 62 541.891 62.512 539.374 62.512C536.43 62.512 533.763 61.7653 531.374 60.272C528.984 58.736 527.086 56.5813 525.678 53.808C524.312 50.992 523.63 47.7493 523.63 44.08ZM550.382 44.144C550.382 41.4133 549.614 39.2587 548.078 37.68C546.584 36.1013 544.75 35.312 542.574 35.312C540.398 35.312 538.542 36.1013 537.006 37.68C535.512 39.216 534.766 41.3493 534.766 44.08C534.766 46.8107 535.512 48.9867 537.006 50.608C538.542 52.1867 540.398 52.976 542.574 52.976C544.75 52.976 546.584 52.1867 548.078 50.608C549.614 49.0293 550.382 46.8747 550.382 44.144ZM574.107 22.576C572.187 22.576 570.608 22.0213 569.371 20.912C568.176 19.76 567.579 18.352 567.579 16.688C567.579 14.9813 568.176 13.5733 569.371 12.464C570.608 11.312 572.187 10.736 574.107 10.736C575.984 10.736 577.52 11.312 578.715 12.464C579.952 13.5733 580.571 14.9813 580.571 16.688C580.571 18.352 579.952 19.76 578.715 20.912C577.52 22.0213 575.984 22.576 574.107 22.576ZM579.547 26.288V62H568.603V26.288H579.547ZM620.502 43.568C620.502 44.592 620.438 45.6587 620.31 46.768H595.542C595.713 48.9867 596.417 50.6933 597.654 51.888C598.934 53.04 600.491 53.616 602.326 53.616C605.057 53.616 606.955 52.464 608.022 50.16H619.67C619.073 52.5067 617.985 54.6187 616.406 56.496C614.87 58.3733 612.929 59.8453 610.582 60.912C608.235 61.9787 605.611 62.512 602.71 62.512C599.211 62.512 596.097 61.7653 593.366 60.272C590.635 58.7787 588.502 56.6453 586.966 53.872C585.43 51.0987 584.662 47.856 584.662 44.144C584.662 40.432 585.409 37.1893 586.902 34.416C588.438 31.6427 590.571 29.5093 593.302 28.016C596.033 26.5227 599.169 25.776 602.71 25.776C606.166 25.776 609.238 26.5013 611.926 27.952C614.614 29.4027 616.705 31.472 618.198 34.16C619.734 36.848 620.502 39.984 620.502 43.568ZM609.302 40.688C609.302 38.8107 608.662 37.3173 607.382 36.208C606.102 35.0987 604.502 34.544 602.582 34.544C600.747 34.544 599.19 35.0773 597.91 36.144C596.673 37.2107 595.905 38.7253 595.606 40.688H609.302ZM640.163 62.512C637.049 62.512 634.275 61.9787 631.843 60.912C629.411 59.8453 627.491 58.3947 626.083 56.56C624.675 54.6827 623.886 52.592 623.715 50.288H634.531C634.659 51.5253 635.235 52.528 636.259 53.296C637.283 54.064 638.542 54.448 640.035 54.448C641.401 54.448 642.446 54.192 643.171 53.68C643.939 53.1253 644.323 52.4213 644.323 51.568C644.323 50.544 643.79 49.7973 642.723 49.328C641.657 48.816 639.929 48.2613 637.539 47.664C634.979 47.0667 632.846 46.448 631.139 45.808C629.433 45.1253 627.961 44.08 626.723 42.672C625.486 41.2213 624.867 39.28 624.867 36.848C624.867 34.8 625.422 32.944 626.531 31.28C627.683 29.5733 629.347 28.2293 631.523 27.248C633.742 26.2667 636.366 25.776 639.395 25.776C643.875 25.776 647.395 26.8853 649.955 29.104C652.558 31.3227 654.051 34.2667 654.435 37.936H644.323C644.153 36.6987 643.598 35.7173 642.659 34.992C641.763 34.2667 640.569 33.904 639.075 33.904C637.795 33.904 636.814 34.16 636.131 34.672C635.449 35.1413 635.107 35.8027 635.107 36.656C635.107 37.68 635.641 38.448 636.707 38.96C637.817 39.472 639.523 39.984 641.827 40.496C644.473 41.1787 646.627 41.8613 648.291 42.544C649.955 43.184 651.406 44.2507 652.643 45.744C653.923 47.1947 654.585 49.1573 654.627 51.632C654.627 53.7227 654.03 55.6 652.835 57.264C651.683 58.8853 649.998 60.1653 647.779 61.104C645.603 62.0427 643.065 62.512 640.163 62.512Z" fill="#151E2C"/>
</svg>
