<svg width="104" height="100" viewBox="0 0 104 100" fill="none" xmlns="http://www.w3.org/2000/svg">
<circle cx="50.6164" cy="50" r="50" fill="#F3F8FF"/>
<path d="M33.9335 69.9219L29.9296 25H73.9726L69.9687 69.9219L51.9023 75" fill="#E34F26"/>
<path d="M51.9999 71.0938L66.5507 67.0898L69.9687 28.6133H51.9999" fill="#EF652A"/>
<path d="M51.9999 45.3125H44.6757L44.1874 39.6484H51.9999V34.1797H38.1328L39.5976 50.8789H51.9999V45.3125ZM51.9023 59.668L45.7499 58.0078L45.3593 53.6133H39.8906L40.5742 62.3047L51.9023 65.4297V59.668Z" fill="#EBEBEB"/>
<path d="M51.9023 45.3125V50.8789H58.7382L58.0546 58.0078L51.9023 59.668V65.4297L63.2304 62.3047L64.7929 45.3125H51.9023ZM51.9023 34.1797V39.6484H65.2812L65.7695 34.1797H51.9023Z" fill="white"/>
</svg>
