<svg width="103" height="100" viewBox="0 0 103 100" fill="none" xmlns="http://www.w3.org/2000/svg">
<circle cx="50.0342" cy="50" r="50" fill="#192333"/>
<path d="M72.0342 62.3517C70.4337 62.7503 69.4437 62.3692 68.5554 61.063L62.2387 52.5039L61.3257 51.3189L53.9488 61.0912C53.1059 62.2668 52.2218 62.7785 50.6488 62.3624L60.0951 49.944L51.3006 38.7268C52.8131 38.4386 53.8581 38.5854 54.7862 39.9118L61.3381 48.5772L67.9381 39.9589C68.7837 38.7833 69.6926 38.3363 71.2106 38.7699L67.8006 43.1975L63.1806 49.0889C62.6306 49.7622 62.7062 50.2228 63.2122 50.8732L72.0342 62.3517ZM28.0452 49.7366L28.8179 46.0146C30.9217 38.6487 39.5429 35.5878 45.4884 40.1394C48.9631 42.8164 49.8266 46.6031 49.6547 50.8449H30.0692C29.7749 58.4802 35.3863 63.0883 42.5404 60.7371C45.0498 59.9116 46.5279 57.9873 47.2677 55.5796C47.6431 54.373 48.2646 54.1845 49.4223 54.5292C48.8311 57.5402 47.4973 60.0557 44.6786 61.6299C40.4669 63.9865 34.4554 63.2243 31.2929 59.9493C29.4092 58.0493 28.6309 55.6415 28.2817 53.0668C28.2267 52.6413 28.1167 52.2359 28.0342 51.8279C28.0415 51.1313 28.0452 50.4346 28.0452 49.738V49.7366ZM30.1049 49.2249H47.8039C47.6884 43.7038 44.1781 39.7825 39.3807 39.7488C34.1144 39.7084 30.3332 43.5369 30.1049 49.2249Z" fill="#778295"/>
</svg>
