<svg width="427" height="57" viewBox="0 0 427 57" fill="none" xmlns="http://www.w3.org/2000/svg">
<rect x="231" y="38" width="196" height="15" fill="#FFBE62"/>
<path d="M25.6661 10.304V16.88H11.9381V23.984H22.2101V30.368H11.9381V44H3.73006V10.304H25.6661ZM54.7481 30.176C54.7481 30.944 54.7001 31.744 54.6041 32.576H36.0281C36.1561 34.24 36.6841 35.52 37.6121 36.416C38.5721 37.28 39.7401 37.712 41.1161 37.712C43.1641 37.712 44.5881 36.848 45.3881 35.12H54.1241C53.6761 36.88 52.8601 38.464 51.6761 39.872C50.5241 41.28 49.0681 42.384 47.3081 43.184C45.5481 43.984 43.5801 44.384 41.4041 44.384C38.7801 44.384 36.4441 43.824 34.3961 42.704C32.3481 41.584 30.7481 39.984 29.5961 37.904C28.4441 35.824 27.8681 33.392 27.8681 30.608C27.8681 27.824 28.4281 25.392 29.5481 23.312C30.7001 21.232 32.3001 19.632 34.3481 18.512C36.3961 17.392 38.7481 16.832 41.4041 16.832C43.9961 16.832 46.3001 17.376 48.3161 18.464C50.3321 19.552 51.9001 21.104 53.0201 23.12C54.1721 25.136 54.7481 27.488 54.7481 30.176ZM46.3481 28.016C46.3481 26.608 45.8681 25.488 44.9081 24.656C43.9481 23.824 42.7481 23.408 41.3081 23.408C39.9321 23.408 38.7641 23.808 37.8041 24.608C36.8761 25.408 36.3001 26.544 36.0761 28.016H46.3481ZM56.9662 30.56C56.9662 27.808 57.4782 25.392 58.5022 23.312C59.5582 21.232 60.9822 19.632 62.7742 18.512C64.5662 17.392 66.5662 16.832 68.7742 16.832C70.6622 16.832 72.3102 17.216 73.7182 17.984C75.1582 18.752 76.2622 19.76 77.0302 21.008V17.216H85.2382V44H77.0302V40.208C76.2302 41.456 75.1102 42.464 73.6702 43.232C72.2622 44 70.6142 44.384 68.7262 44.384C66.5502 44.384 64.5662 43.824 62.7742 42.704C60.9822 41.552 59.5582 39.936 58.5022 37.856C57.4782 35.744 56.9662 33.312 56.9662 30.56ZM77.0302 30.608C77.0302 28.56 76.4542 26.944 75.3022 25.76C74.1822 24.576 72.8062 23.984 71.1742 23.984C69.5422 23.984 68.1502 24.576 66.9982 25.76C65.8782 26.912 65.3182 28.512 65.3182 30.56C65.3182 32.608 65.8782 34.24 66.9982 35.456C68.1502 36.64 69.5422 37.232 71.1742 37.232C72.8062 37.232 74.1822 36.64 75.3022 35.456C76.4542 34.272 77.0302 32.656 77.0302 30.608ZM105.624 37.04V44H101.448C98.4723 44 96.1523 43.28 94.4883 41.84C92.8243 40.368 91.9923 37.984 91.9923 34.688V24.032H88.7283V17.216H91.9923V10.688H100.2V17.216H105.576V24.032H100.2V34.784C100.2 35.584 100.392 36.16 100.776 36.512C101.16 36.864 101.8 37.04 102.696 37.04H105.624ZM136.164 17.216V44H127.956V40.352C127.124 41.536 125.988 42.496 124.548 43.232C123.14 43.936 121.572 44.288 119.844 44.288C117.796 44.288 115.988 43.84 114.42 42.944C112.852 42.016 111.636 40.688 110.772 38.96C109.908 37.232 109.476 35.2 109.476 32.864V17.216H117.636V31.76C117.636 33.552 118.1 34.944 119.028 35.936C119.956 36.928 121.204 37.424 122.772 37.424C124.372 37.424 125.636 36.928 126.564 35.936C127.492 34.944 127.956 33.552 127.956 31.76V17.216H136.164ZM149.788 21.68C150.748 20.208 151.948 19.056 153.388 18.224C154.828 17.36 156.428 16.928 158.188 16.928V25.616H155.932C153.884 25.616 152.348 26.064 151.324 26.96C150.3 27.824 149.788 29.36 149.788 31.568V44H141.58V17.216H149.788V21.68ZM186.879 30.176C186.879 30.944 186.831 31.744 186.735 32.576H168.159C168.287 34.24 168.815 35.52 169.743 36.416C170.703 37.28 171.871 37.712 173.247 37.712C175.295 37.712 176.719 36.848 177.519 35.12H186.255C185.807 36.88 184.991 38.464 183.807 39.872C182.655 41.28 181.199 42.384 179.439 43.184C177.679 43.984 175.711 44.384 173.535 44.384C170.911 44.384 168.575 43.824 166.527 42.704C164.479 41.584 162.879 39.984 161.727 37.904C160.575 35.824 159.999 33.392 159.999 30.608C159.999 27.824 160.559 25.392 161.679 23.312C162.831 21.232 164.431 19.632 166.479 18.512C168.527 17.392 170.879 16.832 173.535 16.832C176.127 16.832 178.431 17.376 180.447 18.464C182.463 19.552 184.031 21.104 185.151 23.12C186.303 25.136 186.879 27.488 186.879 30.176ZM178.479 28.016C178.479 26.608 177.999 25.488 177.039 24.656C176.079 23.824 174.879 23.408 173.439 23.408C172.063 23.408 170.895 23.808 169.935 24.608C169.007 25.408 168.431 26.544 168.207 28.016H178.479ZM189.097 30.56C189.097 27.808 189.609 25.392 190.633 23.312C191.689 21.232 193.113 19.632 194.905 18.512C196.697 17.392 198.697 16.832 200.905 16.832C202.665 16.832 204.265 17.2 205.705 17.936C207.177 18.672 208.329 19.664 209.161 20.912V8.48H217.369V44H209.161V40.16C208.393 41.44 207.289 42.464 205.849 43.232C204.441 44 202.793 44.384 200.905 44.384C198.697 44.384 196.697 43.824 194.905 42.704C193.113 41.552 191.689 39.936 190.633 37.856C189.609 35.744 189.097 33.312 189.097 30.56ZM209.161 30.608C209.161 28.56 208.585 26.944 207.433 25.76C206.313 24.576 204.937 23.984 203.305 23.984C201.673 23.984 200.281 24.576 199.129 25.76C198.009 26.912 197.449 28.512 197.449 30.56C197.449 32.608 198.009 34.24 199.129 35.456C200.281 36.64 201.673 37.232 203.305 37.232C204.937 37.232 206.313 36.64 207.433 35.456C208.585 34.272 209.161 32.656 209.161 30.608ZM258.199 21.152C258.199 23.104 257.751 24.896 256.855 26.528C255.959 28.128 254.583 29.424 252.727 30.416C250.871 31.408 248.567 31.904 245.815 31.904H240.727V44H232.519V10.304H245.815C248.503 10.304 250.775 10.768 252.631 11.696C254.487 12.624 255.879 13.904 256.807 15.536C257.735 17.168 258.199 19.04 258.199 21.152ZM245.191 25.376C246.759 25.376 247.927 25.008 248.695 24.272C249.463 23.536 249.847 22.496 249.847 21.152C249.847 19.808 249.463 18.768 248.695 18.032C247.927 17.296 246.759 16.928 245.191 16.928H240.727V25.376H245.191ZM270.201 21.68C271.161 20.208 272.361 19.056 273.801 18.224C275.241 17.36 276.841 16.928 278.601 16.928V25.616H276.345C274.297 25.616 272.761 26.064 271.737 26.96C270.713 27.824 270.201 29.36 270.201 31.568V44H261.993V17.216H270.201V21.68ZM294.236 44.384C291.612 44.384 289.244 43.824 287.132 42.704C285.052 41.584 283.404 39.984 282.188 37.904C281.004 35.824 280.412 33.392 280.412 30.608C280.412 27.856 281.02 25.44 282.236 23.36C283.452 21.248 285.116 19.632 287.228 18.512C289.34 17.392 291.708 16.832 294.332 16.832C296.956 16.832 299.324 17.392 301.436 18.512C303.548 19.632 305.212 21.248 306.428 23.36C307.644 25.44 308.252 27.856 308.252 30.608C308.252 33.36 307.628 35.792 306.38 37.904C305.164 39.984 303.484 41.584 301.34 42.704C299.228 43.824 296.86 44.384 294.236 44.384ZM294.236 37.28C295.804 37.28 297.132 36.704 298.22 35.552C299.34 34.4 299.9 32.752 299.9 30.608C299.9 28.464 299.356 26.816 298.268 25.664C297.212 24.512 295.9 23.936 294.332 23.936C292.732 23.936 291.404 24.512 290.348 25.664C289.292 26.784 288.764 28.432 288.764 30.608C288.764 32.752 289.276 34.4 290.3 35.552C291.356 36.704 292.668 37.28 294.236 37.28ZM316.206 14.432C314.766 14.432 313.582 14.016 312.654 13.184C311.758 12.32 311.31 11.264 311.31 10.016C311.31 8.736 311.758 7.68 312.654 6.848C313.582 5.984 314.766 5.552 316.206 5.552C317.614 5.552 318.766 5.984 319.662 6.848C320.59 7.68 321.054 8.736 321.054 10.016C321.054 11.264 320.59 12.32 319.662 13.184C318.766 14.016 317.614 14.432 316.206 14.432ZM320.334 47.456C320.334 50.752 319.502 53.12 317.838 54.56C316.174 56.032 313.854 56.768 310.878 56.768H307.662V49.808H309.63C310.526 49.808 311.166 49.632 311.55 49.28C311.934 48.928 312.126 48.352 312.126 47.552V17.216H320.334V47.456ZM351.004 30.176C351.004 30.944 350.956 31.744 350.86 32.576H332.284C332.412 34.24 332.94 35.52 333.868 36.416C334.828 37.28 335.996 37.712 337.372 37.712C339.42 37.712 340.844 36.848 341.644 35.12H350.38C349.932 36.88 349.116 38.464 347.932 39.872C346.78 41.28 345.324 42.384 343.564 43.184C341.804 43.984 339.836 44.384 337.66 44.384C335.036 44.384 332.7 43.824 330.652 42.704C328.604 41.584 327.004 39.984 325.852 37.904C324.7 35.824 324.124 33.392 324.124 30.608C324.124 27.824 324.684 25.392 325.804 23.312C326.956 21.232 328.556 19.632 330.604 18.512C332.652 17.392 335.004 16.832 337.66 16.832C340.252 16.832 342.556 17.376 344.572 18.464C346.588 19.552 348.156 21.104 349.276 23.12C350.428 25.136 351.004 27.488 351.004 30.176ZM342.604 28.016C342.604 26.608 342.124 25.488 341.164 24.656C340.204 23.824 339.004 23.408 337.564 23.408C336.188 23.408 335.02 23.808 334.06 24.608C333.132 25.408 332.556 26.544 332.332 28.016H342.604ZM353.222 30.608C353.222 27.824 353.782 25.392 354.902 23.312C356.054 21.232 357.638 19.632 359.654 18.512C361.702 17.392 364.038 16.832 366.662 16.832C370.022 16.832 372.822 17.712 375.062 19.472C377.334 21.232 378.822 23.712 379.526 26.912H370.79C370.054 24.864 368.63 23.84 366.518 23.84C365.014 23.84 363.814 24.432 362.918 25.616C362.022 26.768 361.574 28.432 361.574 30.608C361.574 32.784 362.022 34.464 362.918 35.648C363.814 36.8 365.014 37.376 366.518 37.376C368.63 37.376 370.054 36.352 370.79 34.304H379.526C378.822 37.44 377.334 39.904 375.062 41.696C372.79 43.488 369.99 44.384 366.662 44.384C364.038 44.384 361.702 43.824 359.654 42.704C357.638 41.584 356.054 39.984 354.902 37.904C353.782 35.824 353.222 33.392 353.222 30.608ZM398.364 37.04V44H394.188C391.212 44 388.892 43.28 387.228 41.84C385.564 40.368 384.732 37.984 384.732 34.688V24.032H381.468V17.216H384.732V10.688H392.94V17.216H398.316V24.032H392.94V34.784C392.94 35.584 393.132 36.16 393.516 36.512C393.9 36.864 394.54 37.04 395.436 37.04H398.364ZM413.352 44.384C411.016 44.384 408.936 43.984 407.112 43.184C405.288 42.384 403.848 41.296 402.792 39.92C401.736 38.512 401.144 36.944 401.016 35.216H409.128C409.224 36.144 409.656 36.896 410.424 37.472C411.192 38.048 412.136 38.336 413.256 38.336C414.28 38.336 415.064 38.144 415.608 37.76C416.184 37.344 416.472 36.816 416.472 36.176C416.472 35.408 416.072 34.848 415.272 34.496C414.472 34.112 413.176 33.696 411.384 33.248C409.464 32.8 407.864 32.336 406.584 31.856C405.304 31.344 404.2 30.56 403.272 29.504C402.344 28.416 401.88 26.96 401.88 25.136C401.88 23.6 402.296 22.208 403.128 20.96C403.992 19.68 405.24 18.672 406.872 17.936C408.536 17.2 410.504 16.832 412.776 16.832C416.136 16.832 418.776 17.664 420.696 19.328C422.648 20.992 423.768 23.2 424.056 25.952H416.472C416.344 25.024 415.928 24.288 415.224 23.744C414.552 23.2 413.656 22.928 412.536 22.928C411.576 22.928 410.84 23.12 410.328 23.504C409.816 23.856 409.56 24.352 409.56 24.992C409.56 25.76 409.96 26.336 410.76 26.72C411.592 27.104 412.872 27.488 414.6 27.872C416.584 28.384 418.2 28.896 419.448 29.408C420.696 29.888 421.784 30.688 422.712 31.808C423.672 32.896 424.168 34.368 424.2 36.224C424.2 37.792 423.752 39.2 422.856 40.448C421.992 41.664 420.728 42.624 419.064 43.328C417.432 44.032 415.528 44.384 413.352 44.384Z" fill="#151E2C"/>
</svg>
