<svg width="400" height="85" viewBox="0 0 400 85" fill="none" xmlns="http://www.w3.org/2000/svg">
<rect y="58" width="400" height="27" fill="#FFBE62"/>
<path d="M33.8745 33.28C33.0638 31.7867 31.8905 30.656 30.3545 29.888C28.8612 29.0773 27.0905 28.672 25.0425 28.672C21.5012 28.672 18.6638 29.8453 16.5305 32.192C14.3972 34.496 13.3305 37.5893 13.3305 41.472C13.3305 45.6107 14.4398 48.8533 16.6585 51.2C18.9198 53.504 22.0132 54.656 25.9385 54.656C28.6265 54.656 30.8878 53.9733 32.7225 52.608C34.5998 51.2427 35.9652 49.28 36.8185 46.72H22.9305V38.656H46.7385V48.832C45.9278 51.5627 44.5412 54.1013 42.5785 56.448C40.6585 58.7947 38.2052 60.6933 35.2185 62.144C32.2318 63.5947 28.8612 64.32 25.1065 64.32C20.6692 64.32 16.7012 63.36 13.2025 61.44C9.7465 59.4773 7.03717 56.768 5.0745 53.312C3.1545 49.856 2.1945 45.9093 2.1945 41.472C2.1945 37.0347 3.1545 33.088 5.0745 29.632C7.03717 26.1333 9.7465 23.424 13.2025 21.504C16.6585 19.5413 20.6052 18.56 25.0425 18.56C30.4185 18.56 34.9412 19.8613 38.6105 22.464C42.3225 25.0667 44.7758 28.672 45.9705 33.28H33.8745ZM85.8245 45.568C85.8245 46.592 85.7605 47.6587 85.6325 48.768H60.8645C61.0352 50.9867 61.7392 52.6933 62.9765 53.888C64.2565 55.04 65.8138 55.616 67.6485 55.616C70.3792 55.616 72.2778 54.464 73.3445 52.16H84.9925C84.3952 54.5067 83.3072 56.6187 81.7285 58.496C80.1925 60.3733 78.2512 61.8453 75.9045 62.912C73.5578 63.9787 70.9338 64.512 68.0325 64.512C64.5338 64.512 61.4192 63.7653 58.6885 62.272C55.9578 60.7787 53.8245 58.6453 52.2885 55.872C50.7525 53.0987 49.9845 49.856 49.9845 46.144C49.9845 42.432 50.7312 39.1893 52.2245 36.416C53.7605 33.6427 55.8938 31.5093 58.6245 30.016C61.3552 28.5227 64.4912 27.776 68.0325 27.776C71.4885 27.776 74.5605 28.5013 77.2485 29.952C79.9365 31.4027 82.0272 33.472 83.5205 36.16C85.0565 38.848 85.8245 41.984 85.8245 45.568ZM74.6245 42.688C74.6245 40.8107 73.9845 39.3173 72.7045 38.208C71.4245 37.0987 69.8245 36.544 67.9045 36.544C66.0698 36.544 64.5125 37.0773 63.2325 38.144C61.9952 39.2107 61.2272 40.7253 60.9285 42.688H74.6245ZM110.862 54.72V64H105.294C101.326 64 98.2327 63.04 96.014 61.12C93.7953 59.1573 92.686 55.9787 92.686 51.584V37.376H88.334V28.288H92.686V19.584H103.63V28.288H110.798V37.376H103.63V51.712C103.63 52.7787 103.886 53.5467 104.398 54.016C104.91 54.4853 105.763 54.72 106.958 54.72H110.862ZM134.745 24.576C132.825 24.576 131.246 24.0213 130.009 22.912C128.814 21.76 128.217 20.352 128.217 18.688C128.217 16.9813 128.814 15.5733 130.009 14.464C131.246 13.312 132.825 12.736 134.745 12.736C136.622 12.736 138.158 13.312 139.353 14.464C140.59 15.5733 141.209 16.9813 141.209 18.688C141.209 20.352 140.59 21.76 139.353 22.912C138.158 24.0213 136.622 24.576 134.745 24.576ZM140.185 28.288V64H129.241V28.288H140.185ZM169.236 27.904C173.417 27.904 176.745 29.2693 179.22 32C181.737 34.688 182.996 38.4 182.996 43.136V64H172.116V44.608C172.116 42.2187 171.497 40.3627 170.26 39.04C169.022 37.7173 167.358 37.056 165.268 37.056C163.177 37.056 161.513 37.7173 160.276 39.04C159.038 40.3627 158.42 42.2187 158.42 44.608V64H147.476V28.288H158.42V33.024C159.529 31.4453 161.022 30.208 162.9 29.312C164.777 28.3733 166.889 27.904 169.236 27.904ZM235.203 19.072V27.84H223.299V64H212.355V27.84H200.451V19.072H235.203ZM256.312 64.512C252.813 64.512 249.656 63.7653 246.84 62.272C244.066 60.7787 241.869 58.6453 240.248 55.872C238.669 53.0987 237.88 49.856 237.88 46.144C237.88 42.4747 238.69 39.2533 240.312 36.48C241.933 33.664 244.152 31.5093 246.968 30.016C249.784 28.5227 252.941 27.776 256.44 27.776C259.938 27.776 263.096 28.5227 265.912 30.016C268.728 31.5093 270.946 33.664 272.568 36.48C274.189 39.2533 275 42.4747 275 46.144C275 49.8133 274.168 53.056 272.504 55.872C270.882 58.6453 268.642 60.7787 265.784 62.272C262.968 63.7653 259.81 64.512 256.312 64.512ZM256.312 55.04C258.402 55.04 260.173 54.272 261.624 52.736C263.117 51.2 263.864 49.0027 263.864 46.144C263.864 43.2853 263.138 41.088 261.688 39.552C260.28 38.016 258.53 37.248 256.44 37.248C254.306 37.248 252.536 38.016 251.128 39.552C249.72 41.0453 249.016 43.2427 249.016 46.144C249.016 49.0027 249.698 51.2 251.064 52.736C252.472 54.272 254.221 55.04 256.312 55.04ZM315.43 28.288V64H304.486V59.136C303.376 60.7147 301.862 61.9947 299.942 62.976C298.064 63.9147 295.974 64.384 293.67 64.384C290.939 64.384 288.528 63.7867 286.438 62.592C284.347 61.3547 282.726 59.584 281.574 57.28C280.422 54.976 279.846 52.2667 279.846 49.152V28.288H290.726V47.68C290.726 50.0693 291.344 51.9253 292.582 53.248C293.819 54.5707 295.483 55.232 297.574 55.232C299.707 55.232 301.392 54.5707 302.63 53.248C303.867 51.9253 304.486 50.0693 304.486 47.68V28.288H315.43ZM320.474 46.144C320.474 42.432 321.221 39.1893 322.714 36.416C324.25 33.6427 326.362 31.5093 329.05 30.016C331.781 28.5227 334.896 27.776 338.394 27.776C342.874 27.776 346.608 28.9493 349.594 31.296C352.624 33.6427 354.608 36.9493 355.546 41.216H343.898C342.917 38.4853 341.018 37.12 338.202 37.12C336.197 37.12 334.597 37.9093 333.402 39.488C332.208 41.024 331.61 43.2427 331.61 46.144C331.61 49.0453 332.208 51.2853 333.402 52.864C334.597 54.4 336.197 55.168 338.202 55.168C341.018 55.168 342.917 53.8027 343.898 51.072H355.546C354.608 55.2533 352.624 58.5387 349.594 60.928C346.565 63.3173 342.832 64.512 338.394 64.512C334.896 64.512 331.781 63.7653 329.05 62.272C326.362 60.7787 324.25 58.6453 322.714 55.872C321.221 53.0987 320.474 49.856 320.474 46.144ZM382.712 27.904C386.808 27.904 390.094 29.2693 392.568 32C395.043 34.688 396.28 38.4 396.28 43.136V64H385.4V44.608C385.4 42.2187 384.782 40.3627 383.544 39.04C382.307 37.7173 380.643 37.056 378.552 37.056C376.462 37.056 374.798 37.7173 373.56 39.04C372.323 40.3627 371.704 42.2187 371.704 44.608V64H360.76V16.64H371.704V33.088C372.814 31.5093 374.328 30.2507 376.248 29.312C378.168 28.3733 380.323 27.904 382.712 27.904Z" fill="white"/>
</svg>
