<svg width="104" height="100" viewBox="0 0 104 100" fill="none" xmlns="http://www.w3.org/2000/svg">
<circle cx="50.8203" cy="50" r="50" fill="#F3F8FF"/>
<g clip-path="url(#clip0_3718_309)">
<path d="M28.0453 52.5236C26.6516 51.1298 26.6516 48.8702 28.0453 47.4764L49.4765 26.0453C50.8702 24.6516 53.1299 24.6516 54.5236 26.0453L75.9547 47.4764C77.3485 48.8702 77.3485 51.1298 75.9547 52.5236L54.5236 73.9547C53.1299 75.3484 50.8702 75.3484 49.4765 73.9547L28.0453 52.5236Z" fill="#EE513B"/>
<path d="M45.1342 30L43 32.1712L48.5122 37.7787C48.2892 38.2653 48.1647 38.8081 48.1647 39.3805C48.1647 41.0054 49.1683 42.3919 50.5793 42.9334V56.6509C49.1683 57.1923 48.1647 58.5788 48.1647 60.2038C48.1647 62.3004 49.8354 64 51.8964 64C53.9573 64 55.6281 62.3004 55.6281 60.2038C55.6281 58.7307 54.8032 57.4533 53.5977 56.8242V42.9521L58.8668 48.3124C58.6547 48.7892 58.5367 49.3185 58.5367 49.8759C58.5367 51.9725 60.2074 53.6721 62.2683 53.6721C64.3293 53.6721 66 51.9725 66 49.8759C66 47.7793 64.3293 46.0797 62.2683 46.0797C61.8678 46.0797 61.4821 46.1438 61.1204 46.2626L55.4614 40.5058C55.5697 40.1503 55.6281 39.7722 55.6281 39.3805C55.6281 37.2839 53.9573 35.5842 51.8964 35.5842C51.5113 35.5842 51.1398 35.6436 50.7902 35.7538L45.1342 30Z" fill="white"/>
</g>
<defs>
<clipPath id="clip0_3718_309">
<rect width="50" height="50" fill="white" transform="translate(26.8203 25)"/>
</clipPath>
</defs>
</svg>
