<svg width="104" height="100" viewBox="0 0 104 100" fill="none" xmlns="http://www.w3.org/2000/svg">
<circle cx="50.8203" cy="50" r="50" fill="#192333"/>
<path d="M30.8599 52.2081C29.6404 50.9886 29.6404 49.0114 30.8599 47.7919L49.6122 29.0396C50.8317 27.8201 52.8089 27.8201 54.0284 29.0396L72.7806 47.7919C74.0002 49.0114 74.0002 50.9886 72.7806 52.2081L54.0284 70.9603C52.8089 72.1798 50.8317 72.1798 49.6122 70.9603L30.8599 52.2081Z" fill="#778295"/>
<path d="M45.8032 32.9086L43.9043 34.8075L48.8088 39.7121C48.6104 40.1377 48.4996 40.6125 48.4996 41.1131C48.4996 42.5343 49.3926 43.747 50.648 44.2206V56.2184C49.3926 56.692 48.4996 57.9046 48.4996 59.3259C48.4996 61.1596 49.9862 62.6462 51.8199 62.6462C53.6537 62.6462 55.1402 61.1596 55.1402 59.3259C55.1402 58.0374 54.4063 56.9203 53.3337 56.3699V44.237L58.022 48.9253C57.8332 49.3423 57.7282 49.8053 57.7282 50.2928C57.7282 52.1265 59.2148 53.6131 61.0485 53.6131C62.8823 53.6131 64.3688 52.1265 64.3688 50.2928C64.3688 48.459 62.8823 46.9724 61.0485 46.9724C60.6921 46.9724 60.349 47.0285 60.0271 47.1324L54.992 42.0973C55.0884 41.7864 55.1402 41.4557 55.1402 41.1131C55.1402 39.2793 53.6537 37.7927 51.8199 37.7927C51.4773 37.7927 51.1468 37.8446 50.8357 37.941L45.8032 32.9086Z" fill="white"/>
</svg>
