<svg width="24" height="24" viewBox="0 0 24 24" fill="none" xmlns="http://www.w3.org/2000/svg">
<path fill-rule="evenodd" clip-rule="evenodd" d="M12 0.366943C5.3724 0.366943 0 5.74774 0 12.3873C0 17.6973 3.438 22.2033 8.2068 23.7921C8.8068 23.9025 9.0252 23.5317 9.0252 23.2125C9.0252 22.9281 9.0156 22.1709 9.0096 21.1689C5.6712 21.8949 4.9668 19.5573 4.9668 19.5573C4.422 18.1677 3.6348 17.7981 3.6348 17.7981C2.5452 17.0541 3.7176 17.0685 3.7176 17.0685C4.9212 17.1525 5.5548 18.3069 5.5548 18.3069C6.6252 20.1429 8.364 19.6125 9.0468 19.3053C9.1572 18.5289 9.4668 17.9997 9.81 17.6997C7.146 17.3961 4.344 16.3641 4.344 11.7585C4.344 10.4469 4.812 9.37294 5.5788 8.53294C5.4552 8.22934 5.0436 7.00654 5.6964 5.35294C5.6964 5.35294 6.7044 5.02894 8.9964 6.58414C9.97532 6.31716 10.9853 6.18117 12 6.17974C13.02 6.18454 14.046 6.31774 15.0048 6.58414C17.2956 5.02894 18.3012 5.35174 18.3012 5.35174C18.9564 7.00654 18.5436 8.22934 18.4212 8.53294C19.1892 9.37294 19.6548 10.4469 19.6548 11.7585C19.6548 16.3761 16.848 17.3925 14.1756 17.6901C14.6064 18.0609 14.9892 18.7941 14.9892 19.9161C14.9892 21.5217 14.9748 22.8189 14.9748 23.2125C14.9748 23.5341 15.1908 23.9085 15.8004 23.7909C18.19 22.9895 20.2672 21.4573 21.7386 19.411C23.2099 17.3647 24.001 14.9077 24 12.3873C24 5.74774 18.6264 0.366943 12 0.366943Z" fill="#778295"/>
</svg>
