<svg width="104" height="100" viewBox="0 0 104 100" fill="none" xmlns="http://www.w3.org/2000/svg">
<circle cx="50.5586" cy="50" r="50" fill="#192333"/>
<g clip-path="url(#clip0_3313_11512)">
<path fill-rule="evenodd" clip-rule="evenodd" d="M51.557 25.5209C37.7523 25.5209 26.5586 36.7574 26.5586 50.6215C26.5586 61.709 33.7211 71.1166 43.657 74.4359C44.907 74.6665 45.3633 73.8915 45.3633 73.2264C45.3633 72.6303 45.3414 71.0522 45.3289 68.958C38.3742 70.4749 36.907 65.5932 36.907 65.5932C35.7711 62.6942 34.132 61.9224 34.132 61.9224C31.8617 60.3647 34.3039 60.396 34.3039 60.396C36.8117 60.5733 38.132 62.9829 38.132 62.9829C40.3633 66.8183 43.9836 65.7108 45.4086 65.0676C45.6352 63.4456 46.282 62.3397 46.9961 61.7122C41.4445 61.0785 35.6086 58.9262 35.6086 49.3086C35.6086 46.5681 36.582 44.3279 38.182 42.5726C37.9242 41.9373 37.0664 39.3866 38.4258 35.9307C38.4258 35.9307 40.5258 35.2562 45.3008 38.5034C47.2961 37.9465 49.4336 37.6688 51.5602 37.6578C53.6836 37.6688 55.8227 37.9465 57.8195 38.5034C62.5914 35.2562 64.6867 35.9307 64.6867 35.9307C66.0508 39.3866 65.193 41.9373 64.9351 42.5726C66.5383 44.3279 67.5055 46.5681 67.5055 49.3086C67.5055 58.9498 61.6602 61.0722 56.0914 61.6934C56.9883 62.4683 57.7883 63.9994 57.7883 66.3414C57.7883 69.6969 57.757 72.4028 57.757 73.2264C57.757 73.8978 58.2071 74.679 59.4758 74.4327C69.4024 71.1071 76.5586 61.7059 76.5586 50.6215C76.5586 36.7574 65.3648 25.5209 51.557 25.5209Z" fill="#778295"/>
</g>
<defs>
<clipPath id="clip0_3313_11512">
<rect width="50" height="50" fill="white" transform="translate(26.5586 25)"/>
</clipPath>
</defs>
</svg>
