<svg width="104" height="100" viewBox="0 0 104 100" fill="none" xmlns="http://www.w3.org/2000/svg">
<circle cx="50.6162" cy="50" r="50" fill="#192333"/>
<path d="M33.5498 69.9219L29.5459 25H73.5889L69.585 69.9219L51.5186 75" fill="#778295"/>
<path d="M51.6162 71.0938L66.167 67.0898L69.585 28.6133H51.6162" fill="#778295"/>
<path d="M51.6162 45.3125H44.292L43.8037 39.6484H51.6162V34.1797H37.749L39.2139 50.8789H51.6162V45.3125ZM51.5186 59.668L45.3662 58.0078L44.9756 53.6133H39.5068L40.1904 62.3047L51.5186 65.4297V59.668Z" fill="white"/>
<path d="M51.5186 45.3125V50.8789H58.3545L57.6709 58.0078L51.5186 59.668V65.4297L62.8467 62.3047L64.4092 45.3125H51.5186ZM51.5186 34.1797V39.6484H64.8975L65.3857 34.1797H51.5186Z" fill="white"/>
</svg>
