<svg width="104" height="110" viewBox="0 0 104 110" fill="none" xmlns="http://www.w3.org/2000/svg">
<circle cx="50.7717" cy="60" r="50" fill="#F3F8FF"/>
<g clip-path="url(#clip0_3718_329)">
<path d="M51.7717 85C65.5788 85 76.7717 73.8071 76.7717 60C76.7717 46.1929 65.5788 35 51.7717 35C37.9646 35 26.7717 46.1929 26.7717 60C26.7717 73.8071 37.9646 85 51.7717 85Z" fill="#13AA52"/>
<path d="M58.4539 56.9453C56.8748 49.9761 53.1429 47.6846 52.741 46.8091C52.3016 46.1914 51.8563 45.0928 51.8563 45.0928C51.8489 45.0742 51.8372 45.0415 51.8235 45.0098C51.7781 45.6274 51.7547 45.8657 51.1707 46.4888C50.2664 47.1958 45.6268 51.0889 45.2493 59.0068C44.8973 66.3916 50.5838 70.792 51.3528 71.353L51.4402 71.415V71.4097C51.4451 71.4468 51.6844 73.1675 51.8523 74.9907H52.4549C52.5963 73.7019 52.8082 72.4219 53.0897 71.1562L53.1385 71.1245C53.4825 70.8779 53.8105 70.6096 54.1204 70.3213L54.1556 70.2896C55.7903 68.7793 58.7293 65.2861 58.7005 59.7168C58.6944 58.7878 58.6119 57.8608 58.4539 56.9453ZM51.7884 67.1836C51.7884 67.1836 51.7884 56.8262 52.1302 56.8281C52.3968 56.8281 52.742 70.188 52.742 70.188C52.2674 70.1309 51.7884 67.9893 51.7884 67.1836Z" fill="white"/>
</g>
<defs>
<clipPath id="clip0_3718_329">
<rect width="50" height="50" fill="white" transform="translate(26.7717 35)"/>
</clipPath>
</defs>
</svg>
