<svg width="104" height="110" viewBox="0 0 104 110" fill="none" xmlns="http://www.w3.org/2000/svg">
<circle cx="50.7715" cy="60" r="50" fill="#192333"/>
<g clip-path="url(#clip0_3313_11527)">
<path d="M51.7715 85C65.5786 85 76.7715 73.8071 76.7715 60C76.7715 46.1929 65.5786 35 51.7715 35C37.9644 35 26.7715 46.1929 26.7715 60C26.7715 73.8071 37.9644 85 51.7715 85Z" fill="#778295"/>
<path d="M58.4537 56.9453C56.8746 49.9761 53.1426 47.6846 52.7408 46.8091C52.3013 46.1914 51.856 45.0928 51.856 45.0928C51.8487 45.0742 51.837 45.0415 51.8233 45.0098C51.7779 45.6274 51.7544 45.8657 51.1705 46.4888C50.2662 47.1958 45.6265 51.0889 45.2491 59.0068C44.897 66.3916 50.5835 70.792 51.3526 71.353L51.44 71.415V71.4097C51.4449 71.4468 51.6841 73.1675 51.8521 74.9907H52.4546C52.596 73.7019 52.8079 72.4219 53.0894 71.1562L53.1382 71.1245C53.4822 70.8779 53.8102 70.6096 54.1202 70.3213L54.1553 70.2896C55.7901 68.7793 58.7291 65.2861 58.7002 59.7168C58.6942 58.7878 58.6117 57.8608 58.4537 56.9453ZM51.7881 67.1836C51.7881 67.1836 51.7881 56.8262 52.1299 56.8281C52.3965 56.8281 52.7418 70.188 52.7418 70.188C52.2671 70.1309 51.7881 67.9893 51.7881 67.1836Z" fill="white"/>
</g>
<defs>
<clipPath id="clip0_3313_11527">
<rect width="50" height="50" fill="white" transform="translate(26.7715 35)"/>
</clipPath>
</defs>
</svg>
