<svg width="157" height="156" viewBox="0 0 157 156" fill="none" xmlns="http://www.w3.org/2000/svg">
<g filter="url(#filter0_d_3313_11450)">
<circle cx="78.2378" cy="73" r="58" fill="#192333"/>
<g clip-path="url(#clip0_3313_11450)">
<path d="M84.4573 74.5776C85.4205 71.9707 84.0218 69.0518 81.3328 68.0582C78.6441 67.0648 75.6832 68.373 74.72 70.9799C73.7566 73.5872 75.1557 76.5061 77.8444 77.4995C80.5335 78.493 83.494 77.1849 84.4573 74.5776Z" fill="#53C1DE"/>
<path fill-rule="evenodd" clip-rule="evenodd" d="M98.6391 69.8571C101.164 66.1861 105.232 59.1517 101.617 54.9216C98.0191 50.7105 90.3229 53.389 86.1293 55.1542C84.0893 51.1189 79.8102 44.0393 74.3142 44.9123C68.8413 45.7817 67.5096 53.6855 67.0545 58.1501C62.3959 57.7522 54.2208 57.5821 52.3275 62.7063C50.4396 67.816 56.6723 73.22 60.4458 75.9364C57.8766 79.6455 53.8582 86.4367 57.4589 90.6522C61.0842 94.8947 68.877 92.4063 73.1112 90.6199C75.1633 94.7122 79.2511 101.625 84.7272 100.756C90.2204 99.8829 91.7738 92.0338 92.2376 87.5456C96.743 87.8852 104.986 87.8971 106.85 82.8512C108.725 77.7763 102.372 72.5554 98.6391 69.8571ZM92.4059 85.1385C92.4984 82.7655 92.3992 80.169 92.1195 77.4214C94.0464 75.5515 95.7631 73.659 97.2114 71.8025C99.9454 73.7873 105.914 78.2203 104.521 81.9907C103.115 85.7965 95.9611 85.4022 92.4059 85.1385ZM84.2822 98.3698C80.1964 99.0187 76.8493 92.6153 75.3316 89.5993C77.47 88.5377 79.7052 87.2108 81.9808 85.6612C84.7005 86.4085 87.3276 86.9578 89.7729 87.286C89.4411 90.4594 88.386 97.7179 84.2822 98.3698ZM59.3456 89.1255C56.6604 85.983 60.6081 80.0565 62.4997 77.324C64.5559 78.6282 66.9007 79.8862 69.4661 81.0701C70.214 83.6854 71.0949 86.1609 72.0748 88.4059C69.4262 89.524 62.0435 92.2827 59.3456 89.1255ZM54.6565 63.5668C56.0679 59.7468 63.4397 60.259 66.8762 60.5564C66.7636 62.9602 66.8273 65.5407 67.0668 68.2148C65.1197 70.1194 63.3675 72.0694 61.8745 73.992C59.2042 72.0668 53.2442 67.3892 54.6565 63.5668ZM74.7589 47.2979C78.8618 46.6463 82.4184 53.2391 83.9017 56.1632C81.7085 57.2271 79.4495 58.5262 77.1981 60.02C74.5487 59.303 71.9573 58.7661 69.5175 58.4281C69.8856 54.8276 70.6605 47.9488 74.7589 47.2979ZM90.5015 67.725C92.1625 68.5806 93.7247 69.4796 95.1616 70.4042C94.1524 71.6907 93.0027 73.0012 91.7347 74.3115C91.4145 72.1029 91.0072 69.904 90.5015 67.725ZM84.9382 58.3803C85.5956 59.9056 86.2059 61.5632 86.7593 63.3213C84.6488 62.4296 82.4985 61.6347 80.3156 60.9388C81.8754 59.9759 83.4255 59.1186 84.9382 58.3803ZM69.3847 66.0518C69.2827 64.2415 69.269 62.4935 69.3423 60.8374C71.0226 61.0747 72.7835 61.4118 74.5892 61.841C72.7864 63.1627 71.0494 64.5685 69.3847 66.0518ZM68.6686 78.0178C66.9546 77.1649 65.3673 76.2808 63.9334 75.378C64.9716 74.0488 66.1435 72.7014 67.425 71.364C67.7317 73.5976 68.1473 75.8185 68.6686 78.0178ZM74.2968 87.3799C73.6196 85.817 72.9905 84.1327 72.4227 82.3614C74.5515 83.2413 76.7147 84.0408 78.9081 84.745C77.3295 85.7518 75.7847 86.635 74.2968 87.3799ZM89.825 79.5482C89.9587 81.4281 89.9973 83.2131 89.9379 84.875C88.2277 84.6407 86.4168 84.2918 84.5412 83.8365C86.363 82.4796 88.1296 81.0522 89.825 79.5482ZM81.4806 83.0168C78.0935 82.0253 74.7713 80.7949 71.5442 79.3668C70.6494 76.0145 70.0114 72.6009 69.6414 69.1652C72.1473 66.7988 74.8373 64.6211 77.6864 62.6569C81.0819 63.6362 84.4086 64.8645 87.6244 66.3304C88.496 69.6692 89.124 73.0645 89.5322 76.4778C87.011 78.8369 84.3102 81.017 81.4806 83.0168ZM99.7307 56.4481C102.427 59.6049 98.42 65.7971 96.5927 68.4585C94.5178 67.1166 92.2005 65.8324 89.7154 64.6481C88.9813 62.0262 88.1239 59.5719 87.1671 57.3684C90.2409 56.0769 97.0599 53.322 99.7307 56.4481Z" fill="#53C1DE"/>
</g>
</g>
<defs>
<filter id="filter0_d_3313_11450" x="0.237793" y="0" width="159.097" height="156" filterUnits="userSpaceOnUse" color-interpolation-filters="sRGB">
<feFlood flood-opacity="0" result="BackgroundImageFix"/>
<feColorMatrix in="SourceAlpha" type="matrix" values="0 0 0 0 0 0 0 0 0 0 0 0 0 0 0 0 0 0 127 0" result="hardAlpha"/>
<feOffset dy="5"/>
<feGaussianBlur stdDeviation="10"/>
<feComposite in2="hardAlpha" operator="out"/>
<feColorMatrix type="matrix" values="0 0 0 0 0 0 0 0 0 0 0 0 0 0 0 0 0 0 0.1 0"/>
<feBlend mode="normal" in2="BackgroundImageFix" result="effect1_dropShadow_3313_11450"/>
<feBlend mode="normal" in="SourceGraphic" in2="effect1_dropShadow_3313_11450" result="shape"/>
</filter>
<clipPath id="clip0_3313_11450">
<rect width="62" height="62" fill="white" transform="translate(61.2378 33) rotate(20.2782)"/>
</clipPath>
</defs>
</svg>
