<svg width="103" height="100" viewBox="0 0 103 100" fill="none" xmlns="http://www.w3.org/2000/svg">
<circle cx="50.1408" cy="50" r="50" fill="#F3F8FF"/>
<g clip-path="url(#clip0_3718_256)">
<mask id="mask0_3718_256" style="mask-type:alpha" maskUnits="userSpaceOnUse" x="26" y="25" width="50" height="50">
<path d="M51 75C64.8071 75 76 63.8071 76 50C76 36.1929 64.8071 25 51 25C37.1929 25 26 36.1929 26 50C26 63.8071 37.1929 75 51 75Z" fill="black"/>
</mask>
<g mask="url(#mask0_3718_256)">
<path d="M51 75C64.8071 75 76 63.8071 76 50C76 36.1929 64.8071 25 51 25C37.1929 25 26 36.1929 26 50C26 63.8071 37.1929 75 51 75Z" fill="#192333"/>
<path d="M67.53 68.7556L45.2061 40H41V59.9917H44.3649V44.2732L64.8886 70.7903C65.8147 70.1706 66.6969 69.4903 67.53 68.7556Z" fill="url(#paint0_linear_3718_256)"/>
<path d="M61.2777 40H57.9444V60H61.2777V40Z" fill="url(#paint1_linear_3718_256)"/>
</g>
</g>
<defs>
<linearGradient id="paint0_linear_3718_256" x1="56.2777" y1="57.3611" x2="66.1389" y2="69.5833" gradientUnits="userSpaceOnUse">
<stop stop-color="white"/>
<stop offset="1" stop-color="white" stop-opacity="0"/>
</linearGradient>
<linearGradient id="paint1_linear_3718_256" x1="59.6111" y1="40" x2="59.5552" y2="54.6875" gradientUnits="userSpaceOnUse">
<stop stop-color="white"/>
<stop offset="1" stop-color="white" stop-opacity="0"/>
</linearGradient>
<clipPath id="clip0_3718_256">
<rect width="50" height="50" fill="white" transform="translate(26.1408 25)"/>
</clipPath>
</defs>
</svg>
