<svg width="103" height="100" viewBox="0 0 103 100" fill="none" xmlns="http://www.w3.org/2000/svg">
<circle cx="50.2959" cy="50" r="50" fill="#192333"/>
<path d="M51.2957 74.9072C50.608 74.9072 49.9661 74.7238 49.37 74.4029L43.272 70.7808C42.3551 70.2764 42.8136 70.093 43.0887 70.0013C44.3266 69.5887 44.5558 69.497 45.8396 68.7634C45.9772 68.6717 46.1606 68.7175 46.2981 68.8092L50.9748 71.6061C51.1582 71.6978 51.3874 71.6978 51.525 71.6061L69.8189 61.0148C70.0023 60.9231 70.094 60.7397 70.094 60.5105V39.3738C70.094 39.1446 70.0023 38.9612 69.8189 38.8695L51.525 28.3241C51.3416 28.2324 51.1123 28.2324 50.9748 28.3241L32.6808 38.8695C32.4974 38.9612 32.4057 39.1904 32.4057 39.3738V60.5105C32.4057 60.6939 32.4974 60.9231 32.6808 61.0148L37.6784 63.9033C40.3835 65.2788 42.08 63.6741 42.08 62.0694V41.2078C42.08 40.9327 42.3092 40.6576 42.6302 40.6576H44.9685C45.2436 40.6576 45.5187 40.8869 45.5187 41.2078V62.0694C45.5187 65.6915 43.5471 67.8005 40.1084 67.8005C39.0539 67.8005 38.2286 67.8005 35.8903 66.6543L31.0761 63.9033C29.884 63.2156 29.1504 61.9318 29.1504 60.5563V39.4197C29.1504 38.0442 29.884 36.7604 31.0761 36.0727L49.37 25.4814C50.5163 24.8395 52.0752 24.8395 53.2214 25.4814L71.5154 36.0727C72.7075 36.7604 73.441 38.0442 73.441 39.4197V60.5563C73.441 61.9318 72.7075 63.2156 71.5154 63.9033L53.2214 74.4946C52.6254 74.7697 51.9376 74.9072 51.2957 74.9072ZM56.9352 60.3729C48.9115 60.3729 47.261 56.705 47.261 53.5872C47.261 53.3121 47.4902 53.037 47.8112 53.037H50.1953C50.4704 53.037 50.6997 53.2204 50.6997 53.4955C51.0665 55.9255 52.121 57.1176 56.9811 57.1176C60.8324 57.1176 62.483 56.2465 62.483 54.1832C62.483 52.9911 62.0245 52.12 56.0182 51.524C51.0206 51.0196 47.9029 49.9192 47.9029 45.9303C47.9029 42.2165 51.0206 40.0157 56.2475 40.0157C62.1162 40.0157 65.0047 42.0331 65.3715 46.4347C65.3715 46.5722 65.3257 46.7098 65.234 46.8473C65.1423 46.939 65.0047 47.0307 64.8672 47.0307H62.483C62.2538 47.0307 62.0245 46.8473 61.9787 46.6181C61.4285 44.0963 60.0071 43.271 56.2475 43.271C52.0293 43.271 51.525 44.7382 51.525 45.8386C51.525 47.1683 52.121 47.5809 57.8064 48.3145C63.4458 49.0481 66.1051 50.1026 66.1051 54.0457C66.0593 58.0804 62.7581 60.3729 56.9352 60.3729Z" fill="#778295"/>
</svg>
