<svg width="511" height="250" viewBox="0 0 511 250" fill="none" xmlns="http://www.w3.org/2000/svg">
<rect y="136.546" width="493.614" height="28.1125" fill="#FFBE62"/>
<path d="M38.208 33.536C38.208 36.1387 37.6107 38.528 36.416 40.704C35.2213 42.8373 33.3867 44.5653 30.912 45.888C28.4373 47.2107 25.3653 47.872 21.696 47.872H14.912V64H3.968V19.072H21.696C25.28 19.072 28.3093 19.6907 30.784 20.928C33.2587 22.1653 35.1147 23.872 36.352 26.048C37.5893 28.224 38.208 30.72 38.208 33.536ZM20.864 39.168C22.9547 39.168 24.512 38.6773 25.536 37.696C26.56 36.7147 27.072 35.328 27.072 33.536C27.072 31.744 26.56 30.3573 25.536 29.376C24.512 28.3947 22.9547 27.904 20.864 27.904H14.912V39.168H20.864ZM54.2095 34.24C55.4895 32.2773 57.0895 30.7413 59.0095 29.632C60.9295 28.48 63.0628 27.904 65.4095 27.904V39.488H62.4015C59.6708 39.488 57.6228 40.0853 56.2575 41.28C54.8922 42.432 54.2095 44.48 54.2095 47.424V64H43.2655V28.288H54.2095V34.24ZM86.2565 64.512C82.7578 64.512 79.6005 63.7653 76.7845 62.272C74.0112 60.7787 71.8138 58.6453 70.1925 55.872C68.6138 53.0987 67.8245 49.856 67.8245 46.144C67.8245 42.4747 68.6352 39.2533 70.2565 36.48C71.8778 33.664 74.0965 31.5093 76.9125 30.016C79.7285 28.5227 82.8858 27.776 86.3845 27.776C89.8832 27.776 93.0405 28.5227 95.8565 30.016C98.6725 31.5093 100.891 33.664 102.513 36.48C104.134 39.2533 104.945 42.4747 104.945 46.144C104.945 49.8133 104.113 53.056 102.449 55.872C100.827 58.6453 98.5872 60.7787 95.7285 62.272C92.9125 63.7653 89.7552 64.512 86.2565 64.512ZM86.2565 55.04C88.3472 55.04 90.1178 54.272 91.5685 52.736C93.0618 51.2 93.8085 49.0027 93.8085 46.144C93.8085 43.2853 93.0832 41.088 91.6325 39.552C90.2245 38.016 88.4752 37.248 86.3845 37.248C84.2512 37.248 82.4805 38.016 81.0725 39.552C79.6645 41.0453 78.9605 43.2427 78.9605 46.144C78.9605 49.0027 79.6432 51.2 81.0085 52.736C82.4165 54.272 84.1658 55.04 86.2565 55.04ZM128.031 37.376H122.143V64H111.199V37.376H107.231V28.288H111.199V27.264C111.199 22.8693 112.457 19.5413 114.975 17.28C117.492 14.976 121.183 13.824 126.047 13.824C126.857 13.824 127.455 13.8453 127.839 13.888V23.168C125.748 23.04 124.276 23.3387 123.423 24.064C122.569 24.7893 122.143 26.0907 122.143 27.968V28.288H128.031V37.376ZM166.197 45.568C166.197 46.592 166.133 47.6587 166.005 48.768H141.237C141.408 50.9867 142.112 52.6933 143.349 53.888C144.629 55.04 146.186 55.616 148.021 55.616C150.752 55.616 152.65 54.464 153.717 52.16H165.365C164.768 54.5067 163.68 56.6187 162.101 58.496C160.565 60.3733 158.624 61.8453 156.277 62.912C153.93 63.9787 151.306 64.512 148.405 64.512C144.906 64.512 141.792 63.7653 139.061 62.272C136.33 60.7787 134.197 58.6453 132.661 55.872C131.125 53.0987 130.357 49.856 130.357 46.144C130.357 42.432 131.104 39.1893 132.597 36.416C134.133 33.6427 136.266 31.5093 138.997 30.016C141.728 28.5227 144.864 27.776 148.405 27.776C151.861 27.776 154.933 28.5013 157.621 29.952C160.309 31.4027 162.4 33.472 163.893 36.16C165.429 38.848 166.197 41.984 166.197 45.568ZM154.997 42.688C154.997 40.8107 154.357 39.3173 153.077 38.208C151.797 37.0987 150.197 36.544 148.277 36.544C146.442 36.544 144.885 37.0773 143.605 38.144C142.368 39.2107 141.6 40.7253 141.301 42.688H154.997ZM185.859 64.512C182.744 64.512 179.971 63.9787 177.539 62.912C175.107 61.8453 173.187 60.3947 171.779 58.56C170.371 56.6827 169.581 54.592 169.411 52.288H180.227C180.355 53.5253 180.931 54.528 181.955 55.296C182.979 56.064 184.237 56.448 185.731 56.448C187.096 56.448 188.141 56.192 188.867 55.68C189.635 55.1253 190.019 54.4213 190.019 53.568C190.019 52.544 189.485 51.7973 188.419 51.328C187.352 50.816 185.624 50.2613 183.235 49.664C180.675 49.0667 178.541 48.448 176.835 47.808C175.128 47.1253 173.656 46.08 172.419 44.672C171.181 43.2213 170.563 41.28 170.563 38.848C170.563 36.8 171.117 34.944 172.227 33.28C173.379 31.5733 175.043 30.2293 177.219 29.248C179.437 28.2667 182.061 27.776 185.091 27.776C189.571 27.776 193.091 28.8853 195.651 31.104C198.253 33.3227 199.747 36.2667 200.131 39.936H190.019C189.848 38.6987 189.293 37.7173 188.355 36.992C187.459 36.2667 186.264 35.904 184.771 35.904C183.491 35.904 182.509 36.16 181.827 36.672C181.144 37.1413 180.803 37.8027 180.803 38.656C180.803 39.68 181.336 40.448 182.403 40.96C183.512 41.472 185.219 41.984 187.523 42.496C190.168 43.1787 192.323 43.8613 193.987 44.544C195.651 45.184 197.101 46.2507 198.339 47.744C199.619 49.1947 200.28 51.1573 200.323 53.632C200.323 55.7227 199.725 57.6 198.531 59.264C197.379 60.8853 195.693 62.1653 193.475 63.104C191.299 64.0427 188.76 64.512 185.859 64.512ZM220.906 64.512C217.791 64.512 215.018 63.9787 212.586 62.912C210.154 61.8453 208.234 60.3947 206.826 58.56C205.418 56.6827 204.629 54.592 204.458 52.288H215.274C215.402 53.5253 215.978 54.528 217.002 55.296C218.026 56.064 219.285 56.448 220.778 56.448C222.143 56.448 223.189 56.192 223.914 55.68C224.682 55.1253 225.066 54.4213 225.066 53.568C225.066 52.544 224.533 51.7973 223.466 51.328C222.399 50.816 220.671 50.2613 218.282 49.664C215.722 49.0667 213.589 48.448 211.882 47.808C210.175 47.1253 208.703 46.08 207.466 44.672C206.229 43.2213 205.61 41.28 205.61 38.848C205.61 36.8 206.165 34.944 207.274 33.28C208.426 31.5733 210.09 30.2293 212.266 29.248C214.485 28.2667 217.109 27.776 220.138 27.776C224.618 27.776 228.138 28.8853 230.698 31.104C233.301 33.3227 234.794 36.2667 235.178 39.936H225.066C224.895 38.6987 224.341 37.7173 223.402 36.992C222.506 36.2667 221.311 35.904 219.818 35.904C218.538 35.904 217.557 36.16 216.874 36.672C216.191 37.1413 215.85 37.8027 215.85 38.656C215.85 39.68 216.383 40.448 217.45 40.96C218.559 41.472 220.266 41.984 222.57 42.496C225.215 43.1787 227.37 43.8613 229.034 44.544C230.698 45.184 232.149 46.2507 233.386 47.744C234.666 49.1947 235.327 51.1573 235.37 53.632C235.37 55.7227 234.773 57.6 233.578 59.264C232.426 60.8853 230.741 62.1653 228.522 63.104C226.346 64.0427 223.807 64.512 220.906 64.512ZM246.93 24.576C245.01 24.576 243.431 24.0213 242.194 22.912C240.999 21.76 240.402 20.352 240.402 18.688C240.402 16.9813 240.999 15.5733 242.194 14.464C243.431 13.312 245.01 12.736 246.93 12.736C248.807 12.736 250.343 13.312 251.538 14.464C252.775 15.5733 253.394 16.9813 253.394 18.688C253.394 20.352 252.775 21.76 251.538 22.912C250.343 24.0213 248.807 24.576 246.93 24.576ZM252.37 28.288V64H241.426V28.288H252.37ZM275.917 64.512C272.418 64.512 269.261 63.7653 266.445 62.272C263.671 60.7787 261.474 58.6453 259.853 55.872C258.274 53.0987 257.485 49.856 257.485 46.144C257.485 42.4747 258.295 39.2533 259.917 36.48C261.538 33.664 263.757 31.5093 266.573 30.016C269.389 28.5227 272.546 27.776 276.045 27.776C279.543 27.776 282.701 28.5227 285.517 30.016C288.333 31.5093 290.551 33.664 292.173 36.48C293.794 39.2533 294.605 42.4747 294.605 46.144C294.605 49.8133 293.773 53.056 292.109 55.872C290.487 58.6453 288.247 60.7787 285.389 62.272C282.573 63.7653 279.415 64.512 275.917 64.512ZM275.917 55.04C278.007 55.04 279.778 54.272 281.229 52.736C282.722 51.2 283.469 49.0027 283.469 46.144C283.469 43.2853 282.743 41.088 281.293 39.552C279.885 38.016 278.135 37.248 276.045 37.248C273.911 37.248 272.141 38.016 270.733 39.552C269.325 41.0453 268.621 43.2427 268.621 46.144C268.621 49.0027 269.303 51.2 270.669 52.736C272.077 54.272 273.826 55.04 275.917 55.04ZM321.53 27.904C325.712 27.904 329.04 29.2693 331.514 32C334.032 34.688 335.29 38.4 335.29 43.136V64H324.41V44.608C324.41 42.2187 323.792 40.3627 322.554 39.04C321.317 37.7173 319.653 37.056 317.562 37.056C315.472 37.056 313.808 37.7173 312.57 39.04C311.333 40.3627 310.714 42.2187 310.714 44.608V64H299.77V28.288H310.714V33.024C311.824 31.4453 313.317 30.208 315.194 29.312C317.072 28.3733 319.184 27.904 321.53 27.904ZM340.08 46.08C340.08 42.4107 340.762 39.1893 342.128 36.416C343.536 33.6427 345.434 31.5093 347.824 30.016C350.213 28.5227 352.88 27.776 355.824 27.776C358.341 27.776 360.538 28.288 362.416 29.312C364.336 30.336 365.808 31.68 366.832 33.344V28.288H377.776V64H366.832V58.944C365.765 60.608 364.272 61.952 362.352 62.976C360.474 64 358.277 64.512 355.76 64.512C352.858 64.512 350.213 63.7653 347.824 62.272C345.434 60.736 343.536 58.5813 342.128 55.808C340.762 52.992 340.08 49.7493 340.08 46.08ZM366.832 46.144C366.832 43.4133 366.064 41.2587 364.528 39.68C363.034 38.1013 361.2 37.312 359.024 37.312C356.848 37.312 354.992 38.1013 353.456 39.68C351.962 41.216 351.216 43.3493 351.216 46.08C351.216 48.8107 351.962 50.9867 353.456 52.608C354.992 54.1867 356.848 54.976 359.024 54.976C361.2 54.976 363.034 54.1867 364.528 52.608C366.064 51.0293 366.832 48.8747 366.832 46.144ZM395.997 16.64V64H385.053V16.64H395.997ZM65.792 102.072L54.08 147H40.832L33.664 117.432L26.24 147H12.992L1.6 102.072H13.312L19.776 134.776L27.776 102.072H39.808L47.488 134.776L54.016 102.072H65.792ZM104.305 128.568C104.305 129.592 104.241 130.659 104.113 131.768H79.3445C79.5152 133.987 80.2192 135.693 81.4565 136.888C82.7365 138.04 84.2938 138.616 86.1285 138.616C88.8592 138.616 90.7578 137.464 91.8245 135.16H103.473C102.875 137.507 101.787 139.619 100.209 141.496C98.6725 143.373 96.7312 144.845 94.3845 145.912C92.0378 146.979 89.4138 147.512 86.5125 147.512C83.0138 147.512 79.8992 146.765 77.1685 145.272C74.4378 143.779 72.3045 141.645 70.7685 138.872C69.2325 136.099 68.4645 132.856 68.4645 129.144C68.4645 125.432 69.2112 122.189 70.7045 119.416C72.2405 116.643 74.3738 114.509 77.1045 113.016C79.8352 111.523 82.9712 110.776 86.5125 110.776C89.9685 110.776 93.0405 111.501 95.7285 112.952C98.4165 114.403 100.507 116.472 102.001 119.16C103.537 121.848 104.305 124.984 104.305 128.568ZM93.1045 125.688C93.1045 123.811 92.4645 122.317 91.1845 121.208C89.9045 120.099 88.3045 119.544 86.3845 119.544C84.5498 119.544 82.9925 120.077 81.7125 121.144C80.4752 122.211 79.7072 123.725 79.4085 125.688H93.1045ZM120.382 116.344C121.406 114.68 122.878 113.336 124.798 112.312C126.718 111.288 128.915 110.776 131.39 110.776C134.334 110.776 137.001 111.523 139.39 113.016C141.779 114.509 143.657 116.643 145.022 119.416C146.43 122.189 147.134 125.411 147.134 129.08C147.134 132.749 146.43 135.992 145.022 138.808C143.657 141.581 141.779 143.736 139.39 145.272C137.001 146.765 134.334 147.512 131.39 147.512C128.873 147.512 126.675 147.021 124.798 146.04C122.921 145.016 121.449 143.672 120.382 142.008V147H109.438V99.64H120.382V116.344ZM135.998 129.08C135.998 126.349 135.23 124.216 133.694 122.68C132.201 121.101 130.345 120.312 128.126 120.312C125.95 120.312 124.094 121.101 122.558 122.68C121.065 124.259 120.318 126.413 120.318 129.144C120.318 131.875 121.065 134.029 122.558 135.608C124.094 137.187 125.95 137.976 128.126 137.976C130.302 137.976 132.158 137.187 133.694 135.608C135.23 133.987 135.998 131.811 135.998 129.08ZM181.99 102.072C186.726 102.072 190.865 103.011 194.406 104.888C197.947 106.765 200.678 109.411 202.598 112.824C204.561 116.195 205.542 120.099 205.542 124.536C205.542 128.931 204.561 132.835 202.598 136.248C200.678 139.661 197.926 142.307 194.342 144.184C190.801 146.061 186.683 147 181.99 147H165.158V102.072H181.99ZM181.286 137.528C185.425 137.528 188.646 136.397 190.95 134.136C193.254 131.875 194.406 128.675 194.406 124.536C194.406 120.397 193.254 117.176 190.95 114.872C188.646 112.568 185.425 111.416 181.286 111.416H176.102V137.528H181.286ZM244.682 128.568C244.682 129.592 244.618 130.659 244.49 131.768H219.722C219.893 133.987 220.597 135.693 221.834 136.888C223.114 138.04 224.671 138.616 226.506 138.616C229.237 138.616 231.135 137.464 232.202 135.16H243.85C243.253 137.507 242.165 139.619 240.586 141.496C239.05 143.373 237.109 144.845 234.762 145.912C232.415 146.979 229.791 147.512 226.89 147.512C223.391 147.512 220.277 146.765 217.546 145.272C214.815 143.779 212.682 141.645 211.146 138.872C209.61 136.099 208.842 132.856 208.842 129.144C208.842 125.432 209.589 122.189 211.082 119.416C212.618 116.643 214.751 114.509 217.482 113.016C220.213 111.523 223.349 110.776 226.89 110.776C230.346 110.776 233.418 111.501 236.106 112.952C238.794 114.403 240.885 116.472 242.378 119.16C243.914 121.848 244.682 124.984 244.682 128.568ZM233.482 125.688C233.482 123.811 232.842 122.317 231.562 121.208C230.282 120.099 228.682 119.544 226.762 119.544C224.927 119.544 223.37 120.077 222.09 121.144C220.853 122.211 220.085 123.725 219.786 125.688H233.482ZM265.88 136.76L273.624 111.288H285.272L272.6 147H259.096L246.424 111.288H258.136L265.88 136.76ZM322.902 128.568C322.902 129.592 322.838 130.659 322.71 131.768H297.942C298.113 133.987 298.817 135.693 300.054 136.888C301.334 138.04 302.891 138.616 304.726 138.616C307.457 138.616 309.355 137.464 310.422 135.16H322.07C321.473 137.507 320.385 139.619 318.806 141.496C317.27 143.373 315.329 144.845 312.982 145.912C310.635 146.979 308.011 147.512 305.11 147.512C301.611 147.512 298.497 146.765 295.766 145.272C293.035 143.779 290.902 141.645 289.366 138.872C287.83 136.099 287.062 132.856 287.062 129.144C287.062 125.432 287.809 122.189 289.302 119.416C290.838 116.643 292.971 114.509 295.702 113.016C298.433 111.523 301.569 110.776 305.11 110.776C308.566 110.776 311.638 111.501 314.326 112.952C317.014 114.403 319.105 116.472 320.598 119.16C322.134 121.848 322.902 124.984 322.902 128.568ZM311.702 125.688C311.702 123.811 311.062 122.317 309.782 121.208C308.502 120.099 306.902 119.544 304.982 119.544C303.147 119.544 301.59 120.077 300.31 121.144C299.073 122.211 298.305 123.725 298.006 125.688H311.702ZM338.98 99.64V147H328.036V99.64H338.98ZM362.526 147.512C359.028 147.512 355.87 146.765 353.054 145.272C350.281 143.779 348.084 141.645 346.462 138.872C344.884 136.099 344.094 132.856 344.094 129.144C344.094 125.475 344.905 122.253 346.526 119.48C348.148 116.664 350.366 114.509 353.182 113.016C355.998 111.523 359.156 110.776 362.654 110.776C366.153 110.776 369.31 111.523 372.126 113.016C374.942 114.509 377.161 116.664 378.782 119.48C380.404 122.253 381.214 125.475 381.214 129.144C381.214 132.813 380.382 136.056 378.718 138.872C377.097 141.645 374.857 143.779 371.998 145.272C369.182 146.765 366.025 147.512 362.526 147.512ZM362.526 138.04C364.617 138.04 366.388 137.272 367.838 135.736C369.332 134.2 370.078 132.003 370.078 129.144C370.078 126.285 369.353 124.088 367.902 122.552C366.494 121.016 364.745 120.248 362.654 120.248C360.521 120.248 358.75 121.016 357.342 122.552C355.934 124.045 355.23 126.243 355.23 129.144C355.23 132.003 355.913 134.2 357.278 135.736C358.686 137.272 360.436 138.04 362.526 138.04ZM397.325 116.344C398.391 114.68 399.863 113.336 401.741 112.312C403.618 111.288 405.815 110.776 408.333 110.776C411.277 110.776 413.943 111.523 416.333 113.016C418.722 114.509 420.599 116.643 421.965 119.416C423.373 122.189 424.077 125.411 424.077 129.08C424.077 132.749 423.373 135.992 421.965 138.808C420.599 141.581 418.722 143.736 416.333 145.272C413.943 146.765 411.277 147.512 408.333 147.512C405.858 147.512 403.661 147 401.741 145.976C399.863 144.952 398.391 143.629 397.325 142.008V164.024H386.381V111.288H397.325V116.344ZM412.941 129.08C412.941 126.349 412.173 124.216 410.637 122.68C409.143 121.101 407.287 120.312 405.069 120.312C402.893 120.312 401.037 121.101 399.501 122.68C398.007 124.259 397.261 126.413 397.261 129.144C397.261 131.875 398.007 134.029 399.501 135.608C401.037 137.187 402.893 137.976 405.069 137.976C407.245 137.976 409.101 137.187 410.637 135.608C412.173 133.987 412.941 131.811 412.941 129.08ZM462.842 128.568C462.842 129.592 462.778 130.659 462.65 131.768H437.882C438.053 133.987 438.757 135.693 439.994 136.888C441.274 138.04 442.831 138.616 444.666 138.616C447.397 138.616 449.295 137.464 450.362 135.16H462.01C461.413 137.507 460.325 139.619 458.746 141.496C457.21 143.373 455.269 144.845 452.922 145.912C450.575 146.979 447.951 147.512 445.05 147.512C441.551 147.512 438.437 146.765 435.706 145.272C432.975 143.779 430.842 141.645 429.306 138.872C427.77 136.099 427.002 132.856 427.002 129.144C427.002 125.432 427.749 122.189 429.242 119.416C430.778 116.643 432.911 114.509 435.642 113.016C438.373 111.523 441.509 110.776 445.05 110.776C448.506 110.776 451.578 111.501 454.266 112.952C456.954 114.403 459.045 116.472 460.538 119.16C462.074 121.848 462.842 124.984 462.842 128.568ZM451.642 125.688C451.642 123.811 451.002 122.317 449.722 121.208C448.442 120.099 446.842 119.544 444.922 119.544C443.087 119.544 441.53 120.077 440.25 121.144C439.013 122.211 438.245 123.725 437.946 125.688H451.642ZM478.92 117.24C480.2 115.277 481.8 113.741 483.72 112.632C485.64 111.48 487.773 110.904 490.12 110.904V122.488H487.112C484.381 122.488 482.333 123.085 480.968 124.28C479.602 125.432 478.92 127.48 478.92 130.424V147H467.976V111.288H478.92V117.24ZM14.912 199.344C15.936 197.68 17.408 196.336 19.328 195.312C21.248 194.288 23.4453 193.776 25.92 193.776C28.864 193.776 31.5307 194.523 33.92 196.016C36.3093 197.509 38.1867 199.643 39.552 202.416C40.96 205.189 41.664 208.411 41.664 212.08C41.664 215.749 40.96 218.992 39.552 221.808C38.1867 224.581 36.3093 226.736 33.92 228.272C31.5307 229.765 28.864 230.512 25.92 230.512C23.4027 230.512 21.2053 230.021 19.328 229.04C17.4507 228.016 15.9787 226.672 14.912 225.008V230H3.968V182.64H14.912V199.344ZM30.528 212.08C30.528 209.349 29.76 207.216 28.224 205.68C26.7307 204.101 24.8747 203.312 22.656 203.312C20.48 203.312 18.624 204.101 17.088 205.68C15.5947 207.259 14.848 209.413 14.848 212.144C14.848 214.875 15.5947 217.029 17.088 218.608C18.624 220.187 20.48 220.976 22.656 220.976C24.832 220.976 26.688 220.187 28.224 218.608C29.76 216.987 30.528 214.811 30.528 212.08ZM44.5895 212.08C44.5895 208.411 45.2722 205.189 46.6375 202.416C48.0455 199.643 49.9442 197.509 52.3335 196.016C54.7228 194.523 57.3895 193.776 60.3335 193.776C62.8508 193.776 65.0482 194.288 66.9255 195.312C68.8455 196.336 70.3175 197.68 71.3415 199.344V194.288H82.2855V230H71.3415V224.944C70.2748 226.608 68.7815 227.952 66.8615 228.976C64.9842 230 62.7868 230.512 60.2695 230.512C57.3682 230.512 54.7228 229.765 52.3335 228.272C49.9442 226.736 48.0455 224.581 46.6375 221.808C45.2722 218.992 44.5895 215.749 44.5895 212.08ZM71.3415 212.144C71.3415 209.413 70.5735 207.259 69.0375 205.68C67.5442 204.101 65.7095 203.312 63.5335 203.312C61.3575 203.312 59.5015 204.101 57.9655 205.68C56.4722 207.216 55.7255 209.349 55.7255 212.08C55.7255 214.811 56.4722 216.987 57.9655 218.608C59.5015 220.187 61.3575 220.976 63.5335 220.976C65.7095 220.976 67.5442 220.187 69.0375 218.608C70.5735 217.029 71.3415 214.875 71.3415 212.144ZM104.091 230.512C100.976 230.512 98.203 229.979 95.771 228.912C93.339 227.845 91.419 226.395 90.011 224.56C88.603 222.683 87.8137 220.592 87.643 218.288H98.459C98.587 219.525 99.163 220.528 100.187 221.296C101.211 222.064 102.47 222.448 103.963 222.448C105.328 222.448 106.374 222.192 107.099 221.68C107.867 221.125 108.251 220.421 108.251 219.568C108.251 218.544 107.718 217.797 106.651 217.328C105.584 216.816 103.856 216.261 101.467 215.664C98.907 215.067 96.7737 214.448 95.067 213.808C93.3603 213.125 91.8883 212.08 90.651 210.672C89.4137 209.221 88.795 207.28 88.795 204.848C88.795 202.8 89.3497 200.944 90.459 199.28C91.611 197.573 93.275 196.229 95.451 195.248C97.6697 194.267 100.294 193.776 103.323 193.776C107.803 193.776 111.323 194.885 113.883 197.104C116.486 199.323 117.979 202.267 118.363 205.936H108.251C108.08 204.699 107.526 203.717 106.587 202.992C105.691 202.267 104.496 201.904 103.003 201.904C101.723 201.904 100.742 202.16 100.059 202.672C99.3763 203.141 99.035 203.803 99.035 204.656C99.035 205.68 99.5683 206.448 100.635 206.96C101.744 207.472 103.451 207.984 105.755 208.496C108.4 209.179 110.555 209.861 112.219 210.544C113.883 211.184 115.334 212.251 116.571 213.744C117.851 215.195 118.512 217.157 118.555 219.632C118.555 221.723 117.958 223.6 116.763 225.264C115.611 226.885 113.926 228.165 111.707 229.104C109.531 230.043 106.992 230.512 104.091 230.512ZM158.275 211.568C158.275 212.592 158.211 213.659 158.083 214.768H133.315C133.485 216.987 134.189 218.693 135.427 219.888C136.707 221.04 138.264 221.616 140.099 221.616C142.829 221.616 144.728 220.464 145.795 218.16H157.443C156.845 220.507 155.757 222.619 154.179 224.496C152.643 226.373 150.701 227.845 148.355 228.912C146.008 229.979 143.384 230.512 140.483 230.512C136.984 230.512 133.869 229.765 131.139 228.272C128.408 226.779 126.275 224.645 124.739 221.872C123.203 219.099 122.435 215.856 122.435 212.144C122.435 208.432 123.181 205.189 124.675 202.416C126.211 199.643 128.344 197.509 131.075 196.016C133.805 194.523 136.941 193.776 140.483 193.776C143.939 193.776 147.011 194.501 149.699 195.952C152.387 197.403 154.477 199.472 155.971 202.16C157.507 204.848 158.275 207.984 158.275 211.568ZM147.075 208.688C147.075 206.811 146.435 205.317 145.155 204.208C143.875 203.099 142.275 202.544 140.355 202.544C138.52 202.544 136.963 203.077 135.683 204.144C134.445 205.211 133.677 206.725 133.379 208.688H147.075ZM161.232 212.08C161.232 208.411 161.915 205.189 163.28 202.416C164.688 199.643 166.587 197.509 168.976 196.016C171.365 194.523 174.032 193.776 176.976 193.776C179.323 193.776 181.456 194.267 183.376 195.248C185.339 196.229 186.875 197.552 187.984 199.216V182.64H198.928V230H187.984V224.88C186.96 226.587 185.488 227.952 183.568 228.976C181.691 230 179.493 230.512 176.976 230.512C174.032 230.512 171.365 229.765 168.976 228.272C166.587 226.736 164.688 224.581 163.28 221.808C161.915 218.992 161.232 215.749 161.232 212.08ZM187.984 212.144C187.984 209.413 187.216 207.259 185.68 205.68C184.187 204.101 182.352 203.312 180.176 203.312C178 203.312 176.144 204.101 174.608 205.68C173.115 207.216 172.368 209.349 172.368 212.08C172.368 214.811 173.115 216.987 174.608 218.608C176.144 220.187 178 220.976 180.176 220.976C182.352 220.976 184.187 220.187 185.68 218.608C187.216 217.029 187.984 214.875 187.984 212.144ZM224.632 190.576C222.712 190.576 221.133 190.021 219.896 188.912C218.701 187.76 218.104 186.352 218.104 184.688C218.104 182.981 218.701 181.573 219.896 180.464C221.133 179.312 222.712 178.736 224.632 178.736C226.509 178.736 228.045 179.312 229.24 180.464C230.477 181.573 231.096 182.981 231.096 184.688C231.096 186.352 230.477 187.76 229.24 188.912C228.045 190.021 226.509 190.576 224.632 190.576ZM230.072 194.288V230H219.128V194.288H230.072ZM259.123 193.904C263.304 193.904 266.632 195.269 269.107 198C271.624 200.688 272.883 204.4 272.883 209.136V230H262.003V210.608C262.003 208.219 261.384 206.363 260.147 205.04C258.91 203.717 257.246 203.056 255.155 203.056C253.064 203.056 251.4 203.717 250.163 205.04C248.926 206.363 248.307 208.219 248.307 210.608V230H237.363V194.288H248.307V199.024C249.416 197.445 250.91 196.208 252.787 195.312C254.664 194.373 256.776 193.904 259.123 193.904ZM303.522 185.072V211.952C303.522 214.64 304.184 216.709 305.506 218.16C306.829 219.611 308.77 220.336 311.33 220.336C313.89 220.336 315.853 219.611 317.218 218.16C318.584 216.709 319.266 214.64 319.266 211.952V185.072H330.21V211.888C330.21 215.899 329.357 219.291 327.65 222.064C325.944 224.837 323.64 226.928 320.738 228.336C317.88 229.744 314.68 230.448 311.138 230.448C307.597 230.448 304.418 229.765 301.602 228.4C298.829 226.992 296.632 224.901 295.01 222.128C293.389 219.312 292.578 215.899 292.578 211.888V185.072H303.522ZM353.512 230.448C350.226 230.448 347.282 229.915 344.68 228.848C342.077 227.781 339.986 226.203 338.408 224.112C336.872 222.021 336.061 219.504 335.976 216.56H347.624C347.794 218.224 348.37 219.504 349.352 220.4C350.333 221.253 351.613 221.68 353.192 221.68C354.813 221.68 356.093 221.317 357.032 220.592C357.97 219.824 358.44 218.779 358.44 217.456C358.44 216.347 358.056 215.429 357.288 214.704C356.562 213.979 355.645 213.381 354.536 212.912C353.469 212.443 351.933 211.909 349.928 211.312C347.026 210.416 344.658 209.52 342.824 208.624C340.989 207.728 339.41 206.405 338.088 204.656C336.765 202.907 336.104 200.624 336.104 197.808C336.104 193.627 337.618 190.363 340.648 188.016C343.677 185.627 347.624 184.432 352.488 184.432C357.437 184.432 361.426 185.627 364.456 188.016C367.485 190.363 369.106 193.648 369.32 197.872H357.48C357.394 196.421 356.861 195.291 355.88 194.48C354.898 193.627 353.64 193.2 352.104 193.2C350.781 193.2 349.714 193.563 348.904 194.288C348.093 194.971 347.688 195.973 347.688 197.296C347.688 198.747 348.37 199.877 349.736 200.688C351.101 201.499 353.234 202.373 356.136 203.312C359.037 204.293 361.384 205.232 363.176 206.128C365.01 207.024 366.589 208.325 367.912 210.032C369.234 211.739 369.896 213.936 369.896 216.624C369.896 219.184 369.234 221.509 367.912 223.6C366.632 225.691 364.754 227.355 362.28 228.592C359.805 229.829 356.882 230.448 353.512 230.448ZM403.958 222.064H387.19L384.502 230H373.046L389.302 185.072H401.974L418.23 230H406.646L403.958 222.064ZM401.142 213.616L395.574 197.168L390.07 213.616H401.142Z" fill="white"/>
</svg>
