<svg width="157" height="156" viewBox="0 0 157 156" fill="none" xmlns="http://www.w3.org/2000/svg">
<g filter="url(#filter0_d_3718_247)">
<circle cx="78.2379" cy="73" r="58" fill="white"/>
<g clip-path="url(#clip0_3718_247)">
<path d="M84.4575 74.5776C85.4207 71.9707 84.022 69.0517 81.333 68.0581C78.6443 67.0647 75.6833 68.3729 74.7201 70.9798C73.7568 73.5871 75.1559 76.506 77.8446 77.4994C80.5336 78.493 83.4942 77.1848 84.4575 74.5776Z" fill="#53C1DE"/>
<path fill-rule="evenodd" clip-rule="evenodd" d="M98.6391 69.8569C101.164 66.1859 105.232 59.1515 101.617 54.9214C98.0192 50.7103 90.323 53.3888 86.1294 55.154C84.0894 51.1187 79.8102 44.0391 74.3142 44.9121C68.8414 45.7815 67.5097 53.6853 67.0546 58.1499C62.3959 57.752 54.2209 57.5819 52.3276 62.7061C50.4397 67.8158 56.6724 73.2198 60.4459 75.9362C57.8766 79.6453 53.8583 86.4365 57.459 90.652C61.0843 94.8945 68.8771 92.4062 73.1113 90.6197C75.1633 94.7121 79.2512 101.625 84.7273 100.755C90.2205 99.8827 91.7739 92.0337 92.2377 87.5454C96.7431 87.885 104.986 87.8969 106.85 82.851C108.725 77.7761 102.372 72.5552 98.6391 69.8569ZM92.406 85.1383C92.4985 82.7653 92.3992 80.1688 92.1195 77.4212C94.0465 75.5513 95.7632 73.6588 97.2115 71.8023C99.9455 73.7872 105.914 78.2201 104.521 81.9905C103.115 85.7964 95.9612 85.402 92.406 85.1383ZM84.2823 98.3697C80.1965 99.0185 76.8494 92.6152 75.3317 89.5991C77.4701 88.5375 79.7053 87.2107 81.9809 85.661C84.7006 86.4083 87.3276 86.9576 89.773 87.2858C89.4411 90.4592 88.3861 97.7177 84.2823 98.3697ZM59.3457 89.1254C56.6604 85.9828 60.6082 80.0564 62.4998 77.3238C64.556 78.628 66.9008 79.886 69.4662 81.0699C70.2141 83.6853 71.095 86.1607 72.0749 88.4057C69.4263 89.5238 62.0436 92.2825 59.3457 89.1254ZM54.6566 63.5667C56.068 59.7466 63.4398 60.2588 66.8763 60.5563C66.7637 62.96 66.8274 65.5405 67.0669 68.2146C65.1198 70.1192 63.3676 72.0692 61.8746 73.9918C59.2043 72.0667 53.2443 67.389 54.6566 63.5667ZM74.759 47.2977C78.8619 46.6461 82.4184 53.239 83.9018 56.163C81.7086 57.2269 79.4496 58.5261 77.1981 60.0198C74.5488 59.3028 71.9574 58.7659 69.5176 58.4279C69.8857 54.8274 70.6606 47.9486 74.759 47.2977ZM90.5016 67.7248C92.1626 68.5804 93.7247 69.4794 95.1617 70.404C94.1524 71.6905 93.0027 73.001 91.7347 74.3113C91.4145 72.1027 91.0073 69.9038 90.5016 67.7248ZM84.9383 58.3801C85.5957 59.9054 86.206 61.563 86.7594 63.3211C84.6488 62.4294 82.4986 61.6345 80.3157 60.9387C81.8755 59.9757 83.4255 59.1185 84.9383 58.3801ZM69.3848 66.0516C69.2828 64.2413 69.2691 62.4933 69.3423 60.8372C71.0227 61.0745 72.7836 61.4116 74.5893 61.8408C72.7865 63.1626 71.0494 64.5683 69.3848 66.0516ZM68.6687 78.0176C66.9547 77.1647 65.3673 76.2806 63.9334 75.3778C64.9716 74.0486 66.1436 72.7012 67.425 71.3638C67.7318 73.5974 68.1474 75.8183 68.6687 78.0176ZM74.2969 87.3797C73.6197 85.8169 72.9905 84.1325 72.4228 82.3612C74.5516 83.2411 76.7148 84.0406 78.9082 84.7449C77.3295 85.7516 75.7848 86.6348 74.2969 87.3797ZM89.8251 79.548C89.9588 81.4279 89.9974 83.2129 89.938 84.8748C88.2277 84.6405 86.4169 84.2916 84.5413 83.8363C86.3631 82.4795 88.1296 81.052 89.8251 79.548ZM81.4807 83.0166C78.0935 82.0251 74.7713 80.7948 71.5443 79.3666C70.6494 76.0143 70.0114 72.6007 69.6415 69.165C72.1473 66.7986 74.8374 64.6209 77.6864 62.6567C81.082 63.636 84.4087 64.8643 87.6245 66.3303C88.496 69.669 89.124 73.0644 89.5322 76.4777C87.0111 78.8367 84.3103 81.0168 81.4807 83.0166ZM99.7308 56.4479C102.428 59.6047 98.4201 65.7969 96.5928 68.4583C94.5179 67.1164 92.2006 65.8322 89.7154 64.648C88.9814 62.026 88.124 59.5718 87.1672 57.3682C90.2409 56.0767 97.06 53.3219 99.7308 56.4479Z" fill="#53C1DE"/>
</g>
</g>
<defs>
<filter id="filter0_d_3718_247" x="0.237915" y="0" width="159.097" height="156" filterUnits="userSpaceOnUse" color-interpolation-filters="sRGB">
<feFlood flood-opacity="0" result="BackgroundImageFix"/>
<feColorMatrix in="SourceAlpha" type="matrix" values="0 0 0 0 0 0 0 0 0 0 0 0 0 0 0 0 0 0 127 0" result="hardAlpha"/>
<feOffset dy="5"/>
<feGaussianBlur stdDeviation="10"/>
<feComposite in2="hardAlpha" operator="out"/>
<feColorMatrix type="matrix" values="0 0 0 0 0 0 0 0 0 0 0 0 0 0 0 0 0 0 0.1 0"/>
<feBlend mode="normal" in2="BackgroundImageFix" result="effect1_dropShadow_3718_247"/>
<feBlend mode="normal" in="SourceGraphic" in2="effect1_dropShadow_3718_247" result="shape"/>
</filter>
<clipPath id="clip0_3718_247">
<rect width="62" height="62" fill="white" transform="translate(61.2379 33) rotate(20.2782)"/>
</clipPath>
</defs>
</svg>
