<svg width="203" height="29" viewBox="0 0 203 29" fill="none" xmlns="http://www.w3.org/2000/svg">
<path d="M6.08 21.126C5.204 21.126 4.412 20.976 3.704 20.676C3.008 20.376 2.456 19.944 2.048 19.38C1.64 18.816 1.43 18.15 1.418 17.382H4.118C4.154 17.898 4.334 18.306 4.658 18.606C4.994 18.906 5.45 19.056 6.026 19.056C6.614 19.056 7.076 18.918 7.412 18.642C7.748 18.354 7.916 17.982 7.916 17.526C7.916 17.154 7.802 16.848 7.574 16.608C7.346 16.368 7.058 16.182 6.71 16.05C6.374 15.906 5.906 15.75 5.306 15.582C4.49 15.342 3.824 15.108 3.308 14.88C2.804 14.64 2.366 14.286 1.994 13.818C1.634 13.338 1.454 12.702 1.454 11.91C1.454 11.166 1.64 10.518 2.012 9.966C2.384 9.414 2.906 8.994 3.578 8.706C4.25 8.406 5.018 8.256 5.882 8.256C7.178 8.256 8.228 8.574 9.032 9.21C9.848 9.834 10.298 10.71 10.382 11.838H7.61C7.586 11.406 7.4 11.052 7.052 10.776C6.716 10.488 6.266 10.344 5.702 10.344C5.21 10.344 4.814 10.47 4.514 10.722C4.226 10.974 4.082 11.34 4.082 11.82C4.082 12.156 4.19 12.438 4.406 12.666C4.634 12.882 4.91 13.062 5.234 13.206C5.57 13.338 6.038 13.494 6.638 13.674C7.454 13.914 8.12 14.154 8.636 14.394C9.152 14.634 9.596 14.994 9.968 15.474C10.34 15.954 10.526 16.584 10.526 17.364C10.526 18.036 10.352 18.66 10.004 19.236C9.656 19.812 9.146 20.274 8.474 20.622C7.802 20.958 7.004 21.126 6.08 21.126ZM21.9808 15.798C21.9808 16.158 21.9568 16.482 21.9088 16.77H14.6188C14.6788 17.49 14.9308 18.054 15.3748 18.462C15.8188 18.87 16.3648 19.074 17.0128 19.074C17.9488 19.074 18.6148 18.672 19.0108 17.868H21.7288C21.4408 18.828 20.8888 19.62 20.0728 20.244C19.2568 20.856 18.2548 21.162 17.0668 21.162C16.1068 21.162 15.2428 20.952 14.4748 20.532C13.7188 20.1 13.1248 19.494 12.6928 18.714C12.2728 17.934 12.0627 17.034 12.0627 16.014C12.0627 14.982 12.2728 14.076 12.6928 13.296C13.1128 12.516 13.7008 11.916 14.4568 11.496C15.2128 11.076 16.0828 10.866 17.0668 10.866C18.0148 10.866 18.8608 11.07 19.6048 11.478C20.3608 11.886 20.9428 12.468 21.3508 13.224C21.7708 13.968 21.9808 14.826 21.9808 15.798ZM19.3708 15.078C19.3588 14.43 19.1248 13.914 18.6688 13.53C18.2128 13.134 17.6548 12.936 16.9948 12.936C16.3708 12.936 15.8428 13.128 15.4108 13.512C14.9908 13.884 14.7328 14.406 14.6368 15.078H19.3708ZM33.0901 15.798C33.0901 16.158 33.0661 16.482 33.0181 16.77H25.7281C25.7881 17.49 26.0401 18.054 26.4841 18.462C26.9281 18.87 27.4741 19.074 28.1221 19.074C29.0581 19.074 29.7241 18.672 30.1201 17.868H32.8381C32.5501 18.828 31.9981 19.62 31.1821 20.244C30.3661 20.856 29.3641 21.162 28.1761 21.162C27.2161 21.162 26.3521 20.952 25.5841 20.532C24.8281 20.1 24.2341 19.494 23.8021 18.714C23.3821 17.934 23.1721 17.034 23.1721 16.014C23.1721 14.982 23.3821 14.076 23.8021 13.296C24.2221 12.516 24.8101 11.916 25.5661 11.496C26.3221 11.076 27.1921 10.866 28.1761 10.866C29.1241 10.866 29.9701 11.07 30.7141 11.478C31.4701 11.886 32.0521 12.468 32.4601 13.224C32.8801 13.968 33.0901 14.826 33.0901 15.798ZM30.4801 15.078C30.4681 14.43 30.2341 13.914 29.7781 13.53C29.3221 13.134 28.7641 12.936 28.1041 12.936C27.4801 12.936 26.9521 13.128 26.5201 13.512C26.1001 13.884 25.8421 14.406 25.7461 15.078H30.4801ZM43.6106 8.436C44.9306 8.436 46.0886 8.694 47.0846 9.21C48.0926 9.726 48.8666 10.464 49.4066 11.424C49.9586 12.372 50.2346 13.476 50.2346 14.736C50.2346 15.996 49.9586 17.1 49.4066 18.048C48.8666 18.984 48.0926 19.71 47.0846 20.226C46.0886 20.742 44.9306 21 43.6106 21H39.2186V8.436H43.6106ZM43.5206 18.858C44.8406 18.858 45.8606 18.498 46.5806 17.778C47.3006 17.058 47.6606 16.044 47.6606 14.736C47.6606 13.428 47.3006 12.408 46.5806 11.676C45.8606 10.932 44.8406 10.56 43.5206 10.56H41.7386V18.858H43.5206ZM61.3909 15.798C61.3909 16.158 61.3669 16.482 61.3189 16.77H54.0289C54.0889 17.49 54.3409 18.054 54.7849 18.462C55.2289 18.87 55.7749 19.074 56.4229 19.074C57.3589 19.074 58.0249 18.672 58.4209 17.868H61.1389C60.8509 18.828 60.2989 19.62 59.4829 20.244C58.6669 20.856 57.6649 21.162 56.4769 21.162C55.5169 21.162 54.6529 20.952 53.8849 20.532C53.1289 20.1 52.5349 19.494 52.1029 18.714C51.6829 17.934 51.4729 17.034 51.4729 16.014C51.4729 14.982 51.6829 14.076 52.1029 13.296C52.5229 12.516 53.1109 11.916 53.8669 11.496C54.6229 11.076 55.4929 10.866 56.4769 10.866C57.4249 10.866 58.2709 11.07 59.0149 11.478C59.7709 11.886 60.3529 12.468 60.7609 13.224C61.1809 13.968 61.3909 14.826 61.3909 15.798ZM58.7809 15.078C58.7689 14.43 58.5349 13.914 58.0789 13.53C57.6229 13.134 57.0649 12.936 56.4049 12.936C55.7809 12.936 55.2529 13.128 54.8209 13.512C54.4009 13.884 54.1429 14.406 54.0469 15.078H58.7809ZM66.1643 13.098V17.922C66.1643 18.258 66.2423 18.504 66.3983 18.66C66.5663 18.804 66.8423 18.876 67.2263 18.876H68.3963V21H66.8123C64.6883 21 63.6263 19.968 63.6263 17.904V13.098H62.4383V11.028H63.6263V8.562H66.1643V11.028H68.3963V13.098H66.1643ZM69.5608 15.978C69.5608 14.97 69.7588 14.076 70.1548 13.296C70.5628 12.516 71.1088 11.916 71.7928 11.496C72.4888 11.076 73.2628 10.866 74.1148 10.866C74.8588 10.866 75.5068 11.016 76.0588 11.316C76.6228 11.616 77.0728 11.994 77.4088 12.45V11.028H79.9468V21H77.4088V19.542C77.0848 20.01 76.6348 20.4 76.0588 20.712C75.4948 21.012 74.8408 21.162 74.0968 21.162C73.2568 21.162 72.4888 20.946 71.7928 20.514C71.1088 20.082 70.5628 19.476 70.1548 18.696C69.7588 17.904 69.5608 16.998 69.5608 15.978ZM77.4088 16.014C77.4088 15.402 77.2888 14.88 77.0488 14.448C76.8088 14.004 76.4848 13.668 76.0768 13.44C75.6688 13.2 75.2308 13.08 74.7628 13.08C74.2948 13.08 73.8628 13.194 73.4668 13.422C73.0708 13.65 72.7468 13.986 72.4948 14.43C72.2548 14.862 72.1348 15.378 72.1348 15.978C72.1348 16.578 72.2548 17.106 72.4948 17.562C72.7468 18.006 73.0708 18.348 73.4668 18.588C73.8748 18.828 74.3068 18.948 74.7628 18.948C75.2308 18.948 75.6688 18.834 76.0768 18.606C76.4848 18.366 76.8088 18.03 77.0488 17.598C77.2888 17.154 77.4088 16.626 77.4088 16.014ZM83.686 9.84C83.242 9.84 82.87 9.702 82.57 9.426C82.282 9.138 82.138 8.784 82.138 8.364C82.138 7.944 82.282 7.596 82.57 7.32C82.87 7.032 83.242 6.888 83.686 6.888C84.13 6.888 84.496 7.032 84.784 7.32C85.084 7.596 85.234 7.944 85.234 8.364C85.234 8.784 85.084 9.138 84.784 9.426C84.496 9.702 84.13 9.84 83.686 9.84ZM84.928 11.028V21H82.408V11.028H84.928ZM89.9378 7.68V21H87.4178V7.68H89.9378ZM105.879 12.324C105.879 12.996 105.717 13.626 105.393 14.214C105.081 14.802 104.583 15.276 103.899 15.636C103.227 15.996 102.375 16.176 101.343 16.176H99.2366V21H96.7166V8.436H101.343C102.315 8.436 103.143 8.604 103.827 8.94C104.511 9.276 105.021 9.738 105.357 10.326C105.705 10.914 105.879 11.58 105.879 12.324ZM101.235 14.142C101.931 14.142 102.447 13.986 102.783 13.674C103.119 13.35 103.287 12.9 103.287 12.324C103.287 11.1 102.603 10.488 101.235 10.488H99.2366V14.142H101.235ZM110.188 12.576C110.512 12.048 110.932 11.634 111.448 11.334C111.976 11.034 112.576 10.884 113.248 10.884V13.53H112.582C111.79 13.53 111.19 13.716 110.782 14.088C110.386 14.46 110.188 15.108 110.188 16.032V21H107.668V11.028H110.188V12.576ZM119.373 21.162C118.413 21.162 117.549 20.952 116.781 20.532C116.013 20.1 115.407 19.494 114.963 18.714C114.531 17.934 114.315 17.034 114.315 16.014C114.315 14.994 114.537 14.094 114.981 13.314C115.437 12.534 116.055 11.934 116.835 11.514C117.615 11.082 118.485 10.866 119.445 10.866C120.405 10.866 121.275 11.082 122.055 11.514C122.835 11.934 123.447 12.534 123.891 13.314C124.347 14.094 124.575 14.994 124.575 16.014C124.575 17.034 124.341 17.934 123.873 18.714C123.417 19.494 122.793 20.1 122.001 20.532C121.221 20.952 120.345 21.162 119.373 21.162ZM119.373 18.966C119.829 18.966 120.255 18.858 120.651 18.642C121.059 18.414 121.383 18.078 121.623 17.634C121.863 17.19 121.983 16.65 121.983 16.014C121.983 15.066 121.731 14.34 121.227 13.836C120.735 13.32 120.129 13.062 119.409 13.062C118.689 13.062 118.083 13.32 117.591 13.836C117.111 14.34 116.871 15.066 116.871 16.014C116.871 16.962 117.105 17.694 117.573 18.21C118.053 18.714 118.653 18.966 119.373 18.966ZM127.702 9.84C127.246 9.84 126.868 9.702 126.568 9.426C126.28 9.138 126.136 8.784 126.136 8.364C126.136 7.944 126.28 7.596 126.568 7.32C126.868 7.032 127.246 6.888 127.702 6.888C128.146 6.888 128.512 7.032 128.8 7.32C129.088 7.596 129.232 7.944 129.232 8.364C129.232 8.784 129.088 9.138 128.8 9.426C128.512 9.702 128.146 9.84 127.702 9.84ZM128.944 22.638C128.944 23.742 128.668 24.534 128.116 25.014C127.576 25.506 126.796 25.752 125.776 25.752H124.66V23.61H125.38C125.764 23.61 126.034 23.532 126.19 23.376C126.346 23.232 126.424 22.992 126.424 22.656V11.028H128.944V22.638ZM140.703 15.798C140.703 16.158 140.679 16.482 140.631 16.77H133.341C133.401 17.49 133.653 18.054 134.097 18.462C134.541 18.87 135.087 19.074 135.735 19.074C136.671 19.074 137.337 18.672 137.733 17.868H140.451C140.163 18.828 139.611 19.62 138.795 20.244C137.979 20.856 136.977 21.162 135.789 21.162C134.829 21.162 133.965 20.952 133.197 20.532C132.441 20.1 131.847 19.494 131.415 18.714C130.995 17.934 130.785 17.034 130.785 16.014C130.785 14.982 130.995 14.076 131.415 13.296C131.835 12.516 132.423 11.916 133.179 11.496C133.935 11.076 134.805 10.866 135.789 10.866C136.737 10.866 137.583 11.07 138.327 11.478C139.083 11.886 139.665 12.468 140.073 13.224C140.493 13.968 140.703 14.826 140.703 15.798ZM138.093 15.078C138.081 14.43 137.847 13.914 137.391 13.53C136.935 13.134 136.377 12.936 135.717 12.936C135.093 12.936 134.565 13.128 134.133 13.512C133.713 13.884 133.455 14.406 133.359 15.078H138.093ZM141.895 16.014C141.895 14.982 142.105 14.082 142.525 13.314C142.945 12.534 143.527 11.934 144.271 11.514C145.015 11.082 145.867 10.866 146.827 10.866C148.063 10.866 149.083 11.178 149.887 11.802C150.703 12.414 151.249 13.278 151.525 14.394H148.807C148.663 13.962 148.417 13.626 148.069 13.386C147.733 13.134 147.313 13.008 146.809 13.008C146.089 13.008 145.519 13.272 145.099 13.8C144.679 14.316 144.469 15.054 144.469 16.014C144.469 16.962 144.679 17.7 145.099 18.228C145.519 18.744 146.089 19.002 146.809 19.002C147.829 19.002 148.495 18.546 148.807 17.634H151.525C151.249 18.714 150.703 19.572 149.887 20.208C149.071 20.844 148.051 21.162 146.827 21.162C145.867 21.162 145.015 20.952 144.271 20.532C143.527 20.1 142.945 19.5 142.525 18.732C142.105 17.952 141.895 17.046 141.895 16.014ZM156.305 13.098V17.922C156.305 18.258 156.383 18.504 156.539 18.66C156.707 18.804 156.983 18.876 157.367 18.876H158.537V21H156.953C154.829 21 153.767 19.968 153.767 17.904V13.098H152.579V11.028H153.767V8.562H156.305V11.028H158.537V13.098H156.305Z" fill="white"/>
<path d="M202.354 15.3536C202.549 15.1583 202.549 14.8417 202.354 14.6464L199.172 11.4645C198.976 11.2692 198.66 11.2692 198.464 11.4645C198.269 11.6597 198.269 11.9763 198.464 12.1716L201.293 15L198.464 17.8284C198.269 18.0237 198.269 18.3403 198.464 18.5355C198.66 18.7308 198.976 18.7308 199.172 18.5355L202.354 15.3536ZM167 15.5L202 15.5L202 14.5L167 14.5L167 15.5Z" fill="white"/>
</svg>
