<svg width="114" height="114" viewBox="0 0 114 114" fill="none" xmlns="http://www.w3.org/2000/svg">
<g filter="url(#filter0_d_3309_2086)">
<rect x="16" y="16" width="62" height="62" rx="10" fill="#0252CD"/>
</g>
<path d="M38.4999 52.25V56H42.2499L53.3099 44.93L49.5599 41.18L38.4999 52.25ZM58.1099 53.36L53.8599 57.61L48.6599 52.41L50.4299 50.64L51.4299 51.64L53.8999 49.16L55.3199 50.58L53.8599 52L54.9199 53L56.3399 51.6L58.1099 53.36ZM42.1099 45.83L36.8899 40.64L41.1399 36.39L42.8999 38.16L40.4299 40.64L41.4999 41.7L43.9599 39.22L45.3799 40.64L43.9599 42.05L44.9599 43.05L42.1099 45.83ZM56.2099 42C56.5999 41.61 56.5999 41 56.2099 40.59L53.8699 38.29C53.4999 37.9 52.8499 37.9 52.4599 38.29L50.6199 40.12L54.3699 43.87L56.2099 42Z" fill="white"/>
<defs>
<filter id="filter0_d_3309_2086" x="0" y="0" width="114" height="114" filterUnits="userSpaceOnUse" color-interpolation-filters="sRGB">
<feFlood flood-opacity="0" result="BackgroundImageFix"/>
<feColorMatrix in="SourceAlpha" type="matrix" values="0 0 0 0 0 0 0 0 0 0 0 0 0 0 0 0 0 0 127 0" result="hardAlpha"/>
<feOffset dx="10" dy="10"/>
<feGaussianBlur stdDeviation="13"/>
<feComposite in2="hardAlpha" operator="out"/>
<feColorMatrix type="matrix" values="0 0 0 0 0.00784314 0 0 0 0 0.321569 0 0 0 0 0.803922 0 0 0 0.28 0"/>
<feBlend mode="normal" in2="BackgroundImageFix" result="effect1_dropShadow_3309_2086"/>
<feBlend mode="normal" in="SourceGraphic" in2="effect1_dropShadow_3309_2086" result="shape"/>
</filter>
</defs>
</svg>
