<svg width="63" height="62" viewBox="0 0 63 62" fill="none" xmlns="http://www.w3.org/2000/svg">
<rect x="0.547607" width="62" height="62" rx="10" fill="white"/>
<path d="M40.5256 32.21C40.5667 32.0193 40.551 31.8207 40.4807 31.6388C40.4103 31.4568 40.2883 31.2994 40.1296 31.186L26.1296 21.186C25.972 21.0727 25.7849 21.0077 25.5911 20.999C25.3972 20.9904 25.2051 21.0383 25.038 21.1371C24.871 21.2358 24.7363 21.381 24.6505 21.5551C24.5646 21.7291 24.5313 21.9243 24.5546 22.117L26.5546 39.117C26.5776 39.3119 26.6575 39.4957 26.7842 39.6455C26.911 39.7953 27.079 39.9046 27.2674 39.9596C27.4558 40.0146 27.6562 40.013 27.8436 39.9549C28.0311 39.8968 28.1973 39.7848 28.3216 39.633L31.9336 35.217L35.3106 40.677L37.0116 39.625L33.6546 34.197L39.7436 32.979C39.9349 32.9415 40.1111 32.8487 40.2501 32.7119C40.3891 32.5752 40.4849 32.4007 40.5256 32.21Z" fill="#0252CD"/>
</svg>
