<svg width="104" height="100" viewBox="0 0 104 100" fill="none" xmlns="http://www.w3.org/2000/svg">
<circle cx="50.3447" cy="50" r="50" fill="#192333"/>
<path d="M40.4072 46.4062C41.8656 40.5729 45.5114 37.6562 51.3447 37.6562C60.0947 37.6562 61.1885 44.2187 65.5635 45.3125C68.4801 46.0417 71.0322 44.9479 73.2197 42.0312C71.7614 47.8646 68.1156 50.7812 62.2822 50.7812C53.5322 50.7812 52.4385 44.2188 48.0635 43.125C45.1468 42.3958 42.5947 43.4896 40.4072 46.4062ZM29.4697 59.5312C30.9281 53.6979 34.5739 50.7812 40.4072 50.7812C49.1572 50.7812 50.251 57.3437 54.626 58.4375C57.5426 59.1667 60.0947 58.0729 62.2822 55.1562C60.8239 60.9896 57.1781 63.9062 51.3447 63.9062C42.5947 63.9062 41.501 57.3438 37.126 56.25C34.2093 55.5208 31.6572 56.6146 29.4697 59.5312Z" fill="#778295"/>
</svg>
