<svg width="210" height="57" viewBox="0 0 210 57" fill="none" xmlns="http://www.w3.org/2000/svg">
<rect y="40" width="210" height="15" fill="#FFBE62"/>
<path d="M43.4388 10.304V44H35.2308V23.792L27.6948 44H21.0708L13.4868 23.744V44H5.27881V10.304H14.9748L24.4308 33.632L33.7908 10.304H43.4388ZM76.2213 17.216L59.4213 56.72H50.5893L56.7333 43.088L45.8373 17.216H55.0053L61.1973 33.968L67.3413 17.216H76.2213ZM99.2973 44.384C96.9613 44.384 94.8813 43.984 93.0573 43.184C91.2333 42.384 89.7933 41.296 88.7373 39.92C87.6813 38.512 87.0893 36.944 86.9613 35.216H95.0733C95.1693 36.144 95.6013 36.896 96.3693 37.472C97.1373 38.048 98.0813 38.336 99.2013 38.336C100.225 38.336 101.009 38.144 101.553 37.76C102.129 37.344 102.417 36.816 102.417 36.176C102.417 35.408 102.017 34.848 101.217 34.496C100.417 34.112 99.1213 33.696 97.3293 33.248C95.4093 32.8 93.8093 32.336 92.5293 31.856C91.2493 31.344 90.1453 30.56 89.2173 29.504C88.2893 28.416 87.8253 26.96 87.8253 25.136C87.8253 23.6 88.2413 22.208 89.0733 20.96C89.9373 19.68 91.1853 18.672 92.8173 17.936C94.4813 17.2 96.4493 16.832 98.7213 16.832C102.081 16.832 104.721 17.664 106.641 19.328C108.593 20.992 109.713 23.2 110.001 25.952H102.417C102.289 25.024 101.873 24.288 101.169 23.744C100.497 23.2 99.6013 22.928 98.4813 22.928C97.5213 22.928 96.7853 23.12 96.2733 23.504C95.7613 23.856 95.5053 24.352 95.5053 24.992C95.5053 25.76 95.9053 26.336 96.7053 26.72C97.5373 27.104 98.8173 27.488 100.545 27.872C102.529 28.384 104.145 28.896 105.393 29.408C106.641 29.888 107.729 30.688 108.657 31.808C109.617 32.896 110.113 34.368 110.145 36.224C110.145 37.792 109.697 39.2 108.801 40.448C107.937 41.664 106.673 42.624 105.009 43.328C103.377 44.032 101.473 44.384 99.2973 44.384ZM131.055 44L122.895 32.768V44H114.687V8.48H122.895V28.112L131.007 17.216H141.135L129.999 30.656L141.231 44H131.055ZM148.007 14.432C146.567 14.432 145.383 14.016 144.455 13.184C143.559 12.32 143.111 11.264 143.111 10.016C143.111 8.736 143.559 7.68 144.455 6.848C145.383 5.984 146.567 5.552 148.007 5.552C149.415 5.552 150.567 5.984 151.463 6.848C152.391 7.68 152.855 8.736 152.855 10.016C152.855 11.264 152.391 12.32 151.463 13.184C150.567 14.016 149.415 14.432 148.007 14.432ZM152.087 17.216V44H143.879V17.216H152.087ZM165.763 8.48V44H157.555V8.48H165.763ZM179.439 8.48V44H171.231V8.48H179.439ZM195.804 44.384C193.468 44.384 191.388 43.984 189.564 43.184C187.74 42.384 186.3 41.296 185.244 39.92C184.188 38.512 183.596 36.944 183.468 35.216H191.58C191.676 36.144 192.108 36.896 192.876 37.472C193.644 38.048 194.588 38.336 195.708 38.336C196.732 38.336 197.516 38.144 198.06 37.76C198.636 37.344 198.924 36.816 198.924 36.176C198.924 35.408 198.524 34.848 197.724 34.496C196.924 34.112 195.628 33.696 193.836 33.248C191.916 32.8 190.316 32.336 189.036 31.856C187.756 31.344 186.652 30.56 185.724 29.504C184.796 28.416 184.332 26.96 184.332 25.136C184.332 23.6 184.748 22.208 185.58 20.96C186.444 19.68 187.692 18.672 189.324 17.936C190.988 17.2 192.956 16.832 195.228 16.832C198.588 16.832 201.228 17.664 203.148 19.328C205.1 20.992 206.22 23.2 206.508 25.952H198.924C198.796 25.024 198.38 24.288 197.676 23.744C197.004 23.2 196.108 22.928 194.988 22.928C194.028 22.928 193.292 23.12 192.78 23.504C192.268 23.856 192.012 24.352 192.012 24.992C192.012 25.76 192.412 26.336 193.212 26.72C194.044 27.104 195.324 27.488 197.052 27.872C199.036 28.384 200.652 28.896 201.9 29.408C203.148 29.888 204.236 30.688 205.164 31.808C206.124 32.896 206.62 34.368 206.652 36.224C206.652 37.792 206.204 39.2 205.308 40.448C204.444 41.664 203.18 42.624 201.516 43.328C199.884 44.032 197.98 44.384 195.804 44.384Z" fill="#151E2C"/>
</svg>
