<svg width="104" height="100" viewBox="0 0 104 100" fill="none" xmlns="http://www.w3.org/2000/svg">
<circle cx="50.8786" cy="50" r="50" fill="#F3F8FF"/>
<g clip-path="url(#clip0_3718_266)">
<path d="M69.3786 25H34.3786C30.2365 25 26.8786 28.3579 26.8786 32.5V67.5C26.8786 71.6421 30.2365 75 34.3786 75H69.3786C73.5207 75 76.8786 71.6421 76.8786 67.5V32.5C76.8786 28.3579 73.5207 25 69.3786 25Z" fill="#3178C6"/>
<path d="M49.6325 52.7344H55.8825V48.7305H38.402V52.7344H44.652V70.6055H49.6325V52.7344ZM57.8356 69.6289C58.6266 70.0391 59.5934 70.3418 60.6677 70.5469C61.7419 70.752 62.9138 70.8496 64.0856 70.8496C65.2575 70.8496 66.3317 70.7422 67.4059 70.5176C68.4802 70.293 69.3591 69.9219 70.1403 69.4434C70.9313 68.9258 71.6052 68.2715 71.9958 67.3926C72.3864 66.5137 72.6891 65.5371 72.6891 64.2676C72.6891 63.3789 72.5524 62.6074 72.2888 61.9238C72.0251 61.2402 71.6442 60.6543 71.1169 60.166C70.6188 59.6484 70.0427 59.1895 69.3591 58.7988C68.6755 58.4082 67.8942 57.998 67.0153 57.627C66.3708 57.3633 65.8434 57.1094 65.2575 56.8555C64.7497 56.6016 64.3102 56.3477 63.988 56.0937C63.6266 55.8301 63.3532 55.5566 63.1579 55.2734C62.9626 54.9805 62.8649 54.6582 62.8649 54.2969C62.8649 53.9648 62.9518 53.6621 63.1286 53.3887C63.3054 53.1152 63.5485 52.8906 63.861 52.6953C64.1735 52.5 64.5641 52.3535 65.0329 52.2461C65.4919 52.1387 65.9997 52.0898 66.5954 52.0898C67.0056 52.0898 67.4352 52.1201 67.8649 52.1816C68.3141 52.2432 68.7731 52.3379 69.2321 52.4648C69.6911 52.5918 70.1403 52.748 70.5993 52.9434C71.029 53.1387 71.4294 53.3633 71.7712 53.6172V49.0273C71.029 48.7441 70.2087 48.5293 69.3298 48.3926C68.4509 48.2559 67.4743 48.1875 66.3024 48.1875C65.1306 48.1875 64.0563 48.3145 62.9821 48.5586C61.9079 48.8027 61.029 49.1934 60.2477 49.7305C59.4567 50.2578 58.8806 50.9023 58.3923 51.7812C57.9333 52.6016 57.7087 53.5391 57.7087 54.7109C57.7087 56.1758 58.1286 57.4453 58.9782 58.4219C59.8181 59.4961 61.1266 60.2773 62.7868 61.0586C63.4606 61.332 64.0563 61.6055 64.6423 61.8691C65.2282 62.1328 65.7165 62.4062 66.1071 62.6895C66.527 62.9727 66.8591 63.2852 67.0837 63.6172C67.3278 63.9492 67.4548 64.3398 67.4548 64.7891C67.4548 65.1016 67.3786 65.3945 67.2302 65.668C67.0817 65.9414 66.8493 66.1758 66.5368 66.3711C66.2243 66.5664 65.8434 66.7227 65.3649 66.8398C64.9059 66.9473 64.3884 67.0059 63.7048 67.0059C62.6306 67.0059 61.5563 66.8203 60.5798 66.4492C59.5056 66.0781 58.529 65.5215 57.8356 64.9414V69.6289Z" fill="white"/>
</g>
<defs>
<clipPath id="clip0_3718_266">
<rect width="50" height="50" fill="white" transform="translate(26.8786 25)"/>
</clipPath>
</defs>
</svg>
