<svg width="104" height="100" viewBox="0 0 104 100" fill="none" xmlns="http://www.w3.org/2000/svg">
<circle cx="50.8784" cy="50" r="50" fill="#192333"/>
<g clip-path="url(#clip0_3313_11464)">
<path d="M69.3784 25H34.3784C30.2363 25 26.8784 28.3579 26.8784 32.5V67.5C26.8784 71.6421 30.2363 75 34.3784 75H69.3784C73.5206 75 76.8784 71.6421 76.8784 67.5V32.5C76.8784 28.3579 73.5206 25 69.3784 25Z" fill="#778295"/>
<path d="M49.6323 52.7344H55.8823V48.7305H38.4019V52.7344H44.6519V70.6055H49.6323V52.7344ZM57.8354 69.6289C58.6265 70.0391 59.5933 70.3418 60.6675 70.5469C61.7417 70.752 62.9136 70.8496 64.0854 70.8496C65.2573 70.8496 66.3315 70.7422 67.4058 70.5176C68.48 70.293 69.3589 69.9219 70.1401 69.4434C70.9312 68.9258 71.605 68.2715 71.9956 67.3926C72.3862 66.5137 72.689 65.5371 72.689 64.2676C72.689 63.3789 72.5522 62.6074 72.2886 61.9238C72.0249 61.2402 71.644 60.6543 71.1167 60.166C70.6187 59.6484 70.0425 59.1895 69.3589 58.7988C68.6753 58.4082 67.894 57.998 67.0151 57.627C66.3706 57.3633 65.8433 57.1094 65.2573 56.8555C64.7495 56.6016 64.3101 56.3477 63.9878 56.0937C63.6265 55.8301 63.353 55.5566 63.1577 55.2734C62.9624 54.9805 62.8647 54.6582 62.8647 54.2969C62.8647 53.9648 62.9517 53.6621 63.1284 53.3887C63.3052 53.1152 63.5483 52.8906 63.8608 52.6953C64.1733 52.5 64.564 52.3535 65.0327 52.2461C65.4917 52.1387 65.9995 52.0898 66.5952 52.0898C67.0054 52.0898 67.4351 52.1201 67.8647 52.1816C68.314 52.2432 68.773 52.3379 69.2319 52.4648C69.6909 52.5918 70.1401 52.748 70.5991 52.9434C71.0288 53.1387 71.4292 53.3633 71.771 53.6172V49.0273C71.0288 48.7441 70.2085 48.5293 69.3296 48.3926C68.4507 48.2559 67.4741 48.1875 66.3022 48.1875C65.1304 48.1875 64.0562 48.3145 62.9819 48.5586C61.9077 48.8027 61.0288 49.1934 60.2476 49.7305C59.4565 50.2578 58.8804 50.9023 58.3921 51.7812C57.9331 52.6016 57.7085 53.5391 57.7085 54.7109C57.7085 56.1758 58.1284 57.4453 58.978 58.4219C59.8179 59.4961 61.1265 60.2773 62.7866 61.0586C63.4605 61.332 64.0562 61.6055 64.6421 61.8691C65.228 62.1328 65.7163 62.4062 66.1069 62.6895C66.5269 62.9727 66.8589 63.2852 67.0835 63.6172C67.3276 63.9492 67.4546 64.3398 67.4546 64.7891C67.4546 65.1016 67.3784 65.3945 67.23 65.668C67.0815 65.9414 66.8491 66.1758 66.5366 66.3711C66.2241 66.5664 65.8433 66.7227 65.3647 66.8398C64.9058 66.9473 64.3882 67.0059 63.7046 67.0059C62.6304 67.0059 61.5562 66.8203 60.5796 66.4492C59.5054 66.0781 58.5288 65.5215 57.8354 64.9414V69.6289Z" fill="white"/>
</g>
<defs>
<clipPath id="clip0_3313_11464">
<rect width="50" height="50" fill="white" transform="translate(26.8784 25)"/>
</clipPath>
</defs>
</svg>
