<svg width="404" height="52" viewBox="0 0 404 52" fill="none" xmlns="http://www.w3.org/2000/svg">
<path d="M48.344 5.304L39.56 39H29.624L24.248 16.824L18.68 39H8.744L0.2 5.304H8.984L13.832 29.832L19.832 5.304H28.856L34.616 29.832L39.512 5.304H48.344ZM64.1724 39.384C61.5484 39.384 59.1804 38.824 57.0684 37.704C54.9884 36.584 53.3404 34.984 52.1244 32.904C50.9404 30.824 50.3484 28.392 50.3484 25.608C50.3484 22.856 50.9564 20.44 52.1724 18.36C53.3884 16.248 55.0524 14.632 57.1644 13.512C59.2764 12.392 61.6444 11.832 64.2684 11.832C66.8924 11.832 69.2604 12.392 71.3724 13.512C73.4844 14.632 75.1484 16.248 76.3644 18.36C77.5804 20.44 78.1884 22.856 78.1884 25.608C78.1884 28.36 77.5644 30.792 76.3164 32.904C75.1004 34.984 73.4204 36.584 71.2764 37.704C69.1644 38.824 66.7964 39.384 64.1724 39.384ZM64.1724 32.28C65.7404 32.28 67.0684 31.704 68.1564 30.552C69.2764 29.4 69.8364 27.752 69.8364 25.608C69.8364 23.464 69.2924 21.816 68.2044 20.664C67.1484 19.512 65.8364 18.936 64.2684 18.936C62.6684 18.936 61.3404 19.512 60.2844 20.664C59.2284 21.784 58.7004 23.432 58.7004 25.608C58.7004 27.752 59.2124 29.4 60.2364 30.552C61.2924 31.704 62.6044 32.28 64.1724 32.28ZM90.2709 16.68C91.2309 15.208 92.4309 14.056 93.8709 13.224C95.3109 12.36 96.9109 11.928 98.6709 11.928V20.616H96.4149C94.3669 20.616 92.8309 21.064 91.8069 21.96C90.7829 22.824 90.2709 24.36 90.2709 26.568V39H82.0629V12.216H90.2709V16.68ZM118.482 39L110.322 27.768V39H102.114V3.48H110.322V23.112L118.434 12.216H128.562L117.426 25.656L128.658 39H118.482ZM149.206 11.88V18.696H160.198V25.032H149.206V32.424H161.638V39H140.998V5.304H161.638V11.88H149.206ZM182.327 39L177.191 31.56L172.871 39H163.991L172.823 25.32L163.751 12.216H172.967L178.103 19.608L182.423 12.216H191.303L182.327 25.704L191.543 39H182.327ZM202.433 16.008C203.233 14.76 204.337 13.752 205.745 12.984C207.153 12.216 208.801 11.832 210.689 11.832C212.897 11.832 214.897 12.392 216.689 13.512C218.481 14.632 219.889 16.232 220.913 18.312C221.969 20.392 222.497 22.808 222.497 25.56C222.497 28.312 221.969 30.744 220.913 32.856C219.889 34.936 218.481 36.552 216.689 37.704C214.897 38.824 212.897 39.384 210.689 39.384C208.833 39.384 207.185 39 205.745 38.232C204.337 37.464 203.233 36.472 202.433 35.256V51.768H194.225V12.216H202.433V16.008ZM214.145 25.56C214.145 23.512 213.569 21.912 212.417 20.76C211.297 19.576 209.905 18.984 208.241 18.984C206.609 18.984 205.217 19.576 204.065 20.76C202.945 21.944 202.385 23.56 202.385 25.608C202.385 27.656 202.945 29.272 204.065 30.456C205.217 31.64 206.609 32.232 208.241 32.232C209.873 32.232 211.265 31.64 212.417 30.456C213.569 29.24 214.145 27.608 214.145 25.56ZM251.572 25.176C251.572 25.944 251.524 26.744 251.428 27.576H232.852C232.98 29.24 233.508 30.52 234.436 31.416C235.396 32.28 236.564 32.712 237.94 32.712C239.988 32.712 241.412 31.848 242.212 30.12H250.948C250.5 31.88 249.684 33.464 248.5 34.872C247.348 36.28 245.892 37.384 244.132 38.184C242.372 38.984 240.404 39.384 238.228 39.384C235.604 39.384 233.268 38.824 231.22 37.704C229.172 36.584 227.572 34.984 226.42 32.904C225.268 30.824 224.692 28.392 224.692 25.608C224.692 22.824 225.252 20.392 226.372 18.312C227.524 16.232 229.124 14.632 231.172 13.512C233.22 12.392 235.572 11.832 238.228 11.832C240.82 11.832 243.124 12.376 245.14 13.464C247.156 14.552 248.724 16.104 249.844 18.12C250.996 20.136 251.572 22.488 251.572 25.176ZM243.172 23.016C243.172 21.608 242.692 20.488 241.732 19.656C240.772 18.824 239.572 18.408 238.132 18.408C236.756 18.408 235.588 18.808 234.628 19.608C233.7 20.408 233.124 21.544 232.9 23.016H243.172ZM263.63 16.68C264.59 15.208 265.79 14.056 267.23 13.224C268.67 12.36 270.27 11.928 272.03 11.928V20.616H269.774C267.726 20.616 266.19 21.064 265.166 21.96C264.142 22.824 263.63 24.36 263.63 26.568V39H255.422V12.216H263.63V16.68ZM279.601 9.432C278.161 9.432 276.977 9.016 276.049 8.184C275.153 7.32 274.705 6.264 274.705 5.016C274.705 3.736 275.153 2.68 276.049 1.848C276.977 0.983997 278.161 0.551997 279.601 0.551997C281.009 0.551997 282.161 0.983997 283.057 1.848C283.985 2.68 284.449 3.736 284.449 5.016C284.449 6.264 283.985 7.32 283.057 8.184C282.161 9.016 281.009 9.432 279.601 9.432ZM283.681 12.216V39H275.473V12.216H283.681ZM314.397 25.176C314.397 25.944 314.349 26.744 314.253 27.576H295.677C295.805 29.24 296.333 30.52 297.261 31.416C298.221 32.28 299.389 32.712 300.765 32.712C302.813 32.712 304.237 31.848 305.037 30.12H313.773C313.325 31.88 312.509 33.464 311.325 34.872C310.173 36.28 308.717 37.384 306.957 38.184C305.197 38.984 303.229 39.384 301.053 39.384C298.429 39.384 296.093 38.824 294.045 37.704C291.997 36.584 290.397 34.984 289.245 32.904C288.093 30.824 287.517 28.392 287.517 25.608C287.517 22.824 288.077 20.392 289.197 18.312C290.349 16.232 291.949 14.632 293.997 13.512C296.045 12.392 298.397 11.832 301.053 11.832C303.645 11.832 305.949 12.376 307.965 13.464C309.981 14.552 311.549 16.104 312.669 18.12C313.821 20.136 314.397 22.488 314.397 25.176ZM305.997 23.016C305.997 21.608 305.517 20.488 304.557 19.656C303.597 18.824 302.397 18.408 300.957 18.408C299.581 18.408 298.413 18.808 297.453 19.608C296.525 20.408 295.949 21.544 295.725 23.016H305.997ZM334.567 11.928C337.703 11.928 340.199 12.952 342.055 15C343.943 17.016 344.887 19.8 344.887 23.352V39H336.727V24.456C336.727 22.664 336.263 21.272 335.335 20.28C334.407 19.288 333.159 18.792 331.591 18.792C330.023 18.792 328.775 19.288 327.847 20.28C326.919 21.272 326.455 22.664 326.455 24.456V39H318.247V12.216H326.455V15.768C327.287 14.584 328.407 13.656 329.815 12.984C331.223 12.28 332.807 11.928 334.567 11.928ZM348.479 25.608C348.479 22.824 349.039 20.392 350.159 18.312C351.311 16.232 352.895 14.632 354.911 13.512C356.959 12.392 359.295 11.832 361.919 11.832C365.279 11.832 368.079 12.712 370.319 14.472C372.591 16.232 374.079 18.712 374.783 21.912H366.047C365.311 19.864 363.887 18.84 361.775 18.84C360.271 18.84 359.071 19.432 358.175 20.616C357.279 21.768 356.831 23.432 356.831 25.608C356.831 27.784 357.279 29.464 358.175 30.648C359.071 31.8 360.271 32.376 361.775 32.376C363.887 32.376 365.311 31.352 366.047 29.304H374.783C374.079 32.44 372.591 34.904 370.319 36.696C368.047 38.488 365.247 39.384 361.919 39.384C359.295 39.384 356.959 38.824 354.911 37.704C352.895 36.584 351.311 34.984 350.159 32.904C349.039 30.824 348.479 28.392 348.479 25.608ZM403.941 25.176C403.941 25.944 403.893 26.744 403.798 27.576H385.221C385.349 29.24 385.877 30.52 386.805 31.416C387.765 32.28 388.933 32.712 390.309 32.712C392.358 32.712 393.781 31.848 394.581 30.12H403.318C402.87 31.88 402.054 33.464 400.87 34.872C399.718 36.28 398.262 37.384 396.502 38.184C394.741 38.984 392.773 39.384 390.597 39.384C387.973 39.384 385.637 38.824 383.589 37.704C381.541 36.584 379.941 34.984 378.789 32.904C377.637 30.824 377.061 28.392 377.061 25.608C377.061 22.824 377.621 20.392 378.741 18.312C379.893 16.232 381.493 14.632 383.541 13.512C385.589 12.392 387.941 11.832 390.597 11.832C393.189 11.832 395.494 12.376 397.51 13.464C399.525 14.552 401.094 16.104 402.214 18.12C403.365 20.136 403.941 22.488 403.941 25.176ZM395.541 23.016C395.541 21.608 395.061 20.488 394.101 19.656C393.141 18.824 391.941 18.408 390.502 18.408C389.125 18.408 387.957 18.808 386.997 19.608C386.069 20.408 385.493 21.544 385.269 23.016H395.541Z" fill="#151E2C"/>
</svg>
