<svg width="154" height="26" viewBox="0 0 154 26" fill="none" xmlns="http://www.w3.org/2000/svg">
<path d="M10 4C7.61305 4 5.32387 4.94821 3.63604 6.63604C1.94821 8.32387 1 10.6131 1 13C1 15.3869 1.94821 17.6761 3.63604 19.364C5.32387 21.0518 7.61305 22 10 22C12.3869 22 14.6761 21.0518 16.364 19.364C18.0518 17.6761 19 15.3869 19 13C19 10.6131 18.0518 8.32387 16.364 6.63604C14.6761 4.94821 12.3869 4 10 4ZM17.5 10.48C17.3645 10.9235 17.1392 11.3343 16.8382 11.687C16.5371 12.0397 16.1667 12.3266 15.75 12.53C15.528 11.6965 15.1178 10.925 14.5509 10.2749C13.984 9.62482 13.2755 9.1134 12.48 8.78C12.6095 8.3363 12.8886 7.95113 13.27 7.69C12.84 7.41 12.27 7.27 11.93 7.76C11.4 8.45 11.93 9.37 12.14 9.76V9.9C11.5848 9.56323 11.1506 9.05906 10.9 8.46C9.93375 8.42897 8.97797 8.66791 8.14 9.15C8.05301 8.5854 8.108 8.00803 8.3 7.47C8.66111 7.50447 9.02515 7.44952 9.36 7.31C9.69485 7.17048 9.9902 6.95068 10.22 6.67C10.68 6.15 10.09 5.49 9.63 5.09H9.99C11.3514 5.08082 12.6918 5.4254 13.88 6.09C14.5516 6.58635 15.1039 7.22637 15.4966 7.96337C15.8893 8.70036 16.1126 9.51574 16.15 10.35C16.39 10.35 16.85 9.8 17.06 9.43C17.232 9.769 17.379 10.12 17.5 10.48ZM10 20.84C7.95 18.76 10.25 17.09 9 15.6C8.08 14.75 6.71 15.34 5.89 14.37C5.75158 13.6469 5.81142 12.8997 6.06317 12.2078C6.31493 11.516 6.74922 10.9051 7.32 10.44C7.84 10 11.32 9.44 12.74 10.66C13.5705 11.3753 14.1548 12.334 14.41 13.4C14.8689 13.4347 15.3279 13.3338 15.73 13.11C16.14 16.09 12.58 19.85 10 20.84ZM6.15 6.09C6.53218 5.94429 6.95202 5.93007 7.34318 6.04959C7.73434 6.16911 8.07453 6.41556 8.31 6.75C7.89 7.13 7.37 7.38 6.81 7.47C6.83068 7.17555 6.8947 6.88576 7 6.61L6.15 6.09Z" fill="#0252CD"/>
<path d="M29.26 6.04C30.7267 6.04 32.0133 6.32667 33.12 6.9C34.24 7.47333 35.1 8.29333 35.7 9.36C36.3133 10.4133 36.62 11.64 36.62 13.04C36.62 14.44 36.3133 15.6667 35.7 16.72C35.1 17.76 34.24 18.5667 33.12 19.14C32.0133 19.7133 30.7267 20 29.26 20H24.38V6.04H29.26ZM29.16 17.62C30.6267 17.62 31.76 17.22 32.56 16.42C33.36 15.62 33.76 14.4933 33.76 13.04C33.76 11.5867 33.36 10.4533 32.56 9.64C31.76 8.81333 30.6267 8.4 29.16 8.4H27.18V17.62H29.16ZM49.0159 14.22C49.0159 14.62 48.9893 14.98 48.9359 15.3H40.8359C40.9026 16.1 41.1826 16.7267 41.6759 17.18C42.1693 17.6333 42.7759 17.86 43.4959 17.86C44.5359 17.86 45.2759 17.4133 45.7159 16.52H48.7359C48.4159 17.5867 47.8026 18.4667 46.8959 19.16C45.9893 19.84 44.8759 20.18 43.5559 20.18C42.4893 20.18 41.5293 19.9467 40.6759 19.48C39.8359 19 39.1759 18.3267 38.6959 17.46C38.2293 16.5933 37.9959 15.5933 37.9959 14.46C37.9959 13.3133 38.2293 12.3067 38.6959 11.44C39.1626 10.5733 39.8159 9.90667 40.6559 9.44C41.4959 8.97333 42.4626 8.74 43.5559 8.74C44.6093 8.74 45.5493 8.96667 46.3759 9.42C47.2159 9.87333 47.8626 10.52 48.3159 11.36C48.7826 12.1867 49.0159 13.14 49.0159 14.22ZM46.1159 13.42C46.1026 12.7 45.8426 12.1267 45.3359 11.7C44.8293 11.26 44.2093 11.04 43.4759 11.04C42.7826 11.04 42.1959 11.2533 41.7159 11.68C41.2493 12.0933 40.9626 12.6733 40.8559 13.42H46.1159ZM64.8197 8.76C66.1797 8.76 67.273 9.18 68.0997 10.02C68.9397 10.8467 69.3597 12.0067 69.3597 13.5V20H66.5597V13.88C66.5597 13.0133 66.3397 12.3533 65.8997 11.9C65.4597 11.4333 64.8597 11.2 64.0997 11.2C63.3397 11.2 62.733 11.4333 62.2797 11.9C61.8397 12.3533 61.6197 13.0133 61.6197 13.88V20H58.8197V13.88C58.8197 13.0133 58.5997 12.3533 58.1597 11.9C57.7197 11.4333 57.1197 11.2 56.3597 11.2C55.5864 11.2 54.973 11.4333 54.5197 11.9C54.0797 12.3533 53.8597 13.0133 53.8597 13.88V20H51.0597V8.92H53.8597V10.26C54.2197 9.79333 54.6797 9.42667 55.2397 9.16C55.813 8.89333 56.4397 8.76 57.1197 8.76C57.9864 8.76 58.7597 8.94667 59.4397 9.32C60.1197 9.68 60.6464 10.2 61.0197 10.88C61.3797 10.24 61.8997 9.72667 62.5797 9.34C63.273 8.95333 64.0197 8.76 64.8197 8.76ZM76.9367 20.18C75.8701 20.18 74.9101 19.9467 74.0567 19.48C73.2034 19 72.5301 18.3267 72.0367 17.46C71.5567 16.5933 71.3167 15.5933 71.3167 14.46C71.3167 13.3267 71.5634 12.3267 72.0567 11.46C72.5634 10.5933 73.2501 9.92667 74.1167 9.46C74.9834 8.98 75.9501 8.74 77.0167 8.74C78.0834 8.74 79.0501 8.98 79.9167 9.46C80.7834 9.92667 81.4634 10.5933 81.9567 11.46C82.4634 12.3267 82.7167 13.3267 82.7167 14.46C82.7167 15.5933 82.4567 16.5933 81.9367 17.46C81.4301 18.3267 80.7367 19 79.8567 19.48C78.9901 19.9467 78.0167 20.18 76.9367 20.18ZM76.9367 17.74C77.4434 17.74 77.9167 17.62 78.3567 17.38C78.8101 17.1267 79.1701 16.7533 79.4367 16.26C79.7034 15.7667 79.8367 15.1667 79.8367 14.46C79.8367 13.4067 79.5567 12.6 78.9967 12.04C78.4501 11.4667 77.7767 11.18 76.9767 11.18C76.1767 11.18 75.5034 11.4667 74.9567 12.04C74.4234 12.6 74.1567 13.4067 74.1567 14.46C74.1567 15.5133 74.4167 16.3267 74.9367 16.9C75.4701 17.46 76.1367 17.74 76.9367 17.74ZM94.3563 20.14C93.3829 20.14 92.5029 19.9733 91.7163 19.64C90.9429 19.3067 90.3296 18.8267 89.8763 18.2C89.4229 17.5733 89.1896 16.8333 89.1763 15.98H92.1763C92.2163 16.5533 92.4163 17.0067 92.7763 17.34C93.1496 17.6733 93.6563 17.84 94.2963 17.84C94.9496 17.84 95.4629 17.6867 95.8363 17.38C96.2096 17.06 96.3963 16.6467 96.3963 16.14C96.3963 15.7267 96.2696 15.3867 96.0163 15.12C95.7629 14.8533 95.4429 14.6467 95.0563 14.5C94.6829 14.34 94.1629 14.1667 93.4963 13.98C92.5896 13.7133 91.8496 13.4533 91.2763 13.2C90.7163 12.9333 90.2296 12.54 89.8163 12.02C89.4163 11.4867 89.2163 10.78 89.2163 9.9C89.2163 9.07333 89.4229 8.35333 89.8363 7.74C90.2496 7.12667 90.8296 6.66 91.5763 6.34C92.3229 6.00667 93.1763 5.84 94.1363 5.84C95.5763 5.84 96.7429 6.19333 97.6363 6.9C98.5429 7.59333 99.0429 8.56667 99.1363 9.82H96.0563C96.0296 9.34 95.8229 8.94667 95.4363 8.64C95.0629 8.32 94.5629 8.16 93.9363 8.16C93.3896 8.16 92.9496 8.3 92.6163 8.58C92.2963 8.86 92.1363 9.26667 92.1363 9.8C92.1363 10.1733 92.2563 10.4867 92.4963 10.74C92.7496 10.98 93.0563 11.18 93.4163 11.34C93.7896 11.4867 94.3096 11.66 94.9763 11.86C95.8829 12.1267 96.6229 12.3933 97.1963 12.66C97.7696 12.9267 98.2629 13.3267 98.6763 13.86C99.0896 14.3933 99.2963 15.0933 99.2963 15.96C99.2963 16.7067 99.1029 17.4 98.7162 18.04C98.3296 18.68 97.7629 19.1933 97.0163 19.58C96.2696 19.9533 95.3829 20.14 94.3563 20.14ZM103.144 7.6C102.65 7.6 102.237 7.44667 101.904 7.14C101.584 6.82 101.424 6.42667 101.424 5.96C101.424 5.49333 101.584 5.10667 101.904 4.8C102.237 4.48 102.65 4.32 103.144 4.32C103.637 4.32 104.044 4.48 104.364 4.8C104.697 5.10667 104.864 5.49333 104.864 5.96C104.864 6.42667 104.697 6.82 104.364 7.14C104.044 7.44667 103.637 7.6 103.144 7.6ZM104.524 8.92V20H101.724V8.92H104.524ZM110.55 11.22V16.58C110.55 16.9533 110.637 17.2267 110.81 17.4C110.997 17.56 111.303 17.64 111.73 17.64H113.03V20H111.27C108.91 20 107.73 18.8533 107.73 16.56V11.22H106.41V8.92H107.73V6.18H110.55V8.92H113.03V11.22H110.55ZM125.344 14.22C125.344 14.62 125.317 14.98 125.264 15.3H117.164C117.231 16.1 117.511 16.7267 118.004 17.18C118.497 17.6333 119.104 17.86 119.824 17.86C120.864 17.86 121.604 17.4133 122.044 16.52H125.064C124.744 17.5867 124.131 18.4667 123.224 19.16C122.317 19.84 121.204 20.18 119.884 20.18C118.817 20.18 117.857 19.9467 117.004 19.48C116.164 19 115.504 18.3267 115.024 17.46C114.557 16.5933 114.324 15.5933 114.324 14.46C114.324 13.3133 114.557 12.3067 115.024 11.44C115.491 10.5733 116.144 9.90667 116.984 9.44C117.824 8.97333 118.791 8.74 119.884 8.74C120.937 8.74 121.877 8.96667 122.704 9.42C123.544 9.87333 124.191 10.52 124.644 11.36C125.111 12.1867 125.344 13.14 125.344 14.22ZM122.444 13.42C122.431 12.7 122.171 12.1267 121.664 11.7C121.157 11.26 120.537 11.04 119.804 11.04C119.111 11.04 118.524 11.2533 118.044 11.68C117.577 12.0933 117.291 12.6733 117.184 13.42H122.444Z" fill="#0252CD"/>
<path d="M146.666 9.2666L150.4 12.9999M150.4 12.9999L146.666 16.7333M150.4 12.9999H133.6" stroke="#0252CD" stroke-width="1.67" stroke-linecap="round" stroke-linejoin="round"/>
</svg>
