<svg width="180" height="26" viewBox="0 0 180 26" fill="none" xmlns="http://www.w3.org/2000/svg">
<path fill-rule="evenodd" clip-rule="evenodd" d="M10.2126 4C5.12449 4 1 8.13094 1 13.2283C1 17.3049 3.63941 20.7642 7.3005 21.9839C7.76114 22.0687 7.9288 21.784 7.9288 21.539C7.9288 21.3206 7.92144 20.7393 7.91683 19.9701C5.35388 20.5274 4.8131 18.7328 4.8131 18.7328C4.39485 17.666 3.7905 17.3822 3.7905 17.3822C2.95399 16.8111 3.85407 16.8221 3.85407 16.8221C4.77809 16.8866 5.26452 17.7729 5.26452 17.7729C6.08628 19.1824 7.42119 18.7752 7.94539 18.5393C8.03014 17.9433 8.26783 17.537 8.53131 17.3067C6.48611 17.0736 4.33497 16.2813 4.33497 12.7455C4.33497 11.7386 4.69426 10.9141 5.28294 10.2692C5.18805 10.0361 4.87206 9.09734 5.37323 7.82784C5.37323 7.82784 6.14709 7.5791 7.90669 8.77305C8.65823 8.56809 9.43363 8.46369 10.2126 8.46259C10.9957 8.46627 11.7834 8.56853 12.5194 8.77305C14.2781 7.5791 15.0502 7.82692 15.0502 7.82692C15.5532 9.09734 15.2362 10.0361 15.1423 10.2692C15.7319 10.9141 16.0893 11.7386 16.0893 12.7455C16.0893 16.2905 13.9345 17.0709 11.8829 17.2993C12.2136 17.584 12.5075 18.1469 12.5075 19.0083C12.5075 20.2409 12.4964 21.2368 12.4964 21.539C12.4964 21.7859 12.6622 22.0733 13.1302 21.983C14.9647 21.3677 16.5595 20.1914 17.6891 18.6205C18.8187 17.0495 19.426 15.1632 19.4252 13.2283C19.4252 8.13094 15.2998 4 10.2126 4Z" fill="#0252CD"/>
<path d="M29.2 20.14C28.2267 20.14 27.3467 19.9733 26.56 19.64C25.7867 19.3067 25.1733 18.8267 24.72 18.2C24.2667 17.5733 24.0333 16.8333 24.02 15.98H27.02C27.06 16.5533 27.26 17.0067 27.62 17.34C27.9933 17.6733 28.5 17.84 29.14 17.84C29.7933 17.84 30.3067 17.6867 30.68 17.38C31.0533 17.06 31.24 16.6467 31.24 16.14C31.24 15.7267 31.1133 15.3867 30.86 15.12C30.6067 14.8533 30.2867 14.6467 29.9 14.5C29.5267 14.34 29.0067 14.1667 28.34 13.98C27.4333 13.7133 26.6933 13.4533 26.12 13.2C25.56 12.9333 25.0733 12.54 24.66 12.02C24.26 11.4867 24.06 10.78 24.06 9.9C24.06 9.07333 24.2667 8.35333 24.68 7.74C25.0933 7.12667 25.6733 6.66 26.42 6.34C27.1667 6.00667 28.02 5.84 28.98 5.84C30.42 5.84 31.5867 6.19333 32.48 6.9C33.3867 7.59333 33.8867 8.56667 33.98 9.82H30.9C30.8733 9.34 30.6667 8.94667 30.28 8.64C29.9067 8.32 29.4067 8.16 28.78 8.16C28.2333 8.16 27.7933 8.3 27.46 8.58C27.14 8.86 26.98 9.26667 26.98 9.8C26.98 10.1733 27.1 10.4867 27.34 10.74C27.5933 10.98 27.9 11.18 28.26 11.34C28.6333 11.4867 29.1533 11.66 29.82 11.86C30.7267 12.1267 31.4667 12.3933 32.04 12.66C32.6133 12.9267 33.1067 13.3267 33.52 13.86C33.9333 14.3933 34.14 15.0933 34.14 15.96C34.14 16.7067 33.9467 17.4 33.56 18.04C33.1733 18.68 32.6067 19.1933 31.86 19.58C31.1133 19.9533 30.2267 20.14 29.2 20.14ZM41.4875 20.18C40.4208 20.18 39.4608 19.9467 38.6075 19.48C37.7542 19 37.0808 18.3267 36.5875 17.46C36.1075 16.5933 35.8675 15.5933 35.8675 14.46C35.8675 13.3267 36.1142 12.3267 36.6075 11.46C37.1142 10.5933 37.8008 9.92667 38.6675 9.46C39.5342 8.98 40.5008 8.74 41.5675 8.74C42.6342 8.74 43.6008 8.98 44.4675 9.46C45.3342 9.92667 46.0142 10.5933 46.5075 11.46C47.0142 12.3267 47.2675 13.3267 47.2675 14.46C47.2675 15.5933 47.0075 16.5933 46.4875 17.46C45.9808 18.3267 45.2875 19 44.4075 19.48C43.5408 19.9467 42.5675 20.18 41.4875 20.18ZM41.4875 17.74C41.9942 17.74 42.4675 17.62 42.9075 17.38C43.3608 17.1267 43.7208 16.7533 43.9875 16.26C44.2542 15.7667 44.3875 15.1667 44.3875 14.46C44.3875 13.4067 44.1075 12.6 43.5475 12.04C43.0008 11.4667 42.3275 11.18 41.5275 11.18C40.7275 11.18 40.0542 11.4667 39.5075 12.04C38.9742 12.6 38.7075 13.4067 38.7075 14.46C38.7075 15.5133 38.9675 16.3267 39.4875 16.9C40.0208 17.46 40.6875 17.74 41.4875 17.74ZM59.7814 8.92V20H56.9614V18.6C56.6014 19.08 56.1281 19.46 55.5414 19.74C54.9681 20.0067 54.3414 20.14 53.6614 20.14C52.7947 20.14 52.0281 19.96 51.3614 19.6C50.6947 19.2267 50.1681 18.6867 49.7814 17.98C49.4081 17.26 49.2214 16.4067 49.2214 15.42V8.92H52.0214V15.02C52.0214 15.9 52.2414 16.58 52.6814 17.06C53.1214 17.5267 53.7214 17.76 54.4814 17.76C55.2547 17.76 55.8614 17.5267 56.3014 17.06C56.7414 16.58 56.9614 15.9 56.9614 15.02V8.92H59.7814ZM65.3441 10.64C65.7041 10.0533 66.1707 9.59333 66.7441 9.26C67.3307 8.92667 67.9974 8.76 68.7441 8.76V11.7H68.0041C67.1241 11.7 66.4574 11.9067 66.0041 12.32C65.5641 12.7333 65.3441 13.4533 65.3441 14.48V20H62.5441V8.92H65.3441V10.64ZM69.91 14.46C69.91 13.3133 70.1433 12.3133 70.61 11.46C71.0767 10.5933 71.7233 9.92667 72.55 9.46C73.3767 8.98 74.3233 8.74 75.39 8.74C76.7633 8.74 77.8967 9.08667 78.79 9.78C79.6967 10.46 80.3033 11.42 80.61 12.66H77.59C77.43 12.18 77.1567 11.8067 76.77 11.54C76.3967 11.26 75.93 11.12 75.37 11.12C74.57 11.12 73.9367 11.4133 73.47 12C73.0033 12.5733 72.77 13.3933 72.77 14.46C72.77 15.5133 73.0033 16.3333 73.47 16.92C73.9367 17.4933 74.57 17.78 75.37 17.78C76.5033 17.78 77.2433 17.2733 77.59 16.26H80.61C80.3033 17.46 79.6967 18.4133 78.79 19.12C77.8833 19.8267 76.75 20.18 75.39 20.18C74.3233 20.18 73.3767 19.9467 72.55 19.48C71.7233 19 71.0767 18.3333 70.61 17.48C70.1433 16.6133 69.91 15.6067 69.91 14.46ZM92.9613 14.22C92.9613 14.62 92.9346 14.98 92.8813 15.3H84.7813C84.8479 16.1 85.1279 16.7267 85.6213 17.18C86.1146 17.6333 86.7213 17.86 87.4413 17.86C88.4813 17.86 89.2213 17.4133 89.6613 16.52H92.6813C92.3613 17.5867 91.7479 18.4667 90.8413 19.16C89.9346 19.84 88.8213 20.18 87.5013 20.18C86.4346 20.18 85.4746 19.9467 84.6213 19.48C83.7813 19 83.1213 18.3267 82.6413 17.46C82.1746 16.5933 81.9412 15.5933 81.9412 14.46C81.9412 13.3133 82.1746 12.3067 82.6413 11.44C83.1079 10.5733 83.7613 9.90667 84.6013 9.44C85.4413 8.97333 86.4079 8.74 87.5013 8.74C88.5546 8.74 89.4946 8.96667 90.3213 9.42C91.1613 9.87333 91.8079 10.52 92.2613 11.36C92.7279 12.1867 92.9613 13.14 92.9613 14.22ZM90.0613 13.42C90.0479 12.7 89.7879 12.1267 89.2813 11.7C88.7746 11.26 88.1546 11.04 87.4213 11.04C86.7279 11.04 86.1413 11.2533 85.6613 11.68C85.1946 12.0933 84.9079 12.6733 84.8013 13.42H90.0613ZM99.0906 13C99.0906 11.6267 99.3973 10.4 100.011 9.32C100.637 8.22667 101.484 7.38 102.551 6.78C103.631 6.16667 104.837 5.86 106.171 5.86C107.731 5.86 109.097 6.26 110.271 7.06C111.444 7.86 112.264 8.96667 112.731 10.38H109.511C109.191 9.71333 108.737 9.21333 108.151 8.88C107.577 8.54667 106.911 8.38 106.151 8.38C105.337 8.38 104.611 8.57333 103.971 8.96C103.344 9.33333 102.851 9.86667 102.491 10.56C102.144 11.2533 101.971 12.0667 101.971 13C101.971 13.92 102.144 14.7333 102.491 15.44C102.851 16.1333 103.344 16.6733 103.971 17.06C104.611 17.4333 105.337 17.62 106.151 17.62C106.911 17.62 107.577 17.4533 108.151 17.12C108.737 16.7733 109.191 16.2667 109.511 15.6H112.731C112.264 17.0267 111.444 18.14 110.271 18.94C109.111 19.7267 107.744 20.12 106.171 20.12C104.837 20.12 103.631 19.82 102.551 19.22C101.484 18.6067 100.637 17.76 100.011 16.68C99.3973 15.6 99.0906 14.3733 99.0906 13ZM120.042 20.18C118.976 20.18 118.016 19.9467 117.162 19.48C116.309 19 115.636 18.3267 115.142 17.46C114.662 16.5933 114.422 15.5933 114.422 14.46C114.422 13.3267 114.669 12.3267 115.162 11.46C115.669 10.5933 116.356 9.92667 117.222 9.46C118.089 8.98 119.056 8.74 120.122 8.74C121.189 8.74 122.156 8.98 123.022 9.46C123.889 9.92667 124.569 10.5933 125.062 11.46C125.569 12.3267 125.822 13.3267 125.822 14.46C125.822 15.5933 125.562 16.5933 125.042 17.46C124.536 18.3267 123.842 19 122.962 19.48C122.096 19.9467 121.122 20.18 120.042 20.18ZM120.042 17.74C120.549 17.74 121.022 17.62 121.462 17.38C121.916 17.1267 122.276 16.7533 122.542 16.26C122.809 15.7667 122.942 15.1667 122.942 14.46C122.942 13.4067 122.662 12.6 122.102 12.04C121.556 11.4667 120.882 11.18 120.082 11.18C119.282 11.18 118.609 11.4667 118.062 12.04C117.529 12.6 117.262 13.4067 117.262 14.46C117.262 15.5133 117.522 16.3267 118.042 16.9C118.576 17.46 119.242 17.74 120.042 17.74ZM127.156 14.42C127.156 13.3 127.376 12.3067 127.816 11.44C128.269 10.5733 128.883 9.90667 129.656 9.44C130.429 8.97333 131.289 8.74 132.236 8.74C132.956 8.74 133.643 8.9 134.296 9.22C134.949 9.52667 135.469 9.94 135.856 10.46V5.2H138.696V20H135.856V18.36C135.509 18.9067 135.023 19.3467 134.396 19.68C133.769 20.0133 133.043 20.18 132.216 20.18C131.283 20.18 130.429 19.94 129.656 19.46C128.883 18.98 128.269 18.3067 127.816 17.44C127.376 16.56 127.156 15.5533 127.156 14.42ZM135.876 14.46C135.876 13.78 135.743 13.2 135.476 12.72C135.209 12.2267 134.849 11.8533 134.396 11.6C133.943 11.3333 133.456 11.2 132.936 11.2C132.416 11.2 131.936 11.3267 131.496 11.58C131.056 11.8333 130.696 12.2067 130.416 12.7C130.149 13.18 130.016 13.7533 130.016 14.42C130.016 15.0867 130.149 15.6733 130.416 16.18C130.696 16.6733 131.056 17.0533 131.496 17.32C131.949 17.5867 132.429 17.72 132.936 17.72C133.456 17.72 133.943 17.5933 134.396 17.34C134.849 17.0733 135.209 16.7 135.476 16.22C135.743 15.7267 135.876 15.14 135.876 14.46ZM151.731 14.22C151.731 14.62 151.704 14.98 151.651 15.3H143.551C143.617 16.1 143.897 16.7267 144.391 17.18C144.884 17.6333 145.491 17.86 146.211 17.86C147.251 17.86 147.991 17.4133 148.431 16.52H151.451C151.131 17.5867 150.517 18.4667 149.611 19.16C148.704 19.84 147.591 20.18 146.271 20.18C145.204 20.18 144.244 19.9467 143.391 19.48C142.551 19 141.891 18.3267 141.411 17.46C140.944 16.5933 140.711 15.5933 140.711 14.46C140.711 13.3133 140.944 12.3067 141.411 11.44C141.877 10.5733 142.531 9.90667 143.371 9.44C144.211 8.97333 145.177 8.74 146.271 8.74C147.324 8.74 148.264 8.96667 149.091 9.42C149.931 9.87333 150.577 10.52 151.031 11.36C151.497 12.1867 151.731 13.14 151.731 14.22ZM148.831 13.42C148.817 12.7 148.557 12.1267 148.051 11.7C147.544 11.26 146.924 11.04 146.191 11.04C145.497 11.04 144.911 11.2533 144.431 11.68C143.964 12.0933 143.677 12.6733 143.571 13.42H148.831Z" fill="#0252CD"/>
<path d="M172.666 9.2666L176.4 12.9999M176.4 12.9999L172.666 16.7333M176.4 12.9999H159.6" stroke="#0252CD" stroke-width="1.67" stroke-linecap="round" stroke-linejoin="round"/>
</svg>
