<svg width="104" height="100" viewBox="0 0 104 100" fill="none" xmlns="http://www.w3.org/2000/svg">
<circle cx="50.667" cy="50" r="50" fill="#F3F8FF"/>
<g clip-path="url(#clip0_3316_22563)">
<path d="M43.1019 68.75C40.7079 68.75 38.7675 66.8096 38.7675 64.4155V26.2505H38.102C35.708 26.2505 33.7676 28.1914 33.7676 30.5849V69.4155C33.7676 71.8095 35.708 73.7499 38.102 73.7499H66.8985C69.292 73.7499 71.2329 71.8095 71.2329 69.4155V68.75H43.1019Z" fill="#D4E1F4"/>
<path d="M58.1488 59.5679C57.663 59.5674 57.2211 59.2857 57.016 58.8448C56.8109 58.4044 56.8803 57.8848 57.1933 57.5128L60.0004 54.1774L57.1928 50.842C56.7567 50.3132 56.828 49.5319 57.3519 49.0905C57.8764 48.6491 58.6586 48.7126 59.1053 49.2321L62.5902 53.3727C62.9818 53.838 62.9818 54.5172 62.5902 54.9825L59.1058 59.1226C58.8685 59.4053 58.518 59.5684 58.1488 59.5679Z" fill="#1AE5BE"/>
<path d="M46.8517 59.5679C46.4826 59.5684 46.1325 59.4053 45.8952 59.1226L42.4099 54.9825C42.0183 54.5172 42.0183 53.838 42.4099 53.3727L45.8952 49.2321C46.3415 48.7126 47.1237 48.6491 47.6481 49.0905C48.1725 49.5319 48.2433 50.3132 47.8073 50.842L45.0007 54.1774L47.8078 57.5128C48.1208 57.8844 48.1901 58.4039 47.985 58.8448C47.78 59.2852 47.3381 59.5674 46.8522 59.5674L46.8517 59.5679Z" fill="#1AE5BE"/>
<path d="M51.4487 62.3282C50.7578 62.3282 50.1978 61.7686 50.1973 61.0782C50.1968 61.0147 50.2017 60.9522 50.211 60.8897L52.3184 47.0901C52.4229 46.4075 53.0605 45.9388 53.7432 46.0428C54.4253 46.1473 54.894 46.7849 54.79 47.4676L52.6826 61.2672C52.5894 61.8766 52.0654 62.3272 51.4487 62.3282Z" fill="#0635C9"/>
<path d="M72.4849 36.4017C72.4849 36.4017 72.4805 36.4007 72.4805 36.4002C72.4756 36.3583 72.4683 36.3163 72.4585 36.2748C72.4585 36.2738 72.4575 36.2733 72.457 36.2728C72.4482 36.2318 72.437 36.1913 72.4248 36.1517C72.4233 36.1478 72.4214 36.1439 72.4199 36.139C72.4082 36.1034 72.395 36.0682 72.3799 36.034C72.3765 36.0257 72.3721 36.0174 72.3677 36.0091C72.354 35.9798 72.3398 35.951 72.3242 35.9227C72.3179 35.911 72.3105 35.8998 72.3032 35.888C72.2891 35.8646 72.2749 35.8412 72.2593 35.8182C72.2495 35.805 72.2393 35.7919 72.2295 35.7787C72.2144 35.7591 72.1992 35.7391 72.1831 35.7206C72.1719 35.7069 72.1597 35.6942 72.1475 35.681C72.1309 35.6634 72.1143 35.6464 72.0977 35.6293C72.0923 35.6244 72.0874 35.6185 72.082 35.6131L60.9694 25.3325C60.9611 25.3242 60.9513 25.3174 60.9425 25.3096C60.9274 25.2969 60.9122 25.2837 60.8966 25.2715C60.881 25.2588 60.8663 25.248 60.8507 25.2368C60.8351 25.2256 60.817 25.2124 60.7999 25.2012C60.7848 25.1914 60.7692 25.1826 60.7536 25.1733C60.7345 25.1621 60.716 25.1514 60.6959 25.1411C60.6813 25.1333 60.6666 25.1265 60.6515 25.1196C60.6305 25.1099 60.6095 25.0996 60.588 25.0913C60.5729 25.085 60.5582 25.0801 60.5431 25.0747C60.5206 25.0669 60.4987 25.0586 60.4757 25.0518C60.4596 25.0474 60.4435 25.0435 60.4274 25.0396C60.4049 25.0337 60.3834 25.0278 60.3605 25.0234C60.34 25.0195 60.319 25.0171 60.298 25.0142C60.2799 25.0112 60.2614 25.0078 60.2428 25.0063C60.2023 25.0024 60.1618 25 60.1208 25H38.1025C35.0161 25.002 32.5122 27.499 32.501 30.5854V69.4155C32.5122 72.5014 35.0161 74.9979 38.1025 74.9999H66.899C69.9849 74.9979 72.4888 72.5014 72.5005 69.4155V36.5316C72.4976 36.4881 72.4922 36.4447 72.4849 36.4017ZM61.3756 29.1098L68.0415 35.2504H62.2877C61.7975 35.2645 61.3893 34.8783 61.3756 34.3881C61.3756 34.3798 61.3756 34.3715 61.3756 34.3641V29.1098ZM66.899 72.4999H38.1025C36.3964 72.4994 35.0107 71.1215 35.0009 69.4155V30.5854C35.0107 28.8793 36.3964 27.5009 38.1025 27.5005H58.8757V34.3641C58.8781 36.2367 60.3981 37.7528 62.2706 37.7503H70.0005V69.4155C69.9903 71.1215 68.605 72.4994 66.899 72.4999Z" fill="#0635C9"/>
</g>
<defs>
<clipPath id="clip0_3316_22563">
<rect width="50" height="50" fill="white" transform="translate(27.5 25)"/>
</clipPath>
</defs>
</svg>
