<svg width="104" height="100" viewBox="0 0 104 100" fill="none" xmlns="http://www.w3.org/2000/svg">
<circle cx="50.668" cy="50" r="50" fill="#F3F8FF"/>
<g clip-path="url(#clip0_3316_22518)">
<path d="M33.75 42.418C33.75 39.6567 35.9888 37.418 38.75 37.418H76.25C76.3765 37.418 76.501 37.4243 76.625 37.4336V36.9717C76.625 34.2104 74.3862 31.9717 71.625 31.9717H34.125C31.3638 31.9717 29.125 34.2104 29.125 36.9717V62.1357C29.126 64.7515 31.1421 66.9243 33.75 67.1206V42.418Z" fill="#D4E1F4"/>
<path d="M47.5361 50.4204C43.3267 50.4204 39.9141 47.0078 39.9141 42.7983C39.9141 38.5889 43.3267 35.1763 47.5361 35.1763C51.7456 35.1763 55.1582 38.5889 55.1582 42.7983C55.1533 47.0059 51.7437 50.416 47.5361 50.4204ZM47.5361 37.6768C44.7075 37.6768 42.4141 39.9697 42.4141 42.7988C42.4141 45.6274 44.7075 47.9204 47.5361 47.9204C50.3647 47.9204 52.6582 45.6274 52.6582 42.7988C52.6548 39.9712 50.3638 37.6797 47.5361 37.6768Z" fill="#1AE5BE"/>
<path d="M77.5 37.375C77.5 33.9233 74.7017 31.125 71.25 31.125H33.75C30.2983 31.125 27.5 33.9233 27.5 37.375V62.5C27.5 65.9517 30.2983 68.75 33.75 68.75H71.25C74.7017 68.75 77.5 65.9517 77.5 62.5V37.375ZM33.75 33.625H71.25C73.3179 33.625 75 35.3501 75 37.418V60.3394L63.8945 53.2056C62.2363 52.0415 59.9756 52.2671 58.5796 53.7358L55.0337 57.4307L46.5859 52.1899C45.1274 51.2881 43.2632 51.3833 41.9038 52.4287L30 60.3125V37.418C30 35.3501 31.6821 33.625 33.75 33.625ZM30.0645 63.2905L43.3257 54.4966C43.3555 54.4766 43.3848 54.4502 43.4131 54.4277C43.9463 54.0039 44.688 53.9595 45.2681 54.3169L53.2642 59.2979L46.4922 66.375H33.75C31.9409 66.3628 30.395 65.0688 30.0645 63.2905ZM71.25 66.375H49.957L60.3833 55.4883C60.9312 54.9058 61.8242 54.8154 62.478 55.2759C62.4927 55.2861 62.5078 55.291 62.523 55.3008L74.9356 63.2935C74.6045 65.0713 73.0581 66.3643 71.25 66.375Z" fill="#0635C9"/>
</g>
<defs>
<clipPath id="clip0_3316_22518">
<rect width="50" height="50" fill="white" transform="translate(27.5 25)"/>
</clipPath>
</defs>
</svg>
