<svg width="266" height="16" viewBox="0 0 266 16" fill="none" xmlns="http://www.w3.org/2000/svg">
<path d="M20.04 1.04L16.14 15H12.84L10.22 5.06L7.48 15L4.2 15.02L0.44 1.04H3.44L5.9 11.88L8.74 1.04H11.86L14.54 11.82L17.02 1.04H20.04ZM30.6683 3.3V6.8H35.3683V9.02H30.6683V12.72H35.9683V15H27.8683V1.02H35.9683V3.3H30.6683ZM52.4328 7.84C53.2195 7.98667 53.8661 8.38 54.3728 9.02C54.8795 9.66 55.1328 10.3933 55.1328 11.22C55.1328 11.9667 54.9461 12.6267 54.5728 13.2C54.2128 13.76 53.6861 14.2 52.9928 14.52C52.2995 14.84 51.4795 15 50.5328 15H44.5128V1.04H50.2728C51.2195 1.04 52.0328 1.19333 52.7128 1.5C53.4061 1.80667 53.9261 2.23333 54.2728 2.78C54.6328 3.32667 54.8128 3.94667 54.8128 4.64C54.8128 5.45333 54.5928 6.13333 54.1528 6.68C53.7261 7.22667 53.1528 7.61333 52.4328 7.84ZM47.3128 6.8H49.8728C50.5395 6.8 51.0528 6.65333 51.4128 6.36C51.7728 6.05333 51.9528 5.62 51.9528 5.06C51.9528 4.5 51.7728 4.06667 51.4128 3.76C51.0528 3.45333 50.5395 3.3 49.8728 3.3H47.3128V6.8ZM50.1328 12.72C50.8128 12.72 51.3395 12.56 51.7128 12.24C52.0995 11.92 52.2928 11.4667 52.2928 10.88C52.2928 10.28 52.0928 9.81333 51.6928 9.48C51.2928 9.13333 50.7528 8.96 50.0728 8.96H47.3128V12.72H50.1328ZM79.01 1.04C80.4767 1.04 81.7633 1.32667 82.87 1.9C83.99 2.47333 84.85 3.29333 85.45 4.36C86.0633 5.41333 86.37 6.64 86.37 8.04C86.37 9.44 86.0633 10.6667 85.45 11.72C84.85 12.76 83.99 13.5667 82.87 14.14C81.7633 14.7133 80.4767 15 79.01 15H74.13V1.04H79.01ZM78.91 12.62C80.3767 12.62 81.51 12.22 82.31 11.42C83.11 10.62 83.51 9.49333 83.51 8.04C83.51 6.58667 83.11 5.45333 82.31 4.64C81.51 3.81333 80.3767 3.4 78.91 3.4H76.93V12.62H78.91ZM97.2659 3.3V6.8H101.966V9.02H97.2659V12.72H102.566V15H94.4659V1.02H102.566V3.3H97.2659ZM123.65 1.04L118.53 15H115.13L110.01 1.04H113.01L116.85 12.14L120.67 1.04H123.65ZM152.275 5.36C152.275 6.10667 152.095 6.80667 151.735 7.46C151.388 8.11333 150.835 8.64 150.075 9.04C149.328 9.44 148.382 9.64 147.235 9.64H144.895V15H142.095V1.04H147.235C148.315 1.04 149.235 1.22667 149.995 1.6C150.755 1.97333 151.322 2.48667 151.695 3.14C152.082 3.79333 152.275 4.53333 152.275 5.36ZM147.115 7.38C147.888 7.38 148.462 7.20667 148.835 6.86C149.208 6.5 149.395 6 149.395 5.36C149.395 4 148.635 3.32 147.115 3.32H144.895V7.38H147.115ZM167.463 15L164.383 9.56H163.063V15H160.263V1.04H165.503C166.583 1.04 167.503 1.23333 168.263 1.62C169.023 1.99333 169.589 2.50667 169.963 3.16C170.349 3.8 170.543 4.52 170.543 5.32C170.543 6.24 170.276 7.07333 169.743 7.82C169.209 8.55333 168.416 9.06 167.363 9.34L170.703 15H167.463ZM163.063 7.46H165.403C166.163 7.46 166.729 7.28 167.103 6.92C167.476 6.54667 167.663 6.03333 167.663 5.38C167.663 4.74 167.476 4.24667 167.103 3.9C166.729 3.54 166.163 3.36 165.403 3.36H163.063V7.46ZM185.555 15.14C184.249 15.14 183.049 14.8333 181.955 14.22C180.862 13.6067 179.995 12.76 179.355 11.68C178.715 10.5867 178.395 9.35333 178.395 7.98C178.395 6.62 178.715 5.4 179.355 4.32C179.995 3.22667 180.862 2.37333 181.955 1.76C183.049 1.14667 184.249 0.84 185.555 0.84C186.875 0.84 188.075 1.14667 189.155 1.76C190.249 2.37333 191.109 3.22667 191.735 4.32C192.375 5.4 192.695 6.62 192.695 7.98C192.695 9.35333 192.375 10.5867 191.735 11.68C191.109 12.76 190.249 13.6067 189.155 14.22C188.062 14.8333 186.862 15.14 185.555 15.14ZM185.555 12.64C186.395 12.64 187.135 12.4533 187.775 12.08C188.415 11.6933 188.915 11.1467 189.275 10.44C189.635 9.73333 189.815 8.91333 189.815 7.98C189.815 7.04667 189.635 6.23333 189.275 5.54C188.915 4.83333 188.415 4.29333 187.775 3.92C187.135 3.54667 186.395 3.36 185.555 3.36C184.715 3.36 183.969 3.54667 183.315 3.92C182.675 4.29333 182.175 4.83333 181.815 5.54C181.455 6.23333 181.275 7.04667 181.275 7.98C181.275 8.91333 181.455 9.73333 181.815 10.44C182.175 11.1467 182.675 11.6933 183.315 12.08C183.969 12.4533 184.715 12.64 185.555 12.64ZM208.918 1.04V10.84C208.918 12.2 208.525 13.26 207.738 14.02C206.952 14.7667 205.898 15.14 204.578 15.14C203.245 15.14 202.165 14.7533 201.338 13.98C200.525 13.2067 200.118 12.1267 200.118 10.74H202.918C202.932 11.34 203.072 11.8067 203.338 12.14C203.618 12.4733 204.018 12.64 204.538 12.64C205.045 12.64 205.432 12.48 205.698 12.16C205.965 11.84 206.098 11.4 206.098 10.84V1.04H208.918ZM220.985 3.3V6.8H225.685V9.02H220.985V12.72H226.285V15H218.185V1.02H226.285V3.3H220.985ZM234.149 8C234.149 6.62667 234.456 5.4 235.069 4.32C235.696 3.22667 236.543 2.38 237.609 1.78C238.689 1.16667 239.896 0.86 241.229 0.86C242.789 0.86 244.156 1.26 245.329 2.06C246.503 2.86 247.323 3.96667 247.789 5.38H244.569C244.249 4.71333 243.796 4.21333 243.209 3.88C242.636 3.54667 241.969 3.38 241.209 3.38C240.396 3.38 239.669 3.57333 239.029 3.96C238.403 4.33333 237.909 4.86667 237.549 5.56C237.203 6.25333 237.029 7.06667 237.029 8C237.029 8.92 237.203 9.73333 237.549 10.44C237.909 11.1333 238.403 11.6733 239.029 12.06C239.669 12.4333 240.396 12.62 241.209 12.62C241.969 12.62 242.636 12.4533 243.209 12.12C243.796 11.7733 244.249 11.2667 244.569 10.6H247.789C247.323 12.0267 246.503 13.14 245.329 13.94C244.169 14.7267 242.803 15.12 241.229 15.12C239.896 15.12 238.689 14.82 237.609 14.22C236.543 13.6067 235.696 12.76 235.069 11.68C234.456 10.6 234.149 9.37333 234.149 8ZM265.681 1.04V3.3H261.961V15H259.161V3.3H255.441V1.04H265.681Z" fill="#0252CD"/>
</svg>
