<svg width="94" height="94" viewBox="0 0 94 94" fill="none" xmlns="http://www.w3.org/2000/svg">
<circle cx="47.2625" cy="47.3898" r="46.6102" fill="#192333"/>
<path d="M67.7718 58.9041C66.2798 59.2756 65.357 58.9204 64.5289 57.7027L58.6404 49.724L57.7893 48.6193L50.9126 57.7291C50.1269 58.825 49.3027 59.302 47.8363 58.9141L56.6421 47.3376L48.4439 36.8809C49.8538 36.6122 50.828 36.7491 51.6932 37.9855L57.8009 46.0635L63.9534 38.0295C64.7417 36.9336 65.589 36.5168 67.004 36.921L63.8252 41.0485L59.5185 46.5405C59.0057 47.1682 59.0762 47.5975 59.5479 48.2038L67.7718 58.9041ZM26.7651 47.1443L27.4855 43.6746C29.4466 36.8081 37.4834 33.9547 43.0258 38.1977C46.2649 40.6933 47.0698 44.2232 46.9096 48.1774H28.6519C28.3776 55.2951 33.6086 59.5907 40.2777 57.399C42.6169 56.6294 43.9948 54.8356 44.6844 52.5911C45.0343 51.4663 45.6137 51.2906 46.693 51.612C46.1418 54.4188 44.8985 56.7638 42.2708 58.2312C38.3447 60.428 32.7408 59.7175 29.7927 56.6646C28.0367 54.8934 27.3112 52.6489 26.9856 50.2487C26.9343 49.852 26.8318 49.4742 26.7549 49.0938C26.7617 48.4444 26.7651 47.795 26.7651 47.1456V47.1443ZM28.6852 46.6673H45.1843C45.0766 41.5205 41.8043 37.865 37.3321 37.8337C32.4229 37.796 28.898 41.3648 28.6852 46.6673Z" fill="white"/>
</svg>
