<svg width="94" height="94" viewBox="0 0 94 94" fill="none" xmlns="http://www.w3.org/2000/svg">
<circle cx="46.9764" cy="47.3898" r="46.6102" fill="#192333"/>
<g clip-path="url(#clip0_3316_23994)">
<path d="M46.977 70.6084C46.3358 70.6084 45.7375 70.4374 45.1818 70.1382L39.4973 66.7617C38.6424 66.2915 39.0699 66.1206 39.3263 66.0351C40.4803 65.6504 40.694 65.5649 41.8908 64.8811C42.019 64.7956 42.19 64.8384 42.3182 64.9238L46.6778 67.531C46.8487 67.6165 47.0624 67.6165 47.1907 67.531L64.2444 57.6578C64.4153 57.5724 64.5008 57.4014 64.5008 57.1877V37.4841C64.5008 37.2703 64.4153 37.0994 64.2444 37.0139L47.1907 27.1834C47.0197 27.098 46.806 27.098 46.6778 27.1834L29.6241 37.0139C29.4531 37.0994 29.3676 37.3131 29.3676 37.4841V57.1877C29.3676 57.3587 29.4531 57.5724 29.6241 57.6578L34.2829 60.3505C36.8046 61.6328 38.386 60.1368 38.386 58.6409V39.1937C38.386 38.9372 38.5997 38.6808 38.8989 38.6808H41.0787C41.3351 38.6808 41.5916 38.8945 41.5916 39.1937V58.6409C41.5916 62.0174 39.7537 63.9835 36.5481 63.9835C35.5651 63.9835 34.7957 63.9835 32.6159 62.915L28.1281 60.3505C27.0169 59.7094 26.333 58.5127 26.333 57.2304V37.5268C26.333 36.2446 27.0169 35.0478 28.1281 34.4067L45.1818 24.5335C46.2504 23.9351 47.7036 23.9351 48.7721 24.5335L65.8258 34.4067C66.937 35.0478 67.6209 36.2446 67.6209 37.5268V57.2304C67.6209 58.5127 66.937 59.7094 65.8258 60.3505L48.7721 70.2237C48.2164 70.4802 47.5753 70.6084 46.977 70.6084ZM52.2341 57.0595C44.7544 57.0595 43.2157 53.6402 43.2157 50.7338C43.2157 50.4773 43.4294 50.2209 43.7286 50.2209H45.9512C46.2076 50.2209 46.4213 50.3919 46.4213 50.6483C46.7633 52.9136 47.7463 54.0249 52.2769 54.0249C55.8671 54.0249 57.4058 53.2128 57.4058 51.2894C57.4058 50.1782 56.9784 49.3661 51.3793 48.8104C46.7205 48.3403 43.8141 47.3145 43.8141 43.596C43.8141 40.134 46.7205 38.0824 51.593 38.0824C57.0639 38.0824 59.7565 39.963 60.0985 44.0662C60.0985 44.1944 60.0557 44.3226 59.9702 44.4508C59.8848 44.5363 59.7565 44.6218 59.6283 44.6218H57.4058C57.1921 44.6218 56.9784 44.4508 56.9356 44.2371C56.4227 41.8864 55.0978 41.117 51.593 41.117C47.6608 41.117 47.1907 42.4848 47.1907 43.5105C47.1907 44.75 47.7463 45.1347 53.0462 45.8186C58.3033 46.5024 60.7823 47.4855 60.7823 51.1612C60.7396 54.9224 57.6622 57.0595 52.2341 57.0595Z" fill="#539E43"/>
</g>
<defs>
<clipPath id="clip0_3316_23994">
<rect width="46.6102" height="46.6102" fill="white" transform="translate(23.6709 24.0847)"/>
</clipPath>
</defs>
</svg>
